<svg width="411" height="760" viewBox="0 0 411 760" fill="none" xmlns="http://www.w3.org/2000/svg">
<rect width="411" height="760" fill="#423F3B"/>
<path d="M359.104 282.966L386.426 282.966L400.091 306.874L386.426 330.783H359.104L345.439 306.874L359.104 282.966Z" fill="#FF6666" stroke="#423F3B"/>
<path d="M359.16 380.502L386.482 380.502L400.147 404.411L386.482 428.319H359.16L345.494 404.411L359.16 380.502Z" fill="#689773" stroke="#423F3B"/>
<path d="M359.153 331.697L386.475 331.697L400.141 355.606L386.475 379.514H359.153L345.488 355.606L359.153 331.697Z" fill="#FF6666" stroke="#423F3B"/>
<path d="M317.3 307.288L344.622 307.288L358.287 331.197L344.622 355.105H317.3L303.634 331.197L317.3 307.288Z" fill="#689773" stroke="#423F3B"/>
<path d="M275.446 282.88L302.768 282.88L316.433 306.788L302.768 330.697H275.446L261.781 306.788L275.446 282.88Z" fill="#FF6666" stroke="#423F3B"/>
<path d="M233.599 307.277L260.921 307.277L274.587 331.185L260.921 355.093H233.599L219.934 331.185L233.599 307.277Z" fill="#689773" stroke="#423F3B"/>
<path d="M359.161 429.32L386.483 429.32L400.148 453.228L386.483 477.137H359.161L345.495 453.228L359.161 429.32Z" fill="#FF6666" stroke="#423F3B"/>
<path d="M317.314 453.716L344.636 453.716L358.302 477.625L344.636 501.533H317.314L303.649 477.625L317.314 453.716Z" fill="#FF6666" stroke="#423F3B"/>
<path d="M191.747 331.686L219.069 331.686L232.734 355.594L219.069 379.503H191.747L178.081 355.594L191.747 331.686Z" fill="#FF6666" stroke="#423F3B"/>
<path d="M275.461 429.308L302.783 429.308L316.448 453.216L302.783 477.125H275.461L261.795 453.216L275.461 429.308Z" fill="#FF6666" stroke="#423F3B"/>
<path d="M233.607 404.899L260.929 404.899L274.595 428.808L260.929 452.716H233.607L219.942 428.808L233.607 404.899Z" fill="#FF6666" stroke="#423F3B"/>
<path d="M191.754 380.491L219.076 380.491L232.741 404.399L219.076 428.308H191.754L178.088 404.399L191.754 380.491Z" fill="#689773" stroke="#423F3B"/>
<path d="M317.363 502.447L344.685 502.447L358.35 526.356L344.685 550.264H317.363L303.698 526.356L317.363 502.447Z" fill="#689773" stroke="#423F3B"/>
<path d="M317.37 551.253L344.692 551.253L358.358 575.161L344.692 599.07H317.37L303.705 575.161L317.37 551.253Z" fill="#FF6666" stroke="#423F3B"/>
<path d="M233.656 453.631L260.978 453.631L274.643 477.539L260.978 501.448H233.656L219.991 477.539L233.656 453.631Z" fill="#689773" stroke="#423F3B"/>
<path d="M191.802 429.222L219.125 429.222L232.79 453.13L219.125 477.039H191.802L178.137 453.13L191.802 429.222Z" fill="#FF6666" stroke="#423F3B"/>
<path d="M233.663 502.436L260.985 502.436L274.65 526.344L260.985 550.252H233.663L219.998 526.344L233.663 502.436Z" fill="#FF6666" stroke="#423F3B"/>
<path d="M191.81 478.027L219.132 478.027L232.797 501.935L219.132 525.844H191.81L178.144 501.935L191.81 478.027Z" fill="#FF6666" stroke="#423F3B"/>
<path d="M275.49 575.646L302.812 575.646L316.478 599.555L302.812 623.463H275.49L261.825 599.555L275.49 575.646Z" fill="#689773" stroke="#423F3B"/>
<path d="M317.35 648.86L344.672 648.86L358.338 672.768L344.672 696.677H317.35L303.685 672.768L317.35 648.86Z" fill="#FF6666" stroke="#423F3B"/>
<path d="M233.637 551.238L260.959 551.238L274.624 575.146L260.959 599.055H233.637L219.971 575.146L233.637 551.238Z" fill="#FF6666" stroke="#423F3B"/>
<path d="M317.399 697.591L344.721 697.591L358.387 721.499L344.721 745.408H317.399L303.734 721.499L317.399 697.591Z" fill="#FF6666" stroke="#423F3B"/>
<path d="M233.693 648.774L261.015 648.774L274.68 672.682L261.015 696.591H233.693L220.027 672.682L233.693 648.774Z" fill="#689773" stroke="#423F3B"/>
<path d="M233.699 697.579L261.021 697.579L274.687 721.487L261.021 745.396H233.699L220.034 721.487L233.699 697.579Z" fill="#FF6666" stroke="#423F3B"/>
<path d="M66.3781 355.101L52.7128 331.192L66.3781 307.284L93.7002 307.284L107.366 331.192L93.7002 355.101H66.3781Z" fill="#FF6666" stroke="#423F3B"/>
<path d="M108.225 379.497L94.5594 355.589L108.225 331.68L135.547 331.68L149.212 355.589L135.547 379.497H108.225Z" fill="#FF6666" stroke="#423F3B"/>
<path d="M24.517 477.132L10.8517 453.224L24.517 429.315L51.8391 429.315L65.5045 453.224L51.8391 477.132H24.517Z" fill="#689773" stroke="#423F3B"/>
<path d="M66.3635 501.529L52.6981 477.62L66.3635 453.712L93.6855 453.712L107.351 477.62L93.6855 501.529H66.3635Z" fill="#FF6666" stroke="#423F3B"/>
<path d="M108.224 428.315L94.5587 404.407L108.224 380.498L135.546 380.498L149.212 404.407L135.546 428.315H108.224Z" fill="#FF6666" stroke="#423F3B"/>
<path d="M108.217 477.12L94.5516 453.212L108.217 429.303L135.539 429.303L149.204 453.212L135.539 477.12H108.217Z" fill="#689773" stroke="#423F3B"/>
<path d="M66.3146 550.26L52.6493 526.351L66.3146 502.443L93.6367 502.443L107.302 526.351L93.6367 550.26H66.3146Z" fill="#689773" stroke="#423F3B"/>
<path d="M66.3078 599.065L52.6424 575.157L66.3078 551.248L93.6299 551.248L107.295 575.157L93.6299 599.065H66.3078Z" fill="#FF6666" stroke="#423F3B"/>
<path d="M108.161 574.656L94.496 550.748L108.161 526.839L135.483 526.839L149.149 550.748L135.483 574.656H108.161Z" fill="#FF6666" stroke="#423F3B"/>
<path d="M150.022 501.443L136.356 477.534L150.022 453.626L177.344 453.626L191.009 477.534L177.344 501.443H150.022Z" fill="#FF6666" stroke="#423F3B"/>
<path d="M150.015 550.248L136.349 526.339L150.015 502.431L177.337 502.431L191.002 526.339L177.337 550.248H150.015Z" fill="#FF6666" stroke="#423F3B"/>
<path d="M24.4736 721.08L10.8082 697.172L24.4736 673.264L51.7957 673.264L65.461 697.172L51.7957 721.08H24.4736Z" fill="#689773" stroke="#423F3B"/>
<path d="M150.034 647.855L136.369 623.947L150.034 600.038L177.356 600.038L191.022 623.947L177.356 647.855H150.034Z" fill="#689773" stroke="#423F3B"/>
<path d="M150.041 599.05L136.376 575.142L150.041 551.233L177.363 551.233L191.028 575.142L177.363 599.05H150.041Z" fill="#FF6666" stroke="#423F3B"/>
<path d="M66.2783 745.403L52.6129 721.495L66.2783 697.586L93.6003 697.586L107.266 721.495L93.6003 745.403H66.2783Z" fill="#FF6666" stroke="#423F3B"/>
<path d="M149.985 696.586L136.32 672.678L149.985 648.769L177.307 648.769L190.972 672.678L177.307 696.586H149.985Z" fill="#FF6666" stroke="#423F3B"/>
<path d="M107.842 672.678L93.8905 697.086L107.842 721.495H135.744L149.695 697.086L135.744 672.678L107.842 672.678Z" fill="#689773"/>
<path d="M107.842 672.678L93.8905 697.086L107.842 721.495H135.744L149.695 697.086L135.744 672.678L107.842 672.678Z" fill="#689773"/>
<path d="M107.842 672.678L93.8905 697.086L107.842 721.495H135.744L149.695 697.086L135.744 672.678L107.842 672.678Z" stroke="#423F3B"/>
<path d="M149.688 697.074L135.737 721.483L149.688 745.891H177.59L191.542 721.483L177.59 697.074L149.688 697.074Z" fill="#FF6666"/>
<path d="M149.688 697.074L135.737 721.483L149.688 745.891H177.59L191.542 721.483L177.59 697.074L149.688 697.074Z" fill="#FF6666"/>
<path d="M149.688 697.074L135.737 721.483L149.688 745.891H177.59L191.542 721.483L177.59 697.074L149.688 697.074Z" stroke="#423F3B"/>
<path d="M386.78 477.625L400.731 502.033L386.78 526.442H358.878L344.926 502.033L358.878 477.625L386.78 477.625Z" fill="#FF6666"/>
<path d="M386.78 477.625L400.731 502.033L386.78 526.442H358.878L344.926 502.033L358.878 477.625L386.78 477.625Z" fill="#FF6666"/>
<path d="M386.78 477.625L400.731 502.033L386.78 526.442H358.878L344.926 502.033L358.878 477.625L386.78 477.625Z" stroke="#423F3B"/>
<path d="M386.829 526.356L400.78 550.765L386.829 575.173H358.926L344.975 550.765L358.926 526.356L386.829 526.356Z" fill="#689773"/>
<path d="M386.829 526.356L400.78 550.765L386.829 575.173H358.926L344.975 550.765L358.926 526.356L386.829 526.356Z" fill="#689773"/>
<path d="M386.829 526.356L400.78 550.765L386.829 575.173H358.926L344.975 550.765L358.926 526.356L386.829 526.356Z" fill="#689773"/>
<path d="M386.829 526.356L400.78 550.765L386.829 575.173H358.926L344.975 550.765L358.926 526.356L386.829 526.356Z" stroke="#423F3B"/>
<path d="M386.836 575.161L400.787 599.57L386.836 623.978H358.933L344.982 599.57L358.933 575.161L386.836 575.161Z" fill="#FF6666"/>
<path d="M386.836 575.161L400.787 599.57L386.836 623.978H358.933L344.982 599.57L358.933 575.161L386.836 575.161Z" fill="#FF6666"/>
<path d="M386.836 575.161L400.787 599.57L386.836 623.978H358.933L344.982 599.57L358.933 575.161L386.836 575.161Z" fill="#FF6666"/>
<path d="M386.836 575.161L400.787 599.57L386.836 623.978H358.933L344.982 599.57L358.933 575.161L386.836 575.161Z" stroke="#423F3B"/>
<path d="M386.809 623.963L400.761 648.372L386.809 672.78H358.907L344.956 648.372L358.907 623.963L386.809 623.963Z" fill="#689773"/>
<path d="M386.809 623.963L400.761 648.372L386.809 672.78H358.907L344.956 648.372L358.907 623.963L386.809 623.963Z" fill="#689773"/>
<path d="M386.809 623.963L400.761 648.372L386.809 672.78H358.907L344.956 648.372L358.907 623.963L386.809 623.963Z" fill="#689773"/>
<path d="M386.809 623.963L400.761 648.372L386.809 672.78H358.907L344.956 648.372L358.907 623.963L386.809 623.963Z" stroke="#423F3B"/>
<path d="M386.816 672.768L400.768 697.177L386.816 721.585H358.914L344.963 697.177L358.914 672.768L386.816 672.768Z" fill="#FF6666"/>
<path d="M386.816 672.768L400.768 697.177L386.816 721.585H358.914L344.963 697.177L358.914 672.768L386.816 672.768Z" fill="#FF6666"/>
<path d="M386.816 672.768L400.768 697.177L386.816 721.585H358.914L344.963 697.177L358.914 672.768L386.816 672.768Z" fill="#FF6666"/>
<path d="M386.816 672.768L400.768 697.177L386.816 721.585H358.914L344.963 697.177L358.914 672.768L386.816 672.768Z" stroke="#423F3B"/>
<path d="M303.158 672.682L317.109 697.091L303.158 721.499H275.256L261.305 697.091L275.256 672.682L303.158 672.682Z" fill="#FF6666"/>
<path d="M303.158 672.682L317.109 697.091L303.158 721.499H275.256L261.305 697.091L275.256 672.682L303.158 672.682Z" fill="#FF6666"/>
<path d="M303.158 672.682L317.109 697.091L303.158 721.499H275.256L261.305 697.091L275.256 672.682L303.158 672.682Z" fill="#FF6666"/>
<path d="M303.158 672.682L317.109 697.091L303.158 721.499H275.256L261.305 697.091L275.256 672.682L303.158 672.682Z" stroke="#423F3B"/>
<path d="M219.458 672.671L233.409 697.079L219.458 721.487H191.556L177.605 697.079L191.556 672.671L219.458 672.671Z" fill="#FF6666"/>
<path d="M219.458 672.671L233.409 697.079L219.458 721.487H191.556L177.605 697.079L191.556 672.671L219.458 672.671Z" fill="#FF6666"/>
<path d="M219.458 672.671L233.409 697.079L219.458 721.487H191.556L177.605 697.079L191.556 672.671L219.458 672.671Z" fill="#FF6666"/>
<path d="M219.458 672.671L233.409 697.079L219.458 721.487H191.556L177.605 697.079L191.556 672.671L219.458 672.671Z" stroke="#423F3B"/>
<path d="M24.2198 477.62L10.2687 502.029L24.2198 526.437H52.1222L66.0733 502.029L52.1222 477.62L24.2198 477.62Z" fill="#FF6666"/>
<path d="M24.2198 477.62L10.2687 502.029L24.2198 526.437H52.1222L66.0733 502.029L52.1222 477.62L24.2198 477.62Z" fill="#FF6666"/>
<path d="M24.2198 477.62L10.2687 502.029L24.2198 526.437H52.1222L66.0733 502.029L52.1222 477.62L24.2198 477.62Z" stroke="#423F3B"/>
<path d="M24.1642 575.156L10.213 599.565L24.1642 623.973H52.0665L66.0176 599.565L52.0665 575.156L24.1642 575.156Z" fill="#FF6666"/>
<path d="M24.1642 575.156L10.213 599.565L24.1642 623.973H52.0665L66.0176 599.565L52.0665 575.156L24.1642 575.156Z" fill="#FF6666"/>
<path d="M24.1642 575.156L10.213 599.565L24.1642 623.973H52.0665L66.0176 599.565L52.0665 575.156L24.1642 575.156Z" fill="#FF6666"/>
<path d="M24.1642 575.156L10.213 599.565L24.1642 623.973H52.0665L66.0176 599.565L52.0665 575.156L24.1642 575.156Z" fill="#FF6666"/>
<path d="M24.1642 575.156L10.213 599.565L24.1642 623.973H52.0665L66.0176 599.565L52.0665 575.156L24.1642 575.156Z" stroke="#423F3B"/>
<path d="M24.1903 623.959L10.2391 648.367L24.1903 672.776H52.0926L66.0438 648.367L52.0926 623.959L24.1903 623.959Z" fill="#FF6666"/>
<path d="M24.1903 623.959L10.2391 648.367L24.1903 672.776H52.0926L66.0438 648.367L52.0926 623.959L24.1903 623.959Z" fill="#FF6666"/>
<path d="M24.1903 623.959L10.2391 648.367L24.1903 672.776H52.0926L66.0438 648.367L52.0926 623.959L24.1903 623.959Z" fill="#FF6666"/>
<path d="M24.1903 623.959L10.2391 648.367L24.1903 672.776H52.0926L66.0438 648.367L52.0926 623.959L24.1903 623.959Z" fill="#FF6666"/>
<path d="M24.1903 623.959L10.2391 648.367L24.1903 672.776H52.0926L66.0438 648.367L52.0926 623.959L24.1903 623.959Z" stroke="#423F3B"/>
<path d="M161.219 604.592C158.366 605.338 155.939 607.232 154.765 609.632C154.125 610.966 154.045 611.419 154.045 613.606C154.072 616.087 154.072 616.087 153.458 615.927C152.551 615.686 152.418 616.3 153.085 617.927C153.378 618.674 153.618 619.607 153.618 619.954C153.618 620.3 153.992 621.021 154.445 621.554C155.352 622.594 155.725 624.194 155.245 625.101C155.058 625.448 154.018 626.008 152.365 626.621C147.991 628.275 146.097 629.235 144.417 630.568C143.537 631.289 142.15 632.222 141.323 632.622C139.67 633.476 136.389 636.783 135.643 638.356C135.056 639.583 134.416 642.57 134.416 644.144C134.416 645.104 134.149 645.957 133.322 647.557C132.015 650.091 131.775 651.931 132.255 655.505C132.549 657.692 132.522 657.985 131.882 660.492C131.509 661.959 130.789 664.173 130.282 665.426C129.535 667.347 129.375 668.12 129.268 670.494C129.188 672.041 128.868 674.681 128.548 676.361C128.015 679.002 127.962 680.068 128.042 684.229C128.095 686.869 128.122 691.137 128.122 693.697C128.095 698.364 128.095 698.364 127.268 700.098C126.735 701.245 126.361 702.445 126.255 703.618L126.068 705.432H113.186C101.878 705.432 100.278 705.378 100.278 705.032C100.278 704.738 99.9844 704.632 99.211 704.632C98.1175 704.632 98.0642 704.578 97.7441 703.218C97.5308 702.205 96.9974 702.445 96.704 703.645C96.464 704.578 96.384 704.632 95.3438 704.632H94.2503L93.9303 694.95C93.6102 686.176 93.3436 682.415 92.9968 682.042C92.9168 681.962 91.8767 681.855 90.7032 681.775C87.8762 681.562 87.7428 681.695 87.7428 684.336C87.7428 685.456 87.5561 689.296 87.3427 692.897C87.1294 696.497 86.9427 700.391 86.916 701.565C86.8894 702.738 86.8094 703.912 86.7293 704.152C86.6227 704.605 85.8492 704.632 75.1011 704.632H63.5529L63.0195 705.218C62.0594 706.259 62.1127 707.859 63.0995 708.766L63.8196 709.432H75.3412H86.8627L87.0494 715.993C87.2894 725.141 87.7695 731.009 88.2762 731.862C88.5696 732.289 92.4101 732.342 92.8368 731.915C93.3436 731.409 93.5836 728.608 93.9303 719.087L94.2504 709.432H95.3438C96.384 709.432 96.464 709.486 96.704 710.419C96.9974 711.619 97.5308 711.859 97.7442 710.846C98.0642 709.486 98.1175 709.432 99.211 709.432C99.9845 709.432 100.278 709.326 100.278 709.032C100.278 708.686 101.931 708.632 113.453 708.632H126.628L126.761 709.406C126.948 710.286 127.561 710.606 128.282 710.232C128.682 710.019 128.842 710.072 129.082 710.499C129.402 711.086 130.148 711.193 130.949 710.766C131.295 710.579 131.509 710.606 131.749 710.899C132.202 711.433 132.442 711.406 133.109 710.739C133.509 710.339 133.722 710.259 133.882 710.499C133.989 710.659 134.469 710.766 134.949 710.713C135.669 710.659 135.883 710.472 136.123 709.779C136.283 709.326 136.523 708.846 136.629 708.712C137.003 708.339 136.523 718.207 136.096 720.1C135.803 721.327 135.616 724.154 135.483 729.702C135.323 735.062 135.136 737.996 134.896 738.93C134.682 739.676 134.576 740.423 134.629 740.583C134.709 740.823 137.456 740.903 145.324 740.903H155.939L156.099 738.823C156.312 736.049 157.139 732.955 158.392 730.368C158.979 729.195 160.126 726.048 161.006 723.381C161.859 720.687 162.633 718.5 162.713 718.5C162.793 718.5 163.353 719.7 163.966 721.141C164.98 723.541 167.033 730.475 168.98 738.023L169.727 740.903H180.769H191.837L191.677 736.956C191.597 734.769 191.277 731.675 190.957 729.968C190.583 728.021 190.29 725.008 190.156 721.701C190.023 718.794 189.756 715.646 189.516 714.553C189.063 712.499 188.93 708.312 189.356 709.326C189.57 709.886 190.717 710.766 191.223 710.766C191.383 710.766 191.623 710.499 191.73 710.152C191.97 709.566 191.97 709.566 192.263 710.286C192.583 711.139 193.597 711.299 194.157 710.632C194.45 710.259 194.53 710.286 194.797 710.659C195.224 711.246 196.104 711.033 196.424 710.286C196.717 709.619 197.091 709.512 197.091 710.099C197.091 710.926 198.904 710.179 199.118 709.246L199.278 708.632H213.253C225.495 708.632 227.228 708.686 227.228 709.032C227.228 709.326 227.521 709.432 228.242 709.432C229.202 709.432 229.282 709.486 229.522 710.419C229.815 711.619 230.349 711.859 230.562 710.846C230.855 709.512 230.935 709.432 231.629 709.432H232.295V714.153C232.322 721.567 232.882 731.062 233.362 731.835C233.576 732.182 237.709 732.395 238.03 732.075C238.51 731.569 239.07 724.581 239.39 714.42L239.55 709.432H251.525H263.473L264.166 708.819C264.646 708.419 264.913 707.859 265.02 707.112C265.153 706.179 265.073 705.912 264.486 705.325L263.793 704.632H251.765C242.377 704.632 239.736 704.552 239.656 704.285C239.603 704.125 239.31 699.058 238.99 693.057C238.67 687.056 238.35 682.042 238.243 681.882C238.056 681.562 233.682 681.802 233.362 682.122C232.962 682.522 232.535 688.923 232.349 696.897C232.162 704.445 232.162 704.498 231.575 704.578C231.095 704.658 230.935 704.472 230.695 703.592C230.322 702.178 229.735 702.178 229.495 703.565C229.308 704.578 229.282 704.632 228.295 704.632C227.628 704.632 227.228 704.765 227.121 705.032C226.988 705.378 225.254 705.432 213.066 705.378L199.144 705.298L199.064 703.938C199.038 703.165 198.638 701.431 198.211 700.071C197.117 696.604 196.584 692.55 196.291 685.189C195.971 677.561 195.677 675.348 194.664 672.227C194.21 670.894 193.73 668.68 193.597 667.293C193.437 665.907 193.01 663.56 192.637 662.093C191.997 659.692 191.943 658.892 191.917 654.092C191.863 648.384 191.783 647.957 190.343 646.011C189.863 645.37 189.65 644.65 189.516 643.21C189.17 639.503 188.796 638.009 187.836 636.436C186.583 634.329 185.489 633.235 183.729 632.355C182.902 631.929 181.595 631.022 180.795 630.355C179.062 628.862 176.688 627.635 173.621 626.621C172.367 626.221 171.274 625.768 171.194 625.608C170.901 625.181 171.247 622.141 171.647 621.474C172.581 620.034 173.434 616.087 172.847 616.087C172.741 616.087 172.554 615.126 172.474 613.98C172.314 611.313 171.541 609.552 169.62 607.472C167.593 605.258 166.26 604.565 163.913 604.458C162.873 604.405 161.673 604.458 161.219 604.592L161.219 604.592ZM143.75 660.813C143.75 661.293 144.417 662.493 145.457 663.96C145.964 664.653 145.964 664.76 145.537 667.507C144.95 671.214 144.977 673.001 145.617 675.081C145.937 676.068 146.151 677.508 146.151 678.628C146.151 680.202 146.017 680.735 145.324 682.069C144.87 682.949 144.337 684.496 144.15 685.536C143.91 686.949 143.644 687.643 143.164 688.123C142.63 688.656 142.31 689.563 141.723 691.963C141.163 694.39 140.79 695.404 140.096 696.337C138.176 698.978 137.616 699.964 137.616 700.685C137.616 701.698 137.323 701.618 136.283 700.311C135.242 699.031 135.002 697.857 134.976 693.884C134.949 692.07 135.082 691.03 135.349 690.496C135.563 690.096 136.123 688.443 136.576 686.843C137.029 685.269 137.669 683.536 138.016 683.029C139.056 681.455 139.27 680.282 139.216 676.815C139.136 673.908 139.216 673.374 139.83 671.694C141.243 667.773 142.95 661.666 142.95 660.439C142.95 660.386 143.137 660.359 143.35 660.359C143.564 660.359 143.75 660.573 143.75 660.813L143.75 660.813ZM181.062 662.439C181.222 662.999 181.435 663.88 181.515 664.386C181.622 664.866 182.155 666.147 182.715 667.213C183.302 668.28 183.756 669.4 183.756 669.72C183.756 670.014 184.102 671.347 184.556 672.654C185.222 674.681 185.329 675.374 185.302 677.615C185.276 680.522 185.169 680.228 188.13 687.429L189.89 691.697L189.73 695.564C189.596 698.604 189.463 699.671 189.036 700.551C188.476 701.751 187.756 702.071 187.756 701.138C187.756 700.471 186.236 695.137 185.809 694.364C185.676 694.07 185.036 693.243 184.396 692.523C183.782 691.803 183.116 690.71 182.955 690.07C182.769 689.43 182.209 688.283 181.729 687.509C181.222 686.736 180.822 685.776 180.822 685.322C180.822 684.896 180.395 683.722 179.888 682.709C178.768 680.548 178.662 679.428 179.355 676.548C179.888 674.361 179.862 673.854 178.928 669.64C178.635 668.333 178.635 667.773 179.062 665.64C179.568 662.973 180.102 661.426 180.528 661.426C180.689 661.426 180.929 661.879 181.062 662.439L181.062 662.439Z" fill="#423F3B"/>
</svg>
