<svg width="411" height="760" viewBox="0 0 411 760" fill="none" xmlns="http://www.w3.org/2000/svg">
<g clip-path="url(#clip0_1_2)">
<rect width="411" height="760" fill="#423F3B"/>
<path d="M169.043 539.5L187.543 571.543L169.043 603.586L132.043 603.586L113.543 571.543L132.043 539.5L169.043 539.5Z" fill="#525266"/>
<path d="M58.6099 603.25L76.9849 634.643L58.9849 665.82L22.6099 665.604L4.23493 634.21L22.2349 603.033L58.6099 603.25Z" fill="#525266"/>
<path d="M114.043 634.5L132.793 666.11L114.793 697.287L78.0429 696.854L59.2929 665.244L77.2929 634.067L114.043 634.5Z" fill="#525266"/>
<path d="M169.043 603.5L187.543 635.543L169.043 667.586L132.043 667.586L113.543 635.543L132.043 603.5L169.043 603.5Z" fill="#FF6666"/>
<path d="M115.043 696.5L133.543 728.543L115.043 760.586L78.0429 760.586L59.5429 728.543L78.0429 696.5L115.043 696.5Z" fill="#FF6666"/>
<path d="M168.543 476.5L187.168 508.326L168.918 539.936L132.043 539.72L113.418 507.893L131.668 476.283L168.543 476.5Z" fill="#FF6666"/>
<path d="M224.043 444.5L242.543 476.543L224.043 508.586L187.043 508.586L168.543 476.543L187.043 444.5L224.043 444.5Z" fill="#525266"/>
<path d="M279.043 349.5L297.543 381.543L279.043 413.586L242.043 413.586L223.543 381.543L242.043 349.5L279.043 349.5Z" fill="#525266"/>
<path d="M279.043 539.5L297.543 571.543L279.043 603.586L242.043 603.586L223.543 571.543L242.043 539.5L279.043 539.5Z" fill="#525266"/>
<path d="M333.543 507.5L352.168 539.326L333.918 570.936L297.043 570.72L278.418 538.893L296.668 507.283L333.543 507.5Z" fill="#525266"/>
<path d="M279.043 475.5L297.543 507.543L279.043 539.586L242.043 539.586L223.543 507.543L242.043 475.5L279.043 475.5Z" fill="#FF6666"/>
<path d="M334.11 444.25L352.36 475.86L334.11 507.47L297.61 507.47L279.36 475.86L297.61 444.25L334.11 444.25Z" fill="#525266"/>
<path d="M334.043 381.5L352.543 413.543L334.043 445.586L297.043 445.586L278.543 413.543L297.043 381.5L334.043 381.5Z" fill="#FF6666"/>
<path d="M114.11 445.25L132.36 476.86L114.11 508.47L77.6099 508.47L59.3599 476.86L77.6099 445.25L114.11 445.25Z" fill="#525266"/>
<path d="M389.11 350.25L407.36 381.86L389.11 413.47L352.61 413.47L334.36 381.86L352.61 350.25L389.11 350.25Z" fill="#525266"/>
<path d="M208.997 457.315C206.036 458.409 202.436 462.649 199.209 468.81C198.435 470.277 197.688 471.637 197.528 471.85C197.022 472.464 195.315 472.037 190.674 470.197C183.313 467.236 172.992 463.316 172.245 463.156C171.392 462.996 170.565 463.929 170.138 465.476C169.738 466.916 170.191 467.717 171.712 468.357C173.578 469.157 193.634 476.571 194.461 476.784C195.661 477.051 195.848 477.771 195.235 479.825C194.221 483.239 193.794 486.439 193.928 490.013C194.195 496.76 195.421 498.627 200.782 500.388C203.182 501.161 205.156 501.134 206.916 500.228C209.663 498.867 213.717 494.093 215.984 489.533C216.464 488.599 217.024 487.773 217.264 487.693C218.144 487.346 220.145 490.6 222.118 495.56C225.025 502.868 227.612 506.762 234.413 514.149C236.547 516.443 237.88 518.603 237.88 519.75C237.88 520.044 238.2 520.764 238.6 521.35C239.001 521.937 239.641 523.084 240.041 523.884C241.428 526.764 244.095 529.111 245.641 528.898C246.335 528.791 246.495 528.871 246.735 529.458C247.108 530.418 247.055 533.272 246.655 534.499C246.201 535.806 246.228 539.113 246.682 542.5L247.028 545.22L246.201 547.834C245.748 549.247 245.001 551.594 244.575 553.035C244.121 554.448 243.561 555.915 243.321 556.288C243.081 556.662 241.828 557.462 240.414 558.155C237.347 559.675 235.827 560.982 234.813 562.983C234.067 564.449 234.013 564.769 233.987 567.89C233.96 569.73 233.853 572.13 233.747 573.224C233.586 574.904 233.666 575.678 234.253 578.131C235.213 582.132 235.747 585.519 235.747 587.759C235.747 588.799 235.933 590.346 236.147 591.173C236.84 593.867 236.467 598.347 235.347 601.068C234.893 602.134 234.787 607.762 235.187 608.402C235.347 608.642 236.147 608.882 237.267 608.989C239.961 609.309 245.561 609.282 246.175 608.962C247.082 608.455 246.842 606.722 245.508 604.001C244.601 602.134 244.308 601.228 244.201 599.761C244.121 598.721 243.774 596.774 243.454 595.387C242.921 593.067 242.894 592.666 243.214 590.586C243.881 586.026 244.148 585.599 246.842 584.879C248.949 584.292 249.829 584.319 253.269 585.012C255.483 585.466 257.083 585.599 260.15 585.599C264.871 585.599 267.644 585.039 271.085 583.359C272.258 582.799 273.272 582.398 273.325 582.452C273.538 582.638 272.418 584.745 271.431 586.026C268.364 590.053 267.191 591.706 266.071 593.52C264.497 596.107 264.337 596.24 263.297 595.84C262.15 595.413 261.83 595.76 261.057 598.107C260.577 599.494 260.443 600.508 260.47 601.814C260.523 602.828 260.55 604.028 260.577 604.481C260.603 604.961 260.523 605.682 260.417 606.082L260.23 606.828H263.644C265.537 606.828 269.245 607.015 271.885 607.228C277.912 607.708 283.113 607.735 284.02 607.282C284.98 606.802 285.007 605.788 284.073 604.881C283.486 604.321 282.82 604.081 280.979 603.735C278.232 603.228 277.459 602.694 276.472 600.641C276.099 599.867 275.192 598.587 274.419 597.814L273.058 596.374L273.698 595.413C274.072 594.853 274.579 593.973 274.819 593.44C275.299 592.373 277.086 590.72 281.62 587.092C285.7 583.812 288.34 581.198 290.741 577.945C293.328 574.424 293.701 573.597 293.728 571.304C293.728 569.783 293.594 569.25 292.821 567.73C291.327 564.823 290.714 564.476 285.7 563.703C280.153 562.849 276.099 562.822 273.245 563.596C270.765 564.263 270.951 564.236 270.951 563.863C270.951 563.516 273.325 557.969 275.779 552.528C276.766 550.314 277.832 547.754 278.152 546.847C278.873 544.633 279.113 541.433 278.686 539.619C278.366 538.259 278.366 538.179 278.926 537.726C279.246 537.459 280.046 537.166 280.713 537.059C282.18 536.846 283.46 536.019 284.153 534.819C284.793 533.725 291.274 527.031 292.154 526.551C292.741 526.231 292.928 526.311 294.475 527.618C298.982 531.405 304.023 532.232 308.556 529.965C310.637 528.898 313.81 525.858 315.464 523.271C316.104 522.284 316.771 521.484 316.958 521.484C317.144 521.484 317.811 521.724 318.451 522.017C319.091 522.31 319.838 522.55 320.078 522.55C320.798 522.55 321.358 521.777 321.358 520.79C321.358 519.91 321.278 519.83 319.651 519.11C318.638 518.63 317.918 518.15 317.838 517.83C317.758 517.563 317.811 516.496 317.944 515.456C318.344 512.682 318.078 508.575 317.384 506.815C315.624 502.201 310.77 499.161 305.543 499.374C303.596 499.481 303.062 499.614 301.195 500.521C298.715 501.748 296.075 504.228 294.715 506.602C294.235 507.455 293.594 508.335 293.274 508.549C292.341 509.189 290.741 509.029 288.287 507.989C285.487 506.815 257.456 496.334 246.281 492.28C238.094 489.293 230.599 486.412 229.106 485.612C228.626 485.372 228.199 484.865 228.012 484.305C227.852 483.825 227.532 483.239 227.266 482.999C226.519 482.332 223.505 481.665 221.958 481.825C220.865 481.932 220.438 481.878 219.985 481.505L219.398 481.025L220.118 478.118C221.345 473.051 221.612 469.69 221.078 465.876C220.678 463.183 220.038 461.556 218.731 460.115C216.624 457.768 211.637 456.328 208.997 457.315L208.997 457.315ZM234.973 490.92C242.814 493.747 252.816 497.374 265.084 501.801C267.938 502.841 270.578 503.801 270.951 503.935C271.565 504.175 271.538 504.228 269.965 505.081C267.724 506.362 265.724 508.229 265.324 509.402C265.164 509.935 265.057 511.322 265.111 512.522C265.271 516.736 265.057 521.057 264.631 521.83C264.257 522.577 262.497 523.591 261.59 523.617C261.083 523.617 260.23 522.711 259.643 521.564C259.11 520.497 258.31 520.07 255.536 519.377C254.203 519.057 252.842 518.497 252.149 518.017C251.002 517.216 250.495 516.736 247.082 513.029C246.228 512.096 244.468 510.629 243.188 509.749C240.414 507.829 240.041 507.375 237.987 503.348C236.494 500.361 236.334 500.147 232.386 496.28C230.173 494.067 227.932 491.613 227.399 490.813C226.412 489.319 225.905 487.879 226.332 487.879C226.466 487.879 230.359 489.239 234.973 490.92V490.92ZM287.594 509.962L290.767 511.242L291.087 512.416C291.274 513.083 291.594 513.989 291.781 514.469C292.341 515.803 291.834 516.55 289.727 517.51C287.887 518.337 285.433 520.123 283.62 521.99C283.06 522.604 282.366 523.084 282.126 523.084C281.646 523.084 281.299 522.47 281.486 521.937C281.566 521.777 281.726 520.79 281.86 519.777C282.046 518.47 282.286 517.75 282.74 517.296C283.326 516.683 283.353 516.416 283.406 512.602C283.433 510.362 283.46 508.522 283.486 508.469C283.486 508.335 284.047 508.549 287.594 509.962V509.962Z" fill="#423F3B"/>
</g>
<defs>
<clipPath id="clip0_1_2">
<rect width="411" height="760" fill="white"/>
</clipPath>
</defs>
</svg>
