<svg width="412" height="761" viewBox="0 0 412 761" fill="none" xmlns="http://www.w3.org/2000/svg">
<g clip-path="url(#clip0_1_2)">
<rect width="411" height="760" transform="translate(0.661011 0.0834961)" fill="#423F3B"/>
<path d="M-48.0498 -4.23725C-48.0498 -4.23725 142.88 78.9179 136.979 203.527C131.077 328.136 104.75 367.813 121.274 443.562C144.446 549.786 240.549 697.834 240.549 697.834C240.549 697.834 95.078 606.345 74.9959 495.181C61.7678 421.957 68.3336 308.819 74.996 203.527C81.6585 98.2356 -48.0498 -4.23725 -48.0498 -4.23725Z" fill="#525266"/>
<path d="M462.421 7.22595C462.421 7.22595 269.881 85.6627 273.299 210.386C276.716 335.11 302.246 375.426 284.217 450.749C258.934 556.377 159.905 702.024 159.905 702.024C159.905 702.024 307.164 614.136 329.456 503.494C344.139 430.613 339.829 317.342 335.266 211.912C330.703 106.482 462.421 7.22595 462.421 7.22595Z" fill="#729676"/>
<path fill-rule="evenodd" clip-rule="evenodd" d="M233.677 582.635C234.104 581.542 235.01 580.368 235.651 580.128C235.944 579.995 236.291 579.888 236.424 579.888C236.717 579.862 236.664 580.342 236.344 580.528C236.211 580.608 236.077 580.795 236.077 580.928C236.077 581.248 237.304 581.088 237.757 580.715C237.971 580.528 238.211 580.475 238.291 580.582C238.664 580.955 238.451 581.488 237.811 581.729C236.957 582.049 236.904 582.635 237.757 582.395C238.078 582.289 239.171 581.862 240.211 581.435C242.265 580.582 243.092 580.502 244.078 581.062C244.452 581.275 245.172 581.435 245.705 581.462C246.239 581.462 247.039 581.649 247.439 581.862C247.865 582.075 248.506 582.262 248.879 582.262C249.892 582.262 252.159 583.409 253.413 584.582C254.586 585.622 257.68 589.223 258.64 590.663C258.934 591.09 259.52 592.237 259.92 593.197C260.827 595.33 261.681 596.477 263.041 597.384C263.628 597.757 264.081 598.291 264.081 598.557C264.081 599.544 267.281 601.091 270.695 601.731C271.522 601.891 274.882 602.131 278.11 602.265C284.324 602.531 286.591 602.851 290.805 604.132C298.219 606.425 303.1 610.159 305.58 615.52C306.487 617.493 307.18 618.453 308.807 620.214C312.167 623.787 313.234 626.641 313.688 633.202C314.354 642.963 314.594 644.644 316.461 653.605C317.581 659.019 317.955 662.246 317.955 666.487C317.955 671.074 315.688 693.663 315.154 694.57C314.994 694.81 306.487 694.917 306.487 694.677C306.487 694.597 307.02 692.783 307.687 690.676C308.86 686.889 308.887 686.703 308.94 682.862C308.994 678.995 308.967 678.888 308.007 675.874C306.3 670.62 305.767 668.167 305.313 663.606C304.806 658.565 304.113 654.565 303.793 655.125C303.686 655.312 303.286 657.685 302.886 660.406C302.326 664.033 302.113 666.753 302.006 670.674C301.899 675.421 301.979 676.514 302.593 680.675C302.966 683.235 303.473 687.129 303.686 689.316C303.926 691.503 304.22 693.503 304.38 693.77C304.513 694.037 304.62 694.357 304.62 694.517C304.62 694.73 296.645 694.81 277.923 694.81C256.16 694.81 251.253 694.757 251.359 694.464C251.439 694.277 251.759 693.157 252.079 692.01C253.28 687.743 256.107 680.088 257.013 678.728C258.534 676.408 258.88 673.954 257.84 672.594C256.427 670.7 256.347 668.887 257.44 664.566C258.027 662.273 258.027 661.179 257.387 657.659C257.173 656.458 256.907 655.605 256.72 655.605C256.533 655.605 255.867 654.992 255.2 654.272C254.533 653.525 253.946 652.938 253.893 652.938C253.84 652.938 253.84 653.685 253.893 654.592C254.16 659.232 251.599 664.78 246.852 669.767C245.465 671.234 244.692 672.354 243.998 673.847C242.691 676.621 241.838 677.635 238.824 679.928C234.904 682.915 234.664 682.995 233.117 681.902C232.61 681.528 231.517 680.782 230.663 680.222C223.062 675.208 220.342 672.301 214.021 662.353L222.315 657.392C222.315 657.392 223.249 657.712 223.729 657.739C224.182 657.739 225.623 658.112 226.929 658.565C229.245 659.378 229.967 659.653 230.315 659.404C230.492 659.277 230.573 659.015 230.717 658.619C230.903 658.059 231.037 657.179 230.983 656.672C230.557 651.898 231.33 649.178 233.73 647.044L235.09 645.817L235.331 642.403C235.917 632.989 236.237 631.869 239.384 628.855C240.585 627.708 242.238 626.268 243.092 625.681C244.798 624.534 246.639 622.001 246.345 621.254C246.212 620.907 246.052 620.987 245.412 621.681C244.558 622.641 243.812 622.774 243.225 622.054C243.012 621.814 242.318 620.64 241.705 619.467C240.104 616.48 240.024 616.4 238.158 616.4C236.931 616.4 236.291 616.24 235.384 615.706C234.744 615.333 234.13 614.88 233.997 614.693C233.81 614.426 231.677 612.933 231.437 612.933C231.383 612.933 231.197 613.279 231.01 613.733C230.823 614.16 230.503 614.533 230.29 614.533C229.756 614.533 228.583 615.36 228.77 615.626C228.85 615.76 228.796 615.866 228.636 615.866C228.503 615.866 228.316 615.706 228.263 615.52C228.156 615.306 228.103 615.333 228.103 615.6C228.076 615.84 227.836 616.026 227.57 616.053C227.116 616.08 227.036 615.866 226.876 614.32C226.609 611.599 226.476 611.066 225.996 611.066C225.649 611.066 225.649 610.986 226.103 610.639C226.583 610.266 226.503 610.239 225.303 610.399L223.996 610.586L224.422 609.892C225.009 609.012 225.009 608.639 224.422 608.852C224.049 608.985 224.022 608.932 224.236 608.692C224.422 608.479 224.476 608.025 224.342 607.439C224.209 606.905 224.236 606.452 224.396 606.372C224.529 606.292 224.502 606.078 224.316 605.838C224.156 605.625 224.022 604.958 224.049 604.345C224.102 603.705 224.102 602.985 224.102 602.745C224.102 602.478 224.209 602.211 224.316 602.131C224.556 601.998 224.049 600.131 223.756 600.131C223.649 600.131 223.516 600.398 223.462 600.718C223.382 601.144 223.329 601.064 223.302 600.451C223.302 599.971 223.382 599.358 223.542 599.091C223.676 598.824 223.809 597.677 223.836 596.53C223.916 594.21 224.262 593.597 226.609 591.543C227.276 590.956 227.81 590.263 227.81 589.996C227.81 589.116 228.103 588.716 228.636 588.849C229.036 588.956 229.276 588.716 229.783 587.569C230.343 586.342 230.637 586.049 230.503 586.876C230.477 587.009 230.61 587.063 230.797 587.009C231.117 586.903 231.17 586.743 231.25 585.676C231.25 585.436 231.517 585.142 231.81 585.062C232.423 584.876 232.477 584.209 231.943 583.489C231.357 582.715 231.463 582.449 232.13 582.902C232.984 583.515 233.384 583.435 233.677 582.635Z" fill="#FF6666"/>
</g>
<defs>
<clipPath id="clip0_1_2">
<rect width="411" height="760" fill="white" transform="translate(0.661011 0.0834961)"/>
</clipPath>
</defs>
</svg>
