<svg width="393" height="852" viewBox="0 0 393 852" fill="none" xmlns="http://www.w3.org/2000/svg">
<rect width="393" height="852" fill="white"/>
<path d="M76.6603 209C72.8113 215.667 63.1887 215.667 59.3397 209L22.1007 144.5C18.2517 137.833 23.0629 129.5 30.7609 129.5H105.239C112.937 129.5 117.748 137.833 113.899 144.5L76.6603 209Z" fill="#FD0303"/>
<path d="M321.34 211C325.189 204.333 334.811 204.333 338.66 211L375.899 275.5C379.748 282.167 374.937 290.5 367.239 290.5H292.761C285.063 290.5 280.252 282.167 284.101 275.5L321.34 211Z" fill="#D3D3D3"/>
<path d="M190.34 342C194.189 335.333 203.811 335.333 207.66 342L244.899 406.5C248.748 413.167 243.937 421.5 236.239 421.5H161.761C154.063 421.5 149.252 413.167 153.101 406.5L190.34 342Z" fill="#D3D3D3"/>
<path d="M332.66 418C328.811 424.667 319.189 424.667 315.34 418L278.101 353.5C274.252 346.833 279.063 338.5 286.761 338.5H361.239C368.937 338.5 373.748 346.833 369.899 353.5L332.66 418Z" fill="#FD0303"/>
<path d="M81.6603 443C77.8113 449.667 68.1887 449.667 64.3397 443L27.1007 378.5C23.2517 371.833 28.0629 363.5 35.7609 363.5H110.239C117.937 363.5 122.748 371.833 118.899 378.5L81.6603 443Z" fill="#FD0303"/>
<path d="M321.34 473C325.189 466.333 334.811 466.333 338.66 473L375.899 537.5C379.748 544.167 374.937 552.5 367.239 552.5H292.761C285.063 552.5 280.252 544.167 284.101 537.5L321.34 473Z" fill="#535353"/>
<path d="M190.34 604C194.189 597.333 203.811 597.333 207.66 604L244.899 668.5C248.748 675.167 243.937 683.5 236.239 683.5H161.761C154.063 683.5 149.252 675.167 153.101 668.5L190.34 604Z" fill="#535353"/>
<path d="M321.34 604C325.189 597.333 334.811 597.333 338.66 604L375.899 668.5C379.748 675.167 374.937 683.5 367.239 683.5H292.761C285.063 683.5 280.252 675.167 284.101 668.5L321.34 604Z" fill="#535353"/>
<path d="M190.34 735C194.189 728.333 203.811 728.333 207.66 735L244.899 799.5C248.748 806.167 243.937 814.5 236.239 814.5H161.761C154.063 814.5 149.252 806.167 153.101 799.5L190.34 735Z" fill="#535353"/>
<path d="M321.34 735C325.189 728.333 334.811 728.333 338.66 735L375.899 799.5C379.748 806.167 374.937 814.5 367.239 814.5H292.761C285.063 814.5 280.252 806.167 284.101 799.5L321.34 735Z" fill="#D3D3D3"/>
<path d="M172.6 677.812C173.076 678.875 173.076 678.875 173.447 680.184C173.928 681.853 174.325 682.839 175.31 684.316C175.498 685.607 175.498 685.607 175.577 687.134C175.611 687.696 175.645 688.258 175.68 688.836C175.715 689.435 175.749 690.034 175.784 690.651C176.107 695.429 176.722 699.723 178.011 704.332C180.112 712.221 180.458 720.64 180.73 728.76C178.989 729.844 177.278 730.767 175.378 731.538C174.943 731.719 174.508 731.899 174.061 732.085C170.91 733.099 167.791 733.159 164.504 733.131C164.133 733.128 163.763 733.126 163.381 733.123C162.479 733.116 161.577 733.107 160.676 733.096C160.676 732.739 160.676 732.381 160.676 732.012C160.262 732.068 159.849 732.125 159.423 732.182C158.942 732.126 158.461 732.07 157.966 732.012C156.345 729.93 156.11 728.206 156.001 725.61C155.858 722.837 155.641 720.127 155.256 717.378C154.898 717.378 154.541 717.378 154.172 717.378C153.993 717.915 153.814 718.452 153.63 719.004C153.093 718.11 152.557 717.216 152.004 716.294C149.618 716.646 147.367 717.188 145.06 717.887C144.441 718.071 143.823 718.254 143.186 718.443C141.635 718.84 141.635 718.84 141.164 720.088C141.713 719.887 142.262 719.685 142.828 719.477C143.561 719.217 144.293 718.958 145.026 718.7C145.386 718.566 145.747 718.432 146.118 718.294C148.48 717.472 150.123 717.291 152.546 717.92C152.004 719.546 152.004 719.546 150.89 720.298C145.686 722.699 139.078 723.555 133.54 721.7C133.194 721.526 132.848 721.352 132.492 721.172C132.492 721.53 132.492 721.888 132.492 722.256C135.007 722.746 137.456 722.903 140.012 722.9C140.397 722.9 140.781 722.901 141.178 722.901C143.908 722.874 146.148 722.459 148.752 721.714C150.212 721.628 151.624 721.662 153.088 721.714C153.423 725.989 153.423 725.989 152.241 728.117C149.939 730.183 147.55 731.632 144.416 732.012C145.31 732.191 146.205 732.37 147.126 732.554C146.985 735.527 146.596 738.039 145.605 740.853C143.956 745.617 143.702 749.983 143.671 755.014C143.612 761.252 142.737 766.024 140.018 771.611C138.663 774.579 137.746 777.561 137.54 780.827C137.483 781.719 137.426 782.61 137.37 783.502C137.841 783.464 138.311 783.427 138.797 783.388C145.086 782.933 151.358 782.86 157.662 782.86C159.44 782.859 161.218 782.849 162.995 782.839C164.133 782.837 165.27 782.836 166.407 782.836C166.935 782.832 167.463 782.828 168.007 782.824C170.534 782.833 172.452 782.924 174.768 784.044C176.307 783.891 177.45 783.515 178.867 782.893C180.342 782.363 180.915 782.414 182.356 782.96C182.714 783.139 183.071 783.318 183.44 783.502C184.351 783.518 185.263 783.504 186.173 783.477C190.597 783.443 194.942 783.944 199.328 784.451C199.756 784.5 200.185 784.548 200.626 784.599C213.424 786.061 225.813 787.901 237.64 793.258C238.244 793.504 238.848 793.751 239.469 794.004C241.464 795.239 242.978 796.625 244.144 798.678C244.262 800.955 243.929 802.01 242.62 803.862C237.552 808.314 229.76 810.614 223.277 811.957C222.74 812.071 222.203 812.184 221.65 812.301C203.118 816.105 184.707 817.39 165.842 817.318C163.375 817.309 160.907 817.315 158.44 817.324C144.924 817.368 131.323 817.228 118.008 814.626C116.307 814.31 114.6 814.154 112.879 813.99C103.247 812.898 89.8193 810.629 82.628 803.556C81.5104 801.881 81.1489 800.764 81.2009 798.746C82.0361 795.942 85.0876 794.555 87.4892 793.197C88.7363 792.596 90.0014 792.115 91.3 791.632C92.1959 791.267 92.1959 791.267 93.1103 790.894C103.142 787.033 116.295 784.384 127.072 784.553C127.486 784.558 127.899 784.563 128.326 784.567C128.778 784.577 128.778 784.577 129.24 784.586C128.703 786.196 128.703 786.196 128.156 787.838C128.436 787.66 128.715 787.481 129.003 787.296C132.174 785.996 135.301 786.953 138.454 787.838C138.275 787.123 138.096 786.408 137.912 785.67C137.344 785.68 137.344 785.68 136.765 785.689C136.271 785.694 135.778 785.699 135.27 785.705C134.534 785.714 134.534 785.714 133.784 785.724C132.492 785.67 132.492 785.67 131.408 785.128C131.408 784.592 131.408 784.055 131.408 783.502C130.871 783.502 130.335 783.502 129.782 783.502C129.768 783.009 129.754 782.515 129.74 782.006C129.549 777.654 129.033 773.569 128.122 769.309C126.42 761.042 126.038 752.967 129.24 745.02C130.953 740.715 131.232 736.614 131.408 732.012C131.945 731.834 132.481 731.655 133.034 731.47C132.695 731.333 132.355 731.195 132.005 731.054C131.562 730.867 131.119 730.68 130.663 730.488C130.223 730.306 129.783 730.124 129.329 729.935C128.156 729.302 128.156 729.302 127.072 727.676C127.192 726.683 127.192 726.683 127.527 725.549C128.312 722.439 128.38 719.388 128.461 716.193C128.555 712.917 128.684 709.771 129.24 706.538C129.37 704.254 129.426 701.966 129.473 699.679C129.577 696.805 130.045 695.019 131.408 692.446C131.543 690.784 131.543 690.784 131.408 689.127C131.231 686.223 131.231 686.223 132.221 684.66C132.489 684.367 132.758 684.075 133.034 683.774C135.155 684 136.932 684.333 138.911 685.129C142.397 686.318 145.95 686.25 149.599 686.315C150.652 686.343 150.652 686.343 151.725 686.371C153.444 686.416 155.163 686.454 156.882 686.484C156.882 686.127 156.882 685.769 156.882 685.4C156.462 685.415 156.042 685.429 155.609 685.444C140.208 685.896 140.208 685.896 134.118 682.69C134.05 679.574 134.05 679.574 134.66 678.354C134.951 678.453 135.242 678.552 135.541 678.653C147.1 682.36 157.35 682.542 168.806 678.354C169.179 678.148 169.553 677.941 169.938 677.728C170.974 677.27 170.974 677.27 172.6 677.812Z" fill="#BDBDBF"/>
<path d="M172.6 677.812C173.076 678.875 173.076 678.875 173.447 680.184C173.928 681.853 174.325 682.839 175.31 684.316C175.498 685.607 175.498 685.607 175.577 687.134C175.611 687.696 175.645 688.258 175.68 688.836C175.732 689.735 175.732 689.735 175.784 690.651C176.107 695.429 176.722 699.723 178.011 704.332C180.112 712.221 180.458 720.64 180.73 728.76C178.989 729.844 177.278 730.767 175.378 731.538C174.943 731.719 174.508 731.899 174.061 732.085C170.91 733.099 167.791 733.159 164.504 733.131C164.133 733.128 163.763 733.126 163.381 733.123C162.479 733.116 161.577 733.107 160.676 733.096C160.676 732.739 160.676 732.381 160.676 732.012C160.262 732.068 159.849 732.125 159.423 732.182C158.942 732.126 158.461 732.07 157.966 732.012C156.345 729.93 156.11 728.206 156.001 725.61C155.858 722.837 155.641 720.127 155.256 717.378C154.898 717.378 154.541 717.378 154.172 717.378C153.904 718.183 153.904 718.183 153.63 719.004C153.093 718.11 152.557 717.216 152.004 716.294C149.618 716.646 147.367 717.188 145.06 717.887C144.441 718.071 143.823 718.254 143.186 718.443C141.635 718.84 141.635 718.84 141.164 720.088C141.713 719.887 142.262 719.685 142.828 719.477C143.561 719.217 144.293 718.958 145.026 718.7C145.386 718.566 145.747 718.432 146.118 718.294C148.48 717.472 150.123 717.291 152.546 717.92C152.004 719.546 152.004 719.546 150.89 720.298C145.686 722.699 139.078 723.555 133.54 721.7C133.194 721.526 132.848 721.352 132.492 721.172C132.492 721.53 132.492 721.888 132.492 722.256C135.007 722.746 137.456 722.903 140.012 722.9C140.397 722.9 140.781 722.901 141.178 722.901C143.908 722.874 146.148 722.459 148.752 721.714C150.212 721.628 151.624 721.662 153.088 721.714C153.424 725.989 153.423 725.989 152.241 728.117C148.348 731.611 145.255 731.811 140.148 731.741C139.534 731.75 138.92 731.758 138.287 731.767C134.569 731.75 131.306 731.43 128.156 729.302C127.072 727.676 127.072 727.676 127.192 726.683C127.358 726.121 127.358 726.121 127.527 725.549C128.312 722.439 128.38 719.388 128.461 716.193C128.555 712.917 128.684 709.771 129.24 706.538C129.37 704.254 129.426 701.966 129.473 699.679C129.577 696.805 130.045 695.019 131.408 692.446C131.544 690.784 131.544 690.784 131.408 689.127C131.231 686.223 131.231 686.223 132.221 684.66C132.489 684.367 132.758 684.075 133.034 683.774C135.155 684 136.932 684.333 138.911 685.129C142.397 686.318 145.95 686.25 149.599 686.315C150.652 686.343 150.652 686.343 151.725 686.371C153.444 686.416 155.163 686.454 156.882 686.484C156.882 686.127 156.882 685.769 156.882 685.4C156.462 685.415 156.042 685.429 155.609 685.444C140.208 685.896 140.208 685.896 134.118 682.69C134.05 679.574 134.05 679.574 134.66 678.354C134.951 678.453 135.242 678.552 135.541 678.653C147.1 682.36 157.35 682.542 168.806 678.354C169.179 678.148 169.553 677.941 169.938 677.728C170.974 677.27 170.974 677.27 172.6 677.812Z" fill="#BA2F2A"/>
<path d="M185.608 614.398C188.653 616.416 190.715 619.75 192.112 623.07C192.112 623.607 192.112 624.144 192.112 624.696C190.41 624.526 189.614 624.382 188.426 623.111C188.02 622.47 188.02 622.47 187.607 621.817C187.329 621.395 187.052 620.972 186.766 620.536C186.15 619.276 186.15 619.276 186.15 617.108C185.792 617.108 185.435 617.108 185.066 617.108C186.531 621.249 188.006 624.036 191.299 627C193.753 629.699 195.505 632.813 195.635 636.519C195.427 639.558 194.169 641.177 191.976 643.192C188.631 645.908 185.512 646.784 181.272 646.376C180.198 646.234 180.198 646.234 179.104 645.834C177.986 644.328 177.281 642.589 176.496 640.889C176.268 640.432 176.041 639.975 175.806 639.504C174.482 636.693 173.918 634.857 174.768 631.742C175.344 630.422 175.344 630.422 175.852 629.574C175.494 629.574 175.137 629.574 174.768 629.574C174.517 630.346 174.517 630.346 174.26 631.133C173.684 632.826 173.684 632.826 173.142 633.91C172.951 637.561 173.129 641.142 173.684 644.75C174.042 644.75 174.399 644.75 174.768 644.75C174.5 643.778 174.5 643.778 174.226 642.786C173.742 640.871 173.585 639.146 173.684 637.162C176.067 639.092 176.832 641.693 177.173 644.615C177.028 648.166 175.618 651.816 173.583 654.71C171.967 657.048 171.988 659.39 171.925 662.175C171.898 663.126 171.898 663.126 171.87 664.098C171.837 665.423 171.807 666.748 171.777 668.074C171.582 674.796 171.582 674.796 170.432 677.27C169.194 677.94 169.194 677.94 167.688 678.219C166.887 678.389 166.887 678.389 166.071 678.562C165.278 678.728 165.278 678.728 164.47 678.896C163.224 679.295 161.997 679.728 160.767 680.171C152.655 682.597 142.641 681.123 135.202 677.27C135.378 676.859 135.553 676.446 135.733 676.022C136.479 673.32 136.464 670.778 136.456 667.989C136.464 667.453 136.473 666.917 136.482 666.365C136.482 665.849 136.483 665.332 136.483 664.8C136.484 664.333 136.486 663.865 136.488 663.384C136.246 661.837 135.636 661.124 134.66 659.926C134.66 659.569 134.66 659.211 134.66 658.842C134.302 658.842 133.945 658.842 133.576 658.842C133.133 657.726 132.693 656.608 132.255 655.489C132.01 654.866 131.765 654.244 131.512 653.602C130.968 652.083 130.584 650.674 130.324 649.086C133.576 650.17 133.576 650.17 135.066 650.78C137.456 651.424 139.785 651.454 142.248 651.254C142.427 651.076 142.606 650.897 142.79 650.712C143.908 650.775 145.026 650.844 146.144 650.916C150.269 650.979 152.758 649.792 156.255 647.696C158.27 646.781 159.125 646.822 161.218 647.46C162.45 648.106 162.45 648.106 163.589 648.85C166.108 650.295 167.544 650.683 170.432 650.17C171.858 649.23 173.049 648.154 174.226 646.918C173.957 647.114 173.688 647.31 173.411 647.511C171.66 648.707 170.208 649.555 168.128 650.035C165.39 649.488 163.442 648.115 161.146 646.559C159.654 645.666 159.654 645.666 158.212 646.175C157.773 646.421 157.334 646.666 156.882 646.918C156.422 647.143 155.963 647.367 155.489 647.598C155.032 647.832 154.575 648.066 154.104 648.308C151.639 649.57 149.813 650.241 147.025 650.205C146.292 650.197 146.292 650.197 145.544 650.189C145.172 650.183 144.8 650.177 144.416 650.17C145.011 648.662 145.619 647.237 146.381 645.801C147.792 642.442 147.649 638.8 146.554 635.373C145.73 633.377 144.86 631.433 143.785 629.558C143.227 628.245 143.301 627.194 143.332 625.78C146.781 625.623 150.231 625.469 153.68 625.318C154.848 625.266 156.018 625.213 157.187 625.16C164.317 624.835 171.424 624.615 178.562 624.696C179.21 625.993 179.18 626.834 179.199 628.281C179.219 629.028 179.219 629.028 179.238 629.79C179.262 630.837 179.279 631.884 179.289 632.932C179.361 635.314 179.406 636.773 180.677 638.835C181.746 639.811 182.64 640.429 183.982 640.956C183.982 640.599 183.982 640.241 183.982 639.872C183.658 639.749 183.334 639.627 183 639.5C181.402 638.542 180.977 637.779 180.188 636.078C179.956 634.387 179.935 632.703 179.917 630.997C179.931 625.837 179.931 625.837 177.478 621.444C175.797 621.29 174.116 621.202 172.431 621.108C171.95 621.04 171.469 620.972 170.974 620.902C170.706 620.366 170.706 620.366 170.432 619.818C173.548 618.192 173.548 618.192 174.768 618.192C174.768 617.835 174.768 617.477 174.768 617.108C177.726 614.957 181.947 613.474 185.608 614.398Z" fill="#EAAB8C"/>
<path d="M152.546 716.294C152.904 716.831 153.261 717.368 153.63 717.92C154.167 717.742 154.703 717.563 155.256 717.378C156.278 720.785 156.541 724.033 156.696 727.583C156.87 729.19 157.048 730.154 157.966 731.47C159.351 731.911 159.351 731.911 160.676 732.012C160.676 732.37 160.676 732.728 160.676 733.096C162.574 732.944 164.47 732.784 166.367 732.622C166.899 732.58 167.432 732.537 167.981 732.493C171.075 732.225 173.946 731.776 176.936 730.928C176.944 731.302 176.952 731.676 176.96 732.061C177.001 733.795 177.053 735.529 177.106 737.263C177.118 737.85 177.13 738.438 177.143 739.043C177.241 742.052 177.5 744.777 178.295 747.684C179.619 752.961 179.376 758.414 179.409 763.821C179.422 765.458 179.437 767.094 179.458 768.731C179.471 769.742 179.48 770.752 179.482 771.763C179.517 774.681 179.866 777.307 180.605 780.135C180.759 781.616 180.46 782.272 179.646 783.502C177.242 784.988 175.262 784.509 172.6 784.044C172.266 783.948 171.932 783.853 171.588 783.754C170.089 783.428 168.685 783.438 167.151 783.441C166.158 783.441 166.158 783.441 165.145 783.441C164.078 783.446 164.078 783.446 162.988 783.45C162.25 783.451 161.512 783.451 160.774 783.452C158.835 783.454 156.896 783.46 154.957 783.466C152.977 783.471 150.997 783.473 149.016 783.476C145.135 783.482 141.252 783.491 137.37 783.502C137.156 777.285 137.156 777.285 138.536 774.31C138.779 773.75 139.02 773.189 139.27 772.612C139.526 772.025 139.782 771.438 140.046 770.833C142.54 764.703 143.221 759.441 143.186 752.863C143.192 747.182 144.31 742.293 146.233 736.971C146.666 735.533 146.879 734.036 147.126 732.554C143.37 732.554 139.614 732.554 135.744 732.554C135.744 732.376 135.744 732.197 135.744 732.012C136.332 731.986 136.921 731.959 137.527 731.932C138.31 731.892 139.094 731.85 139.877 731.809C140.263 731.792 140.65 731.776 141.047 731.759C145.04 731.539 148.104 730.35 151.462 728.218C152.559 726.573 152.72 725.945 152.885 724.052C152.925 723.614 152.966 723.176 153.008 722.725C153.034 722.391 153.061 722.058 153.088 721.714C152.563 721.832 152.037 721.949 151.496 722.071C145.302 723.384 138.563 724.601 132.492 722.256C132.492 721.899 132.492 721.541 132.492 721.172C132.837 721.259 133.181 721.344 133.536 721.433C139.482 722.438 145.512 722.306 150.92 719.546C151.278 719.546 151.635 719.546 152.004 719.546C151.736 718.742 151.736 718.742 151.462 717.92C148.77 718.207 146.426 718.823 143.883 719.752C142.79 720.088 142.79 720.088 141.164 720.088C141.343 719.552 141.522 719.015 141.706 718.462C143.243 717.848 143.243 717.848 145.161 717.311C145.792 717.131 146.421 716.95 147.071 716.764C147.626 716.609 148.18 716.454 148.752 716.294C150.451 715.728 150.931 715.669 152.546 716.294Z" fill="#FEFDFC"/>
<path d="M237.64 597.054C241.432 598.473 243.658 601.303 245.294 604.892C245.848 606.245 246.366 607.6 246.854 608.978C247.132 609.69 247.132 609.69 247.416 610.415C248.019 612.513 248.104 614.463 248.101 616.626C248.103 617.042 248.105 617.457 248.108 617.885C248.111 618.762 248.111 619.638 248.109 620.514C248.108 621.84 248.12 623.164 248.134 624.489C248.153 628.953 248.065 632.98 246.312 637.162C246.069 637.763 245.826 638.363 245.575 638.981C243.941 642.308 242.278 645.207 239.266 647.46C236.134 648.505 232.365 648.796 229.3 647.422C223.759 643.09 222.012 635.917 221.06 629.314C220.838 627.406 220.838 627.406 220.838 625.78C223.557 625.229 226.142 625.174 228.9 625.205C229.325 625.207 229.75 625.21 230.187 625.212C231.227 625.218 232.265 625.228 233.304 625.238C234.21 623.629 234.21 623.629 233.846 619.276C227.675 619.008 227.675 619.008 221.38 618.734C221.38 612.143 222.533 605.195 227.357 600.268C230.76 597.228 233.032 596.513 237.64 597.054Z" fill="#808185"/>
<path d="M169.89 689.194C169.89 689.552 169.89 689.91 169.89 690.278C168.101 691.173 166.313 692.067 164.47 692.988C166.196 693.139 166.196 693.139 167.722 691.904C169.348 690.82 169.348 690.82 170.974 690.82C170.974 691.178 170.974 691.536 170.974 691.904C170.145 692.508 170.145 692.508 168.997 693.158C168.381 693.512 168.381 693.512 167.752 693.874C167.317 694.118 166.882 694.362 166.435 694.614C165.583 695.098 164.732 695.584 163.881 696.071C163.501 696.286 163.121 696.5 162.729 696.721C161.443 697.522 160.77 698.088 160.337 699.56C160.27 699.896 160.203 700.231 160.134 700.576C160.671 700.576 161.207 700.576 161.76 700.576C162.028 701.113 162.028 701.113 162.302 701.66C162.956 701.644 162.956 701.644 163.623 701.627C165.012 701.66 165.012 701.66 165.554 702.202C166.822 702.047 168.087 701.867 169.348 701.66C167.903 702.624 166.623 703.219 165.012 703.828C167.158 703.56 167.158 703.56 169.348 703.286C169.348 703.644 169.348 704.002 169.348 704.37C165.592 705.712 165.592 705.712 161.76 707.08C161.76 707.438 161.76 707.796 161.76 708.164C161.223 708.433 161.223 708.433 160.676 708.706C160.548 709.918 160.548 709.918 161.76 710.874C161.045 710.874 160.329 710.874 159.592 710.874C159.592 711.232 159.592 711.59 159.592 711.958C164.561 711.788 169.21 711.547 173.999 710.074C175.388 709.774 176.152 709.869 177.478 710.332C176.814 710.687 176.147 711.036 175.48 711.383C174.923 711.675 174.923 711.675 174.355 711.974C172.006 712.994 169.741 713.109 167.203 713.096C166.601 713.094 165.998 713.092 165.377 713.09C164.753 713.086 164.13 713.081 163.488 713.077C162.854 713.074 162.22 713.072 161.567 713.069C160.005 713.062 158.444 713.054 156.882 713.042C157.318 713.378 157.754 713.713 158.203 714.059C159.592 715.21 159.592 715.21 160.134 716.294C161.129 716.548 161.129 716.548 162.321 716.638C162.759 716.683 163.198 716.729 163.649 716.775C164.11 716.818 164.571 716.86 165.046 716.904C165.509 716.951 165.972 716.998 166.448 717.046C167.595 717.162 168.743 717.271 169.89 717.378C169.89 717.736 169.89 718.094 169.89 718.462C160.634 718.862 160.634 718.862 157.424 716.294C157.245 716.473 157.066 716.652 156.882 716.836C157.15 717.082 157.419 717.329 157.695 717.582C158.508 718.462 158.508 718.462 158.508 719.546C156.898 719.815 156.898 719.815 155.256 720.088C155.256 719.194 155.256 718.3 155.256 717.378C154.898 717.378 154.541 717.378 154.172 717.378C153.993 717.915 153.814 718.452 153.63 719.004C153.093 718.11 152.557 717.216 152.004 716.294C149.618 716.646 147.367 717.188 145.06 717.887C144.441 718.071 143.823 718.254 143.186 718.443C141.635 718.84 141.635 718.84 141.164 720.088C141.713 719.887 142.262 719.685 142.828 719.477C143.561 719.217 144.293 718.958 145.026 718.7C145.386 718.566 145.747 718.432 146.118 718.294C148.48 717.472 150.123 717.291 152.546 717.92C152.004 719.546 152.004 719.546 150.89 720.298C145.686 722.699 139.078 723.555 133.54 721.7C133.194 721.526 132.848 721.352 132.492 721.172C132.492 721.53 132.492 721.888 132.492 722.256C135.007 722.746 137.456 722.902 140.012 722.9C140.397 722.9 140.781 722.901 141.178 722.901C143.908 722.874 146.148 722.459 148.752 721.714C150.212 721.628 151.624 721.662 153.088 721.714C153.424 725.989 153.423 725.989 152.241 728.117C148.348 731.611 145.255 731.811 140.148 731.741C139.534 731.75 138.92 731.758 138.287 731.767C134.569 731.75 131.306 731.43 128.156 729.302C127.072 727.676 127.072 727.676 127.192 726.683C127.358 726.121 127.358 726.121 127.527 725.549C128.312 722.439 128.38 719.388 128.461 716.193C128.555 712.918 128.676 709.769 129.24 706.538C129.381 704.666 129.463 702.792 129.545 700.915C129.568 700.413 129.592 699.911 129.616 699.393C129.673 698.162 129.728 696.93 129.782 695.698C129.961 695.698 130.14 695.698 130.324 695.698C130.503 697.129 130.682 698.56 130.866 700.034C131.224 699.498 131.581 698.961 131.95 698.408C135.185 697.773 138.579 698.673 141.706 699.492C142.428 699.673 143.151 699.854 143.874 700.034C144.053 699.677 144.232 699.319 144.416 698.95C146.383 699.487 148.351 700.024 150.378 700.576C150.11 699.772 150.11 699.772 149.836 698.95C146.036 697.311 142.022 696.519 137.912 696.24C137.912 695.883 137.912 695.525 137.912 695.156C141.156 694.973 143.711 695.5 146.819 696.42C148.404 696.833 149.832 696.915 151.462 696.782C148.04 694.941 144.604 693.717 140.893 692.582C140.344 692.411 139.795 692.24 139.229 692.063C137.888 691.646 136.545 691.232 135.202 690.82C135.202 690.463 135.202 690.105 135.202 689.736C138.923 690.285 142.345 691.344 145.873 692.616C146.529 692.846 146.529 692.846 147.199 693.082C150.066 694.141 152.3 695.447 154.714 697.324C154.177 696.251 153.641 695.178 153.088 694.072C153.267 693.894 153.446 693.715 153.63 693.53C152.02 692.994 150.411 692.457 148.752 691.904C148.752 691.547 148.752 691.189 148.752 690.82C149.098 690.907 149.445 690.992 149.802 691.081C157.196 692.335 163.023 689.194 169.89 689.194Z" fill="#BB312D"/>
<path d="M140.046 731.437C140.469 731.439 140.891 731.442 141.326 731.444C142.356 731.45 143.386 731.46 144.416 731.47C144.416 731.649 144.416 731.828 144.416 732.012C145.757 732.281 145.757 732.281 147.126 732.554C146.985 735.527 146.596 738.039 145.605 740.853C143.956 745.617 143.702 749.983 143.671 755.014C143.612 761.255 142.733 766.023 140.018 771.614C138.563 774.795 137.724 777.865 137.54 781.369C137.504 781.978 137.468 782.588 137.431 783.217C137.411 783.669 137.391 784.121 137.37 784.586C135.403 784.586 133.435 784.586 131.408 784.586C131.408 784.229 131.408 783.871 131.408 783.502C130.871 783.502 130.335 783.502 129.782 783.502C129.768 783.009 129.754 782.515 129.74 782.006C129.549 777.654 129.034 773.569 128.122 769.309C126.42 761.042 126.038 752.967 129.24 745.02C130.953 740.715 131.232 736.614 131.408 732.012C134.316 731.522 137.101 731.404 140.046 731.437Z" fill="#E9AA8B"/>
<path d="M67.9262 594.683C70.0341 594.936 70.4357 595.463 71.788 597.054C77.1262 606.691 76.8823 618.569 76.937 629.236C76.9424 629.771 76.9484 630.307 76.9543 630.858C76.9982 636.219 76.9088 641.425 75.7007 646.669C75.6167 647.034 75.5327 647.399 75.446 647.775C74.7744 650.337 73.6807 652.614 71.788 654.506C70.2975 654.777 70.2975 654.777 68.536 654.506C62.4347 647.969 61.8759 637.006 61.49 628.49C62.9209 628.49 64.3518 628.49 65.826 628.49C65.826 628.848 65.826 629.206 65.826 629.574C67.0341 628.87 67.0341 628.87 67.994 627.406C68.3084 625.388 68.4103 623.449 67.994 621.444C66.9534 620.435 66.9534 620.435 65.826 619.818C65.826 620.176 65.826 620.534 65.826 620.902C64.3951 620.902 62.9642 620.902 61.49 620.902C61.0342 602.962 61.0342 602.962 65.284 595.97C66.368 594.886 66.368 594.886 67.9262 594.683Z" fill="#818185"/>
<path d="M152.959 586.162C153.565 586.163 154.171 586.165 154.795 586.167C155.428 586.172 156.061 586.176 156.713 586.181C157.351 586.183 157.99 586.186 158.649 586.188C160.228 586.194 161.807 586.204 163.386 586.214C163.386 589.076 163.386 591.938 163.386 594.886C163.207 594.886 163.028 594.886 162.844 594.886C162.71 594.373 162.576 593.858 162.438 593.328C161.941 591.63 161.941 591.63 160.822 590.997C156.403 589.393 151.413 590.759 147.126 592.176C147.138 592.485 147.151 592.793 147.164 593.11C147.23 595.921 147.033 598.207 146.042 600.848C145.684 601.027 145.327 601.206 144.958 601.39C145.137 602.285 145.316 603.179 145.5 604.1C146.037 604.1 146.573 604.1 147.126 604.1C147.119 603.716 147.114 603.331 147.107 602.934C147.099 602.187 147.099 602.187 147.092 601.425C147.086 600.928 147.079 600.431 147.073 599.919C147.126 598.68 147.126 598.68 147.668 598.138C147.794 597.227 147.892 596.311 147.973 595.395C148.018 594.897 148.064 594.399 148.11 593.885C148.143 593.5 148.176 593.115 148.21 592.718C152.305 591.02 156.344 590.303 160.676 591.567C163.746 594.828 163.654 599.683 163.534 603.916C163.287 606.939 162.932 609.36 160.801 611.623C159.135 612.996 158.036 613.785 155.855 614.041C153.887 613.826 152.691 613.227 150.988 612.23C150.464 611.929 149.94 611.627 149.4 611.316C149.007 611.081 148.614 610.847 148.21 610.604C148.21 610.962 148.21 611.32 148.21 611.688C152.586 614.075 152.586 614.075 157.424 614.398C159.168 613.356 159.168 613.356 160.676 612.23C161.034 612.23 161.391 612.23 161.76 612.23C161.755 612.551 161.75 612.872 161.745 613.202C161.823 615.809 161.823 615.809 163.068 618.017C165.056 619.501 166.843 620.177 169.348 620.36C169.348 620.539 169.348 620.718 169.348 620.902C163.306 621.452 157.319 621.509 151.259 621.479C150.327 621.476 149.396 621.473 148.464 621.471C146.211 621.465 143.959 621.456 141.706 621.444C141.527 620.729 141.348 620.014 141.164 619.276C141.432 619.124 141.699 618.971 141.975 618.813C143.923 617.476 144.835 616.613 145.331 614.24C145.453 612.48 145.518 610.743 145.5 608.978C145.156 608.838 144.813 608.696 144.458 608.551C143.332 607.894 143.332 607.894 142.655 606.065C142.248 604.1 142.248 604.1 142.248 601.932C142.606 601.754 142.963 601.575 143.332 601.39C143.153 601.212 142.974 601.033 142.79 600.848C142.706 599.542 142.664 598.261 142.655 596.953C142.64 596.241 142.626 595.529 142.612 594.795C142.833 592.211 143.451 590.39 145.348 588.575C145.666 588.366 145.985 588.158 146.313 587.942C146.632 587.726 146.95 587.51 147.278 587.288C149.198 586.193 150.799 586.15 152.959 586.162Z" fill="#EAAB8C"/>
<path d="M134.118 612.772C134.655 612.951 135.191 613.13 135.744 613.314C135.744 613.672 135.744 614.03 135.744 614.398C136.281 614.577 136.817 614.756 137.37 614.94C139.643 617.651 140.613 620.001 141.401 623.409C142.369 627.243 143.613 630.629 145.373 634.179C146.977 637.433 147.209 641.014 146.175 644.505C145.654 645.722 145.074 646.855 144.416 648.002C144.125 648.55 143.835 649.098 143.535 649.663C141.767 651.105 140.464 651.028 138.232 650.903C134.42 650.386 131.164 648.856 128.698 645.834C128.03 644.479 127.514 643.13 127.023 641.702C126.547 640.282 126.547 640.282 125.311 638.788C123.962 636.476 124.087 634.362 124.362 631.742C124.904 630.116 124.904 630.116 126.223 629.403C126.76 629.18 127.297 628.957 127.851 628.728C130.094 627.817 130.094 627.817 131.95 626.322C131.933 626.978 131.933 626.978 131.916 627.647C131.87 629.644 131.842 631.642 131.815 633.639C131.796 634.327 131.778 635.014 131.759 635.723C131.718 639.715 131.874 642.477 134.118 645.834C134.476 646.013 134.833 646.192 135.202 646.376C135.008 646.09 134.814 645.803 134.614 645.508C131.992 641.09 132.195 636.892 132.357 631.946C132.384 630.751 132.407 629.557 132.428 628.361C132.449 627.281 132.479 626.199 132.51 625.119C132.491 622.935 132.259 620.894 131.95 618.734C131.592 618.734 131.235 618.734 130.866 618.734C131 619.137 131 619.137 131.137 619.547C131.522 621.473 131.748 623.301 131.408 625.238C129.774 627.4 127.935 628.546 125.446 629.574C124.909 629.574 124.373 629.574 123.82 629.574C123.82 629.217 123.82 628.859 123.82 628.49C124.256 628.334 124.692 628.178 125.141 628.016C126.602 627.552 126.602 627.552 127.072 626.322C126.569 626.602 126.066 626.882 125.548 627.17C123.82 627.948 123.82 627.948 122.194 627.406C122.731 626.691 123.267 625.976 123.82 625.238C123.429 625.596 123.037 625.954 122.635 626.322C120.993 627.49 120.353 627.63 118.4 627.406C118.847 626.926 119.294 626.445 119.755 625.95C121.342 624.121 122.533 622.179 123.752 620.089C126.268 615.936 128.741 611.929 134.118 612.772Z" fill="#E9AA8B"/>
<path d="M176.394 732.554C176.43 733.041 176.43 733.041 176.468 733.538C176.584 735.051 176.709 736.564 176.835 738.076C176.873 738.586 176.911 739.096 176.95 739.621C177.182 742.361 177.567 744.866 178.325 747.51C179.773 753.455 179.272 759.712 179.206 765.786C179.197 767.086 179.19 768.385 179.183 769.685C179.166 772.846 179.139 776.006 179.104 779.166C177.324 779.76 175.995 779.763 174.125 779.743C173.535 779.738 172.946 779.733 172.34 779.727C171.889 779.721 171.438 779.715 170.974 779.708C170.96 779.275 170.946 778.842 170.932 778.396C170.663 773.188 169.62 768.606 167.146 763.99C164.437 758.711 164.245 753.208 164.228 747.384C164.173 744.2 163.703 741.94 162.268 739.097C161.528 737.462 161.369 735.96 161.218 734.18C161.554 734.151 161.891 734.121 162.237 734.09C163.761 733.953 165.284 733.812 166.808 733.673C167.337 733.625 167.866 733.578 168.411 733.53C168.919 733.482 169.428 733.435 169.951 733.386C170.42 733.344 170.888 733.301 171.371 733.257C173.19 733.019 174.501 732.554 176.394 732.554Z" fill="#EAAC8D"/>
<path d="M17.046 621.444C18.4769 621.286 19.7809 621.234 21.2129 621.251C21.8579 621.25 21.8579 621.25 22.5164 621.248C23.9451 621.247 25.3733 621.256 26.802 621.267C27.796 621.268 28.7901 621.269 29.7841 621.27C31.873 621.272 33.9613 621.28 36.0501 621.292C38.7157 621.307 41.3813 621.313 44.0468 621.316C46.598 621.319 49.1492 621.326 51.7004 621.334C52.1822 621.335 52.6641 621.337 53.1611 621.338C57.9572 621.351 62.6862 621.377 67.452 621.986C67.452 623.775 67.452 625.564 67.452 627.406C63.5837 627.905 59.7713 628.062 55.8733 628.12C55.2304 628.131 54.5876 628.142 53.9253 628.154C52.5638 628.178 51.2018 628.2 49.8403 628.221C47.8126 628.253 45.785 628.288 43.7574 628.325C34.6718 628.479 25.5906 628.521 16.504 628.49C15.6563 626.796 15.7452 624.924 15.962 623.07C16.3197 622.534 16.6774 621.997 17.046 621.444Z" fill="#BEBEC1"/>
<path d="M169.89 689.194C169.89 689.552 169.89 689.91 169.89 690.278C168.101 691.173 166.313 692.067 164.47 692.988C166.196 693.139 166.196 693.139 167.722 691.904C169.348 690.82 169.348 690.82 170.974 690.82C170.974 691.178 170.974 691.536 170.974 691.904C170.145 692.508 170.145 692.508 168.997 693.158C168.586 693.394 168.175 693.63 167.752 693.874C167.1 694.24 167.1 694.24 166.435 694.614C165.583 695.098 164.732 695.584 163.881 696.071C163.501 696.286 163.121 696.5 162.729 696.721C161.443 697.522 160.77 698.088 160.337 699.56C160.27 699.896 160.203 700.231 160.134 700.576C160.671 700.576 161.207 700.576 161.76 700.576C162.028 701.113 162.028 701.113 162.302 701.66C162.956 701.644 162.956 701.644 163.623 701.627C165.012 701.66 165.012 701.66 165.554 702.202C166.822 702.047 168.087 701.867 169.348 701.66C167.903 702.624 166.623 703.219 165.012 703.828C167.158 703.56 167.158 703.56 169.348 703.286C169.348 703.644 169.348 704.002 169.348 704.37C165.592 705.712 165.592 705.712 161.76 707.08C161.76 707.438 161.76 707.796 161.76 708.164C161.223 708.433 161.223 708.433 160.676 708.706C160.548 709.918 160.548 709.918 161.76 710.874C161.045 710.874 160.329 710.874 159.592 710.874C159.592 711.232 159.592 711.59 159.592 711.958C164.561 711.788 169.21 711.547 173.999 710.074C175.388 709.774 176.152 709.869 177.478 710.332C176.814 710.687 176.147 711.036 175.48 711.383C174.923 711.675 174.923 711.675 174.355 711.974C171.271 713.313 168.04 713.142 164.741 713.144C164.233 713.151 163.725 713.157 163.202 713.164C158.608 713.174 158.608 713.174 156.34 711.958C156.34 711.601 156.34 711.243 156.34 710.874C156.698 710.696 157.055 710.517 157.424 710.332C155.862 709.599 155.862 709.599 154.714 710.332C153.2 709.828 152.583 709.3 151.633 708.003C150.105 706.221 148.496 705.201 146.483 704.032C146.121 703.819 145.759 703.606 145.386 703.386C141.758 701.298 138.287 700.027 134.118 699.492C134.118 699.135 134.118 698.777 134.118 698.408C137.744 698.701 140.966 699.431 144.416 700.576C144.416 700.04 144.416 699.503 144.416 698.95C147.367 699.755 147.367 699.755 150.378 700.576C150.199 700.04 150.02 699.503 149.836 698.95C146.036 697.311 142.022 696.519 137.912 696.24C137.912 695.883 137.912 695.525 137.912 695.156C141.156 694.973 143.711 695.5 146.819 696.42C148.403 696.833 149.832 696.915 151.462 696.782C148.04 694.941 144.604 693.717 140.893 692.582C140.344 692.411 139.795 692.24 139.229 692.063C137.888 691.646 136.545 691.232 135.202 690.82C135.202 690.463 135.202 690.105 135.202 689.736C138.923 690.285 142.345 691.344 145.873 692.616C146.31 692.769 146.748 692.923 147.199 693.082C150.066 694.141 152.3 695.447 154.714 697.324C154.177 696.251 153.641 695.178 153.088 694.072C153.267 693.894 153.446 693.715 153.63 693.53C152.02 692.994 150.411 692.457 148.752 691.904C148.752 691.547 148.752 691.189 148.752 690.82C149.098 690.907 149.445 690.992 149.802 691.081C157.196 692.335 163.023 689.194 169.89 689.194Z" fill="#BA2F2A"/>
<path d="M77.75 620.902C92.4165 620.902 107.083 620.902 122.194 620.902C119.531 625.563 119.531 625.563 117.316 626.864C115.876 627.089 114.653 627.192 113.213 627.195C112.81 627.204 112.408 627.213 111.994 627.222C110.674 627.249 109.354 627.26 108.034 627.271C107.119 627.286 106.203 627.302 105.288 627.319C102.432 627.366 99.5763 627.39 96.72 627.406C96.017 627.411 96.017 627.411 95.3 627.415C89.4496 627.447 83.5998 627.442 77.75 627.406C77.75 625.26 77.75 623.114 77.75 620.902Z" fill="#BFBFC1"/>
<path d="M138.996 788.922C139.333 791.382 139.641 793.844 139.945 796.307C140.04 797.004 140.136 797.701 140.234 798.418C140.355 799.43 140.355 799.43 140.478 800.461C140.557 801.08 140.637 801.699 140.719 802.336C140.595 804.585 139.88 805.637 138.454 807.35C136.094 808.208 133.882 808.281 131.408 807.892C129.686 806.715 128.658 805.346 127.614 803.556C127.406 803.22 127.198 802.884 126.983 802.538C125.979 799.991 126.437 797.035 126.53 794.342C126.533 793.897 126.537 793.452 126.541 792.994C126.646 790.922 126.961 790.114 128.461 788.651C132.205 787.018 135.226 787.939 138.996 788.922Z" fill="#39393B"/>
<path d="M180.188 782.418C181.551 782.518 182.166 782.766 183.122 783.748C183.339 784.069 183.555 784.391 183.779 784.722C183.998 785.038 184.218 785.354 184.444 785.679C185.066 786.754 185.066 786.754 185.555 788.101C186.239 789.668 187.034 790.478 188.284 791.632C189.859 793.151 191.19 794.493 192.112 796.51C192.112 797.047 192.112 797.584 192.112 798.136C191.598 798.304 191.084 798.472 190.554 798.645C188.935 799.152 188.935 799.152 187.776 799.762C184.057 800.101 180.799 799.333 177.478 797.594C175.852 795.798 175.852 795.798 175.852 794.342C173.368 793.301 170.823 792.469 168.264 791.632C168.076 788.568 168.571 786.738 169.89 784.044C172.464 784.519 172.464 784.519 173.684 785.128C175.513 785.4 175.513 785.4 177.478 785.128C178.403 784.247 179.309 783.345 180.188 782.418Z" fill="#39393B"/>
<path d="M131.408 721.172C131.587 721.53 131.766 721.888 131.95 722.256C134.638 722.794 137.313 722.903 140.046 722.9C140.429 722.9 140.811 722.901 141.204 722.901C143.924 722.874 146.157 722.456 148.752 721.714C150.212 721.628 151.624 721.662 153.088 721.714C153.423 725.989 153.423 725.989 152.241 728.117C148.321 731.636 145.222 731.797 140.08 731.708C139.457 731.712 138.833 731.715 138.192 731.719C134.824 731.694 132.171 731.574 129.24 729.844C127.634 727.436 128.48 725.563 129.003 722.833C129.081 722.463 129.159 722.095 129.24 721.714C129.419 721.714 129.598 721.714 129.782 721.714C129.961 722.251 130.14 722.788 130.324 723.34C130.682 722.625 131.039 721.91 131.408 721.172Z" fill="#BA2D28"/>
<path d="M191.57 620.36C205.342 620.36 219.114 620.36 233.304 620.36C233.304 621.612 233.304 622.864 233.304 624.154C227.129 624.549 220.96 624.834 214.775 625.002C214.368 625.013 213.961 625.024 213.541 625.036C206.758 625.226 199.981 625.305 193.196 625.238C193.095 624.786 193.095 624.786 192.993 624.324C192.607 622.802 192.607 622.802 191.57 620.36Z" fill="#BDBDC0"/>
<path d="M146.042 610.062C146.579 610.241 147.115 610.42 147.668 610.604C147.668 611.141 147.668 611.678 147.668 612.23C148.037 612.286 148.406 612.343 148.786 612.4C150.378 612.772 150.378 612.772 152.241 613.62C154.229 614.422 155.317 614.712 157.424 614.398C159.168 613.356 159.168 613.356 160.676 612.23C161.034 612.23 161.391 612.23 161.76 612.23C161.755 612.551 161.75 612.872 161.745 613.202C161.823 615.809 161.823 615.809 163.068 618.017C165.056 619.501 166.843 620.177 169.348 620.36C169.348 620.539 169.348 620.718 169.348 620.902C163.306 621.452 157.319 621.509 151.259 621.479C150.327 621.476 149.396 621.473 148.464 621.471C146.211 621.465 143.959 621.456 141.706 621.444C141.527 620.729 141.348 620.014 141.164 619.276C141.624 618.96 141.624 618.96 142.094 618.637C144.588 616.763 144.588 616.763 145.909 614.024C146.028 612.691 146.085 611.4 146.042 610.062Z" fill="#E8AA8B"/>
<path d="M176.936 621.986C177.204 622.791 177.204 622.791 177.478 623.612C173.205 623.825 168.931 624.037 164.658 624.249C162.674 624.347 160.69 624.445 158.705 624.544C156.79 624.639 154.874 624.734 152.96 624.829C151.874 624.882 150.788 624.937 149.703 624.991C149.041 625.023 148.379 625.056 147.697 625.089C147.115 625.118 146.532 625.147 145.932 625.177C144.705 625.227 143.476 625.238 142.248 625.238C142.606 625.417 142.963 625.596 143.332 625.78C143.698 626.672 143.698 626.672 144.044 627.847C144.682 629.929 145.496 631.836 146.415 633.809C147.996 637.577 148.465 641.155 147.213 645.102C146.428 646.931 145.521 648.513 144.416 650.17C148.882 649.759 152.318 648.922 156.156 646.561C158.255 645.359 158.255 645.359 159.592 645.292C161.093 646.07 161.093 646.07 162.743 647.156C166.075 649.23 166.075 649.23 169.89 649.086C171.285 648.282 172.428 647.402 173.684 646.376C174.042 646.555 174.399 646.734 174.768 646.918C172.792 648.979 171.241 650.537 168.399 651.153C165.705 650.929 163.425 649.447 161.127 648.119C159.335 647.35 158.699 647.361 156.882 648.002C155.889 648.537 154.907 649.092 153.935 649.663C150.627 651.39 147.957 651.521 144.274 651.316C143.785 651.296 143.295 651.276 142.79 651.254C142.611 651.433 142.432 651.612 142.248 651.796C137.75 652.351 134.289 651.069 130.324 649.086C130.503 648.55 130.682 648.013 130.866 647.46C131.784 648.007 132.701 648.555 133.618 649.102C136.251 650.434 139.368 650.74 142.248 650.17C143.576 649.109 144.245 647.903 144.958 646.376C145.31 645.639 145.31 645.639 145.67 644.886C146.82 639.448 145.671 635.599 143.332 630.658C142.881 629.681 142.44 628.699 142.011 627.712C141.821 627.299 141.632 626.886 141.437 626.46C141.077 624.848 141.599 624.013 142.248 622.528C153.817 621.997 165.358 621.922 176.936 621.986Z" fill="#FAF0E8"/>
<path d="M152.959 586.162C153.565 586.163 154.171 586.165 154.795 586.167C155.428 586.172 156.061 586.176 156.713 586.181C157.351 586.183 157.99 586.186 158.649 586.188C160.228 586.194 161.807 586.204 163.386 586.214C163.386 589.076 163.386 591.938 163.386 594.886C163.207 594.886 163.028 594.886 162.844 594.886C162.71 594.373 162.576 593.858 162.438 593.328C161.941 591.63 161.941 591.63 160.822 590.997C156.403 589.393 151.413 590.759 147.126 592.176C147.138 592.485 147.151 592.793 147.164 593.11C147.23 595.93 146.951 598.178 146.042 600.848C144.969 600.67 143.896 600.491 142.79 600.306C142.746 599.11 142.715 597.913 142.689 596.716C142.66 595.716 142.66 595.716 142.631 594.696C142.835 592.159 143.488 590.354 145.348 588.575C145.666 588.366 145.985 588.158 146.313 587.942C146.632 587.726 146.95 587.51 147.278 587.288C149.198 586.193 150.799 586.15 152.959 586.162Z" fill="#5E4D46"/>
<path d="M185.608 614.398C188.653 616.416 190.715 619.75 192.112 623.07C192.112 623.607 192.112 624.144 192.112 624.696C190.41 624.526 189.614 624.382 188.426 623.111C188.155 622.684 187.885 622.257 187.607 621.817C187.329 621.395 187.052 620.972 186.766 620.536C186.15 619.276 186.15 619.276 186.15 617.108C185.792 617.108 185.435 617.108 185.066 617.108C184.887 618.003 184.708 618.897 184.524 619.818C183.987 619.997 183.451 620.176 182.898 620.36C182.719 619.645 182.54 618.93 182.356 618.192C180.746 617.924 180.746 617.924 179.104 617.65C179.361 618.053 179.618 618.455 179.883 618.87C181.23 621.501 181.136 624.509 181.272 627.406C181.809 627.406 182.345 627.406 182.898 627.406C182.898 630.984 182.898 634.561 182.898 638.246C182.361 638.515 182.361 638.515 181.814 638.788C179.887 636.277 179.95 634.03 179.917 630.997C179.931 625.837 179.931 625.837 177.478 621.444C175.797 621.29 174.116 621.202 172.431 621.108C171.95 621.04 171.469 620.972 170.974 620.902C170.795 620.545 170.616 620.187 170.432 619.818C173.549 618.192 173.549 618.192 174.768 618.192C174.768 617.835 174.768 617.477 174.768 617.108C177.726 614.957 181.947 613.474 185.608 614.398Z" fill="#E8A98B"/>
<path d="M140.08 619.276C140.438 619.276 140.795 619.276 141.164 619.276C141.343 619.992 141.522 620.707 141.706 621.444C144.393 621.379 147.08 621.312 149.768 621.243C150.678 621.22 151.587 621.197 152.497 621.175C157.642 621.05 162.775 620.886 167.91 620.526C176.137 619.976 176.137 619.976 178.397 621.538C180.677 624.733 180.377 628.543 180.4 632.291C180.487 635.322 180.924 636.994 182.898 639.33C183.256 639.509 183.613 639.688 183.982 639.872C183.982 640.23 183.982 640.588 183.982 640.956C181.326 640.145 181.034 639.575 179.104 637.162C178.925 633.049 178.746 628.935 178.562 624.696C166.578 625.233 154.595 625.77 142.248 626.322C142.248 625.965 142.248 625.607 142.248 625.238C144.474 624.631 146.675 624.519 148.97 624.406C149.418 624.383 149.866 624.36 150.328 624.336C151.779 624.261 153.229 624.191 154.68 624.121C155.17 624.096 155.659 624.072 156.164 624.047C163.272 623.696 170.36 623.456 177.478 623.612C177.21 623.076 177.21 623.076 176.936 622.528C165.489 622.528 154.042 622.528 142.248 622.528C142.069 623.244 141.89 623.959 141.706 624.696C140.08 621.106 140.08 621.106 140.08 619.276Z" fill="#F7F5F4"/>
<path d="M249.564 619.818C252.796 619.805 256.028 619.795 259.26 619.789C260.361 619.786 261.461 619.782 262.561 619.778C264.139 619.771 265.717 619.768 267.296 619.766C267.79 619.763 268.286 619.76 268.796 619.757C269.974 619.757 271.151 619.785 272.328 619.818C272.596 620.087 272.596 620.087 272.87 620.36C272.691 621.612 272.512 622.864 272.328 624.154C264.816 624.154 257.304 624.154 249.564 624.154C249.564 622.724 249.564 621.293 249.564 619.818Z" fill="#BCBCBE"/>
<path d="M131.408 626.322C131.587 626.322 131.766 626.322 131.95 626.322C132.009 630.519 131.935 634.623 131.408 638.788C131.05 638.252 130.693 637.715 130.324 637.162C130.145 637.878 129.966 638.593 129.782 639.33C129.245 639.33 128.709 639.33 128.156 639.33C128.156 639.867 128.156 640.404 128.156 640.956C126.776 640.433 126.017 639.906 125.039 638.788C123.88 636.005 123.955 632.964 124.904 630.116C126.242 629.403 126.242 629.403 127.885 628.728C130.057 627.983 130.057 627.983 131.408 626.322Z" fill="#E8A989"/>
<path d="M176.936 621.986C177.204 622.791 177.204 622.791 177.478 623.612C165.902 624.328 154.393 624.892 142.79 624.696C142.611 623.981 142.432 623.266 142.248 622.528C153.817 621.997 165.358 621.922 176.936 621.986Z" fill="#BBBCBE"/>
<path d="M134.118 700.034C140.643 699.614 145.09 702.418 150.378 705.996C149.663 706.712 148.947 707.427 148.21 708.164C145.247 707.217 142.379 706.182 139.538 704.912C140.245 706.328 140.816 706.366 142.282 706.877C142.679 707.019 143.077 707.16 143.486 707.305C143.947 707.462 143.947 707.462 144.416 707.622C144.416 707.98 144.416 708.338 144.416 708.706C142.248 708.706 140.08 708.706 137.912 708.706C137.733 708.17 137.554 707.633 137.37 707.08C137.09 706.801 136.811 706.522 136.523 706.234C135.744 705.454 135.744 705.454 135.744 704.37C136.281 704.013 136.817 703.655 137.37 703.286C137.37 702.571 137.37 701.856 137.37 701.118C135.76 700.85 135.76 700.85 134.118 700.576C134.118 700.398 134.118 700.219 134.118 700.034Z" fill="#B92C28"/>
<path d="M220.838 616.024C221.017 616.024 221.196 616.024 221.38 616.024C221.38 616.919 221.38 617.813 221.38 618.734C221.942 618.73 221.942 618.73 222.515 618.726C224.203 618.715 225.891 618.708 227.579 618.701C228.169 618.696 228.759 618.692 229.367 618.687C229.928 618.685 230.488 618.683 231.066 618.682C231.585 618.679 232.105 618.676 232.64 618.673C233.846 618.734 233.846 618.734 234.388 619.276C234.498 620.339 234.498 620.339 234.524 621.648C234.538 622.077 234.552 622.506 234.566 622.948C234.388 624.154 234.388 624.154 233.829 625.12C232.164 626.151 230.453 625.928 228.562 625.848C225.724 625.758 223.101 625.845 220.296 626.322C220.296 625.965 220.296 625.607 220.296 625.238C215.288 625.238 210.28 625.238 205.12 625.238C205.12 625.06 205.12 624.881 205.12 624.696C207.653 624.618 210.186 624.54 212.719 624.465C213.576 624.439 214.433 624.413 215.29 624.386C221.297 624.199 227.294 624.12 233.304 624.154C233.304 622.902 233.304 621.65 233.304 620.36C219.532 620.36 205.76 620.36 191.57 620.36C191.57 620.182 191.57 620.003 191.57 619.818C206.058 619.55 206.058 619.55 220.838 619.276C220.838 618.203 220.838 617.13 220.838 616.024Z" fill="#E0E0E2"/>
<path d="M152.546 716.294C154.44 718.842 154.215 720.908 153.806 723.895C153.748 724.249 153.69 724.602 153.63 724.966C153.451 724.966 153.272 724.966 153.088 724.966C153.088 723.893 153.088 722.82 153.088 721.714C152.563 721.832 152.037 721.949 151.496 722.071C145.302 723.384 138.563 724.601 132.492 722.256C132.492 721.899 132.492 721.541 132.492 721.172C132.837 721.259 133.181 721.344 133.536 721.433C139.482 722.438 145.512 722.306 150.92 719.546C151.278 719.546 151.635 719.546 152.004 719.546C151.736 718.742 151.736 718.742 151.462 717.92C148.77 718.207 146.426 718.823 143.883 719.752C142.79 720.088 142.79 720.088 141.164 720.088C141.343 719.552 141.522 719.015 141.706 718.462C143.243 717.848 143.243 717.848 145.161 717.311C145.792 717.131 146.421 716.95 147.071 716.764C147.626 716.609 148.18 716.454 148.752 716.294C150.969 715.556 150.969 715.556 152.546 716.294Z" fill="#BE3936"/>
<path d="M156.34 712.5C163.584 712.769 163.584 712.769 170.974 713.042C170.974 713.221 170.974 713.4 170.974 713.584C169.722 713.763 168.47 713.942 167.18 714.126C167.851 714.629 167.851 714.629 168.535 715.143C169.206 715.713 169.206 715.713 169.89 716.294C169.89 716.652 169.89 717.01 169.89 717.378C166.256 717.486 163.033 717.546 159.592 716.294C159.592 715.937 159.592 715.579 159.592 715.21C159.256 715.065 158.922 714.92 158.576 714.77C157.424 714.126 157.424 714.126 156.34 712.5Z" fill="#B82B26"/>
<path d="M170.974 673.476C171.766 674.912 172.058 675.588 172.058 677.27C161.661 682.469 151.315 683.385 140.08 680.522C138.222 679.895 136.432 679.194 134.66 678.354C136.395 677.779 137.28 677.843 138.962 678.524C148.85 682.046 159.137 680.813 168.806 677.27C169.611 677.002 169.611 677.002 170.432 676.728C170.611 675.655 170.79 674.582 170.974 673.476Z" fill="#F7E7E0"/>
<path d="M130.866 618.734C131.224 618.734 131.581 618.734 131.95 618.734C132.786 621.686 133.15 624.161 133.064 627.254C133.05 628.035 133.037 628.817 133.023 629.598C132.997 630.807 132.966 632.017 132.93 633.226C132.737 639.55 132.737 639.55 135.202 645.292C135.202 645.65 135.202 646.008 135.202 646.376C133.576 645.834 133.576 645.834 132.399 644.09C130.907 640.907 131.174 637.625 131.272 634.181C131.282 633.529 131.292 632.876 131.302 632.204C131.328 630.604 131.363 629.006 131.408 627.406C129.798 628.122 128.189 628.837 126.53 629.574C126.351 629.217 126.172 628.859 125.988 628.49C126.295 628.347 126.602 628.203 126.918 628.055C127.315 627.863 127.713 627.671 128.122 627.474C128.716 627.191 128.716 627.191 129.322 626.903C130.412 626.394 130.412 626.394 130.866 625.238C130.904 624.133 130.912 623.025 130.9 621.919C130.895 621.325 130.89 620.731 130.885 620.119C130.879 619.662 130.873 619.205 130.866 618.734Z" fill="#FBF3EE"/>
<path d="M135.202 689.736C138.932 690.287 142.369 691.347 145.907 692.616C146.349 692.769 146.791 692.923 147.246 693.082C150.039 694.11 151.998 695.288 154.172 697.324C153.993 697.682 153.814 698.04 153.63 698.408C150.217 698.576 147.536 698.157 144.27 697.181C142.155 696.612 140.092 696.419 137.912 696.24C137.912 695.883 137.912 695.525 137.912 695.156C141.156 694.973 143.711 695.5 146.819 696.42C148.404 696.833 149.832 696.915 151.462 696.782C148.04 694.941 144.604 693.717 140.893 692.582C140.344 692.411 139.795 692.24 139.229 692.063C137.888 691.646 136.545 691.232 135.202 690.82C135.202 690.463 135.202 690.105 135.202 689.736Z" fill="#F2DAD6"/>
<path d="M179.104 775.914C180.373 777.817 180.571 779.069 180.73 781.334C180.299 782.932 179.899 783.346 178.494 784.214C175.773 784.864 173.1 784.281 170.432 783.502C170.611 782.608 170.79 781.714 170.974 780.792C174.193 780.524 174.193 780.524 177.478 780.25C177.478 779.893 177.478 779.535 177.478 779.166C178.015 779.166 178.551 779.166 179.104 779.166C179.104 778.093 179.104 777.02 179.104 775.914Z" fill="#E9E8E9"/>
<path d="M135.744 732.554C139.5 732.554 143.256 732.554 147.126 732.554C146.516 738.652 146.516 738.652 145.5 741.226C145.254 740.869 145.008 740.511 144.755 740.142C144.464 739.785 144.174 739.427 143.874 739.058C143.516 739.058 143.159 739.058 142.79 739.058C142.79 739.953 142.79 740.847 142.79 741.768C142.253 741.768 141.717 741.768 141.164 741.768C141.182 740.831 141.22 739.894 141.266 738.957C141.284 738.435 141.303 737.913 141.323 737.376C141.706 735.806 141.706 735.806 144.416 733.096C141.554 733.096 138.692 733.096 135.744 733.096C135.744 732.918 135.744 732.739 135.744 732.554Z" fill="#EAB497"/>
<path d="M152.546 717.92C152.004 719.546 152.004 719.546 150.814 720.298C146.144 722.372 142.395 722.565 137.37 722.256C137.37 722.078 137.37 721.899 137.37 721.714C138.443 721.714 139.516 721.714 140.622 721.714C140.801 721.178 140.98 720.641 141.164 720.088C142.472 719.501 143.702 719.033 145.06 718.598C145.418 718.472 145.776 718.345 146.144 718.215C148.483 717.444 150.162 717.313 152.546 717.92Z" fill="#B92A26"/>
<path d="M160.725 590.5C161.624 591.092 161.625 591.092 162.844 592.176C161.218 592.718 161.218 592.718 160.208 592.219C159.635 591.93 159.635 591.93 159.05 591.634C155.304 591.233 151.827 591.77 148.21 592.718C148.217 593.104 148.222 593.489 148.229 593.885C148.237 594.632 148.237 594.632 148.244 595.395C148.25 595.891 148.257 596.388 148.263 596.9C148.21 598.138 148.21 598.138 147.668 598.68C147.542 599.592 147.444 600.508 147.363 601.425C147.295 602.171 147.295 602.171 147.226 602.934C147.193 603.319 147.16 603.704 147.126 604.1C146.589 604.1 146.053 604.1 145.5 604.1C145.142 603.027 144.785 601.954 144.416 600.848C144.953 600.848 145.489 600.848 146.042 600.848C146.472 597.964 146.817 595.077 147.126 592.176C151.305 590.334 156.26 588.564 160.725 590.5Z" fill="#F1EBE4"/>
<path d="M174.768 629.574C175.126 629.574 175.483 629.574 175.852 629.574C175.734 629.994 175.734 629.994 175.615 630.422C175.514 630.857 175.414 631.294 175.31 631.742C175.176 632.308 175.042 632.875 174.903 633.457C174.733 636.072 175.434 637.505 176.631 639.771C178.562 643.578 178.562 643.578 178.562 644.75C178.204 644.75 177.847 644.75 177.478 644.75C177.299 645.287 177.12 645.824 176.936 646.376C176.876 646.062 176.817 645.748 176.756 645.424C176.224 642.801 175.555 640.603 174.226 638.246C174.405 640.393 174.584 642.539 174.768 644.75C174.41 644.75 174.053 644.75 173.684 644.75C172.335 640.367 171.561 635.582 173.684 631.336C174.042 630.755 174.399 630.173 174.768 629.574Z" fill="#FAF0E8"/>
<path d="M133.576 735.264C133.934 735.264 134.291 735.264 134.66 735.264C134.66 735.622 134.66 735.98 134.66 736.348C135.018 736.348 135.375 736.348 135.744 736.348C135.744 735.991 135.744 735.633 135.744 735.264C136.046 735.365 136.348 735.466 136.659 735.57C138.128 735.848 139.182 735.624 140.622 735.264C140.98 736.516 141.337 737.768 141.706 739.058C141.169 739.416 140.633 739.774 140.08 740.142C139.722 739.785 139.365 739.427 138.996 739.058C138.459 739.416 137.923 739.774 137.37 740.142C136.833 739.606 136.297 739.069 135.744 738.516C136.415 739.288 136.415 739.288 137.099 740.075C138.454 741.633 138.454 741.633 138.454 742.852C136.379 742.037 135.321 740.925 134.118 739.058C133.711 736.992 133.711 736.992 133.576 735.264Z" fill="#EAAB8D"/>
<path d="M130.324 629.032C130.861 629.032 131.397 629.032 131.95 629.032C131.771 632.252 131.592 635.471 131.408 638.788C131.05 638.252 130.693 637.715 130.324 637.162C130.145 637.878 129.966 638.593 129.782 639.33C129.245 639.33 128.709 639.33 128.156 639.33C128.156 639.867 128.156 640.404 128.156 640.956C127.798 640.778 127.441 640.599 127.072 640.414C127.546 637.772 127.546 637.772 128.156 637.162C128.29 634.917 128.29 634.917 127.614 632.826C127.972 632.826 128.329 632.826 128.698 632.826C128.519 632.29 128.34 631.753 128.156 631.2C128.871 631.022 129.587 630.843 130.324 630.658C130.324 630.122 130.324 629.585 130.324 629.032Z" fill="#EAAE92"/>
<path d="M127.072 805.182C127.296 805.417 127.519 805.652 127.749 805.894C129.534 807.614 130.717 808.665 133.271 808.638C133.908 808.571 134.546 808.504 135.202 808.434C135.381 808.077 135.56 807.719 135.744 807.35C137.37 807.35 138.996 807.35 140.622 807.35C139.944 809.33 139.716 809.942 137.912 811.144C135.075 811.616 132.658 811.519 130.256 809.857C129.742 809.388 129.228 808.918 128.698 808.434C128.698 808.077 128.698 807.719 128.698 807.35C128.34 807.35 127.983 807.35 127.614 807.35C127.435 806.635 127.256 805.92 127.072 805.182Z" fill="#E6E6E8"/>
<path d="M143.332 592.176C144.42 592.332 145.505 592.512 146.584 592.718C147.135 595.858 147.106 597.845 146.042 600.848C144.432 600.58 144.432 600.58 142.79 600.306C142.775 599.053 142.765 597.8 142.756 596.547C142.75 595.848 142.743 595.15 142.737 594.431C142.79 592.718 142.79 592.718 143.332 592.176Z" fill="#5A4840"/>
<path d="M133.576 680.522C133.755 681.238 133.934 681.953 134.118 682.69C134.735 682.857 134.735 682.857 135.365 683.027C135.904 683.173 136.443 683.319 136.998 683.47C137.532 683.615 138.066 683.759 138.617 683.908C139.655 684.198 140.684 684.518 141.706 684.858C142.864 684.94 144.024 684.993 145.185 685.03C145.864 685.053 146.543 685.075 147.244 685.099C148.309 685.131 148.309 685.131 149.396 685.164C150.119 685.187 150.843 685.211 151.567 685.235C153.338 685.292 155.11 685.347 156.882 685.4C156.882 685.758 156.882 686.116 156.882 686.484C154.477 686.548 152.072 686.586 149.667 686.62C148.656 686.648 148.656 686.648 147.625 686.675C143.73 686.716 140.625 686.385 137.033 684.839C135.704 684.301 134.444 684.014 133.034 683.774C133.213 682.701 133.392 681.628 133.576 680.522Z" fill="#F4DFDB"/>
<path d="M177.478 710.332C176.814 710.687 176.147 711.036 175.48 711.383C175.108 711.577 174.738 711.773 174.355 711.974C171.271 713.313 168.04 713.142 164.741 713.144C164.233 713.151 163.725 713.157 163.202 713.164C158.608 713.174 158.608 713.174 156.34 711.958C156.34 711.601 156.34 711.243 156.34 710.874C156.786 710.961 157.232 711.048 157.691 711.137C159.8 711.447 161.868 711.542 163.996 711.552C164.6 711.555 164.6 711.555 165.217 711.558C168.3 711.526 171.05 711.029 173.999 710.093C175.395 709.771 176.143 709.863 177.478 710.332Z" fill="#F2D9D6"/>
<path d="M177.478 621.444C179.51 622.799 179.623 623.434 180.188 625.78C180.37 627.947 180.386 630.118 180.4 632.291C180.487 635.322 180.924 636.994 182.898 639.33C183.256 639.509 183.613 639.688 183.982 639.872C183.982 640.23 183.982 640.588 183.982 640.956C181.539 640.21 180.413 639.366 179.104 637.162C178.761 635.032 178.726 632.915 178.698 630.76C178.681 630.178 178.666 629.596 178.649 628.996C178.611 627.563 178.582 626.13 178.562 624.696C178.025 624.696 177.489 624.696 176.936 624.696C177.115 623.623 177.294 622.55 177.478 621.444Z" fill="#F9EFE6"/>
<path d="M16.504 621.986C30.0974 621.986 43.6907 621.986 57.696 621.986C57.696 622.165 57.696 622.344 57.696 622.528C44.4604 622.528 31.2247 622.528 17.588 622.528C17.2303 623.78 16.8726 625.032 16.504 626.322C16.3251 626.322 16.1463 626.322 15.962 626.322C15.8942 623.206 15.8942 623.206 16.504 621.986Z" fill="#B4B4B6"/>
<path d="M157.424 715.21C157.927 715.613 158.43 716.015 158.949 716.43C161.46 718.244 164.255 719.142 167.18 720.088C167.001 720.625 166.822 721.162 166.638 721.714C165.779 721.546 164.921 721.376 164.064 721.207C163.585 721.112 163.108 721.018 162.615 720.92C161.417 720.672 160.234 720.396 159.05 720.088C158.871 720.446 158.692 720.804 158.508 721.172C157.614 720.994 156.719 720.815 155.798 720.63C155.977 720.094 156.156 719.557 156.34 719.004C157.413 719.273 157.413 719.273 158.508 719.546C158.15 719.01 157.793 718.473 157.424 717.92C156.887 718.189 156.887 718.189 156.34 718.462C156.34 717.747 156.34 717.032 156.34 716.294C156.698 716.294 157.055 716.294 157.424 716.294C157.424 715.937 157.424 715.579 157.424 715.21Z" fill="#B62722"/>
<path d="M133.034 683.774C136.095 683.962 138.836 684.908 141.706 685.942C141.169 686.211 141.169 686.211 140.622 686.484C140.622 686.842 140.622 687.2 140.622 687.568C139.907 687.568 139.191 687.568 138.454 687.568C138.275 687.211 138.096 686.853 137.912 686.484C137.018 686.663 136.123 686.842 135.202 687.026C135.023 687.921 134.844 688.815 134.66 689.736C133.034 689.194 133.034 689.194 132.492 688.11C132.313 688.11 132.134 688.11 131.95 688.11C131.882 686.552 131.882 686.552 131.95 684.858C132.308 684.501 132.665 684.143 133.034 683.774Z" fill="#BB312E"/>
<path d="M191.57 620.36C205.163 620.36 218.757 620.36 232.762 620.36C232.762 620.539 232.762 620.718 232.762 620.902C219.705 620.902 206.648 620.902 193.196 620.902C193.196 621.26 193.196 621.618 193.196 621.986C192.659 621.808 192.123 621.629 191.57 621.444C191.57 621.087 191.57 620.729 191.57 620.36Z" fill="#B3B3B5"/>
<path d="M134.118 698.408C141.896 699.026 147.934 702.243 153.63 707.622C153.63 707.98 153.63 708.338 153.63 708.706C151.915 707.91 150.45 706.937 148.922 705.827C144.064 702.421 139.998 700.611 134.118 699.492C134.118 699.135 134.118 698.777 134.118 698.408Z" fill="#F3D9D5"/>
<path d="M169.89 689.194C169.89 689.552 169.89 689.91 169.89 690.278C169.147 690.633 168.401 690.982 167.654 691.329C167.239 691.523 166.824 691.719 166.397 691.92C163.296 693.1 160.154 693.088 156.882 693.09C156.247 693.1 156.247 693.1 155.599 693.11C153.098 693.117 151.106 692.859 148.752 691.904C148.752 691.547 148.752 691.189 148.752 690.82C149.098 690.907 149.445 690.992 149.802 691.081C157.196 692.335 163.023 689.194 169.89 689.194Z" fill="#F4E3E0"/>
<path d="M159.05 719.004C159.229 719.362 159.408 719.72 159.592 720.088C160.954 720.443 160.954 720.443 162.539 720.665C165.459 721.125 165.459 721.125 166.638 721.714C166.638 722.072 166.638 722.43 166.638 722.798C165.786 722.731 165.786 722.731 164.917 722.661C164.169 722.605 163.422 722.549 162.675 722.494C162.113 722.448 162.113 722.448 161.541 722.402C159.795 722.275 158.561 722.239 156.882 722.798C157.061 723.335 157.24 723.872 157.424 724.424C157.46 725.27 157.47 726.118 157.458 726.965C157.453 727.403 157.448 727.841 157.443 728.293C157.437 728.626 157.431 728.959 157.424 729.302C157.066 729.302 156.709 729.302 156.34 729.302C156.161 726.441 155.982 723.579 155.798 720.63C157.139 720.899 157.139 720.899 158.508 721.172C158.687 720.457 158.866 719.742 159.05 719.004Z" fill="#BB3432"/>
<path d="M146.042 690.82C146.4 691.178 146.757 691.536 147.126 691.904C151.534 693.019 156.154 693.253 160.676 693.53C160.676 693.709 160.676 693.888 160.676 694.072C157.188 694.341 157.188 694.341 153.63 694.614C154.167 695.688 154.703 696.761 155.256 697.866C153.945 697.262 152.82 696.596 151.632 695.766C149.498 694.398 147.291 693.421 144.958 692.446C145.316 692.268 145.673 692.089 146.042 691.904C146.042 691.547 146.042 691.189 146.042 690.82Z" fill="#B62621"/>
<path d="M176.394 732.554C176.318 733.526 176.238 734.497 176.157 735.468C176.113 736.009 176.069 736.55 176.023 737.107C175.852 738.516 175.852 738.516 175.31 739.6C174.773 739.6 174.237 739.6 173.684 739.6C173.684 738.527 173.684 737.454 173.684 736.348C173.147 736.17 172.611 735.991 172.058 735.806C171.879 735.27 171.7 734.733 171.516 734.18C170.622 734.18 169.727 734.18 168.806 734.18C168.806 734.002 168.806 733.823 168.806 733.638C169.663 733.455 170.522 733.275 171.38 733.096C171.859 732.996 172.336 732.895 172.829 732.792C174.226 732.554 174.226 732.554 176.394 732.554Z" fill="#E8AC92"/>
<path d="M169.348 703.286C169.348 703.644 169.348 704.002 169.348 704.37C166.844 705.265 164.34 706.159 161.76 707.08C161.76 707.438 161.76 707.796 161.76 708.164C161.223 708.433 161.223 708.433 160.676 708.706C160.548 709.918 160.548 709.918 161.76 710.874C160.329 711.053 158.898 711.232 157.424 711.416C157.245 710.88 157.066 710.343 156.882 709.79C156.547 709.903 156.212 710.014 155.866 710.129C155.486 710.196 155.106 710.264 154.714 710.332C154.356 709.975 153.999 709.617 153.63 709.248C157.763 708.639 157.763 708.639 159.592 709.248C159.592 708.354 159.592 707.46 159.592 706.538C161.215 705.81 162.842 705.089 164.47 704.37C164.973 704.147 165.476 703.923 165.995 703.693C167.18 703.286 167.18 703.286 169.348 703.286ZM157.966 708.164C159.05 708.706 159.05 708.706 159.05 708.706L157.966 708.164Z" fill="#BD3631"/>
<path d="M153.088 698.95C153.088 699.129 153.088 699.308 153.088 699.492C152.194 699.671 151.299 699.85 150.378 700.034C150.736 700.392 151.093 700.75 151.462 701.118C149.086 700.673 146.758 700.088 144.416 699.492C144.595 700.029 144.774 700.566 144.958 701.118C141.841 700.17 141.841 700.17 140.622 698.95C141.159 698.95 141.695 698.95 142.248 698.95C142.248 698.593 142.248 698.235 142.248 697.866C145.74 696.703 149.636 698.009 153.088 698.95Z" fill="#B82822"/>
<path d="M151.462 696.24C151.641 696.598 151.82 696.956 152.004 697.324C149.008 697.524 146.602 696.937 143.73 696.097C141.79 695.575 139.91 695.345 137.912 695.156C137.912 694.978 137.912 694.799 137.912 694.614C143 693.376 146.937 693.316 151.462 696.24Z" fill="#B6231F"/>
<path d="M168.264 791.632C173.572 792.616 173.572 792.616 175.852 794.342C176.389 795.147 176.389 795.147 176.936 795.968C176.757 796.505 176.578 797.042 176.394 797.594C176.048 797.36 175.701 797.125 175.344 796.883C173.247 795.727 171.088 795.044 168.806 794.342C168.627 793.448 168.448 792.554 168.264 791.632Z" fill="#C4C4C6"/>
<path d="M177.478 748.272C177.836 748.451 178.193 748.63 178.562 748.814C178.562 757.4 178.562 765.985 178.562 774.83C178.383 774.83 178.204 774.83 178.02 774.83C178.009 774.319 177.998 773.808 177.987 773.281C177.945 771.377 177.898 769.473 177.848 767.569C177.827 766.746 177.809 765.924 177.791 765.101C177.766 763.916 177.735 762.73 177.702 761.545C177.686 760.833 177.668 760.121 177.651 759.386C177.489 757.605 177.081 756.402 176.394 754.776C176.573 754.419 176.752 754.061 176.936 753.692C177.058 752.769 177.158 751.843 177.241 750.915C177.286 750.421 177.332 749.928 177.378 749.42C177.411 749.042 177.444 748.663 177.478 748.272Z" fill="#E7A384"/>
<path d="M152.004 720.088C152.004 720.446 152.004 720.804 152.004 721.172C147.966 722.774 144.449 723.438 140.08 723.442C139.708 723.449 139.336 723.455 138.954 723.462C136.59 723.469 134.688 723.125 132.492 722.256C132.492 721.899 132.492 721.541 132.492 721.172C132.835 721.259 133.178 721.346 133.532 721.435C135.778 721.811 137.975 721.836 140.25 721.85C140.913 721.867 140.913 721.867 141.591 721.884C145.339 721.908 148.398 720.088 152.004 720.088Z" fill="#F1D9D4"/>
<path d="M142.248 622.528C145.11 622.528 147.972 622.528 150.92 622.528C150.92 622.886 150.92 623.244 150.92 623.612C153.066 623.791 155.213 623.97 157.424 624.154C157.424 624.333 157.424 624.512 157.424 624.696C152.595 624.696 147.766 624.696 142.79 624.696C142.611 623.981 142.432 623.266 142.248 622.528Z" fill="#C0C0C4"/>
<path d="M130.866 783.502C131.045 784.039 131.224 784.576 131.408 785.128C133.554 785.307 135.701 785.486 137.912 785.67C138.091 786.386 138.27 787.101 138.454 787.838C137.892 787.793 137.33 787.748 136.752 787.701C136.01 787.645 135.267 787.589 134.524 787.534C134.155 787.503 133.785 787.473 133.405 787.442C131.548 787.306 129.93 787.221 128.156 787.838C128.514 786.765 128.871 785.692 129.24 784.586C128.882 784.408 128.525 784.229 128.156 784.044C129.05 783.866 129.945 783.687 130.866 783.502Z" fill="#E7E8EA"/>
<path d="M192.112 636.078C192.47 636.078 192.827 636.078 193.196 636.078C192.79 639.669 192.79 639.669 191.57 641.498C190.046 641.769 190.046 641.769 188.318 641.498C186.76 640.245 186.76 640.245 185.608 638.788C185.608 638.252 185.608 637.715 185.608 637.162C185.966 637.162 186.323 637.162 186.692 637.162C187.573 638.246 187.573 638.246 188.318 639.33C188.676 639.152 189.033 638.973 189.402 638.788C189.223 638.431 189.044 638.073 188.86 637.704C189.754 637.704 190.649 637.704 191.57 637.704C191.749 637.168 191.928 636.631 192.112 636.078Z" fill="#EEC2AB"/>
<path d="M144.416 687.026C148.53 687.026 152.644 687.026 156.882 687.026C156.882 687.384 156.882 687.742 156.882 688.11C157.24 688.289 157.597 688.468 157.966 688.652C157.787 689.189 157.608 689.726 157.424 690.278C155.635 690.457 153.847 690.636 152.004 690.82C152.362 690.642 152.719 690.463 153.088 690.278C153.088 689.384 153.088 688.49 153.088 687.568C150.226 687.568 147.364 687.568 144.416 687.568C144.416 687.39 144.416 687.211 144.416 687.026Z" fill="#B7241F"/>
<path d="M141.164 639.872C141.522 639.872 141.879 639.872 142.248 639.872C142.069 641.124 141.89 642.376 141.706 643.666C141.348 643.666 140.991 643.666 140.622 643.666C140.801 644.918 140.98 646.17 141.164 647.46C138.754 646.703 137.343 645.621 135.744 643.666C135.304 641.871 135.304 641.871 135.202 640.414C136.828 641.498 136.828 641.498 137.37 642.888C137.549 643.323 137.728 643.76 137.912 644.208C138.449 644.387 138.985 644.566 139.538 644.75C139.605 644.449 139.672 644.147 139.741 643.836C140.113 642.463 140.617 641.185 141.164 639.872Z" fill="#EFC8B5"/>
<path d="M65.826 619.818C67.9262 620.835 67.9262 620.835 68.536 621.444C68.6184 622.402 68.6563 623.363 68.6715 624.324C68.6926 625.109 68.6926 625.109 68.7138 625.91C68.5105 627.619 68.1046 628.354 66.91 629.574C66.5523 629.574 66.1946 629.574 65.826 629.574C65.826 629.217 65.826 628.859 65.826 628.49C64.7528 628.49 63.6797 628.49 62.574 628.49C62.7529 628.133 62.9317 627.775 63.116 627.406C64.5469 627.406 65.9778 627.406 67.452 627.406C67.452 625.618 67.452 623.829 67.452 621.986C65.6634 621.986 63.8748 621.986 62.032 621.986C62.032 621.808 62.032 621.629 62.032 621.444C62.8201 621.344 62.8201 621.344 63.6244 621.241C64.4455 621.074 64.4455 621.074 65.284 620.902C65.4629 620.545 65.6417 620.187 65.826 619.818Z" fill="#F4F4F5"/>
<path d="M140.046 723.239C140.733 723.232 141.42 723.223 142.127 723.216C143.874 723.34 143.874 723.34 144.958 724.424C144.779 724.782 144.6 725.14 144.416 725.508C141.353 726.1 138.813 726.002 135.744 725.508C135.744 722.499 137.423 723.252 140.046 723.239Z" fill="#BD3632"/>
<path d="M179.104 799.22C179.892 799.489 179.892 799.489 180.696 799.762C183.235 800.493 186.432 800.977 188.86 799.762C189.944 799.741 191.028 799.739 192.112 799.762C192.112 800.12 192.112 800.478 192.112 800.846C189.229 802.082 186.597 803.147 183.44 802.472C181.873 801.724 180.454 800.857 179.104 799.762C179.104 799.584 179.104 799.405 179.104 799.22Z" fill="#E7E7E9"/>
<path d="M170.974 690.82C170.974 691.178 170.974 691.536 170.974 691.904C170.189 692.491 170.189 692.491 169.092 693.12C168.693 693.351 168.295 693.582 167.884 693.82C167.462 694.061 167.039 694.3 166.604 694.547C166.196 694.782 165.789 695.018 165.369 695.26C164.558 695.728 163.746 696.193 162.933 696.655C162.168 697.091 161.407 697.534 160.649 697.981C158.081 699.492 158.081 699.492 156.882 699.492C157.546 697.499 158.002 697.395 159.81 696.442C160.292 696.183 160.775 695.924 161.272 695.657C161.78 695.392 162.287 695.126 162.81 694.852C163.81 694.322 164.808 693.791 165.806 693.257C166.251 693.024 166.696 692.79 167.155 692.549C170.13 690.82 170.13 690.82 170.974 690.82Z" fill="#F2DAD6"/>
<path d="M164.47 692.988C164.47 693.525 164.47 694.062 164.47 694.614C163.603 695.07 162.733 695.521 161.862 695.969C161.136 696.347 161.136 696.347 160.394 696.732C159.05 697.324 159.05 697.324 157.424 697.324C157.424 696.967 157.424 696.609 157.424 696.24C157.77 696.084 158.117 695.928 158.474 695.766C159.674 695.25 159.674 695.25 160.134 694.072C157.988 693.894 155.841 693.715 153.63 693.53C153.63 693.352 153.63 693.173 153.63 692.988C154.928 692.882 156.227 692.781 157.526 692.684C158.073 692.638 158.073 692.638 158.632 692.592C160.685 692.442 162.474 692.465 164.47 692.988Z" fill="#C03C38"/>
<path d="M155.798 630.116C156.156 630.116 156.513 630.116 156.882 630.116C157.828 634.619 158.253 639.075 158.508 643.666C158.15 643.666 157.793 643.666 157.424 643.666C156.557 641.931 156.523 640.018 156.306 638.111C156.257 637.704 156.208 637.296 156.157 636.877C155.894 634.61 155.743 632.404 155.798 630.116Z" fill="#F9EAE0"/>
<path d="M185.066 617.108C185.424 617.108 185.781 617.108 186.15 617.108C186.374 617.768 186.597 618.428 186.827 619.107C187.758 621.575 188.826 623.502 191.163 624.866C191.477 624.989 191.79 625.112 192.112 625.238C191.575 625.238 191.039 625.238 190.486 625.238C190.307 625.596 190.128 625.954 189.944 626.322C187.366 623.345 185.708 621.029 185.066 617.108ZM191.028 620.36C192.249 621.818 193.132 622.879 193.738 624.696C194.632 624.875 195.527 625.054 196.448 625.238C196.448 625.417 196.448 625.596 196.448 625.78C195.196 625.78 193.944 625.78 192.654 625.78C191.552 623.759 191.028 622.708 191.028 620.36Z" fill="#F8F4F0"/>
<path d="M148.21 610.604C149.714 611.179 151.1 611.788 152.512 612.569C154.394 613.414 155.386 613.605 157.424 613.314C158.775 612.684 159.956 611.954 161.218 611.146C161.397 611.504 161.576 611.862 161.76 612.23C158.134 614.808 158.134 614.808 155.798 615.246C152.937 614.709 150.61 613.288 148.21 611.688C148.21 611.331 148.21 610.973 148.21 610.604Z" fill="#FAF0E6"/>
<path d="M158.508 715.21C158.866 715.21 159.223 715.21 159.592 715.21C159.771 715.568 159.95 715.926 160.134 716.294C161.129 716.548 161.129 716.548 162.321 716.638C162.759 716.683 163.198 716.729 163.649 716.775C164.341 716.839 164.341 716.839 165.046 716.904C165.74 716.975 165.74 716.975 166.448 717.046C167.595 717.162 168.743 717.271 169.89 717.378C169.89 717.736 169.89 718.094 169.89 718.462C168.501 718.507 167.113 718.539 165.724 718.564C165.137 718.585 165.137 718.585 164.539 718.606C162.076 718.639 160.418 718.453 158.508 716.836C158.508 716.3 158.508 715.763 158.508 715.21Z" fill="#F1D5D0"/>
<path d="M156.34 712.5C163.584 712.769 163.584 712.769 170.974 713.042C170.974 713.221 170.974 713.4 170.974 713.584C169.675 713.676 168.377 713.766 167.079 713.855C166.713 713.881 166.348 713.907 165.972 713.934C164.022 714.067 162.088 714.157 160.134 714.126C159.955 714.484 159.776 714.842 159.592 715.21C157.879 714.468 157.428 714.132 156.34 712.5Z" fill="#B51E18"/>
<path d="M150.92 622.528C154.676 622.528 158.432 622.528 162.302 622.528C159.863 624.358 159.863 624.358 157.433 624.313C156.926 624.308 156.419 624.303 155.898 624.298C155.373 624.284 154.848 624.27 154.307 624.256C153.774 624.249 153.241 624.242 152.692 624.234C151.379 624.215 150.065 624.188 148.752 624.154C149.467 623.976 150.183 623.797 150.92 623.612C150.92 623.255 150.92 622.897 150.92 622.528Z" fill="#B3B5B5"/>
<path d="M142.79 600.306C143.863 600.575 143.863 600.575 144.958 600.848C145.137 601.922 145.316 602.995 145.5 604.1C146.037 604.1 146.573 604.1 147.126 604.1C147.126 604.458 147.126 604.816 147.126 605.184C146.232 605.542 145.337 605.9 144.416 606.268C143.249 604.847 142.573 603.751 142.248 601.932C142.606 601.754 142.963 601.575 143.332 601.39C143.153 601.033 142.974 600.675 142.79 600.306Z" fill="#E7B298"/>
<path d="M192.112 798.678C192.291 799.394 192.47 800.109 192.654 800.846C192.475 800.489 192.296 800.131 192.112 799.762C191.497 799.941 190.882 800.12 190.249 800.304C186.936 801.128 183.773 801.49 180.73 799.762C180.73 799.584 180.73 799.405 180.73 799.22C181.226 799.227 181.722 799.233 182.233 799.239C182.877 799.244 183.521 799.249 184.185 799.255C185.147 799.264 185.147 799.264 186.129 799.274C188.224 799.206 189.928 798.631 192.112 798.678Z" fill="#CBCBCD"/>
<path d="M139.538 704.912C143.337 705.85 146.857 706.994 150.378 708.706C150.378 709.064 150.378 709.422 150.378 709.79C147.924 709.455 145.75 708.835 143.434 707.961C142.815 707.734 142.197 707.506 141.56 707.271C141.071 707.029 140.583 706.788 140.08 706.538C139.901 706.002 139.722 705.465 139.538 704.912Z" fill="#F1D4D2"/>
<path d="M166.638 761.28C167.711 761.817 167.711 761.817 168.806 762.364C168.806 762.722 168.806 763.08 168.806 763.448C169.164 763.448 169.521 763.448 169.89 763.448C169.711 764.343 169.532 765.237 169.348 766.158C169.706 766.158 170.063 766.158 170.432 766.158C170.432 767.41 170.432 768.662 170.432 769.952C168.73 769.101 168.578 767.663 167.925 765.922C167.684 765.285 167.442 764.648 167.192 763.993C166.638 762.364 166.638 762.364 166.638 761.28Z" fill="#E8A789"/>
<path d="M151.462 715.752C151.462 716.11 151.462 716.468 151.462 716.836C150.052 717.382 148.64 717.923 147.228 718.462C146.628 718.696 146.628 718.696 146.015 718.932C145.63 719.079 145.244 719.226 144.846 719.377C144.491 719.513 144.136 719.65 143.77 719.79C142.79 720.088 142.79 720.088 141.164 720.088C141.343 719.552 141.522 719.015 141.706 718.462C143.243 717.848 143.243 717.848 145.161 717.311C145.792 717.131 146.421 716.95 147.071 716.764C147.903 716.532 147.903 716.532 148.752 716.294C150.378 715.752 150.378 715.752 151.462 715.752Z" fill="#F3DAD5"/>
<path d="M134.66 678.354C135.553 678.598 136.445 678.848 137.336 679.1C137.833 679.238 138.33 679.377 138.842 679.519C140.08 679.98 140.08 679.98 140.622 681.064C139.012 681.064 137.403 681.064 135.744 681.064C135.565 681.601 135.386 682.138 135.202 682.69C134.844 682.69 134.487 682.69 134.118 682.69C134.05 679.574 134.05 679.574 134.66 678.354Z" fill="#B62C27"/>
<path d="M132.492 631.742C134.129 633.54 134.327 634.759 134.288 637.162C134.285 637.722 134.283 638.281 134.281 638.856C134.122 640.375 133.815 641.288 133.034 642.582C132.545 641.115 132.427 640.286 132.439 638.782C132.441 638.372 132.443 637.961 132.444 637.539C132.449 637.113 132.454 636.687 132.458 636.248C132.461 635.816 132.463 635.384 132.465 634.939C132.472 633.873 132.482 632.808 132.492 631.742Z" fill="#EAAB8F"/>
<path d="M146.042 592.718C147.2 594.781 147.105 595.819 146.584 598.138C146.483 598.653 146.383 599.167 146.279 599.697C146.201 600.077 146.123 600.457 146.042 600.848C144.432 600.58 144.432 600.58 142.79 600.306C142.79 598.339 142.79 596.372 142.79 594.344C142.969 594.344 143.148 594.344 143.332 594.344C143.332 595.954 143.332 597.564 143.332 599.222C143.69 599.222 144.047 599.222 144.416 599.222C145.513 597.577 145.674 596.949 145.839 595.056C145.879 594.618 145.92 594.18 145.962 593.729C145.988 593.395 146.015 593.062 146.042 592.718Z" fill="#4E3D38"/>
<path d="M148.752 730.386C148.394 731.817 148.037 733.248 147.668 734.722C147.489 734.007 147.31 733.292 147.126 732.554C143.37 732.554 139.614 732.554 135.744 732.554C135.744 732.376 135.744 732.197 135.744 732.012C136.332 731.986 136.921 731.959 137.527 731.932C138.31 731.892 139.094 731.85 139.877 731.809C140.263 731.792 140.65 731.776 141.047 731.759C143.693 731.613 146.21 730.386 148.752 730.386Z" fill="#F9F0EC"/>
<path d="M144.958 720.088C144.6 720.088 144.243 720.088 143.874 720.088C143.874 720.446 143.874 720.804 143.874 721.172C144.589 721.351 145.305 721.53 146.042 721.714C145.5 722.256 145.5 722.256 143.669 722.31C142.913 722.306 142.157 722.299 141.401 722.291C141.016 722.288 140.631 722.286 140.233 722.283C139.279 722.276 138.324 722.267 137.37 722.256C137.37 722.078 137.37 721.899 137.37 721.714C138.443 721.714 139.516 721.714 140.622 721.714C140.801 721.178 140.98 720.641 141.164 720.088C142.862 719.523 143.327 719.582 144.958 720.088Z" fill="#B6211E"/>
<path d="M179.104 617.65C180.714 617.919 180.714 617.919 182.356 618.192C182.714 619.266 183.071 620.339 183.44 621.444C183.082 621.444 182.725 621.444 182.356 621.444C182.356 621.802 182.356 622.16 182.356 622.528C180.73 621.986 180.73 621.986 179.816 620.395C179.104 618.734 179.104 618.734 179.104 617.65Z" fill="#F7E5DA"/>
<path d="M234.794 596.987C235.328 596.996 235.862 597.006 236.412 597.016C237.02 597.035 237.02 597.035 237.64 597.054C237.64 597.412 237.64 597.77 237.64 598.138C235.673 598.138 233.705 598.138 231.678 598.138C231.32 599.033 230.963 599.927 230.594 600.848C229.442 601.289 229.442 601.289 228.426 601.39C229.223 598.337 229.223 598.337 230.442 597.495C231.958 596.955 233.189 596.949 234.794 596.987Z" fill="#87878B"/>
<path d="M74.498 645.834C74.6769 645.834 74.8557 645.834 75.04 645.834C74.8904 649.198 74.4406 651.31 72.33 653.964C71.6146 653.786 70.8991 653.607 70.162 653.422C70.5083 653.266 70.8552 653.11 71.2124 652.948C72.4124 652.432 72.4124 652.432 72.872 651.254C72.5143 651.076 72.1566 650.897 71.788 650.712C71.9669 650.176 72.1457 649.639 72.33 649.086C72.6877 649.086 73.0454 649.086 73.414 649.086C73.7717 648.013 74.1294 646.94 74.498 645.834Z" fill="#7A7A7D"/>
<path d="M138.454 733.638C140.421 733.638 142.389 733.638 144.416 733.638C144.058 733.929 143.701 734.22 143.332 734.519C142.08 735.752 142.08 735.752 142.112 737.568C142.157 738.06 142.202 738.552 142.248 739.058C140.891 737.466 140.368 736.251 140.08 734.18C139.543 734.002 139.007 733.823 138.454 733.638Z" fill="#EAAB8F"/>
<path d="M166.638 737.432C168.2 738.046 168.81 738.523 169.822 739.906C170.889 741.384 170.889 741.384 172.736 741.667C173.473 741.717 173.473 741.717 174.226 741.768C174.226 742.126 174.226 742.484 174.226 742.852C172.77 743.022 172.77 743.022 170.974 742.852C169.518 741.599 169.518 741.599 168.264 740.142C167.94 739.841 167.616 739.539 167.282 739.228C166.638 738.516 166.638 738.516 166.638 737.432Z" fill="#FBEEE4"/>
<path d="M133.576 735.264C133.934 735.264 134.291 735.264 134.66 735.264C134.884 735.935 135.107 736.606 135.337 737.297C136.057 739.244 136.895 740.371 138.454 741.768C138.454 742.126 138.454 742.484 138.454 742.852C136.379 742.037 135.321 740.925 134.118 739.058C133.711 736.992 133.711 736.992 133.576 735.264Z" fill="#F9EEE4"/>
<path d="M147.668 694.614C150.785 695.495 150.785 695.495 152.004 697.324C149.19 697.439 147.057 697.103 144.416 696.24C144.953 695.883 145.489 695.525 146.042 695.156C146.579 695.335 147.115 695.514 147.668 695.698C147.668 695.341 147.668 694.983 147.668 694.614Z" fill="#B62A27"/>
<path d="M168.264 792.716C171.126 792.996 172.91 793.939 175.31 795.426C175.131 795.784 174.952 796.142 174.768 796.51C173.783 796.191 172.801 795.862 171.821 795.528C171.274 795.346 170.727 795.164 170.163 794.975C169.715 794.767 169.267 794.558 168.806 794.342C168.627 793.806 168.448 793.269 168.264 792.716Z" fill="#E8E8EA"/>
<path d="M131.95 636.078C132.129 636.078 132.308 636.078 132.492 636.078C132.581 636.736 132.581 636.736 132.672 637.406C132.758 637.985 132.844 638.565 132.933 639.161C133.014 639.734 133.096 640.305 133.18 640.895C133.59 642.642 134.243 643.793 135.202 645.292C135.202 645.65 135.202 646.008 135.202 646.376C133.384 645.77 133.223 645.577 132.357 643.972C131.07 641.287 131.412 638.933 131.95 636.078Z" fill="#FAEDE5"/>
<path d="M169.348 703.286C169.348 703.644 169.348 704.002 169.348 704.37C168.312 704.75 167.272 705.121 166.231 705.489C165.653 705.696 165.074 705.903 164.479 706.117C162.886 706.528 162.181 706.577 160.676 705.996C161.713 705.54 162.752 705.09 163.792 704.641C164.371 704.39 164.95 704.138 165.545 703.879C167.18 703.286 167.18 703.286 169.348 703.286Z" fill="#F5E0D7"/>
<path d="M149.836 698.408C151.267 698.408 152.698 698.408 154.172 698.408C153.814 699.482 153.457 700.555 153.088 701.66C152.015 701.66 150.942 701.66 149.836 701.66C149.836 700.576 149.836 699.492 149.836 698.408Z" fill="#BE3834"/>
<path d="M137.37 666.43C137.549 666.43 137.728 666.43 137.912 666.43C138.27 669.471 138.627 672.512 138.996 675.644C138.459 675.823 137.923 676.002 137.37 676.186C136.665 674.119 136.885 672.243 137.065 670.089C137.12 669.404 137.175 668.72 137.232 668.014C137.278 667.492 137.323 666.969 137.37 666.43Z" fill="#E7A683"/>
<path d="M129.782 634.452C129.961 634.452 130.14 634.452 130.324 634.452C130.145 636.062 129.966 637.672 129.782 639.33C129.245 639.33 128.709 639.33 128.156 639.33C128.156 639.867 128.156 640.404 128.156 640.956C127.798 640.778 127.441 640.599 127.072 640.414C127.36 637.97 128.323 636.412 129.782 634.452Z" fill="#F1D0BE"/>
<path d="M160.134 720.088C163.353 720.893 163.353 720.893 166.638 721.714C166.638 722.072 166.638 722.43 166.638 722.798C165.859 722.737 165.079 722.667 164.301 722.595C163.867 722.558 163.433 722.52 162.986 722.481C161.76 722.256 161.76 722.256 160.134 721.172C160.134 720.815 160.134 720.457 160.134 720.088Z" fill="#ECC9C4"/>
<path d="M176.394 709.248C177.288 709.248 178.183 709.248 179.104 709.248C179.104 710.322 179.104 711.395 179.104 712.5C177.852 712.679 176.6 712.858 175.31 713.042C175.31 712.327 175.31 711.612 175.31 710.874C175.847 710.696 176.383 710.517 176.936 710.332C176.757 709.975 176.578 709.617 176.394 709.248Z" fill="#C34640"/>
<path d="M169.89 689.194C170.248 689.552 170.605 689.91 170.974 690.278C170.209 690.813 169.44 691.343 168.67 691.871C168.029 692.314 168.029 692.314 167.375 692.766C166.19 693.475 165.275 693.829 163.928 694.072C163.928 693.536 163.928 692.999 163.928 692.446C164.717 692.083 165.508 691.722 166.299 691.362C166.959 691.061 166.959 691.061 167.633 690.753C168.806 690.278 168.806 690.278 169.89 690.278C169.89 689.921 169.89 689.563 169.89 689.194Z" fill="#B2201C"/>
<path d="M169.89 689.194C169.89 689.552 169.89 689.91 169.89 690.278C164.89 692.868 164.89 692.868 161.76 691.904C163.286 691.103 164.799 690.482 166.435 689.94C167.066 689.728 167.066 689.728 167.71 689.512C168.806 689.194 168.806 689.194 169.89 689.194Z" fill="#F0D5D0"/>
<path d="M140.08 689.194C140.259 689.552 140.438 689.91 140.622 690.278C141.315 690.268 142.008 690.256 142.722 690.245C144.822 690.211 144.822 690.211 146.042 690.82C146.042 691.178 146.042 691.536 146.042 691.904C144.12 692.583 142.94 692.296 141.028 691.668C140.545 691.511 140.062 691.356 139.563 691.195C139.197 691.072 138.831 690.948 138.454 690.82C138.991 690.642 139.527 690.463 140.08 690.278C140.08 689.921 140.08 689.563 140.08 689.194Z" fill="#BD3835"/>
<path d="M135.202 640.414C136.828 641.498 136.828 641.498 137.302 642.853C137.799 644.34 137.799 644.34 139.335 644.92C139.972 645.104 139.972 645.104 140.622 645.292C140.622 645.65 140.622 646.008 140.622 646.376C139.132 646.309 139.132 646.309 137.37 645.834C135.709 643.868 135.202 643.018 135.202 640.414Z" fill="#FAEDE3"/>
<path d="M61.49 628.49C62.9209 628.49 64.3518 628.49 65.826 628.49C65.826 628.848 65.826 629.206 65.826 629.574C66.3626 629.396 66.8992 629.217 67.452 629.032C67.452 629.39 67.452 629.748 67.452 630.116C66.3788 630.474 65.3057 630.832 64.2 631.2C64.2 630.843 64.2 630.485 64.2 630.116C62.51 629.925 62.51 629.925 61.49 631.2C61.49 630.306 61.49 629.412 61.49 628.49Z" fill="#8B8B8E"/>
<path d="M175.852 733.096C176.031 733.096 176.21 733.096 176.394 733.096C176.215 734.885 176.036 736.674 175.852 738.516C175.315 738.695 174.779 738.874 174.226 739.058C174.047 737.628 173.868 736.197 173.684 734.722C174.221 734.544 174.757 734.365 175.31 734.18C175.489 733.823 175.668 733.465 175.852 733.096Z" fill="#EFC6AF"/>
<path d="M142.79 681.064C142.253 681.064 141.717 681.064 141.164 681.064C141.164 681.601 141.164 682.138 141.164 682.69C141.701 682.869 142.237 683.048 142.79 683.232C141.18 683.59 139.571 683.948 137.912 684.316C138.27 684.138 138.627 683.959 138.996 683.774C138.817 683.059 138.638 682.344 138.454 681.606C140.116 680.597 140.946 680.406 142.79 681.064Z" fill="#C03936"/>
<path d="M65.826 619.818C67.8547 620.604 67.8547 620.604 68.4682 621.919C68.5512 623.327 68.1756 624.047 67.452 625.238C67.452 624.165 67.452 623.092 67.452 621.986C65.6634 621.986 63.8748 621.986 62.032 621.986C62.032 621.808 62.032 621.629 62.032 621.444C62.8201 621.344 62.8201 621.344 63.6244 621.241C64.4455 621.074 64.4455 621.074 65.284 620.902C65.4629 620.545 65.6417 620.187 65.826 619.818Z" fill="#E7E7E8"/>
<path d="M176.394 699.492C177.491 701.138 177.652 701.766 177.817 703.659C177.857 704.097 177.898 704.535 177.94 704.987C177.966 705.32 177.993 705.653 178.02 705.996C177.305 705.818 176.589 705.639 175.852 705.454C175.837 704.563 175.827 703.671 175.818 702.779C175.812 702.282 175.805 701.785 175.799 701.273C175.852 700.034 175.852 700.034 176.394 699.492Z" fill="#BD3834"/>
<path d="M147.126 703.286C149.75 704.082 151.765 705.645 153.63 707.622C153.63 707.98 153.63 708.338 153.63 708.706C152.008 707.947 150.598 707.063 149.159 705.996C148.776 705.717 148.393 705.438 147.998 705.15C147.71 704.892 147.422 704.635 147.126 704.37C147.126 704.013 147.126 703.655 147.126 703.286Z" fill="#F6E3DB"/>
<path d="M140.08 804.098C140.438 804.098 140.795 804.098 141.164 804.098C141.503 805.386 141.503 805.386 141.706 806.808C140.427 808.088 139.658 808.159 137.912 808.434C138.627 807.004 139.343 805.573 140.08 804.098Z" fill="#C6C6C8"/>
<path d="M134.66 787.838C134.66 788.017 134.66 788.196 134.66 788.38C133.766 788.559 132.871 788.738 131.95 788.922C131.771 789.459 131.592 789.996 131.408 790.548C130.335 790.727 129.262 790.906 128.156 791.09C129.504 787.336 130.97 787.779 134.66 787.838Z" fill="#474749"/>
<path d="M168.264 787.838C168.622 787.838 168.979 787.838 169.348 787.838C169.348 788.733 169.348 789.627 169.348 790.548C170.063 790.548 170.779 790.548 171.516 790.548C171.516 791.085 171.516 791.622 171.516 792.174C169.906 791.906 169.906 791.906 168.264 791.632C168.264 790.38 168.264 789.128 168.264 787.838Z" fill="#444446"/>
<path d="M170.974 633.91C171.511 634.089 172.047 634.268 172.6 634.452C172.6 636.42 172.6 638.387 172.6 640.414C171.324 637.862 170.912 636.744 170.974 633.91Z" fill="#E8A384"/>
<path d="M155.798 630.116C156.156 630.116 156.513 630.116 156.882 630.116C157.304 632.838 157.494 634.982 156.882 637.704C156.703 637.704 156.524 637.704 156.34 637.704C156.161 635.2 155.982 632.696 155.798 630.116Z" fill="#F8E3D6"/>
<path d="M140.08 619.276C140.438 619.276 140.795 619.276 141.164 619.276C141.343 619.992 141.522 620.707 141.706 621.444C144.031 621.444 146.356 621.444 148.752 621.444C148.752 621.623 148.752 621.802 148.752 621.986C146.069 622.165 143.386 622.344 140.622 622.528C140.443 621.455 140.264 620.382 140.08 619.276Z" fill="#FBECE2"/>
<path d="M144.416 607.894C145.757 608.163 145.757 608.163 147.126 608.436C147.126 608.973 147.126 609.51 147.126 610.062C146.768 610.062 146.411 610.062 146.042 610.062C146.042 611.851 146.042 613.64 146.042 615.482C145.863 615.482 145.684 615.482 145.5 615.482C145.5 613.336 145.5 611.19 145.5 608.978C145.142 608.978 144.785 608.978 144.416 608.978C144.416 608.621 144.416 608.263 144.416 607.894Z" fill="#ECB59C"/>
<path d="M156.882 590.008C160.351 590.276 160.351 590.276 161.997 591.669C162.416 592.188 162.416 592.188 162.844 592.718C160.63 592.316 158.498 591.727 156.34 591.092C156.519 590.735 156.698 590.377 156.882 590.008Z" fill="#F5EFEB"/>
<path d="M146.042 732.554C146.4 732.554 146.757 732.554 147.126 732.554C147.064 733.436 146.995 734.316 146.923 735.197C146.866 735.933 146.866 735.933 146.808 736.683C146.584 737.974 146.584 737.974 145.5 739.058C145.321 737.985 145.142 736.912 144.958 735.806C145.137 735.806 145.316 735.806 145.5 735.806C145.679 734.733 145.858 733.66 146.042 732.554Z" fill="#E3A687"/>
<path d="M159.592 714.126C160.844 714.484 162.096 714.842 163.386 715.21C163.386 715.568 163.386 715.926 163.386 716.294C162.313 716.473 161.24 716.652 160.134 716.836C159.955 715.942 159.776 715.048 159.592 714.126Z" fill="#BB302F"/>
<path d="M149.836 706.538C151.936 707.487 151.936 707.487 152.546 708.706C152.188 708.706 151.831 708.706 151.462 708.706C151.283 709.243 151.104 709.78 150.92 710.332C150.741 709.975 150.562 709.617 150.378 709.248C149.285 708.634 149.285 708.634 148.21 708.164C148.747 707.628 149.283 707.091 149.836 706.538Z" fill="#B62721"/>
<path d="M167.18 704.912C167.001 705.628 166.822 706.343 166.638 707.08C165.744 707.259 164.849 707.438 163.928 707.622C163.928 707.265 163.928 706.907 163.928 706.538C163.57 706.36 163.213 706.181 162.844 705.996C165.96 704.912 165.96 704.912 167.18 704.912Z" fill="#BE3533"/>
<path d="M122.194 620.902C122.552 620.902 122.909 620.902 123.278 620.902C122.522 623.306 121.324 624.628 119.484 626.322C119.484 624.51 119.741 624.118 120.771 622.698C121.01 622.36 121.249 622.023 121.495 621.675C121.726 621.421 121.957 621.165 122.194 620.902Z" fill="#F6EDE7"/>
<path d="M177.478 710.332C176.78 710.71 176.08 711.082 175.378 711.451C174.793 711.762 174.793 711.762 174.196 712.079C173.848 712.218 173.5 712.357 173.142 712.5C172.058 711.958 172.058 711.958 171.516 710.874C175.29 709.641 175.29 709.641 177.478 710.332Z" fill="#EDC9C5"/>
<path d="M133.034 683.774C133.571 683.953 134.107 684.132 134.66 684.316C134.302 684.316 133.945 684.316 133.576 684.316C133.699 684.641 133.822 684.965 133.949 685.299C134.005 685.69 134.061 686.082 134.118 686.484C133.373 687.433 133.373 687.433 132.492 688.11C132.313 688.11 132.134 688.11 131.95 688.11C131.882 686.552 131.882 686.552 131.95 684.858C132.308 684.501 132.665 684.143 133.034 683.774Z" fill="#B7241E"/>
<path d="M185.608 637.162C186.692 637.162 186.692 637.162 188.013 638.45C188.701 639.154 188.701 639.154 189.402 639.872C189.939 640.23 190.475 640.588 191.028 640.956C189.044 641.137 188.104 641.207 186.489 639.974C185.608 638.788 185.608 638.788 185.608 637.162Z" fill="#FBF0EA"/>
<path d="M130.324 807.35C132.113 807.35 133.901 807.35 135.744 807.35C135.565 807.887 135.386 808.424 135.202 808.976C133.771 808.976 132.34 808.976 130.866 808.976C130.687 808.44 130.508 807.903 130.324 807.35Z" fill="#C0C0C2"/>
<path d="M142.248 736.348C142.606 736.348 142.963 736.348 143.332 736.348C143.153 738.137 142.974 739.926 142.79 741.768C142.253 741.768 141.717 741.768 141.164 741.768C141.522 739.98 141.879 738.191 142.248 736.348Z" fill="#F9EDE1"/>
<path d="M144.416 719.004C145.847 719.183 147.278 719.362 148.752 719.546C148.037 719.725 147.321 719.904 146.584 720.088C146.763 720.625 146.942 721.162 147.126 721.714C145.516 721.446 145.516 721.446 143.874 721.172C144.053 720.457 144.232 719.742 144.416 719.004Z" fill="#BE3532"/>
<path d="M167.18 677.27C166.092 678.359 165.354 678.893 163.928 679.438C162.708 679.235 162.708 679.235 161.76 678.896C161.76 678.539 161.76 678.181 161.76 677.812C163.592 677.249 165.271 677.227 167.18 677.27Z" fill="#E7A784"/>
<path d="M162.844 600.306C163.023 600.306 163.202 600.306 163.386 600.306C163.486 606.029 163.486 606.029 162.844 608.436C161.611 606.519 161.765 605.342 162.234 603.152C162.345 602.618 162.455 602.085 162.569 601.535C162.66 601.129 162.75 600.724 162.844 600.306Z" fill="#E3A385"/>
<path d="M147.126 592.718C147.484 592.718 147.841 592.718 148.21 592.718C148.21 594.507 148.21 596.296 148.21 598.138C147.673 598.138 147.137 598.138 146.584 598.138C146.763 596.35 146.942 594.561 147.126 592.718Z" fill="#F3F3EF"/>
<path d="M148.21 597.596C148.787 599.329 148.792 600.663 148.752 602.474C148.394 602.474 148.037 602.474 147.668 602.474C147.489 602.832 147.31 603.19 147.126 603.558C147.097 602.768 147.076 601.978 147.058 601.187C147.039 600.527 147.039 600.527 147.02 599.853C147.126 598.68 147.126 598.68 148.21 597.596Z" fill="#E6A282"/>
<path d="M124.362 784.586C125.972 784.586 127.581 784.586 129.24 784.586C128.882 785.302 128.525 786.017 128.156 786.754C126.869 786.585 126.869 786.585 125.446 786.212C125.088 785.676 124.731 785.139 124.362 784.586Z" fill="#C3C3C4"/>
<path d="M156.34 712.5C157.627 712.399 157.627 712.399 159.05 712.5C159.408 713.037 159.765 713.574 160.134 714.126C159.955 714.484 159.776 714.842 159.592 715.21C157.879 714.468 157.428 714.132 156.34 712.5Z" fill="#B52621"/>
<path d="M140.08 637.704C140.259 638.062 140.438 638.42 140.622 638.788C141.337 638.788 142.053 638.788 142.79 638.788C142.79 639.683 142.79 640.577 142.79 641.498C142.611 640.962 142.432 640.425 142.248 639.872C141.89 639.872 141.533 639.872 141.164 639.872C140.985 640.588 140.806 641.303 140.622 642.04C140.443 640.61 140.264 639.179 140.08 637.704Z" fill="#E5AF96"/>
<path d="M142.248 623.612C142.427 623.97 142.606 624.328 142.79 624.696C143.327 624.875 143.863 625.054 144.416 625.238C143.701 625.238 142.985 625.238 142.248 625.238C142.606 625.417 142.963 625.596 143.332 625.78C143.153 626.675 142.974 627.569 142.79 628.49C141.4 627.1 141.413 626.064 141.164 624.154C141.522 623.976 141.879 623.797 142.248 623.612Z" fill="#F1E4DC"/>
<path d="M62.032 604.642C62.2109 604.642 62.3897 604.642 62.574 604.642C62.9317 605.894 63.2894 607.146 63.658 608.436C63.1214 608.615 62.5848 608.794 62.032 608.978C62.032 610.23 62.032 611.482 62.032 612.772C61.8531 612.772 61.6743 612.772 61.49 612.772C61.4412 609.981 61.5729 607.396 62.032 604.642Z" fill="#A2A2A4"/>
<path d="M142.79 602.474C143.874 604.1 143.874 604.1 144.958 605.726C145.316 605.548 145.673 605.369 146.042 605.184C146.042 605.721 146.042 606.258 146.042 606.81C145.327 606.989 144.611 607.168 143.874 607.352C142.633 605.491 142.694 604.651 142.79 602.474Z" fill="#E4A585"/>
<path d="M143.874 735.806C144.053 735.806 144.232 735.806 144.416 735.806C144.595 737.774 144.774 739.741 144.958 741.768C144.421 741.768 143.885 741.768 143.332 741.768C143.511 739.801 143.69 737.834 143.874 735.806Z" fill="#ECA382"/>
<path d="M148.752 721.714C150.004 721.893 151.256 722.072 152.546 722.256C152.367 722.972 152.188 723.687 152.004 724.424C151.467 724.424 150.931 724.424 150.378 724.424C150.311 724.078 150.244 723.732 150.175 723.375C150.007 722.821 150.007 722.821 149.836 722.256C149.478 722.078 149.121 721.899 148.752 721.714Z" fill="#BE352F"/>
<path d="M146.042 718.462C144.314 719.614 143.188 719.819 141.164 720.088C141.343 719.552 141.522 719.015 141.706 718.462C143.488 718.029 144.259 717.868 146.042 718.462Z" fill="#EEC9C6"/>
<path d="M156.34 710.874C159.559 711.411 159.559 711.411 162.844 711.958C162.844 712.137 162.844 712.316 162.844 712.5C160.877 712.5 158.909 712.5 156.882 712.5C156.703 711.964 156.524 711.427 156.34 710.874Z" fill="#F6E5DF"/>
<path d="M150.378 695.156C152.358 695.834 152.969 696.062 154.172 697.866C153.63 698.408 153.63 698.408 151.97 698.443C151.182 698.426 151.182 698.426 150.378 698.408C151.093 698.23 151.809 698.051 152.546 697.866C152.546 697.509 152.546 697.151 152.546 696.782C151.831 696.425 151.115 696.067 150.378 695.698C150.378 695.52 150.378 695.341 150.378 695.156Z" fill="#F9ECE7"/>
<path d="M170.974 690.82C170.974 691.178 170.974 691.536 170.974 691.904C169.722 692.62 168.47 693.335 167.18 694.072C166.822 693.715 166.465 693.357 166.096 692.988C169.145 690.82 169.145 690.82 170.974 690.82Z" fill="#F1C9C5"/>
<path d="M162.844 588.382C163.023 588.382 163.202 588.382 163.386 588.382C163.386 590.529 163.386 592.675 163.386 594.886C163.207 594.886 163.028 594.886 162.844 594.886C162.609 594.115 162.609 594.115 162.37 593.328C161.886 591.606 161.886 591.606 160.676 590.55C161.391 590.55 162.107 590.55 162.844 590.55C162.844 589.835 162.844 589.12 162.844 588.382Z" fill="#6B625F"/>
<path d="M148.312 587.502C148.798 587.67 148.798 587.67 149.294 587.84C146.506 590.241 146.506 590.241 144.416 590.55C145.227 588.678 145.992 587.104 148.312 587.502Z" fill="#4A3C34"/>
<path d="M179.104 784.044C178.461 784.857 178.461 784.857 177.478 785.67C176.022 785.772 176.022 785.772 174.768 785.67C174.589 785.313 174.41 784.955 174.226 784.586C177.275 783.435 177.275 783.435 179.104 784.044Z" fill="#C7C7C9"/>
<path d="M168.264 741.226C170.974 742.31 170.974 742.31 173.684 743.394C173.684 743.573 173.684 743.752 173.684 743.936C171.859 744.061 170.75 744.121 169.145 743.191C168.264 742.31 168.264 742.31 168.264 741.226Z" fill="#E4A381"/>
<path d="M188.86 799.762C189.933 799.762 191.006 799.762 192.112 799.762C192.112 800.12 192.112 800.478 192.112 800.846C190.86 801.025 189.608 801.204 188.318 801.388C188.497 800.852 188.676 800.315 188.86 799.762Z" fill="#ECECEE"/>
<path d="M132.492 729.844C134.186 730.048 134.186 730.048 135.744 730.386C135.744 730.744 135.744 731.102 135.744 731.47C134.313 731.292 132.882 731.113 131.408 730.928C131.766 730.571 132.123 730.213 132.492 729.844Z" fill="#BF3B37"/>
<path d="M139.538 704.912C141.148 705.449 142.757 705.986 144.416 706.538C144.416 706.717 144.416 706.896 144.416 707.08C142.985 706.902 141.554 706.723 140.08 706.538C139.901 706.002 139.722 705.465 139.538 704.912Z" fill="#F5DDD8"/>
<path d="M147.668 694.614C148.383 694.972 149.099 695.33 149.836 695.698C146.901 696.9 146.901 696.9 145.297 696.308C145.006 696.107 144.716 695.906 144.416 695.698C146.042 695.156 146.042 695.156 147.668 695.698C147.668 695.341 147.668 694.983 147.668 694.614Z" fill="#BF3A38"/>
<path d="M130.324 636.078C130.503 636.078 130.682 636.078 130.866 636.078C131.045 637.867 131.224 639.656 131.408 641.498C129.782 639.33 129.782 639.33 129.952 637.569C130.074 637.077 130.197 636.585 130.324 636.078Z" fill="#E5A080"/>
</svg>
