<svg width="411" height="760" viewBox="0 0 411 760" fill="none" xmlns="http://www.w3.org/2000/svg">
<g clip-path="url(#clip0_1_2)">
<rect width="411" height="760" fill="white"/>
<path d="M71.6603 143C67.8113 149.667 58.1887 149.667 54.3397 143L17.1007 78.5C13.2517 71.8333 18.0629 63.5 25.7609 63.5L100.239 63.5C107.937 63.5 112.748 71.8333 108.899 78.5L71.6603 143Z" fill="#FD0303"/>
<path d="M316.34 145C320.189 138.333 329.811 138.333 333.66 145L370.899 209.5C374.748 216.167 369.937 224.5 362.239 224.5H287.761C280.063 224.5 275.252 216.167 279.101 209.5L316.34 145Z" fill="#D3D3D3"/>
<path d="M185.34 276C189.189 269.333 198.811 269.333 202.66 276L239.899 340.5C243.748 347.167 238.937 355.5 231.239 355.5H156.761C149.063 355.5 144.252 347.167 148.101 340.5L185.34 276Z" fill="#D3D3D3"/>
<path d="M327.66 352C323.811 358.667 314.189 358.667 310.34 352L273.101 287.5C269.252 280.833 274.063 272.5 281.761 272.5H356.239C363.937 272.5 368.748 280.833 364.899 287.5L327.66 352Z" fill="#FD0303"/>
<path d="M76.6603 377C72.8113 383.667 63.1887 383.667 59.3397 377L22.1007 312.5C18.2517 305.833 23.0629 297.5 30.7609 297.5H105.239C112.937 297.5 117.748 305.833 113.899 312.5L76.6603 377Z" fill="#FD0303"/>
<path d="M316.34 407C320.189 400.333 329.811 400.333 333.66 407L370.899 471.5C374.748 478.167 369.937 486.5 362.239 486.5H287.761C280.063 486.5 275.252 478.167 279.101 471.5L316.34 407Z" fill="#535353"/>
<path d="M185.34 538C189.189 531.333 198.811 531.333 202.66 538L239.899 602.5C243.748 609.167 238.937 617.5 231.239 617.5H156.761C149.063 617.5 144.252 609.167 148.101 602.5L185.34 538Z" fill="#535353"/>
<path d="M316.34 538C320.189 531.333 329.811 531.333 333.66 538L370.899 602.5C374.748 609.167 369.937 617.5 362.239 617.5H287.761C280.063 617.5 275.252 609.167 279.101 602.5L316.34 538Z" fill="#535353"/>
<path d="M72.3397 667C76.1887 660.333 85.8113 660.333 89.6603 667L126.899 731.5C130.748 738.167 125.937 746.5 118.239 746.5H43.7609C36.0629 746.5 31.2517 738.167 35.1007 731.5L72.3397 667Z" fill="#535353"/>
<path d="M316.34 669C320.189 662.333 329.811 662.333 333.66 669L370.899 733.5C374.748 740.167 369.937 748.5 362.239 748.5H287.761C280.063 748.5 275.252 740.167 279.101 733.5L316.34 669Z" fill="#D3D3D3"/>
<path d="M167.6 611.812C168.076 612.875 168.076 612.875 168.447 614.184C168.928 615.853 169.325 616.839 170.31 618.316C170.498 619.608 170.498 619.607 170.577 621.134C170.611 621.696 170.645 622.258 170.68 622.836C170.715 623.435 170.749 624.034 170.784 624.651C171.107 629.429 171.722 633.723 173.011 638.333C175.112 646.221 175.458 654.64 175.73 662.76C173.989 663.844 172.278 664.767 170.378 665.538C169.943 665.719 169.508 665.899 169.061 666.085C165.91 667.099 162.791 667.159 159.504 667.131C159.133 667.128 158.763 667.126 158.381 667.123C157.479 667.117 156.577 667.107 155.676 667.096C155.676 666.739 155.676 666.381 155.676 666.012C155.262 666.068 154.849 666.125 154.423 666.182C153.942 666.126 153.461 666.07 152.966 666.012C151.345 663.93 151.11 662.206 151.001 659.61C150.858 656.837 150.641 654.127 150.256 651.378C149.898 651.378 149.541 651.378 149.172 651.378C148.993 651.915 148.814 652.452 148.63 653.004C148.093 652.11 147.557 651.216 147.004 650.294C144.618 650.646 142.367 651.188 140.06 651.887C139.441 652.071 138.823 652.254 138.186 652.443C136.635 652.84 136.635 652.84 136.164 654.088C136.713 653.887 137.262 653.685 137.828 653.477C138.561 653.217 139.293 652.958 140.026 652.7C140.386 652.566 140.747 652.432 141.118 652.294C143.48 651.472 145.123 651.291 147.546 651.92C147.004 653.546 147.004 653.546 145.89 654.298C140.686 656.699 134.078 657.555 128.54 655.7C128.194 655.526 127.848 655.352 127.492 655.172C127.492 655.53 127.492 655.888 127.492 656.256C130.007 656.746 132.456 656.903 135.012 656.9C135.397 656.9 135.781 656.901 136.178 656.901C138.908 656.874 141.148 656.459 143.752 655.714C145.212 655.628 146.624 655.662 148.088 655.714C148.423 659.989 148.423 659.989 147.241 662.117C144.939 664.183 142.55 665.633 139.416 666.012C140.31 666.191 141.205 666.37 142.126 666.554C141.985 669.527 141.596 672.039 140.605 674.853C138.956 679.617 138.702 683.983 138.671 689.014C138.612 695.252 137.737 700.024 135.018 705.612C133.663 708.58 132.746 711.561 132.54 714.827C132.483 715.719 132.426 716.61 132.37 717.502C132.841 717.465 133.311 717.427 133.797 717.388C140.086 716.933 146.358 716.86 152.662 716.86C154.44 716.859 156.218 716.849 157.995 716.839C159.133 716.837 160.27 716.836 161.407 716.836C161.935 716.832 162.463 716.828 163.007 716.824C165.534 716.833 167.452 716.924 169.768 718.044C171.307 717.891 172.45 717.515 173.867 716.893C175.342 716.363 175.915 716.414 177.356 716.96C177.714 717.139 178.071 717.318 178.44 717.502C179.351 717.518 180.263 717.504 181.173 717.477C185.597 717.443 189.942 717.944 194.328 718.451C194.756 718.5 195.185 718.549 195.626 718.599C208.424 720.061 220.813 721.901 232.64 727.258C233.244 727.505 233.848 727.751 234.469 728.004C236.464 729.239 237.978 730.625 239.144 732.678C239.262 734.955 238.929 736.01 237.62 737.862C232.552 742.314 224.76 744.614 218.277 745.957C217.74 746.071 217.203 746.184 216.65 746.301C198.118 750.105 179.707 751.39 160.842 751.318C158.375 751.309 155.907 751.315 153.44 751.324C139.924 751.368 126.323 751.228 113.008 748.626C111.307 748.31 109.6 748.154 107.879 747.99C98.2468 746.898 84.8193 744.629 77.628 737.556C76.5104 735.881 76.1489 734.764 76.2009 732.746C77.0361 729.942 80.0876 728.555 82.4892 727.197C83.7363 726.596 85.0014 726.115 86.3 725.632C87.1959 725.267 87.1959 725.267 88.1103 724.894C98.1422 721.033 111.295 718.384 122.072 718.553C122.486 718.558 122.899 718.563 123.326 718.567C123.778 718.577 123.778 718.577 124.24 718.586C123.703 720.196 123.703 720.196 123.156 721.838C123.436 721.66 123.715 721.481 124.003 721.296C127.174 719.996 130.301 720.953 133.454 721.838C133.275 721.123 133.096 720.408 132.912 719.67C132.344 719.68 132.344 719.68 131.765 719.689C131.271 719.694 130.778 719.699 130.27 719.705C129.534 719.714 129.534 719.714 128.784 719.724C127.492 719.67 127.492 719.67 126.408 719.128C126.408 718.592 126.408 718.055 126.408 717.502C125.871 717.502 125.335 717.502 124.782 717.502C124.768 717.009 124.754 716.515 124.74 716.006C124.549 711.654 124.033 707.569 123.122 703.309C121.42 695.042 121.038 686.967 124.24 679.02C125.953 674.715 126.232 670.614 126.408 666.012C126.945 665.834 127.481 665.655 128.034 665.47C127.695 665.333 127.355 665.195 127.005 665.054C126.562 664.867 126.119 664.68 125.663 664.488C125.223 664.306 124.783 664.124 124.329 663.936C123.156 663.302 123.156 663.302 122.072 661.676C122.192 660.683 122.192 660.683 122.527 659.549C123.312 656.439 123.38 653.388 123.461 650.193C123.555 646.917 123.684 643.771 124.24 640.538C124.37 638.254 124.426 635.966 124.473 633.679C124.577 630.805 125.045 629.019 126.408 626.446C126.543 624.784 126.543 624.784 126.408 623.127C126.231 620.223 126.231 620.223 127.221 618.66C127.489 618.367 127.758 618.075 128.034 617.774C130.155 618 131.932 618.333 133.911 619.129C137.397 620.318 140.95 620.25 144.599 620.315C145.652 620.343 145.652 620.343 146.725 620.371C148.444 620.416 150.163 620.454 151.882 620.484C151.882 620.127 151.882 619.769 151.882 619.4C151.462 619.415 151.042 619.429 150.609 619.444C135.208 619.896 135.208 619.896 129.118 616.69C129.05 613.574 129.05 613.574 129.66 612.354C129.951 612.453 130.242 612.552 130.541 612.653C142.1 616.36 152.35 616.542 163.806 612.354C164.179 612.148 164.553 611.941 164.938 611.728C165.974 611.27 165.974 611.27 167.6 611.812Z" fill="#BDBDBF"/>
<path d="M167.6 611.812C168.076 612.875 168.076 612.875 168.447 614.184C168.928 615.853 169.325 616.839 170.31 618.316C170.498 619.608 170.498 619.607 170.577 621.134C170.611 621.696 170.645 622.258 170.68 622.836C170.732 623.735 170.732 623.735 170.784 624.651C171.107 629.429 171.722 633.723 173.011 638.333C175.112 646.221 175.458 654.64 175.73 662.76C173.989 663.844 172.278 664.767 170.378 665.538C169.943 665.719 169.508 665.899 169.061 666.085C165.91 667.099 162.791 667.159 159.504 667.131C159.133 667.128 158.763 667.126 158.381 667.123C157.479 667.117 156.577 667.107 155.676 667.096C155.676 666.739 155.676 666.381 155.676 666.012C155.262 666.068 154.849 666.125 154.423 666.182C153.942 666.126 153.461 666.07 152.966 666.012C151.345 663.93 151.11 662.206 151.001 659.61C150.858 656.837 150.641 654.127 150.256 651.378C149.898 651.378 149.541 651.378 149.172 651.378C148.904 652.183 148.904 652.183 148.63 653.004C148.093 652.11 147.557 651.216 147.004 650.294C144.618 650.646 142.367 651.188 140.06 651.887C139.441 652.071 138.823 652.254 138.186 652.443C136.635 652.84 136.635 652.84 136.164 654.088C136.713 653.887 137.262 653.685 137.828 653.477C138.561 653.217 139.293 652.958 140.026 652.7C140.386 652.566 140.747 652.432 141.118 652.294C143.48 651.472 145.123 651.291 147.546 651.92C147.004 653.546 147.004 653.546 145.89 654.298C140.686 656.699 134.078 657.555 128.54 655.7C128.194 655.526 127.848 655.352 127.492 655.172C127.492 655.53 127.492 655.888 127.492 656.256C130.007 656.746 132.456 656.903 135.012 656.9C135.397 656.9 135.781 656.901 136.178 656.901C138.908 656.874 141.148 656.459 143.752 655.714C145.212 655.628 146.624 655.662 148.088 655.714C148.424 659.989 148.423 659.989 147.241 662.117C143.348 665.611 140.255 665.811 135.148 665.741C134.534 665.75 133.92 665.758 133.287 665.767C129.569 665.75 126.306 665.43 123.156 663.302C122.072 661.676 122.072 661.676 122.192 660.683C122.358 660.121 122.358 660.121 122.527 659.549C123.312 656.439 123.38 653.388 123.461 650.193C123.555 646.917 123.684 643.771 124.24 640.538C124.37 638.254 124.426 635.966 124.473 633.679C124.577 630.805 125.045 629.019 126.408 626.446C126.544 624.784 126.544 624.784 126.408 623.127C126.231 620.223 126.231 620.223 127.221 618.66C127.489 618.367 127.758 618.075 128.034 617.774C130.155 618 131.932 618.333 133.911 619.129C137.397 620.318 140.95 620.25 144.599 620.315C145.652 620.343 145.652 620.343 146.725 620.371C148.444 620.416 150.163 620.454 151.882 620.484C151.882 620.127 151.882 619.769 151.882 619.4C151.462 619.415 151.042 619.429 150.609 619.444C135.208 619.896 135.208 619.896 129.118 616.69C129.05 613.574 129.05 613.574 129.66 612.354C129.951 612.453 130.242 612.552 130.541 612.653C142.1 616.36 152.35 616.542 163.806 612.354C164.179 612.148 164.553 611.941 164.938 611.728C165.974 611.27 165.974 611.27 167.6 611.812Z" fill="#BA2F2A"/>
<path d="M180.608 548.398C183.653 550.416 185.715 553.75 187.112 557.07C187.112 557.607 187.112 558.144 187.112 558.696C185.41 558.526 184.614 558.382 183.426 557.111C183.02 556.47 183.02 556.47 182.607 555.817C182.329 555.395 182.052 554.972 181.766 554.536C181.15 553.276 181.15 553.276 181.15 551.108C180.792 551.108 180.435 551.108 180.066 551.108C181.531 555.249 183.006 558.036 186.299 561C188.753 563.699 190.505 566.813 190.635 570.519C190.427 573.558 189.169 575.177 186.976 577.192C183.631 579.908 180.512 580.784 176.272 580.376C175.198 580.234 175.198 580.234 174.104 579.834C172.986 578.328 172.281 576.589 171.496 574.889C171.268 574.432 171.041 573.975 170.806 573.504C169.482 570.693 168.918 568.857 169.768 565.742C170.344 564.422 170.344 564.422 170.852 563.574C170.494 563.574 170.137 563.574 169.768 563.574C169.517 564.346 169.517 564.346 169.26 565.133C168.684 566.826 168.684 566.826 168.142 567.91C167.951 571.561 168.129 575.142 168.684 578.75C169.042 578.75 169.399 578.75 169.768 578.75C169.5 577.778 169.5 577.778 169.226 576.786C168.742 574.871 168.585 573.146 168.684 571.162C171.067 573.092 171.832 575.693 172.173 578.615C172.028 582.166 170.618 585.816 168.583 588.71C166.967 591.048 166.988 593.39 166.925 596.175C166.898 597.126 166.898 597.126 166.87 598.098C166.837 599.423 166.807 600.748 166.777 602.074C166.582 608.796 166.582 608.796 165.432 611.27C164.194 611.94 164.194 611.94 162.688 612.219C161.887 612.389 161.887 612.389 161.071 612.562C160.278 612.728 160.278 612.728 159.47 612.896C158.224 613.295 156.997 613.728 155.767 614.171C147.655 616.597 137.641 615.123 130.202 611.27C130.378 610.859 130.553 610.446 130.733 610.022C131.479 607.32 131.464 604.778 131.456 601.989C131.464 601.453 131.473 600.917 131.482 600.365C131.482 599.849 131.483 599.332 131.483 598.8C131.484 598.333 131.486 597.865 131.488 597.384C131.246 595.837 130.636 595.124 129.66 593.926C129.66 593.569 129.66 593.211 129.66 592.842C129.302 592.842 128.945 592.842 128.576 592.842C128.133 591.726 127.693 590.608 127.255 589.489C127.01 588.866 126.765 588.244 126.512 587.602C125.968 586.083 125.584 584.674 125.324 583.086C128.576 584.17 128.576 584.17 130.066 584.78C132.456 585.424 134.785 585.454 137.248 585.254C137.427 585.076 137.606 584.897 137.79 584.712C138.908 584.775 140.026 584.844 141.144 584.916C145.269 584.979 147.758 583.792 151.255 581.696C153.27 580.781 154.125 580.822 156.218 581.46C157.45 582.107 157.45 582.107 158.589 582.85C161.108 584.295 162.544 584.683 165.432 584.17C166.858 583.23 168.049 582.154 169.226 580.918C168.957 581.114 168.688 581.31 168.411 581.511C166.66 582.707 165.208 583.555 163.128 584.035C160.39 583.488 158.442 582.115 156.146 580.559C154.654 579.666 154.654 579.666 153.212 580.175C152.773 580.421 152.334 580.666 151.882 580.918C151.422 581.143 150.963 581.367 150.489 581.598C150.032 581.832 149.575 582.066 149.104 582.308C146.639 583.57 144.813 584.241 142.025 584.205C141.292 584.197 141.292 584.197 140.544 584.189C140.172 584.183 139.8 584.177 139.416 584.17C140.011 582.662 140.619 581.237 141.381 579.801C142.792 576.442 142.649 572.8 141.554 569.373C140.73 567.377 139.86 565.434 138.785 563.558C138.227 562.245 138.301 561.194 138.332 559.78C141.781 559.623 145.231 559.469 148.68 559.318C149.848 559.266 151.018 559.213 152.187 559.16C159.317 558.835 166.424 558.615 173.562 558.696C174.21 559.993 174.18 560.834 174.199 562.281C174.219 563.028 174.219 563.028 174.238 563.79C174.262 564.837 174.279 565.884 174.289 566.932C174.361 569.314 174.406 570.773 175.677 572.835C176.746 573.811 177.64 574.429 178.982 574.956C178.982 574.599 178.982 574.241 178.982 573.872C178.658 573.749 178.334 573.627 178 573.5C176.402 572.542 175.977 571.779 175.188 570.078C174.956 568.387 174.935 566.703 174.917 564.997C174.931 559.837 174.931 559.837 172.478 555.444C170.797 555.291 169.116 555.202 167.431 555.108C166.95 555.04 166.469 554.972 165.974 554.902C165.706 554.366 165.706 554.366 165.432 553.818C168.548 552.192 168.548 552.192 169.768 552.192C169.768 551.835 169.768 551.477 169.768 551.108C172.726 548.957 176.947 547.474 180.608 548.398Z" fill="#EAAB8C"/>
<path d="M147.546 650.294C147.904 650.831 148.261 651.368 148.63 651.92C149.167 651.742 149.703 651.563 150.256 651.378C151.278 654.785 151.541 658.033 151.696 661.583C151.87 663.19 152.048 664.154 152.966 665.47C154.351 665.911 154.351 665.911 155.676 666.012C155.676 666.37 155.676 666.728 155.676 667.096C157.574 666.944 159.47 666.784 161.367 666.622C161.899 666.58 162.432 666.537 162.981 666.493C166.075 666.225 168.946 665.776 171.936 664.928C171.944 665.302 171.952 665.676 171.96 666.061C172.001 667.795 172.053 669.529 172.106 671.263C172.118 671.85 172.13 672.438 172.143 673.043C172.241 676.052 172.5 678.777 173.295 681.684C174.619 686.961 174.376 692.414 174.409 697.821C174.422 699.458 174.437 701.094 174.458 702.731C174.471 703.742 174.48 704.752 174.482 705.763C174.517 708.681 174.866 711.307 175.605 714.135C175.759 715.616 175.46 716.272 174.646 717.502C172.242 718.988 170.262 718.509 167.6 718.044C167.266 717.948 166.932 717.853 166.588 717.754C165.089 717.428 163.685 717.438 162.151 717.441C161.158 717.441 161.158 717.441 160.145 717.441C159.078 717.446 159.078 717.446 157.988 717.45C157.25 717.451 156.512 717.451 155.774 717.452C153.835 717.454 151.896 717.46 149.957 717.466C147.977 717.471 145.997 717.473 144.016 717.476C140.135 717.482 136.252 717.491 132.37 717.502C132.156 711.285 132.156 711.285 133.536 708.31C133.779 707.75 134.02 707.189 134.27 706.612C134.526 706.025 134.782 705.438 135.046 704.833C137.54 698.703 138.221 693.441 138.186 686.863C138.192 681.182 139.31 676.293 141.233 670.971C141.666 669.533 141.879 668.036 142.126 666.554C138.37 666.554 134.614 666.554 130.744 666.554C130.744 666.376 130.744 666.197 130.744 666.012C131.332 665.986 131.921 665.959 132.527 665.932C133.31 665.892 134.094 665.85 134.877 665.809C135.263 665.792 135.65 665.776 136.047 665.759C140.04 665.539 143.104 664.35 146.462 662.218C147.559 660.573 147.72 659.945 147.885 658.052C147.925 657.614 147.966 657.176 148.008 656.725C148.034 656.391 148.061 656.058 148.088 655.714C147.563 655.832 147.037 655.949 146.496 656.071C140.302 657.384 133.563 658.601 127.492 656.256C127.492 655.899 127.492 655.541 127.492 655.172C127.837 655.259 128.181 655.344 128.536 655.433C134.482 656.438 140.512 656.306 145.92 653.546C146.278 653.546 146.635 653.546 147.004 653.546C146.736 652.742 146.736 652.742 146.462 651.92C143.77 652.207 141.426 652.823 138.883 653.752C137.79 654.088 137.79 654.088 136.164 654.088C136.343 653.552 136.522 653.015 136.706 652.462C138.243 651.848 138.243 651.848 140.161 651.311C140.792 651.131 141.421 650.95 142.071 650.764C142.626 650.609 143.18 650.454 143.752 650.294C145.451 649.728 145.931 649.669 147.546 650.294Z" fill="#FEFDFC"/>
<path d="M232.64 531.054C236.432 532.473 238.658 535.303 240.294 538.892C240.848 540.245 241.366 541.6 241.854 542.978C242.132 543.69 242.132 543.69 242.416 544.415C243.019 546.513 243.104 548.463 243.101 550.626C243.103 551.042 243.105 551.457 243.108 551.885C243.111 552.762 243.111 553.638 243.109 554.514C243.108 555.84 243.12 557.164 243.134 558.489C243.153 562.953 243.065 566.98 241.312 571.162C241.069 571.763 240.826 572.363 240.575 572.981C238.941 576.308 237.278 579.207 234.266 581.46C231.134 582.505 227.365 582.796 224.3 581.422C218.759 577.09 217.012 569.917 216.06 563.314C215.838 561.406 215.838 561.406 215.838 559.78C218.557 559.229 221.142 559.174 223.9 559.205C224.325 559.207 224.75 559.21 225.187 559.212C226.227 559.218 227.265 559.228 228.304 559.238C229.21 557.629 229.21 557.629 228.846 553.276C222.675 553.008 222.675 553.008 216.38 552.734C216.38 546.143 217.533 539.195 222.357 534.268C225.76 531.228 228.032 530.513 232.64 531.054Z" fill="#808185"/>
<path d="M164.89 623.194C164.89 623.552 164.89 623.91 164.89 624.278C163.101 625.173 161.313 626.067 159.47 626.988C161.196 627.139 161.196 627.139 162.722 625.904C164.348 624.82 164.348 624.82 165.974 624.82C165.974 625.178 165.974 625.536 165.974 625.904C165.145 626.508 165.145 626.508 163.997 627.158C163.381 627.512 163.381 627.512 162.752 627.874C162.317 628.118 161.882 628.362 161.435 628.614C160.583 629.098 159.732 629.584 158.881 630.071C158.501 630.286 158.121 630.5 157.729 630.721C156.443 631.522 155.77 632.088 155.337 633.56C155.27 633.896 155.203 634.231 155.134 634.576C155.671 634.576 156.207 634.576 156.76 634.576C157.028 635.113 157.028 635.113 157.302 635.66C157.956 635.644 157.956 635.644 158.623 635.627C160.012 635.66 160.012 635.66 160.554 636.202C161.822 636.047 163.087 635.867 164.348 635.66C162.903 636.624 161.623 637.219 160.012 637.828C162.158 637.56 162.158 637.56 164.348 637.286C164.348 637.644 164.348 638.002 164.348 638.37C160.592 639.712 160.592 639.712 156.76 641.08C156.76 641.438 156.76 641.796 156.76 642.164C156.223 642.433 156.223 642.433 155.676 642.706C155.548 643.918 155.548 643.918 156.76 644.874C156.045 644.874 155.329 644.874 154.592 644.874C154.592 645.232 154.592 645.59 154.592 645.958C159.561 645.788 164.21 645.547 168.999 644.074C170.388 643.774 171.152 643.869 172.478 644.332C171.814 644.687 171.147 645.036 170.48 645.383C169.923 645.675 169.923 645.675 169.355 645.974C167.006 646.994 164.741 647.109 162.203 647.096C161.601 647.094 160.998 647.092 160.377 647.09C159.753 647.086 159.13 647.081 158.488 647.077C157.854 647.074 157.22 647.072 156.567 647.069C155.005 647.062 153.444 647.054 151.882 647.042C152.318 647.378 152.754 647.713 153.203 648.059C154.592 649.21 154.592 649.21 155.134 650.294C156.129 650.548 156.129 650.548 157.321 650.638C157.759 650.683 158.198 650.729 158.649 650.775C159.11 650.818 159.571 650.86 160.046 650.904C160.509 650.951 160.972 650.998 161.448 651.046C162.595 651.162 163.743 651.271 164.89 651.378C164.89 651.736 164.89 652.094 164.89 652.462C155.634 652.862 155.634 652.862 152.424 650.294C152.245 650.473 152.066 650.652 151.882 650.836C152.15 651.082 152.419 651.329 152.695 651.582C153.508 652.462 153.508 652.462 153.508 653.546C151.898 653.815 151.898 653.815 150.256 654.088C150.256 653.194 150.256 652.3 150.256 651.378C149.898 651.378 149.541 651.378 149.172 651.378C148.993 651.915 148.814 652.452 148.63 653.004C148.093 652.11 147.557 651.216 147.004 650.294C144.618 650.646 142.367 651.188 140.06 651.887C139.441 652.071 138.823 652.254 138.186 652.443C136.635 652.84 136.635 652.84 136.164 654.088C136.713 653.887 137.262 653.685 137.828 653.477C138.561 653.217 139.293 652.958 140.026 652.7C140.386 652.566 140.747 652.432 141.118 652.294C143.48 651.472 145.123 651.291 147.546 651.92C147.004 653.546 147.004 653.546 145.89 654.298C140.686 656.699 134.078 657.555 128.54 655.7C128.194 655.526 127.848 655.352 127.492 655.172C127.492 655.53 127.492 655.888 127.492 656.256C130.007 656.746 132.456 656.902 135.012 656.9C135.397 656.9 135.781 656.901 136.178 656.901C138.908 656.874 141.148 656.459 143.752 655.714C145.212 655.628 146.624 655.662 148.088 655.714C148.424 659.989 148.423 659.989 147.241 662.117C143.348 665.611 140.255 665.811 135.148 665.741C134.534 665.75 133.92 665.758 133.287 665.767C129.569 665.75 126.306 665.43 123.156 663.302C122.072 661.676 122.072 661.676 122.192 660.683C122.358 660.121 122.358 660.121 122.527 659.549C123.312 656.439 123.38 653.388 123.461 650.193C123.555 646.918 123.676 643.769 124.24 640.538C124.381 638.666 124.463 636.792 124.545 634.915C124.568 634.413 124.592 633.911 124.616 633.393C124.673 632.162 124.728 630.93 124.782 629.698C124.961 629.698 125.14 629.698 125.324 629.698C125.503 631.129 125.682 632.56 125.866 634.034C126.224 633.498 126.581 632.961 126.95 632.408C130.185 631.773 133.579 632.673 136.706 633.492C137.428 633.673 138.151 633.854 138.874 634.034C139.053 633.677 139.232 633.319 139.416 632.95C141.383 633.487 143.351 634.024 145.378 634.576C145.11 633.772 145.11 633.772 144.836 632.95C141.036 631.311 137.022 630.519 132.912 630.24C132.912 629.883 132.912 629.525 132.912 629.156C136.156 628.973 138.711 629.5 141.819 630.42C143.404 630.833 144.832 630.915 146.462 630.782C143.04 628.941 139.604 627.717 135.893 626.582C135.344 626.411 134.795 626.24 134.229 626.063C132.888 625.646 131.545 625.232 130.202 624.82C130.202 624.463 130.202 624.105 130.202 623.736C133.923 624.285 137.345 625.344 140.873 626.616C141.529 626.846 141.529 626.846 142.199 627.082C145.066 628.141 147.3 629.447 149.714 631.324C149.177 630.251 148.641 629.178 148.088 628.072C148.267 627.894 148.446 627.715 148.63 627.53C147.02 626.994 145.411 626.457 143.752 625.904C143.752 625.547 143.752 625.189 143.752 624.82C144.098 624.907 144.445 624.992 144.802 625.081C152.196 626.335 158.023 623.194 164.89 623.194Z" fill="#BB312D"/>
<path d="M135.046 665.437C135.469 665.439 135.891 665.442 136.326 665.444C137.356 665.45 138.386 665.46 139.416 665.47C139.416 665.649 139.416 665.828 139.416 666.012C140.757 666.281 140.757 666.281 142.126 666.554C141.985 669.527 141.596 672.039 140.605 674.853C138.956 679.617 138.702 683.983 138.671 689.014C138.612 695.255 137.733 700.023 135.018 705.614C133.563 708.795 132.724 711.865 132.54 715.369C132.504 715.978 132.468 716.588 132.431 717.217C132.411 717.669 132.391 718.121 132.37 718.586C130.403 718.586 128.435 718.586 126.408 718.586C126.408 718.229 126.408 717.871 126.408 717.502C125.871 717.502 125.335 717.502 124.782 717.502C124.768 717.009 124.754 716.515 124.74 716.006C124.549 711.654 124.034 707.569 123.122 703.309C121.42 695.042 121.038 686.967 124.24 679.02C125.953 674.715 126.232 670.614 126.408 666.012C129.316 665.522 132.101 665.404 135.046 665.437Z" fill="#E9AA8B"/>
<path d="M62.9262 528.683C65.0341 528.936 65.4357 529.463 66.788 531.054C72.1262 540.691 71.8823 552.569 71.937 563.236C71.9424 563.771 71.9484 564.307 71.9543 564.858C71.9982 570.219 71.9088 575.425 70.7007 580.669C70.6167 581.034 70.5327 581.399 70.446 581.775C69.7744 584.337 68.6807 586.614 66.788 588.506C65.2975 588.777 65.2975 588.777 63.536 588.506C57.4347 581.969 56.8759 571.006 56.49 562.49C57.9209 562.49 59.3518 562.49 60.826 562.49C60.826 562.848 60.826 563.206 60.826 563.574C62.0341 562.87 62.0341 562.87 62.994 561.406C63.3084 559.388 63.4103 557.449 62.994 555.444C61.9534 554.435 61.9534 554.435 60.826 553.818C60.826 554.176 60.826 554.534 60.826 554.902C59.3951 554.902 57.9642 554.902 56.49 554.902C56.0342 536.962 56.0342 536.962 60.284 529.97C61.368 528.886 61.368 528.886 62.9262 528.683Z" fill="#818185"/>
<path d="M147.959 520.162C148.565 520.163 149.171 520.165 149.795 520.167C150.428 520.172 151.061 520.176 151.713 520.181C152.351 520.183 152.99 520.186 153.649 520.188C155.228 520.194 156.807 520.204 158.386 520.214C158.386 523.076 158.386 525.938 158.386 528.886C158.207 528.886 158.028 528.886 157.844 528.886C157.71 528.373 157.576 527.858 157.438 527.328C156.941 525.63 156.941 525.63 155.822 524.997C151.403 523.393 146.413 524.759 142.126 526.176C142.138 526.485 142.151 526.793 142.164 527.11C142.23 529.921 142.033 532.207 141.042 534.848C140.684 535.027 140.327 535.206 139.958 535.39C140.137 536.285 140.316 537.179 140.5 538.1C141.037 538.1 141.573 538.1 142.126 538.1C142.119 537.716 142.114 537.331 142.107 536.934C142.099 536.187 142.099 536.187 142.092 535.425C142.086 534.928 142.079 534.431 142.073 533.919C142.126 532.68 142.126 532.68 142.668 532.138C142.794 531.227 142.892 530.311 142.973 529.395C143.018 528.897 143.064 528.399 143.11 527.885C143.143 527.5 143.176 527.115 143.21 526.718C147.305 525.02 151.344 524.303 155.676 525.567C158.746 528.828 158.654 533.683 158.534 537.916C158.287 540.939 157.932 543.36 155.801 545.623C154.135 546.996 153.036 547.785 150.855 548.041C148.887 547.826 147.691 547.227 145.988 546.23C145.464 545.929 144.94 545.627 144.4 545.316C144.007 545.081 143.614 544.847 143.21 544.604C143.21 544.962 143.21 545.32 143.21 545.688C147.586 548.075 147.586 548.075 152.424 548.398C154.168 547.356 154.168 547.356 155.676 546.23C156.034 546.23 156.391 546.23 156.76 546.23C156.755 546.551 156.75 546.872 156.745 547.202C156.823 549.809 156.823 549.809 158.068 552.017C160.056 553.501 161.843 554.177 164.348 554.36C164.348 554.539 164.348 554.718 164.348 554.902C158.306 555.452 152.319 555.509 146.259 555.479C145.327 555.476 144.396 555.473 143.464 555.471C141.211 555.465 138.959 555.456 136.706 555.444C136.527 554.729 136.348 554.014 136.164 553.276C136.432 553.124 136.699 552.971 136.975 552.813C138.923 551.476 139.835 550.613 140.331 548.24C140.453 546.48 140.518 544.743 140.5 542.978C140.156 542.838 139.813 542.696 139.458 542.551C138.332 541.894 138.332 541.894 137.655 540.065C137.248 538.1 137.248 538.1 137.248 535.932C137.606 535.754 137.963 535.575 138.332 535.39C138.153 535.212 137.974 535.033 137.79 534.848C137.706 533.542 137.664 532.261 137.655 530.953C137.64 530.241 137.626 529.529 137.612 528.795C137.833 526.211 138.451 524.39 140.348 522.575C140.666 522.366 140.985 522.158 141.313 521.942C141.632 521.726 141.95 521.51 142.278 521.288C144.198 520.193 145.799 520.15 147.959 520.162Z" fill="#EAAB8C"/>
<path d="M129.118 546.772C129.655 546.951 130.191 547.13 130.744 547.314C130.744 547.672 130.744 548.03 130.744 548.398C131.281 548.577 131.817 548.756 132.37 548.94C134.643 551.651 135.613 554.001 136.401 557.409C137.369 561.243 138.613 564.629 140.373 568.179C141.977 571.433 142.209 575.014 141.175 578.505C140.654 579.722 140.074 580.855 139.416 582.002C139.125 582.55 138.835 583.098 138.535 583.663C136.767 585.105 135.464 585.028 133.232 584.903C129.42 584.386 126.164 582.856 123.698 579.834C123.03 578.479 122.514 577.13 122.023 575.702C121.547 574.282 121.547 574.282 120.311 572.788C118.962 570.476 119.087 568.362 119.362 565.742C119.904 564.116 119.904 564.116 121.223 563.403C121.76 563.18 122.297 562.957 122.851 562.728C125.094 561.817 125.094 561.817 126.95 560.322C126.933 560.978 126.933 560.978 126.916 561.647C126.87 563.644 126.842 565.642 126.815 567.639C126.796 568.327 126.778 569.014 126.759 569.723C126.718 573.715 126.874 576.477 129.118 579.834C129.476 580.013 129.833 580.192 130.202 580.376C130.008 580.09 129.814 579.803 129.614 579.508C126.992 575.09 127.195 570.892 127.357 565.946C127.384 564.751 127.407 563.557 127.428 562.361C127.449 561.281 127.479 560.199 127.51 559.119C127.491 556.935 127.259 554.894 126.95 552.734C126.592 552.734 126.235 552.734 125.866 552.734C126 553.137 126 553.137 126.137 553.547C126.522 555.473 126.748 557.301 126.408 559.238C124.774 561.4 122.935 562.546 120.446 563.574C119.909 563.574 119.373 563.574 118.82 563.574C118.82 563.217 118.82 562.859 118.82 562.49C119.256 562.334 119.692 562.178 120.141 562.016C121.602 561.552 121.602 561.552 122.072 560.322C121.569 560.602 121.066 560.882 120.548 561.17C118.82 561.948 118.82 561.948 117.194 561.406C117.731 560.691 118.267 559.976 118.82 559.238C118.429 559.596 118.037 559.954 117.635 560.322C115.993 561.49 115.353 561.63 113.4 561.406C113.847 560.926 114.294 560.445 114.755 559.95C116.342 558.121 117.533 556.179 118.752 554.089C121.268 549.936 123.741 545.929 129.118 546.772Z" fill="#E9AA8B"/>
<path d="M171.394 666.554C171.43 667.041 171.43 667.041 171.468 667.538C171.584 669.051 171.709 670.564 171.835 672.076C171.873 672.586 171.911 673.096 171.95 673.621C172.182 676.361 172.567 678.866 173.325 681.51C174.773 687.455 174.272 693.712 174.206 699.786C174.197 701.086 174.19 702.385 174.183 703.685C174.166 706.846 174.139 710.006 174.104 713.166C172.324 713.76 170.995 713.763 169.125 713.743C168.535 713.738 167.946 713.733 167.34 713.727C166.889 713.721 166.438 713.715 165.974 713.708C165.96 713.275 165.946 712.842 165.932 712.396C165.663 707.188 164.62 702.606 162.146 697.99C159.437 692.711 159.245 687.208 159.228 681.384C159.173 678.2 158.703 675.94 157.268 673.097C156.528 671.462 156.369 669.96 156.218 668.18C156.554 668.151 156.891 668.121 157.237 668.09C158.761 667.953 160.284 667.812 161.808 667.673C162.337 667.625 162.866 667.578 163.411 667.53C163.919 667.482 164.428 667.435 164.951 667.386C165.42 667.344 165.888 667.301 166.371 667.257C168.19 667.019 169.501 666.554 171.394 666.554Z" fill="#EAAC8D"/>
<path d="M12.046 555.444C13.4769 555.286 14.7809 555.234 16.2129 555.251C16.8579 555.25 16.8579 555.25 17.5164 555.248C18.9451 555.247 20.3733 555.256 21.802 555.267C22.796 555.268 23.7901 555.269 24.7841 555.27C26.873 555.272 28.9613 555.28 31.0501 555.292C33.7157 555.307 36.3813 555.313 39.0468 555.316C41.598 555.319 44.1492 555.326 46.7004 555.334C47.1822 555.335 47.6641 555.337 48.1611 555.338C52.9572 555.351 57.6862 555.377 62.452 555.986C62.452 557.775 62.452 559.564 62.452 561.406C58.5837 561.905 54.7713 562.062 50.8733 562.12C50.2304 562.131 49.5876 562.142 48.9253 562.154C47.5638 562.178 46.2018 562.2 44.8403 562.221C42.8126 562.253 40.785 562.288 38.7574 562.325C29.6718 562.479 20.5906 562.521 11.504 562.49C10.6563 560.796 10.7452 558.924 10.962 557.07C11.3197 556.534 11.6774 555.997 12.046 555.444Z" fill="#BEBEC1"/>
<path d="M164.89 623.194C164.89 623.552 164.89 623.91 164.89 624.278C163.101 625.173 161.313 626.067 159.47 626.988C161.196 627.139 161.196 627.139 162.722 625.904C164.348 624.82 164.348 624.82 165.974 624.82C165.974 625.178 165.974 625.536 165.974 625.904C165.145 626.508 165.145 626.508 163.997 627.158C163.586 627.394 163.175 627.63 162.752 627.874C162.1 628.24 162.1 628.24 161.435 628.614C160.583 629.098 159.732 629.584 158.881 630.071C158.501 630.286 158.121 630.5 157.729 630.721C156.443 631.522 155.77 632.088 155.337 633.56C155.27 633.896 155.203 634.231 155.134 634.576C155.671 634.576 156.207 634.576 156.76 634.576C157.028 635.113 157.028 635.113 157.302 635.66C157.956 635.644 157.956 635.644 158.623 635.627C160.012 635.66 160.012 635.66 160.554 636.202C161.822 636.047 163.087 635.867 164.348 635.66C162.903 636.624 161.623 637.219 160.012 637.828C162.158 637.56 162.158 637.56 164.348 637.286C164.348 637.644 164.348 638.002 164.348 638.37C160.592 639.712 160.592 639.712 156.76 641.08C156.76 641.438 156.76 641.796 156.76 642.164C156.223 642.433 156.223 642.433 155.676 642.706C155.548 643.918 155.548 643.918 156.76 644.874C156.045 644.874 155.329 644.874 154.592 644.874C154.592 645.232 154.592 645.59 154.592 645.958C159.561 645.788 164.21 645.547 168.999 644.074C170.388 643.774 171.152 643.869 172.478 644.332C171.814 644.687 171.147 645.036 170.48 645.383C169.923 645.675 169.923 645.675 169.355 645.974C166.271 647.313 163.04 647.142 159.741 647.144C159.233 647.151 158.725 647.157 158.202 647.164C153.608 647.174 153.608 647.174 151.34 645.958C151.34 645.601 151.34 645.243 151.34 644.874C151.698 644.696 152.055 644.517 152.424 644.332C150.862 643.599 150.862 643.599 149.714 644.332C148.2 643.828 147.583 643.3 146.633 642.003C145.105 640.221 143.496 639.201 141.483 638.032C141.121 637.819 140.759 637.606 140.386 637.386C136.758 635.298 133.287 634.027 129.118 633.492C129.118 633.135 129.118 632.777 129.118 632.408C132.744 632.701 135.966 633.431 139.416 634.576C139.416 634.04 139.416 633.503 139.416 632.95C142.367 633.755 142.367 633.755 145.378 634.576C145.199 634.04 145.02 633.503 144.836 632.95C141.036 631.311 137.022 630.519 132.912 630.24C132.912 629.883 132.912 629.525 132.912 629.156C136.156 628.973 138.711 629.5 141.819 630.42C143.403 630.833 144.832 630.915 146.462 630.782C143.04 628.941 139.604 627.717 135.893 626.582C135.344 626.411 134.795 626.24 134.229 626.063C132.888 625.646 131.545 625.232 130.202 624.82C130.202 624.463 130.202 624.105 130.202 623.736C133.923 624.285 137.345 625.344 140.873 626.616C141.31 626.769 141.748 626.923 142.199 627.082C145.066 628.141 147.3 629.447 149.714 631.324C149.177 630.251 148.641 629.178 148.088 628.072C148.267 627.894 148.446 627.715 148.63 627.53C147.02 626.994 145.411 626.457 143.752 625.904C143.752 625.547 143.752 625.189 143.752 624.82C144.098 624.907 144.445 624.992 144.802 625.081C152.196 626.335 158.023 623.194 164.89 623.194Z" fill="#BA2F2A"/>
<path d="M72.75 554.902C87.4165 554.902 102.083 554.902 117.194 554.902C114.531 559.563 114.531 559.563 112.316 560.864C110.876 561.089 109.653 561.192 108.213 561.195C107.81 561.204 107.408 561.213 106.994 561.222C105.674 561.249 104.354 561.26 103.034 561.271C102.119 561.286 101.203 561.302 100.288 561.319C97.4321 561.366 94.5763 561.39 91.72 561.406C91.017 561.411 91.017 561.411 90.3 561.415C84.4496 561.447 78.5998 561.442 72.75 561.406C72.75 559.26 72.75 557.114 72.75 554.902Z" fill="#BFBFC1"/>
<path d="M133.996 722.922C134.333 725.382 134.641 727.844 134.945 730.307C135.04 731.004 135.136 731.701 135.234 732.418C135.355 733.43 135.355 733.43 135.478 734.461C135.557 735.08 135.637 735.699 135.719 736.336C135.595 738.585 134.88 739.637 133.454 741.35C131.094 742.208 128.882 742.281 126.408 741.892C124.686 740.715 123.658 739.346 122.614 737.556C122.406 737.22 122.198 736.884 121.983 736.538C120.979 733.991 121.437 731.035 121.53 728.342C121.533 727.897 121.537 727.452 121.541 726.994C121.646 724.922 121.961 724.114 123.461 722.651C127.205 721.018 130.226 721.939 133.996 722.922Z" fill="#39393B"/>
<path d="M175.188 716.418C176.551 716.518 177.166 716.766 178.122 717.748C178.339 718.069 178.555 718.391 178.779 718.722C178.998 719.038 179.218 719.354 179.444 719.679C180.066 720.754 180.066 720.754 180.555 722.101C181.239 723.668 182.034 724.478 183.284 725.632C184.859 727.151 186.19 728.493 187.112 730.51C187.112 731.047 187.112 731.584 187.112 732.136C186.598 732.304 186.084 732.472 185.554 732.645C183.935 733.152 183.935 733.152 182.776 733.762C179.057 734.101 175.799 733.333 172.478 731.594C170.852 729.798 170.852 729.798 170.852 728.342C168.368 727.301 165.823 726.469 163.264 725.632C163.076 722.568 163.571 720.738 164.89 718.044C167.464 718.519 167.464 718.519 168.684 719.128C170.513 719.4 170.513 719.4 172.478 719.128C173.403 718.247 174.309 717.345 175.188 716.418Z" fill="#39393B"/>
<path d="M126.408 655.172C126.587 655.53 126.766 655.888 126.95 656.256C129.638 656.794 132.313 656.903 135.046 656.9C135.429 656.9 135.811 656.901 136.204 656.901C138.924 656.874 141.157 656.456 143.752 655.714C145.212 655.628 146.624 655.662 148.088 655.714C148.423 659.989 148.423 659.989 147.241 662.117C143.321 665.636 140.222 665.797 135.08 665.708C134.457 665.712 133.833 665.715 133.192 665.719C129.824 665.694 127.171 665.574 124.24 663.844C122.634 661.436 123.48 659.563 124.003 656.833C124.081 656.463 124.159 656.095 124.24 655.714C124.419 655.714 124.598 655.714 124.782 655.714C124.961 656.251 125.14 656.788 125.324 657.34C125.682 656.625 126.039 655.91 126.408 655.172Z" fill="#BA2D28"/>
<path d="M186.57 554.36C200.342 554.36 214.114 554.36 228.304 554.36C228.304 555.612 228.304 556.864 228.304 558.154C222.129 558.549 215.96 558.834 209.775 559.002C209.368 559.013 208.961 559.024 208.541 559.036C201.758 559.226 194.981 559.305 188.196 559.238C188.095 558.786 188.095 558.786 187.993 558.324C187.607 556.802 187.607 556.802 186.57 554.36Z" fill="#BDBDC0"/>
<path d="M141.042 544.062C141.579 544.241 142.115 544.42 142.668 544.604C142.668 545.141 142.668 545.678 142.668 546.23C143.037 546.286 143.406 546.343 143.786 546.4C145.378 546.772 145.378 546.772 147.241 547.62C149.229 548.422 150.317 548.712 152.424 548.398C154.168 547.356 154.168 547.356 155.676 546.23C156.034 546.23 156.391 546.23 156.76 546.23C156.755 546.551 156.75 546.872 156.745 547.202C156.823 549.809 156.823 549.809 158.068 552.017C160.056 553.501 161.843 554.177 164.348 554.36C164.348 554.539 164.348 554.718 164.348 554.902C158.306 555.452 152.319 555.509 146.259 555.479C145.327 555.476 144.396 555.473 143.464 555.471C141.211 555.465 138.959 555.456 136.706 555.444C136.527 554.729 136.348 554.014 136.164 553.276C136.624 552.96 136.624 552.96 137.094 552.637C139.588 550.763 139.588 550.763 140.909 548.024C141.028 546.691 141.085 545.4 141.042 544.062Z" fill="#E8AA8B"/>
<path d="M171.936 555.986C172.204 556.791 172.204 556.791 172.478 557.612C168.205 557.825 163.931 558.037 159.658 558.249C157.674 558.347 155.69 558.445 153.705 558.544C151.79 558.639 149.874 558.734 147.96 558.829C146.874 558.882 145.788 558.937 144.703 558.991C144.041 559.023 143.379 559.056 142.697 559.089C142.115 559.118 141.532 559.147 140.932 559.177C139.705 559.227 138.476 559.238 137.248 559.238C137.606 559.417 137.963 559.596 138.332 559.78C138.698 560.672 138.698 560.672 139.044 561.847C139.682 563.929 140.496 565.836 141.415 567.809C142.996 571.577 143.465 575.155 142.213 579.102C141.428 580.931 140.521 582.513 139.416 584.17C143.882 583.759 147.318 582.922 151.156 580.561C153.255 579.359 153.255 579.359 154.592 579.292C156.093 580.07 156.093 580.07 157.743 581.156C161.075 583.23 161.075 583.23 164.89 583.086C166.285 582.282 167.428 581.402 168.684 580.376C169.042 580.555 169.399 580.734 169.768 580.918C167.792 582.979 166.241 584.537 163.399 585.153C160.705 584.929 158.425 583.447 156.127 582.119C154.335 581.35 153.699 581.361 151.882 582.002C150.889 582.537 149.907 583.092 148.935 583.663C145.627 585.39 142.957 585.521 139.274 585.316C138.785 585.296 138.295 585.276 137.79 585.254C137.611 585.433 137.432 585.612 137.248 585.796C132.75 586.351 129.289 585.069 125.324 583.086C125.503 582.55 125.682 582.013 125.866 581.46C126.784 582.007 127.701 582.555 128.618 583.102C131.251 584.434 134.368 584.74 137.248 584.17C138.576 583.109 139.245 581.903 139.958 580.376C140.31 579.639 140.31 579.639 140.67 578.886C141.82 573.448 140.671 569.599 138.332 564.658C137.881 563.681 137.44 562.699 137.011 561.712C136.821 561.299 136.632 560.886 136.437 560.46C136.077 558.848 136.599 558.013 137.248 556.528C148.817 555.997 160.358 555.922 171.936 555.986Z" fill="#FAF0E8"/>
<path d="M147.959 520.162C148.565 520.163 149.171 520.165 149.795 520.167C150.428 520.172 151.061 520.176 151.713 520.181C152.351 520.183 152.99 520.186 153.649 520.188C155.228 520.194 156.807 520.204 158.386 520.214C158.386 523.076 158.386 525.938 158.386 528.886C158.207 528.886 158.028 528.886 157.844 528.886C157.71 528.373 157.576 527.858 157.438 527.328C156.941 525.63 156.941 525.63 155.822 524.997C151.403 523.393 146.413 524.759 142.126 526.176C142.138 526.485 142.151 526.793 142.164 527.11C142.23 529.93 141.951 532.178 141.042 534.848C139.969 534.67 138.896 534.491 137.79 534.306C137.746 533.11 137.715 531.913 137.689 530.716C137.66 529.716 137.66 529.716 137.631 528.696C137.835 526.159 138.488 524.354 140.348 522.575C140.666 522.366 140.985 522.158 141.313 521.942C141.632 521.726 141.95 521.51 142.278 521.288C144.198 520.193 145.799 520.15 147.959 520.162Z" fill="#5E4D46"/>
<path d="M180.608 548.398C183.653 550.416 185.715 553.75 187.112 557.07C187.112 557.607 187.112 558.144 187.112 558.696C185.41 558.526 184.614 558.382 183.426 557.111C183.155 556.684 182.885 556.257 182.607 555.817C182.329 555.395 182.052 554.972 181.766 554.536C181.15 553.276 181.15 553.276 181.15 551.108C180.792 551.108 180.435 551.108 180.066 551.108C179.887 552.003 179.708 552.897 179.524 553.818C178.987 553.997 178.451 554.176 177.898 554.36C177.719 553.645 177.54 552.93 177.356 552.192C175.746 551.924 175.746 551.924 174.104 551.65C174.361 552.053 174.618 552.455 174.883 552.87C176.23 555.501 176.136 558.509 176.272 561.406C176.809 561.406 177.345 561.406 177.898 561.406C177.898 564.984 177.898 568.561 177.898 572.246C177.361 572.515 177.361 572.515 176.814 572.788C174.887 570.277 174.95 568.03 174.917 564.997C174.931 559.837 174.931 559.837 172.478 555.444C170.797 555.291 169.116 555.202 167.431 555.108C166.95 555.04 166.469 554.972 165.974 554.902C165.795 554.545 165.616 554.187 165.432 553.818C168.549 552.192 168.549 552.192 169.768 552.192C169.768 551.835 169.768 551.477 169.768 551.108C172.726 548.957 176.947 547.474 180.608 548.398Z" fill="#E8A98B"/>
<path d="M135.08 553.276C135.438 553.276 135.795 553.276 136.164 553.276C136.343 553.992 136.522 554.707 136.706 555.444C139.393 555.379 142.08 555.312 144.768 555.243C145.678 555.22 146.587 555.197 147.497 555.175C152.642 555.05 157.775 554.886 162.91 554.526C171.137 553.976 171.137 553.976 173.397 555.538C175.677 558.733 175.377 562.543 175.4 566.291C175.487 569.322 175.924 570.994 177.898 573.33C178.256 573.509 178.613 573.688 178.982 573.872C178.982 574.23 178.982 574.588 178.982 574.956C176.326 574.145 176.034 573.575 174.104 571.162C173.925 567.049 173.746 562.935 173.562 558.696C161.578 559.233 149.595 559.77 137.248 560.322C137.248 559.965 137.248 559.607 137.248 559.238C139.474 558.631 141.675 558.519 143.97 558.406C144.418 558.383 144.866 558.36 145.328 558.336C146.779 558.261 148.229 558.191 149.68 558.121C150.17 558.096 150.659 558.072 151.164 558.047C158.272 557.696 165.36 557.456 172.478 557.612C172.21 557.076 172.21 557.076 171.936 556.528C160.489 556.528 149.042 556.528 137.248 556.528C137.069 557.244 136.89 557.959 136.706 558.696C135.08 555.106 135.08 555.106 135.08 553.276Z" fill="#F7F5F4"/>
<path d="M244.564 553.818C247.796 553.805 251.028 553.795 254.26 553.789C255.361 553.786 256.461 553.782 257.561 553.778C259.139 553.771 260.717 553.768 262.296 553.766C262.79 553.763 263.286 553.76 263.796 553.757C264.974 553.757 266.151 553.785 267.328 553.818C267.596 554.087 267.596 554.087 267.87 554.36C267.691 555.612 267.512 556.864 267.328 558.154C259.816 558.154 252.304 558.154 244.564 558.154C244.564 556.724 244.564 555.293 244.564 553.818Z" fill="#BCBCBE"/>
<path d="M126.408 560.322C126.587 560.322 126.766 560.322 126.95 560.322C127.009 564.519 126.935 568.623 126.408 572.788C126.05 572.252 125.693 571.715 125.324 571.162C125.145 571.878 124.966 572.593 124.782 573.33C124.245 573.33 123.709 573.33 123.156 573.33C123.156 573.867 123.156 574.404 123.156 574.956C121.776 574.433 121.017 573.906 120.039 572.788C118.88 570.005 118.955 566.964 119.904 564.116C121.242 563.403 121.242 563.403 122.885 562.728C125.057 561.983 125.057 561.983 126.408 560.322Z" fill="#E8A989"/>
<path d="M171.936 555.986C172.204 556.791 172.204 556.791 172.478 557.612C160.902 558.328 149.393 558.892 137.79 558.696C137.611 557.981 137.432 557.266 137.248 556.528C148.817 555.997 160.358 555.922 171.936 555.986Z" fill="#BBBCBE"/>
<path d="M129.118 634.034C135.643 633.614 140.09 636.418 145.378 639.996C144.663 640.712 143.947 641.427 143.21 642.164C140.247 641.217 137.379 640.182 134.538 638.912C135.245 640.328 135.816 640.366 137.282 640.877C137.679 641.019 138.077 641.16 138.486 641.305C138.947 641.462 138.947 641.462 139.416 641.622C139.416 641.98 139.416 642.338 139.416 642.706C137.248 642.706 135.08 642.706 132.912 642.706C132.733 642.17 132.554 641.633 132.37 641.08C132.09 640.801 131.811 640.522 131.523 640.234C130.744 639.454 130.744 639.454 130.744 638.37C131.281 638.013 131.817 637.655 132.37 637.286C132.37 636.571 132.37 635.856 132.37 635.118C130.76 634.85 130.76 634.85 129.118 634.576C129.118 634.398 129.118 634.219 129.118 634.034Z" fill="#B92C28"/>
<path d="M215.838 550.024C216.017 550.024 216.196 550.024 216.38 550.024C216.38 550.919 216.38 551.813 216.38 552.734C216.942 552.73 216.942 552.73 217.515 552.726C219.203 552.715 220.891 552.708 222.579 552.701C223.169 552.696 223.759 552.692 224.367 552.687C224.928 552.685 225.488 552.683 226.066 552.682C226.585 552.679 227.105 552.676 227.64 552.673C228.846 552.734 228.846 552.734 229.388 553.276C229.498 554.339 229.498 554.339 229.524 555.648C229.538 556.077 229.552 556.506 229.566 556.948C229.388 558.154 229.388 558.154 228.829 559.12C227.164 560.151 225.453 559.928 223.562 559.848C220.724 559.758 218.101 559.845 215.296 560.322C215.296 559.965 215.296 559.607 215.296 559.238C210.288 559.238 205.28 559.238 200.12 559.238C200.12 559.06 200.12 558.881 200.12 558.696C202.653 558.618 205.186 558.54 207.719 558.465C208.576 558.439 209.433 558.413 210.29 558.386C216.297 558.199 222.294 558.12 228.304 558.154C228.304 556.902 228.304 555.65 228.304 554.36C214.532 554.36 200.76 554.36 186.57 554.36C186.57 554.182 186.57 554.003 186.57 553.818C201.058 553.55 201.058 553.55 215.838 553.276C215.838 552.203 215.838 551.13 215.838 550.024Z" fill="#E0E0E2"/>
<path d="M147.546 650.294C149.44 652.842 149.215 654.908 148.806 657.895C148.748 658.249 148.69 658.602 148.63 658.966C148.451 658.966 148.272 658.966 148.088 658.966C148.088 657.893 148.088 656.82 148.088 655.714C147.563 655.832 147.037 655.949 146.496 656.071C140.302 657.384 133.563 658.601 127.492 656.256C127.492 655.899 127.492 655.541 127.492 655.172C127.837 655.259 128.181 655.344 128.536 655.433C134.482 656.438 140.512 656.306 145.92 653.546C146.278 653.546 146.635 653.546 147.004 653.546C146.736 652.742 146.736 652.742 146.462 651.92C143.77 652.207 141.426 652.823 138.883 653.752C137.79 654.088 137.79 654.088 136.164 654.088C136.343 653.552 136.522 653.015 136.706 652.462C138.243 651.848 138.243 651.848 140.161 651.311C140.792 651.131 141.421 650.95 142.071 650.764C142.626 650.609 143.18 650.454 143.752 650.294C145.969 649.556 145.969 649.556 147.546 650.294Z" fill="#BE3936"/>
<path d="M151.34 646.5C158.584 646.769 158.584 646.769 165.974 647.042C165.974 647.221 165.974 647.4 165.974 647.584C164.722 647.763 163.47 647.942 162.18 648.126C162.851 648.629 162.851 648.629 163.535 649.143C164.206 649.713 164.206 649.713 164.89 650.294C164.89 650.652 164.89 651.01 164.89 651.378C161.256 651.486 158.033 651.546 154.592 650.294C154.592 649.937 154.592 649.579 154.592 649.21C154.256 649.065 153.922 648.92 153.576 648.77C152.424 648.126 152.424 648.126 151.34 646.5Z" fill="#B82B26"/>
<path d="M165.974 607.476C166.766 608.912 167.058 609.588 167.058 611.27C156.661 616.469 146.315 617.385 135.08 614.522C133.222 613.895 131.432 613.194 129.66 612.354C131.395 611.779 132.28 611.843 133.962 612.524C143.85 616.046 154.137 614.813 163.806 611.27C164.611 611.002 164.611 611.002 165.432 610.728C165.611 609.655 165.79 608.582 165.974 607.476Z" fill="#F7E7E0"/>
<path d="M125.866 552.734C126.224 552.734 126.581 552.734 126.95 552.734C127.786 555.686 128.15 558.161 128.064 561.254C128.05 562.035 128.037 562.817 128.023 563.598C127.997 564.807 127.966 566.017 127.93 567.226C127.737 573.55 127.737 573.55 130.202 579.292C130.202 579.65 130.202 580.008 130.202 580.376C128.576 579.834 128.576 579.834 127.399 578.09C125.907 574.907 126.174 571.625 126.272 568.181C126.282 567.529 126.292 566.876 126.302 566.204C126.328 564.604 126.363 563.006 126.408 561.406C124.798 562.122 123.189 562.837 121.53 563.574C121.351 563.217 121.172 562.859 120.988 562.49C121.295 562.347 121.602 562.203 121.918 562.055C122.315 561.863 122.713 561.671 123.122 561.474C123.716 561.191 123.716 561.191 124.322 560.903C125.412 560.394 125.412 560.394 125.866 559.238C125.904 558.133 125.912 557.025 125.9 555.919C125.895 555.325 125.89 554.731 125.885 554.119C125.879 553.662 125.873 553.205 125.866 552.734Z" fill="#FBF3EE"/>
<path d="M130.202 623.736C133.932 624.287 137.369 625.347 140.907 626.616C141.349 626.769 141.791 626.923 142.246 627.082C145.039 628.11 146.998 629.288 149.172 631.324C148.993 631.682 148.814 632.04 148.63 632.408C145.217 632.576 142.536 632.158 139.27 631.181C137.155 630.612 135.092 630.419 132.912 630.24C132.912 629.883 132.912 629.525 132.912 629.156C136.156 628.973 138.711 629.5 141.819 630.42C143.404 630.833 144.832 630.915 146.462 630.782C143.04 628.941 139.604 627.717 135.893 626.582C135.344 626.411 134.795 626.24 134.229 626.063C132.888 625.646 131.545 625.232 130.202 624.82C130.202 624.463 130.202 624.105 130.202 623.736Z" fill="#F2DAD6"/>
<path d="M174.104 709.914C175.373 711.817 175.571 713.069 175.73 715.334C175.299 716.932 174.899 717.346 173.494 718.214C170.773 718.864 168.1 718.281 165.432 717.502C165.611 716.608 165.79 715.714 165.974 714.792C169.193 714.524 169.193 714.524 172.478 714.25C172.478 713.893 172.478 713.535 172.478 713.166C173.015 713.166 173.551 713.166 174.104 713.166C174.104 712.093 174.104 711.02 174.104 709.914Z" fill="#E9E8E9"/>
<path d="M130.744 666.554C134.5 666.554 138.256 666.554 142.126 666.554C141.516 672.652 141.516 672.652 140.5 675.226C140.254 674.869 140.008 674.511 139.755 674.142C139.464 673.785 139.174 673.427 138.874 673.058C138.516 673.058 138.159 673.058 137.79 673.058C137.79 673.953 137.79 674.847 137.79 675.768C137.253 675.768 136.717 675.768 136.164 675.768C136.182 674.831 136.22 673.894 136.266 672.957C136.284 672.435 136.303 671.913 136.323 671.376C136.706 669.806 136.706 669.806 139.416 667.096C136.554 667.096 133.692 667.096 130.744 667.096C130.744 666.918 130.744 666.739 130.744 666.554Z" fill="#EAB497"/>
<path d="M147.546 651.92C147.004 653.546 147.004 653.546 145.814 654.298C141.144 656.372 137.395 656.565 132.37 656.256C132.37 656.078 132.37 655.899 132.37 655.714C133.443 655.714 134.516 655.714 135.622 655.714C135.801 655.178 135.98 654.641 136.164 654.088C137.472 653.501 138.702 653.033 140.06 652.598C140.418 652.472 140.776 652.345 141.144 652.215C143.483 651.444 145.162 651.313 147.546 651.92Z" fill="#B92A26"/>
<path d="M155.725 524.5C156.624 525.092 156.625 525.092 157.844 526.176C156.218 526.718 156.218 526.718 155.208 526.219C154.635 525.93 154.635 525.93 154.05 525.634C150.304 525.233 146.827 525.77 143.21 526.718C143.217 527.104 143.222 527.489 143.229 527.885C143.237 528.632 143.237 528.632 143.244 529.395C143.25 529.891 143.257 530.388 143.263 530.9C143.21 532.138 143.21 532.138 142.668 532.68C142.542 533.592 142.444 534.508 142.363 535.425C142.295 536.171 142.295 536.171 142.226 536.934C142.193 537.319 142.16 537.704 142.126 538.1C141.589 538.1 141.053 538.1 140.5 538.1C140.142 537.027 139.785 535.954 139.416 534.848C139.953 534.848 140.489 534.848 141.042 534.848C141.472 531.964 141.817 529.077 142.126 526.176C146.305 524.334 151.26 522.564 155.725 524.5Z" fill="#F1EBE4"/>
<path d="M169.768 563.574C170.126 563.574 170.483 563.574 170.852 563.574C170.734 563.994 170.734 563.994 170.615 564.422C170.514 564.857 170.414 565.294 170.31 565.742C170.176 566.308 170.042 566.875 169.903 567.457C169.733 570.072 170.434 571.505 171.631 573.771C173.562 577.578 173.562 577.578 173.562 578.75C173.204 578.75 172.847 578.75 172.478 578.75C172.299 579.287 172.12 579.824 171.936 580.376C171.876 580.062 171.817 579.748 171.756 579.424C171.224 576.801 170.555 574.603 169.226 572.246C169.405 574.393 169.584 576.539 169.768 578.75C169.41 578.75 169.053 578.75 168.684 578.75C167.335 574.367 166.561 569.582 168.684 565.336C169.042 564.755 169.399 564.173 169.768 563.574Z" fill="#FAF0E8"/>
<path d="M128.576 669.264C128.934 669.264 129.291 669.264 129.66 669.264C129.66 669.622 129.66 669.98 129.66 670.348C130.018 670.348 130.375 670.348 130.744 670.348C130.744 669.991 130.744 669.633 130.744 669.264C131.046 669.365 131.348 669.466 131.659 669.57C133.128 669.848 134.182 669.624 135.622 669.264C135.98 670.516 136.337 671.768 136.706 673.058C136.169 673.416 135.633 673.774 135.08 674.142C134.722 673.785 134.365 673.427 133.996 673.058C133.459 673.416 132.923 673.774 132.37 674.142C131.833 673.606 131.297 673.069 130.744 672.516C131.415 673.288 131.415 673.288 132.099 674.075C133.454 675.633 133.454 675.633 133.454 676.852C131.379 676.037 130.321 674.925 129.118 673.058C128.711 670.992 128.711 670.992 128.576 669.264Z" fill="#EAAB8D"/>
<path d="M125.324 563.032C125.861 563.032 126.397 563.032 126.95 563.032C126.771 566.252 126.592 569.471 126.408 572.788C126.05 572.252 125.693 571.715 125.324 571.162C125.145 571.878 124.966 572.593 124.782 573.33C124.245 573.33 123.709 573.33 123.156 573.33C123.156 573.867 123.156 574.404 123.156 574.956C122.798 574.778 122.441 574.599 122.072 574.414C122.546 571.772 122.546 571.772 123.156 571.162C123.29 568.917 123.29 568.917 122.614 566.826C122.972 566.826 123.329 566.826 123.698 566.826C123.519 566.29 123.34 565.753 123.156 565.2C123.871 565.022 124.587 564.843 125.324 564.658C125.324 564.122 125.324 563.585 125.324 563.032Z" fill="#EAAE92"/>
<path d="M122.072 739.182C122.296 739.417 122.519 739.652 122.749 739.894C124.534 741.614 125.717 742.665 128.271 742.638C128.908 742.571 129.546 742.504 130.202 742.434C130.381 742.077 130.56 741.719 130.744 741.35C132.37 741.35 133.996 741.35 135.622 741.35C134.944 743.33 134.716 743.942 132.912 745.144C130.075 745.616 127.658 745.519 125.256 743.857C124.742 743.388 124.228 742.918 123.698 742.434C123.698 742.077 123.698 741.719 123.698 741.35C123.34 741.35 122.983 741.35 122.614 741.35C122.435 740.635 122.256 739.92 122.072 739.182Z" fill="#E6E6E8"/>
<path d="M138.332 526.176C139.42 526.332 140.505 526.512 141.584 526.718C142.135 529.858 142.106 531.845 141.042 534.848C139.432 534.58 139.432 534.58 137.79 534.306C137.775 533.053 137.765 531.8 137.756 530.547C137.75 529.848 137.743 529.15 137.737 528.431C137.79 526.718 137.79 526.718 138.332 526.176Z" fill="#5A4840"/>
<path d="M128.576 614.522C128.755 615.238 128.934 615.953 129.118 616.69C129.735 616.857 129.735 616.857 130.365 617.027C130.904 617.173 131.443 617.319 131.998 617.47C132.532 617.615 133.066 617.759 133.617 617.908C134.655 618.198 135.684 618.518 136.706 618.858C137.864 618.94 139.024 618.993 140.185 619.03C140.864 619.053 141.543 619.075 142.244 619.099C143.309 619.131 143.309 619.131 144.396 619.164C145.119 619.187 145.843 619.211 146.567 619.235C148.338 619.292 150.11 619.347 151.882 619.4C151.882 619.758 151.882 620.116 151.882 620.484C149.477 620.548 147.072 620.586 144.667 620.62C143.656 620.648 143.656 620.648 142.625 620.675C138.73 620.716 135.625 620.385 132.033 618.839C130.704 618.301 129.444 618.014 128.034 617.774C128.213 616.701 128.392 615.628 128.576 614.522Z" fill="#F4DFDB"/>
<path d="M172.478 644.332C171.814 644.687 171.147 645.036 170.48 645.383C170.108 645.577 169.738 645.773 169.355 645.974C166.271 647.313 163.04 647.142 159.741 647.144C159.233 647.151 158.725 647.157 158.202 647.164C153.608 647.174 153.608 647.174 151.34 645.958C151.34 645.601 151.34 645.243 151.34 644.874C151.786 644.961 152.232 645.048 152.691 645.137C154.8 645.447 156.868 645.542 158.996 645.552C159.6 645.555 159.6 645.555 160.217 645.558C163.3 645.526 166.05 645.029 168.999 644.093C170.395 643.771 171.143 643.863 172.478 644.332Z" fill="#F2D9D6"/>
<path d="M172.478 555.444C174.51 556.799 174.623 557.434 175.188 559.78C175.37 561.947 175.386 564.118 175.4 566.291C175.487 569.322 175.924 570.994 177.898 573.33C178.256 573.509 178.613 573.688 178.982 573.872C178.982 574.23 178.982 574.588 178.982 574.956C176.539 574.21 175.413 573.366 174.104 571.162C173.761 569.032 173.726 566.915 173.698 564.76C173.681 564.178 173.666 563.596 173.649 562.996C173.611 561.563 173.582 560.13 173.562 558.696C173.025 558.696 172.489 558.696 171.936 558.696C172.115 557.623 172.294 556.55 172.478 555.444Z" fill="#F9EFE6"/>
<path d="M11.504 555.986C25.0974 555.986 38.6907 555.986 52.696 555.986C52.696 556.165 52.696 556.344 52.696 556.528C39.4604 556.528 26.2247 556.528 12.588 556.528C12.2303 557.78 11.8726 559.032 11.504 560.322C11.3251 560.322 11.1463 560.322 10.962 560.322C10.8942 557.206 10.8942 557.206 11.504 555.986Z" fill="#B4B4B6"/>
<path d="M152.424 649.21C152.927 649.613 153.43 650.015 153.949 650.43C156.46 652.244 159.255 653.142 162.18 654.088C162.001 654.625 161.822 655.162 161.638 655.714C160.779 655.546 159.921 655.376 159.064 655.207C158.585 655.112 158.108 655.018 157.615 654.92C156.417 654.672 155.234 654.396 154.05 654.088C153.871 654.446 153.692 654.804 153.508 655.172C152.614 654.994 151.719 654.815 150.798 654.63C150.977 654.094 151.156 653.557 151.34 653.004C152.413 653.273 152.413 653.273 153.508 653.546C153.15 653.01 152.793 652.473 152.424 651.92C151.887 652.189 151.887 652.189 151.34 652.462C151.34 651.747 151.34 651.032 151.34 650.294C151.698 650.294 152.055 650.294 152.424 650.294C152.424 649.937 152.424 649.579 152.424 649.21Z" fill="#B62722"/>
<path d="M128.034 617.774C131.095 617.962 133.836 618.908 136.706 619.942C136.169 620.211 136.169 620.211 135.622 620.484C135.622 620.842 135.622 621.2 135.622 621.568C134.907 621.568 134.191 621.568 133.454 621.568C133.275 621.211 133.096 620.853 132.912 620.484C132.018 620.663 131.123 620.842 130.202 621.026C130.023 621.921 129.844 622.815 129.66 623.736C128.034 623.194 128.034 623.194 127.492 622.11C127.313 622.11 127.134 622.11 126.95 622.11C126.882 620.552 126.882 620.552 126.95 618.858C127.308 618.501 127.665 618.143 128.034 617.774Z" fill="#BB312E"/>
<path d="M186.57 554.36C200.163 554.36 213.757 554.36 227.762 554.36C227.762 554.539 227.762 554.718 227.762 554.902C214.705 554.902 201.648 554.902 188.196 554.902C188.196 555.26 188.196 555.618 188.196 555.986C187.659 555.808 187.123 555.629 186.57 555.444C186.57 555.087 186.57 554.729 186.57 554.36Z" fill="#B3B3B5"/>
<path d="M129.118 632.408C136.896 633.026 142.934 636.243 148.63 641.622C148.63 641.98 148.63 642.338 148.63 642.706C146.915 641.91 145.45 640.937 143.922 639.827C139.064 636.421 134.998 634.611 129.118 633.492C129.118 633.135 129.118 632.777 129.118 632.408Z" fill="#F3D9D5"/>
<path d="M164.89 623.194C164.89 623.552 164.89 623.91 164.89 624.278C164.147 624.633 163.401 624.982 162.654 625.329C162.239 625.523 161.824 625.719 161.397 625.92C158.296 627.1 155.154 627.088 151.882 627.09C151.247 627.1 151.247 627.1 150.599 627.11C148.098 627.117 146.106 626.859 143.752 625.904C143.752 625.547 143.752 625.189 143.752 624.82C144.098 624.907 144.445 624.992 144.802 625.081C152.196 626.335 158.023 623.194 164.89 623.194Z" fill="#F4E3E0"/>
<path d="M154.05 653.004C154.229 653.362 154.408 653.72 154.592 654.088C155.954 654.443 155.954 654.443 157.539 654.665C160.459 655.125 160.459 655.125 161.638 655.714C161.638 656.072 161.638 656.43 161.638 656.798C160.786 656.731 160.786 656.731 159.917 656.661C159.169 656.605 158.422 656.549 157.675 656.494C157.113 656.448 157.113 656.448 156.541 656.402C154.795 656.275 153.561 656.239 151.882 656.798C152.061 657.335 152.24 657.872 152.424 658.424C152.46 659.27 152.47 660.118 152.458 660.965C152.453 661.403 152.448 661.841 152.443 662.293C152.437 662.626 152.431 662.959 152.424 663.302C152.066 663.302 151.709 663.302 151.34 663.302C151.161 660.441 150.982 657.579 150.798 654.63C152.139 654.899 152.139 654.899 153.508 655.172C153.687 654.457 153.866 653.742 154.05 653.004Z" fill="#BB3432"/>
<path d="M141.042 624.82C141.4 625.178 141.757 625.536 142.126 625.904C146.534 627.019 151.154 627.253 155.676 627.53C155.676 627.709 155.676 627.888 155.676 628.072C152.188 628.341 152.188 628.341 148.63 628.614C149.167 629.688 149.703 630.761 150.256 631.866C148.945 631.262 147.82 630.596 146.632 629.766C144.498 628.398 142.291 627.421 139.958 626.446C140.316 626.268 140.673 626.089 141.042 625.904C141.042 625.547 141.042 625.189 141.042 624.82Z" fill="#B62621"/>
<path d="M171.394 666.554C171.318 667.526 171.238 668.497 171.157 669.468C171.113 670.009 171.069 670.55 171.023 671.107C170.852 672.516 170.852 672.516 170.31 673.6C169.773 673.6 169.237 673.6 168.684 673.6C168.684 672.527 168.684 671.454 168.684 670.348C168.147 670.17 167.611 669.991 167.058 669.806C166.879 669.27 166.7 668.733 166.516 668.18C165.622 668.18 164.727 668.18 163.806 668.18C163.806 668.002 163.806 667.823 163.806 667.638C164.663 667.455 165.522 667.275 166.38 667.096C166.859 666.996 167.336 666.895 167.829 666.792C169.226 666.554 169.226 666.554 171.394 666.554Z" fill="#E8AC92"/>
<path d="M164.348 637.286C164.348 637.644 164.348 638.002 164.348 638.37C161.844 639.265 159.34 640.159 156.76 641.08C156.76 641.438 156.76 641.796 156.76 642.164C156.223 642.433 156.223 642.433 155.676 642.706C155.548 643.918 155.548 643.918 156.76 644.874C155.329 645.053 153.898 645.232 152.424 645.416C152.245 644.88 152.066 644.343 151.882 643.79C151.547 643.903 151.212 644.014 150.866 644.129C150.486 644.196 150.106 644.264 149.714 644.332C149.356 643.975 148.999 643.617 148.63 643.248C152.763 642.639 152.763 642.639 154.592 643.248C154.592 642.354 154.592 641.46 154.592 640.538C156.215 639.81 157.842 639.089 159.47 638.37C159.973 638.147 160.476 637.923 160.995 637.693C162.18 637.286 162.18 637.286 164.348 637.286ZM152.966 642.164C154.05 642.706 154.05 642.706 154.05 642.706L152.966 642.164Z" fill="#BD3631"/>
<path d="M148.088 632.95C148.088 633.129 148.088 633.308 148.088 633.492C147.194 633.671 146.299 633.85 145.378 634.034C145.736 634.392 146.093 634.75 146.462 635.118C144.086 634.673 141.758 634.088 139.416 633.492C139.595 634.029 139.774 634.566 139.958 635.118C136.841 634.17 136.841 634.17 135.622 632.95C136.159 632.95 136.695 632.95 137.248 632.95C137.248 632.593 137.248 632.235 137.248 631.866C140.74 630.703 144.636 632.009 148.088 632.95Z" fill="#B82822"/>
<path d="M146.462 630.24C146.641 630.598 146.82 630.956 147.004 631.324C144.008 631.524 141.602 630.937 138.73 630.097C136.79 629.575 134.91 629.345 132.912 629.156C132.912 628.978 132.912 628.799 132.912 628.614C138 627.376 141.937 627.316 146.462 630.24Z" fill="#B6231F"/>
<path d="M163.264 725.632C168.572 726.616 168.572 726.616 170.852 728.342C171.389 729.147 171.389 729.147 171.936 729.968C171.757 730.505 171.578 731.042 171.394 731.594C171.048 731.36 170.701 731.125 170.344 730.883C168.247 729.727 166.088 729.044 163.806 728.342C163.627 727.448 163.448 726.554 163.264 725.632Z" fill="#C4C4C6"/>
<path d="M172.478 682.272C172.836 682.451 173.193 682.63 173.562 682.814C173.562 691.4 173.562 699.985 173.562 708.83C173.383 708.83 173.204 708.83 173.02 708.83C173.009 708.319 172.998 707.808 172.987 707.281C172.945 705.377 172.898 703.473 172.848 701.569C172.827 700.746 172.809 699.924 172.791 699.101C172.766 697.916 172.735 696.73 172.702 695.545C172.686 694.833 172.668 694.121 172.651 693.386C172.489 691.605 172.081 690.402 171.394 688.776C171.573 688.419 171.752 688.061 171.936 687.692C172.058 686.769 172.158 685.843 172.241 684.915C172.286 684.421 172.332 683.928 172.378 683.42C172.411 683.042 172.444 682.663 172.478 682.272Z" fill="#E7A384"/>
<path d="M147.004 654.088C147.004 654.446 147.004 654.804 147.004 655.172C142.966 656.774 139.449 657.438 135.08 657.442C134.708 657.449 134.336 657.455 133.954 657.462C131.59 657.469 129.688 657.125 127.492 656.256C127.492 655.899 127.492 655.541 127.492 655.172C127.835 655.259 128.178 655.346 128.532 655.435C130.778 655.811 132.975 655.836 135.25 655.85C135.913 655.867 135.913 655.867 136.591 655.884C140.339 655.908 143.398 654.088 147.004 654.088Z" fill="#F1D9D4"/>
<path d="M137.248 556.528C140.11 556.528 142.972 556.528 145.92 556.528C145.92 556.886 145.92 557.244 145.92 557.612C148.066 557.791 150.213 557.97 152.424 558.154C152.424 558.333 152.424 558.512 152.424 558.696C147.595 558.696 142.766 558.696 137.79 558.696C137.611 557.981 137.432 557.266 137.248 556.528Z" fill="#C0C0C4"/>
<path d="M125.866 717.502C126.045 718.039 126.224 718.576 126.408 719.128C128.554 719.307 130.701 719.486 132.912 719.67C133.091 720.386 133.27 721.101 133.454 721.838C132.892 721.793 132.33 721.748 131.752 721.701C131.01 721.645 130.267 721.589 129.524 721.534C129.155 721.503 128.785 721.473 128.405 721.442C126.548 721.306 124.93 721.221 123.156 721.838C123.514 720.765 123.871 719.692 124.24 718.586C123.882 718.408 123.525 718.229 123.156 718.044C124.05 717.866 124.945 717.687 125.866 717.502Z" fill="#E7E8EA"/>
<path d="M187.112 570.078C187.47 570.078 187.827 570.078 188.196 570.078C187.79 573.669 187.79 573.669 186.57 575.498C185.046 575.769 185.046 575.769 183.318 575.498C181.76 574.245 181.76 574.245 180.608 572.788C180.608 572.252 180.608 571.715 180.608 571.162C180.966 571.162 181.323 571.162 181.692 571.162C182.573 572.246 182.573 572.246 183.318 573.33C183.676 573.152 184.033 572.973 184.402 572.788C184.223 572.431 184.044 572.073 183.86 571.704C184.754 571.704 185.649 571.704 186.57 571.704C186.749 571.168 186.928 570.631 187.112 570.078Z" fill="#EEC2AB"/>
<path d="M139.416 621.026C143.53 621.026 147.644 621.026 151.882 621.026C151.882 621.384 151.882 621.742 151.882 622.11C152.24 622.289 152.597 622.468 152.966 622.652C152.787 623.189 152.608 623.726 152.424 624.278C150.635 624.457 148.847 624.636 147.004 624.82C147.362 624.642 147.719 624.463 148.088 624.278C148.088 623.384 148.088 622.49 148.088 621.568C145.226 621.568 142.364 621.568 139.416 621.568C139.416 621.39 139.416 621.211 139.416 621.026Z" fill="#B7241F"/>
<path d="M136.164 573.872C136.522 573.872 136.879 573.872 137.248 573.872C137.069 575.124 136.89 576.376 136.706 577.666C136.348 577.666 135.991 577.666 135.622 577.666C135.801 578.918 135.98 580.17 136.164 581.46C133.754 580.703 132.343 579.621 130.744 577.666C130.304 575.871 130.304 575.871 130.202 574.414C131.828 575.498 131.828 575.498 132.37 576.888C132.549 577.323 132.728 577.76 132.912 578.208C133.449 578.387 133.985 578.566 134.538 578.75C134.605 578.449 134.672 578.147 134.741 577.836C135.113 576.463 135.617 575.185 136.164 573.872Z" fill="#EFC8B5"/>
<path d="M60.826 553.818C62.9262 554.835 62.9262 554.835 63.536 555.444C63.6184 556.402 63.6563 557.363 63.6715 558.324C63.6926 559.109 63.6926 559.109 63.7138 559.91C63.5105 561.619 63.1046 562.354 61.91 563.574C61.5523 563.574 61.1946 563.574 60.826 563.574C60.826 563.217 60.826 562.859 60.826 562.49C59.7528 562.49 58.6797 562.49 57.574 562.49C57.7529 562.133 57.9317 561.775 58.116 561.406C59.5469 561.406 60.9778 561.406 62.452 561.406C62.452 559.618 62.452 557.829 62.452 555.986C60.6634 555.986 58.8748 555.986 57.032 555.986C57.032 555.808 57.032 555.629 57.032 555.444C57.8201 555.344 57.8201 555.344 58.6244 555.241C59.4455 555.074 59.4455 555.074 60.284 554.902C60.4629 554.545 60.6417 554.187 60.826 553.818Z" fill="#F4F4F5"/>
<path d="M135.046 657.239C135.733 657.232 136.42 657.223 137.127 657.216C138.874 657.34 138.874 657.34 139.958 658.424C139.779 658.782 139.6 659.14 139.416 659.508C136.353 660.1 133.813 660.002 130.744 659.508C130.744 656.499 132.423 657.252 135.046 657.239Z" fill="#BD3632"/>
<path d="M174.104 733.22C174.892 733.489 174.892 733.489 175.696 733.762C178.235 734.493 181.432 734.977 183.86 733.762C184.944 733.741 186.028 733.739 187.112 733.762C187.112 734.12 187.112 734.478 187.112 734.846C184.229 736.082 181.597 737.147 178.44 736.472C176.873 735.724 175.454 734.857 174.104 733.762C174.104 733.584 174.104 733.405 174.104 733.22Z" fill="#E7E7E9"/>
<path d="M165.974 624.82C165.974 625.178 165.974 625.536 165.974 625.904C165.189 626.491 165.189 626.491 164.092 627.12C163.693 627.351 163.295 627.582 162.884 627.82C162.462 628.061 162.039 628.3 161.604 628.547C161.196 628.782 160.789 629.018 160.369 629.26C159.558 629.728 158.746 630.193 157.933 630.655C157.168 631.091 156.407 631.534 155.649 631.981C153.081 633.492 153.081 633.492 151.882 633.492C152.546 631.499 153.002 631.395 154.81 630.442C155.292 630.183 155.775 629.924 156.272 629.657C156.78 629.392 157.287 629.126 157.81 628.852C158.81 628.322 159.808 627.791 160.806 627.257C161.251 627.024 161.696 626.79 162.155 626.549C165.13 624.82 165.13 624.82 165.974 624.82Z" fill="#F2DAD6"/>
<path d="M159.47 626.988C159.47 627.525 159.47 628.062 159.47 628.614C158.603 629.07 157.733 629.521 156.862 629.969C156.136 630.347 156.136 630.347 155.394 630.732C154.05 631.324 154.05 631.324 152.424 631.324C152.424 630.967 152.424 630.609 152.424 630.24C152.77 630.084 153.117 629.928 153.474 629.766C154.674 629.25 154.674 629.25 155.134 628.072C152.988 627.894 150.841 627.715 148.63 627.53C148.63 627.352 148.63 627.173 148.63 626.988C149.928 626.882 151.227 626.781 152.526 626.684C153.073 626.638 153.073 626.638 153.632 626.592C155.685 626.442 157.474 626.465 159.47 626.988Z" fill="#C03C38"/>
<path d="M150.798 564.116C151.156 564.116 151.513 564.116 151.882 564.116C152.828 568.619 153.253 573.075 153.508 577.666C153.15 577.666 152.793 577.666 152.424 577.666C151.557 575.931 151.523 574.018 151.306 572.111C151.257 571.704 151.208 571.296 151.157 570.877C150.894 568.61 150.743 566.404 150.798 564.116Z" fill="#F9EAE0"/>
<path d="M180.066 551.108C180.424 551.108 180.781 551.108 181.15 551.108C181.374 551.768 181.597 552.428 181.827 553.107C182.758 555.575 183.826 557.502 186.163 558.866C186.477 558.989 186.79 559.112 187.112 559.238C186.575 559.238 186.039 559.238 185.486 559.238C185.307 559.596 185.128 559.954 184.944 560.322C182.366 557.345 180.708 555.029 180.066 551.108ZM186.028 554.36C187.249 555.818 188.132 556.879 188.738 558.696C189.632 558.875 190.527 559.054 191.448 559.238C191.448 559.417 191.448 559.596 191.448 559.78C190.196 559.78 188.944 559.78 187.654 559.78C186.552 557.759 186.028 556.708 186.028 554.36Z" fill="#F8F4F0"/>
<path d="M143.21 544.604C144.714 545.179 146.1 545.788 147.512 546.569C149.394 547.414 150.386 547.605 152.424 547.314C153.775 546.684 154.956 545.954 156.218 545.146C156.397 545.504 156.576 545.862 156.76 546.23C153.134 548.808 153.134 548.808 150.798 549.246C147.937 548.709 145.61 547.288 143.21 545.688C143.21 545.331 143.21 544.973 143.21 544.604Z" fill="#FAF0E6"/>
<path d="M153.508 649.21C153.866 649.21 154.223 649.21 154.592 649.21C154.771 649.568 154.95 649.926 155.134 650.294C156.129 650.548 156.129 650.548 157.321 650.638C157.759 650.683 158.198 650.729 158.649 650.775C159.341 650.839 159.341 650.839 160.046 650.904C160.74 650.975 160.74 650.975 161.448 651.046C162.595 651.162 163.743 651.271 164.89 651.378C164.89 651.736 164.89 652.094 164.89 652.462C163.501 652.507 162.113 652.539 160.724 652.564C160.137 652.585 160.137 652.585 159.539 652.606C157.076 652.639 155.418 652.453 153.508 650.836C153.508 650.3 153.508 649.763 153.508 649.21Z" fill="#F1D5D0"/>
<path d="M151.34 646.5C158.584 646.769 158.584 646.769 165.974 647.042C165.974 647.221 165.974 647.4 165.974 647.584C164.675 647.676 163.377 647.766 162.079 647.855C161.713 647.881 161.348 647.907 160.972 647.934C159.022 648.067 157.088 648.157 155.134 648.126C154.955 648.484 154.776 648.842 154.592 649.21C152.879 648.468 152.428 648.132 151.34 646.5Z" fill="#B51E18"/>
<path d="M145.92 556.528C149.676 556.528 153.432 556.528 157.302 556.528C154.863 558.358 154.863 558.358 152.433 558.313C151.926 558.308 151.419 558.303 150.898 558.298C150.373 558.284 149.848 558.27 149.307 558.256C148.774 558.249 148.241 558.242 147.692 558.234C146.379 558.215 145.065 558.188 143.752 558.154C144.467 557.976 145.183 557.797 145.92 557.612C145.92 557.255 145.92 556.897 145.92 556.528Z" fill="#B3B5B5"/>
<path d="M137.79 534.306C138.863 534.575 138.863 534.575 139.958 534.848C140.137 535.922 140.316 536.995 140.5 538.1C141.037 538.1 141.573 538.1 142.126 538.1C142.126 538.458 142.126 538.816 142.126 539.184C141.232 539.542 140.337 539.9 139.416 540.268C138.249 538.847 137.573 537.751 137.248 535.932C137.606 535.754 137.963 535.575 138.332 535.39C138.153 535.033 137.974 534.675 137.79 534.306Z" fill="#E7B298"/>
<path d="M187.112 732.678C187.291 733.394 187.47 734.109 187.654 734.846C187.475 734.489 187.296 734.131 187.112 733.762C186.497 733.941 185.882 734.12 185.249 734.304C181.936 735.128 178.773 735.49 175.73 733.762C175.73 733.584 175.73 733.405 175.73 733.22C176.226 733.227 176.722 733.233 177.233 733.239C177.877 733.244 178.521 733.249 179.185 733.255C180.147 733.264 180.147 733.264 181.129 733.274C183.224 733.206 184.928 732.631 187.112 732.678Z" fill="#CBCBCD"/>
<path d="M134.538 638.912C138.337 639.85 141.857 640.994 145.378 642.706C145.378 643.064 145.378 643.422 145.378 643.79C142.924 643.455 140.75 642.835 138.434 641.961C137.815 641.734 137.197 641.506 136.56 641.271C136.071 641.029 135.583 640.788 135.08 640.538C134.901 640.002 134.722 639.465 134.538 638.912Z" fill="#F1D4D2"/>
<path d="M161.638 695.28C162.711 695.817 162.711 695.817 163.806 696.364C163.806 696.722 163.806 697.08 163.806 697.448C164.164 697.448 164.521 697.448 164.89 697.448C164.711 698.343 164.532 699.237 164.348 700.158C164.706 700.158 165.063 700.158 165.432 700.158C165.432 701.41 165.432 702.662 165.432 703.952C163.73 703.101 163.578 701.663 162.925 699.922C162.684 699.285 162.442 698.648 162.192 697.993C161.638 696.364 161.638 696.364 161.638 695.28Z" fill="#E8A789"/>
<path d="M146.462 649.752C146.462 650.11 146.462 650.468 146.462 650.836C145.052 651.382 143.64 651.923 142.228 652.462C141.628 652.696 141.628 652.696 141.015 652.932C140.63 653.079 140.244 653.226 139.846 653.377C139.491 653.513 139.136 653.65 138.77 653.79C137.79 654.088 137.79 654.088 136.164 654.088C136.343 653.552 136.522 653.015 136.706 652.462C138.243 651.848 138.243 651.848 140.161 651.311C140.792 651.131 141.421 650.95 142.071 650.764C142.903 650.532 142.903 650.532 143.752 650.294C145.378 649.752 145.378 649.752 146.462 649.752Z" fill="#F3DAD5"/>
<path d="M129.66 612.354C130.553 612.598 131.445 612.848 132.336 613.1C132.833 613.238 133.33 613.377 133.842 613.519C135.08 613.98 135.08 613.98 135.622 615.064C134.012 615.064 132.403 615.064 130.744 615.064C130.565 615.601 130.386 616.138 130.202 616.69C129.844 616.69 129.487 616.69 129.118 616.69C129.05 613.574 129.05 613.574 129.66 612.354Z" fill="#B62C27"/>
<path d="M127.492 565.742C129.129 567.54 129.327 568.759 129.288 571.162C129.285 571.722 129.283 572.281 129.281 572.856C129.122 574.375 128.815 575.288 128.034 576.582C127.545 575.115 127.427 574.286 127.439 572.782C127.441 572.372 127.443 571.961 127.444 571.539C127.449 571.113 127.454 570.687 127.458 570.248C127.461 569.816 127.463 569.384 127.465 568.939C127.472 567.873 127.482 566.808 127.492 565.742Z" fill="#EAAB8F"/>
<path d="M141.042 526.718C142.2 528.781 142.105 529.819 141.584 532.138C141.483 532.653 141.383 533.167 141.279 533.697C141.201 534.077 141.123 534.457 141.042 534.848C139.432 534.58 139.432 534.58 137.79 534.306C137.79 532.339 137.79 530.372 137.79 528.344C137.969 528.344 138.148 528.344 138.332 528.344C138.332 529.954 138.332 531.564 138.332 533.222C138.69 533.222 139.047 533.222 139.416 533.222C140.513 531.577 140.674 530.949 140.839 529.056C140.879 528.618 140.92 528.18 140.962 527.729C140.988 527.395 141.015 527.062 141.042 526.718Z" fill="#4E3D38"/>
<path d="M143.752 664.386C143.394 665.817 143.037 667.248 142.668 668.722C142.489 668.007 142.31 667.292 142.126 666.554C138.37 666.554 134.614 666.554 130.744 666.554C130.744 666.376 130.744 666.197 130.744 666.012C131.332 665.986 131.921 665.959 132.527 665.932C133.31 665.892 134.094 665.85 134.877 665.809C135.263 665.792 135.65 665.776 136.047 665.759C138.693 665.613 141.21 664.386 143.752 664.386Z" fill="#F9F0EC"/>
<path d="M139.958 654.088C139.6 654.088 139.243 654.088 138.874 654.088C138.874 654.446 138.874 654.804 138.874 655.172C139.589 655.351 140.305 655.53 141.042 655.714C140.5 656.256 140.5 656.256 138.669 656.31C137.913 656.306 137.157 656.299 136.401 656.291C136.016 656.288 135.631 656.286 135.233 656.283C134.279 656.276 133.324 656.267 132.37 656.256C132.37 656.078 132.37 655.899 132.37 655.714C133.443 655.714 134.516 655.714 135.622 655.714C135.801 655.178 135.98 654.641 136.164 654.088C137.862 653.523 138.327 653.582 139.958 654.088Z" fill="#B6211E"/>
<path d="M174.104 551.65C175.714 551.919 175.714 551.919 177.356 552.192C177.714 553.266 178.071 554.339 178.44 555.444C178.082 555.444 177.725 555.444 177.356 555.444C177.356 555.802 177.356 556.16 177.356 556.528C175.73 555.986 175.73 555.986 174.816 554.395C174.104 552.734 174.104 552.734 174.104 551.65Z" fill="#F7E5DA"/>
<path d="M229.794 530.987C230.328 530.996 230.862 531.006 231.412 531.016C232.02 531.035 232.02 531.035 232.64 531.054C232.64 531.412 232.64 531.77 232.64 532.138C230.673 532.138 228.705 532.138 226.678 532.138C226.32 533.033 225.963 533.927 225.594 534.848C224.442 535.289 224.442 535.289 223.426 535.39C224.223 532.337 224.223 532.337 225.442 531.495C226.958 530.955 228.189 530.949 229.794 530.987Z" fill="#87878B"/>
<path d="M69.498 579.834C69.6769 579.834 69.8557 579.834 70.04 579.834C69.8904 583.198 69.4406 585.31 67.33 587.964C66.6146 587.786 65.8991 587.607 65.162 587.422C65.5083 587.266 65.8552 587.11 66.2124 586.948C67.4124 586.432 67.4124 586.432 67.872 585.254C67.5143 585.076 67.1566 584.897 66.788 584.712C66.9669 584.176 67.1457 583.639 67.33 583.086C67.6877 583.086 68.0454 583.086 68.414 583.086C68.7717 582.013 69.1294 580.94 69.498 579.834Z" fill="#7A7A7D"/>
<path d="M133.454 667.638C135.421 667.638 137.389 667.638 139.416 667.638C139.058 667.929 138.701 668.22 138.332 668.519C137.08 669.752 137.08 669.752 137.112 671.568C137.157 672.06 137.202 672.552 137.248 673.058C135.891 671.466 135.368 670.251 135.08 668.18C134.543 668.002 134.007 667.823 133.454 667.638Z" fill="#EAAB8F"/>
<path d="M161.638 671.432C163.2 672.046 163.81 672.523 164.822 673.906C165.889 675.384 165.889 675.384 167.736 675.667C168.473 675.717 168.473 675.717 169.226 675.768C169.226 676.126 169.226 676.484 169.226 676.852C167.77 677.022 167.77 677.022 165.974 676.852C164.518 675.599 164.518 675.599 163.264 674.142C162.94 673.841 162.616 673.539 162.282 673.228C161.638 672.516 161.638 672.516 161.638 671.432Z" fill="#FBEEE4"/>
<path d="M128.576 669.264C128.934 669.264 129.291 669.264 129.66 669.264C129.884 669.935 130.107 670.606 130.337 671.297C131.057 673.244 131.895 674.371 133.454 675.768C133.454 676.126 133.454 676.484 133.454 676.852C131.379 676.037 130.321 674.925 129.118 673.058C128.711 670.992 128.711 670.992 128.576 669.264Z" fill="#F9EEE4"/>
<path d="M142.668 628.614C145.785 629.495 145.785 629.495 147.004 631.324C144.19 631.439 142.057 631.103 139.416 630.24C139.953 629.883 140.489 629.525 141.042 629.156C141.579 629.335 142.115 629.514 142.668 629.698C142.668 629.341 142.668 628.983 142.668 628.614Z" fill="#B62A27"/>
<path d="M163.264 726.716C166.126 726.996 167.91 727.939 170.31 729.426C170.131 729.784 169.952 730.142 169.768 730.51C168.783 730.191 167.801 729.862 166.821 729.528C166.274 729.346 165.727 729.164 165.163 728.975C164.715 728.767 164.267 728.558 163.806 728.342C163.627 727.806 163.448 727.269 163.264 726.716Z" fill="#E8E8EA"/>
<path d="M126.95 570.078C127.129 570.078 127.308 570.078 127.492 570.078C127.581 570.736 127.581 570.736 127.672 571.406C127.758 571.985 127.844 572.565 127.933 573.161C128.014 573.734 128.096 574.305 128.18 574.895C128.59 576.642 129.243 577.793 130.202 579.292C130.202 579.65 130.202 580.008 130.202 580.376C128.384 579.77 128.223 579.577 127.357 577.972C126.07 575.287 126.412 572.933 126.95 570.078Z" fill="#FAEDE5"/>
<path d="M164.348 637.286C164.348 637.644 164.348 638.002 164.348 638.37C163.312 638.75 162.272 639.121 161.231 639.489C160.653 639.696 160.074 639.903 159.479 640.117C157.886 640.528 157.181 640.577 155.676 639.996C156.713 639.54 157.752 639.09 158.792 638.641C159.371 638.39 159.95 638.138 160.545 637.879C162.18 637.286 162.18 637.286 164.348 637.286Z" fill="#F5E0D7"/>
<path d="M144.836 632.408C146.267 632.408 147.698 632.408 149.172 632.408C148.814 633.482 148.457 634.555 148.088 635.66C147.015 635.66 145.942 635.66 144.836 635.66C144.836 634.576 144.836 633.492 144.836 632.408Z" fill="#BE3834"/>
<path d="M132.37 600.43C132.549 600.43 132.728 600.43 132.912 600.43C133.27 603.471 133.627 606.512 133.996 609.644C133.459 609.823 132.923 610.002 132.37 610.186C131.665 608.119 131.885 606.243 132.065 604.089C132.12 603.404 132.175 602.72 132.232 602.014C132.278 601.492 132.323 600.969 132.37 600.43Z" fill="#E7A683"/>
<path d="M124.782 568.452C124.961 568.452 125.14 568.452 125.324 568.452C125.145 570.062 124.966 571.672 124.782 573.33C124.245 573.33 123.709 573.33 123.156 573.33C123.156 573.867 123.156 574.404 123.156 574.956C122.798 574.778 122.441 574.599 122.072 574.414C122.36 571.97 123.323 570.412 124.782 568.452Z" fill="#F1D0BE"/>
<path d="M155.134 654.088C158.353 654.893 158.353 654.893 161.638 655.714C161.638 656.072 161.638 656.43 161.638 656.798C160.859 656.737 160.079 656.667 159.301 656.595C158.867 656.558 158.433 656.52 157.986 656.481C156.76 656.256 156.76 656.256 155.134 655.172C155.134 654.815 155.134 654.457 155.134 654.088Z" fill="#ECC9C4"/>
<path d="M171.394 643.248C172.288 643.248 173.183 643.248 174.104 643.248C174.104 644.322 174.104 645.395 174.104 646.5C172.852 646.679 171.6 646.858 170.31 647.042C170.31 646.327 170.31 645.612 170.31 644.874C170.847 644.696 171.383 644.517 171.936 644.332C171.757 643.975 171.578 643.617 171.394 643.248Z" fill="#C34640"/>
<path d="M164.89 623.194C165.248 623.552 165.605 623.91 165.974 624.278C165.209 624.813 164.44 625.343 163.67 625.871C163.029 626.314 163.029 626.314 162.375 626.766C161.19 627.475 160.275 627.829 158.928 628.072C158.928 627.536 158.928 626.999 158.928 626.446C159.717 626.083 160.508 625.722 161.299 625.362C161.959 625.061 161.959 625.061 162.633 624.753C163.806 624.278 163.806 624.278 164.89 624.278C164.89 623.921 164.89 623.563 164.89 623.194Z" fill="#B2201C"/>
<path d="M164.89 623.194C164.89 623.552 164.89 623.91 164.89 624.278C159.89 626.868 159.89 626.868 156.76 625.904C158.286 625.103 159.799 624.482 161.435 623.94C162.066 623.728 162.066 623.728 162.71 623.512C163.806 623.194 163.806 623.194 164.89 623.194Z" fill="#F0D5D0"/>
<path d="M135.08 623.194C135.259 623.552 135.438 623.91 135.622 624.278C136.315 624.268 137.008 624.256 137.722 624.245C139.822 624.211 139.822 624.211 141.042 624.82C141.042 625.178 141.042 625.536 141.042 625.904C139.12 626.583 137.94 626.296 136.028 625.668C135.545 625.511 135.062 625.356 134.563 625.195C134.197 625.072 133.831 624.948 133.454 624.82C133.991 624.642 134.527 624.463 135.08 624.278C135.08 623.921 135.08 623.563 135.08 623.194Z" fill="#BD3835"/>
<path d="M130.202 574.414C131.828 575.498 131.828 575.498 132.302 576.853C132.799 578.34 132.799 578.34 134.335 578.92C134.972 579.104 134.972 579.104 135.622 579.292C135.622 579.65 135.622 580.008 135.622 580.376C134.132 580.309 134.132 580.309 132.37 579.834C130.709 577.868 130.202 577.018 130.202 574.414Z" fill="#FAEDE3"/>
<path d="M56.49 562.49C57.9209 562.49 59.3518 562.49 60.826 562.49C60.826 562.848 60.826 563.206 60.826 563.574C61.3626 563.396 61.8992 563.217 62.452 563.032C62.452 563.39 62.452 563.748 62.452 564.116C61.3788 564.474 60.3057 564.832 59.2 565.2C59.2 564.843 59.2 564.485 59.2 564.116C57.51 563.925 57.51 563.925 56.49 565.2C56.49 564.306 56.49 563.412 56.49 562.49Z" fill="#8B8B8E"/>
<path d="M170.852 667.096C171.031 667.096 171.21 667.096 171.394 667.096C171.215 668.885 171.036 670.674 170.852 672.516C170.315 672.695 169.779 672.874 169.226 673.058C169.047 671.628 168.868 670.197 168.684 668.722C169.221 668.544 169.757 668.365 170.31 668.18C170.489 667.823 170.668 667.465 170.852 667.096Z" fill="#EFC6AF"/>
<path d="M137.79 615.064C137.253 615.064 136.717 615.064 136.164 615.064C136.164 615.601 136.164 616.138 136.164 616.69C136.701 616.869 137.237 617.048 137.79 617.232C136.18 617.59 134.571 617.948 132.912 618.316C133.27 618.138 133.627 617.959 133.996 617.774C133.817 617.059 133.638 616.344 133.454 615.606C135.116 614.597 135.946 614.406 137.79 615.064Z" fill="#C03936"/>
<path d="M60.826 553.818C62.8547 554.604 62.8547 554.604 63.4682 555.919C63.5512 557.327 63.1756 558.047 62.452 559.238C62.452 558.165 62.452 557.092 62.452 555.986C60.6634 555.986 58.8748 555.986 57.032 555.986C57.032 555.808 57.032 555.629 57.032 555.444C57.8201 555.344 57.8201 555.344 58.6244 555.241C59.4455 555.074 59.4455 555.074 60.284 554.902C60.4629 554.545 60.6417 554.187 60.826 553.818Z" fill="#E7E7E8"/>
<path d="M171.394 633.492C172.491 635.138 172.652 635.766 172.817 637.659C172.857 638.097 172.898 638.535 172.94 638.987C172.966 639.32 172.993 639.653 173.02 639.996C172.305 639.818 171.589 639.639 170.852 639.454C170.837 638.563 170.827 637.671 170.818 636.779C170.812 636.282 170.805 635.785 170.799 635.273C170.852 634.034 170.852 634.034 171.394 633.492Z" fill="#BD3834"/>
<path d="M142.126 637.286C144.75 638.082 146.765 639.645 148.63 641.622C148.63 641.98 148.63 642.338 148.63 642.706C147.008 641.947 145.598 641.063 144.159 639.996C143.776 639.717 143.393 639.438 142.998 639.15C142.71 638.892 142.422 638.635 142.126 638.37C142.126 638.013 142.126 637.655 142.126 637.286Z" fill="#F6E3DB"/>
<path d="M135.08 738.098C135.438 738.098 135.795 738.098 136.164 738.098C136.503 739.386 136.503 739.386 136.706 740.808C135.427 742.088 134.658 742.159 132.912 742.434C133.627 741.004 134.343 739.573 135.08 738.098Z" fill="#C6C6C8"/>
<path d="M129.66 721.838C129.66 722.017 129.66 722.196 129.66 722.38C128.766 722.559 127.871 722.738 126.95 722.922C126.771 723.459 126.592 723.996 126.408 724.548C125.335 724.727 124.262 724.906 123.156 725.09C124.504 721.336 125.97 721.779 129.66 721.838Z" fill="#474749"/>
<path d="M163.264 721.838C163.622 721.838 163.979 721.838 164.348 721.838C164.348 722.733 164.348 723.627 164.348 724.548C165.063 724.548 165.779 724.548 166.516 724.548C166.516 725.085 166.516 725.622 166.516 726.174C164.906 725.906 164.906 725.906 163.264 725.632C163.264 724.38 163.264 723.128 163.264 721.838Z" fill="#444446"/>
<path d="M165.974 567.91C166.511 568.089 167.047 568.268 167.6 568.452C167.6 570.42 167.6 572.387 167.6 574.414C166.324 571.862 165.912 570.744 165.974 567.91Z" fill="#E8A384"/>
<path d="M150.798 564.116C151.156 564.116 151.513 564.116 151.882 564.116C152.304 566.838 152.494 568.982 151.882 571.704C151.703 571.704 151.524 571.704 151.34 571.704C151.161 569.2 150.982 566.696 150.798 564.116Z" fill="#F8E3D6"/>
<path d="M135.08 553.276C135.438 553.276 135.795 553.276 136.164 553.276C136.343 553.992 136.522 554.707 136.706 555.444C139.031 555.444 141.356 555.444 143.752 555.444C143.752 555.623 143.752 555.802 143.752 555.986C141.069 556.165 138.386 556.344 135.622 556.528C135.443 555.455 135.264 554.382 135.08 553.276Z" fill="#FBECE2"/>
<path d="M139.416 541.894C140.757 542.163 140.757 542.163 142.126 542.436C142.126 542.973 142.126 543.51 142.126 544.062C141.768 544.062 141.411 544.062 141.042 544.062C141.042 545.851 141.042 547.64 141.042 549.482C140.863 549.482 140.684 549.482 140.5 549.482C140.5 547.336 140.5 545.19 140.5 542.978C140.142 542.978 139.785 542.978 139.416 542.978C139.416 542.621 139.416 542.263 139.416 541.894Z" fill="#ECB59C"/>
<path d="M151.882 524.008C155.351 524.276 155.351 524.276 156.997 525.669C157.416 526.188 157.416 526.188 157.844 526.718C155.63 526.316 153.498 525.727 151.34 525.092C151.519 524.735 151.698 524.377 151.882 524.008Z" fill="#F5EFEB"/>
<path d="M141.042 666.554C141.4 666.554 141.757 666.554 142.126 666.554C142.064 667.436 141.995 668.316 141.923 669.197C141.866 669.933 141.866 669.933 141.808 670.683C141.584 671.974 141.584 671.974 140.5 673.058C140.321 671.985 140.142 670.912 139.958 669.806C140.137 669.806 140.316 669.806 140.5 669.806C140.679 668.733 140.858 667.66 141.042 666.554Z" fill="#E3A687"/>
<path d="M154.592 648.126C155.844 648.484 157.096 648.842 158.386 649.21C158.386 649.568 158.386 649.926 158.386 650.294C157.313 650.473 156.24 650.652 155.134 650.836C154.955 649.942 154.776 649.048 154.592 648.126Z" fill="#BB302F"/>
<path d="M144.836 640.538C146.936 641.487 146.936 641.487 147.546 642.706C147.188 642.706 146.831 642.706 146.462 642.706C146.283 643.243 146.104 643.78 145.92 644.332C145.741 643.975 145.562 643.617 145.378 643.248C144.285 642.634 144.285 642.634 143.21 642.164C143.747 641.628 144.283 641.091 144.836 640.538Z" fill="#B62721"/>
<path d="M162.18 638.912C162.001 639.628 161.822 640.343 161.638 641.08C160.744 641.259 159.849 641.438 158.928 641.622C158.928 641.265 158.928 640.907 158.928 640.538C158.57 640.36 158.213 640.181 157.844 639.996C160.96 638.912 160.96 638.912 162.18 638.912Z" fill="#BE3533"/>
<path d="M117.194 554.902C117.552 554.902 117.909 554.902 118.278 554.902C117.522 557.306 116.324 558.628 114.484 560.322C114.484 558.51 114.741 558.118 115.771 556.698C116.01 556.36 116.249 556.023 116.495 555.675C116.726 555.421 116.957 555.165 117.194 554.902Z" fill="#F6EDE7"/>
<path d="M172.478 644.332C171.78 644.71 171.08 645.082 170.378 645.451C169.793 645.762 169.793 645.762 169.196 646.079C168.848 646.218 168.5 646.357 168.142 646.5C167.058 645.958 167.058 645.958 166.516 644.874C170.29 643.641 170.29 643.641 172.478 644.332Z" fill="#EDC9C5"/>
<path d="M128.034 617.774C128.571 617.953 129.107 618.132 129.66 618.316C129.302 618.316 128.945 618.316 128.576 618.316C128.699 618.641 128.822 618.965 128.949 619.299C129.005 619.69 129.061 620.082 129.118 620.484C128.373 621.433 128.373 621.433 127.492 622.11C127.313 622.11 127.134 622.11 126.95 622.11C126.882 620.552 126.882 620.552 126.95 618.858C127.308 618.501 127.665 618.143 128.034 617.774Z" fill="#B7241E"/>
<path d="M180.608 571.162C181.692 571.162 181.692 571.162 183.013 572.45C183.701 573.154 183.701 573.154 184.402 573.872C184.939 574.23 185.475 574.588 186.028 574.956C184.044 575.137 183.104 575.207 181.489 573.974C180.608 572.788 180.608 572.788 180.608 571.162Z" fill="#FBF0EA"/>
<path d="M125.324 741.35C127.113 741.35 128.901 741.35 130.744 741.35C130.565 741.887 130.386 742.424 130.202 742.976C128.771 742.976 127.34 742.976 125.866 742.976C125.687 742.44 125.508 741.903 125.324 741.35Z" fill="#C0C0C2"/>
<path d="M137.248 670.348C137.606 670.348 137.963 670.348 138.332 670.348C138.153 672.137 137.974 673.926 137.79 675.768C137.253 675.768 136.717 675.768 136.164 675.768C136.522 673.98 136.879 672.191 137.248 670.348Z" fill="#F9EDE1"/>
<path d="M139.416 653.004C140.847 653.183 142.278 653.362 143.752 653.546C143.037 653.725 142.321 653.904 141.584 654.088C141.763 654.625 141.942 655.162 142.126 655.714C140.516 655.446 140.516 655.446 138.874 655.172C139.053 654.457 139.232 653.742 139.416 653.004Z" fill="#BE3532"/>
<path d="M162.18 611.27C161.092 612.359 160.354 612.893 158.928 613.438C157.708 613.235 157.708 613.235 156.76 612.896C156.76 612.539 156.76 612.181 156.76 611.812C158.592 611.249 160.271 611.227 162.18 611.27Z" fill="#E7A784"/>
<path d="M157.844 534.306C158.023 534.306 158.202 534.306 158.386 534.306C158.486 540.029 158.486 540.029 157.844 542.436C156.611 540.519 156.765 539.342 157.234 537.152C157.345 536.618 157.455 536.085 157.569 535.535C157.66 535.129 157.75 534.724 157.844 534.306Z" fill="#E3A385"/>
<path d="M142.126 526.718C142.484 526.718 142.841 526.718 143.21 526.718C143.21 528.507 143.21 530.296 143.21 532.138C142.673 532.138 142.137 532.138 141.584 532.138C141.763 530.35 141.942 528.561 142.126 526.718Z" fill="#F3F3EF"/>
<path d="M143.21 531.596C143.787 533.329 143.792 534.663 143.752 536.474C143.394 536.474 143.037 536.474 142.668 536.474C142.489 536.832 142.31 537.19 142.126 537.558C142.097 536.768 142.076 535.978 142.058 535.187C142.039 534.527 142.039 534.527 142.02 533.853C142.126 532.68 142.126 532.68 143.21 531.596Z" fill="#E6A282"/>
<path d="M119.362 718.586C120.972 718.586 122.581 718.586 124.24 718.586C123.882 719.302 123.525 720.017 123.156 720.754C121.869 720.585 121.869 720.585 120.446 720.212C120.088 719.676 119.731 719.139 119.362 718.586Z" fill="#C3C3C4"/>
<path d="M151.34 646.5C152.627 646.399 152.627 646.399 154.05 646.5C154.408 647.037 154.765 647.574 155.134 648.126C154.955 648.484 154.776 648.842 154.592 649.21C152.879 648.468 152.428 648.132 151.34 646.5Z" fill="#B52621"/>
<path d="M135.08 571.704C135.259 572.062 135.438 572.42 135.622 572.788C136.337 572.788 137.053 572.788 137.79 572.788C137.79 573.683 137.79 574.577 137.79 575.498C137.611 574.962 137.432 574.425 137.248 573.872C136.89 573.872 136.533 573.872 136.164 573.872C135.985 574.588 135.806 575.303 135.622 576.04C135.443 574.61 135.264 573.179 135.08 571.704Z" fill="#E5AF96"/>
<path d="M137.248 557.612C137.427 557.97 137.606 558.328 137.79 558.696C138.327 558.875 138.863 559.054 139.416 559.238C138.701 559.238 137.985 559.238 137.248 559.238C137.606 559.417 137.963 559.596 138.332 559.78C138.153 560.675 137.974 561.569 137.79 562.49C136.4 561.1 136.413 560.064 136.164 558.154C136.522 557.976 136.879 557.797 137.248 557.612Z" fill="#F1E4DC"/>
<path d="M57.032 538.642C57.2109 538.642 57.3897 538.642 57.574 538.642C57.9317 539.894 58.2894 541.146 58.658 542.436C58.1214 542.615 57.5848 542.794 57.032 542.978C57.032 544.23 57.032 545.482 57.032 546.772C56.8531 546.772 56.6743 546.772 56.49 546.772C56.4412 543.981 56.5729 541.396 57.032 538.642Z" fill="#A2A2A4"/>
<path d="M137.79 536.474C138.874 538.1 138.874 538.1 139.958 539.726C140.316 539.548 140.673 539.369 141.042 539.184C141.042 539.721 141.042 540.258 141.042 540.81C140.327 540.989 139.611 541.168 138.874 541.352C137.633 539.491 137.694 538.651 137.79 536.474Z" fill="#E4A585"/>
<path d="M138.874 669.806C139.053 669.806 139.232 669.806 139.416 669.806C139.595 671.774 139.774 673.741 139.958 675.768C139.421 675.768 138.885 675.768 138.332 675.768C138.511 673.801 138.69 671.834 138.874 669.806Z" fill="#ECA382"/>
<path d="M143.752 655.714C145.004 655.893 146.256 656.072 147.546 656.256C147.367 656.972 147.188 657.687 147.004 658.424C146.467 658.424 145.931 658.424 145.378 658.424C145.311 658.078 145.244 657.732 145.175 657.375C145.007 656.821 145.007 656.821 144.836 656.256C144.478 656.078 144.121 655.899 143.752 655.714Z" fill="#BE352F"/>
<path d="M141.042 652.462C139.314 653.614 138.188 653.819 136.164 654.088C136.343 653.552 136.522 653.015 136.706 652.462C138.488 652.029 139.259 651.868 141.042 652.462Z" fill="#EEC9C6"/>
<path d="M151.34 644.874C154.559 645.411 154.559 645.411 157.844 645.958C157.844 646.137 157.844 646.316 157.844 646.5C155.877 646.5 153.909 646.5 151.882 646.5C151.703 645.964 151.524 645.427 151.34 644.874Z" fill="#F6E5DF"/>
<path d="M145.378 629.156C147.358 629.834 147.969 630.062 149.172 631.866C148.63 632.408 148.63 632.408 146.97 632.443C146.182 632.426 146.182 632.426 145.378 632.408C146.093 632.23 146.809 632.051 147.546 631.866C147.546 631.509 147.546 631.151 147.546 630.782C146.831 630.425 146.115 630.067 145.378 629.698C145.378 629.52 145.378 629.341 145.378 629.156Z" fill="#F9ECE7"/>
<path d="M165.974 624.82C165.974 625.178 165.974 625.536 165.974 625.904C164.722 626.62 163.47 627.335 162.18 628.072C161.822 627.715 161.465 627.357 161.096 626.988C164.145 624.82 164.145 624.82 165.974 624.82Z" fill="#F1C9C5"/>
<path d="M157.844 522.382C158.023 522.382 158.202 522.382 158.386 522.382C158.386 524.529 158.386 526.675 158.386 528.886C158.207 528.886 158.028 528.886 157.844 528.886C157.609 528.115 157.609 528.115 157.37 527.328C156.886 525.606 156.886 525.606 155.676 524.55C156.391 524.55 157.107 524.55 157.844 524.55C157.844 523.835 157.844 523.12 157.844 522.382Z" fill="#6B625F"/>
<path d="M143.312 521.502C143.798 521.67 143.798 521.67 144.294 521.84C141.506 524.241 141.506 524.241 139.416 524.55C140.227 522.678 140.992 521.104 143.312 521.502Z" fill="#4A3C34"/>
<path d="M174.104 718.044C173.461 718.857 173.461 718.857 172.478 719.67C171.022 719.772 171.022 719.772 169.768 719.67C169.589 719.313 169.41 718.955 169.226 718.586C172.275 717.435 172.275 717.435 174.104 718.044Z" fill="#C7C7C9"/>
<path d="M163.264 675.226C165.974 676.31 165.974 676.31 168.684 677.394C168.684 677.573 168.684 677.752 168.684 677.936C166.859 678.061 165.75 678.121 164.145 677.191C163.264 676.31 163.264 676.31 163.264 675.226Z" fill="#E4A381"/>
<path d="M183.86 733.762C184.933 733.762 186.006 733.762 187.112 733.762C187.112 734.12 187.112 734.478 187.112 734.846C185.86 735.025 184.608 735.204 183.318 735.388C183.497 734.852 183.676 734.315 183.86 733.762Z" fill="#ECECEE"/>
<path d="M127.492 663.844C129.186 664.048 129.186 664.048 130.744 664.386C130.744 664.744 130.744 665.102 130.744 665.47C129.313 665.292 127.882 665.113 126.408 664.928C126.766 664.571 127.123 664.213 127.492 663.844Z" fill="#BF3B37"/>
<path d="M134.538 638.912C136.148 639.449 137.757 639.986 139.416 640.538C139.416 640.717 139.416 640.896 139.416 641.08C137.985 640.902 136.554 640.723 135.08 640.538C134.901 640.002 134.722 639.465 134.538 638.912Z" fill="#F5DDD8"/>
<path d="M142.668 628.614C143.383 628.972 144.099 629.33 144.836 629.698C141.901 630.9 141.901 630.9 140.297 630.308C140.006 630.107 139.716 629.906 139.416 629.698C141.042 629.156 141.042 629.156 142.668 629.698C142.668 629.341 142.668 628.983 142.668 628.614Z" fill="#BF3A38"/>
<path d="M125.324 570.078C125.503 570.078 125.682 570.078 125.866 570.078C126.045 571.867 126.224 573.656 126.408 575.498C124.782 573.33 124.782 573.33 124.952 571.569C125.074 571.077 125.197 570.585 125.324 570.078Z" fill="#E5A080"/>
</g>
<defs>
<clipPath id="clip0_1_2">
<rect width="411" height="760" fill="white"/>
</clipPath>
</defs>
</svg>
