<svg width="411" height="760" viewBox="0 0 411 760" fill="none" xmlns="http://www.w3.org/2000/svg">
<g clip-path="url(#clip0_1_2)">
<rect width="411" height="760" fill="#423F3B"/>
<path d="M455.5 0C251.5 24 452.5 326 353 452.5C253.5 579 145.634 555.367 70 640.5C-40.689 765.092 -115 947.5 -115 947.5C-115 947.5 -50.189 683.092 60.5 558.5C136.134 473.367 195 511 294.5 384.5C394 258 251.5 24 455.5 0Z" fill="#FF6666"/>
<path d="M-56 825.5C148 801.5 -53 499.5 46.5 373C146 246.5 253.866 270.133 329.5 185C440.189 60.4083 514.5 -122 514.5 -122C514.5 -122 449.689 142.408 339 267C263.366 352.133 204.5 314.5 105 441C5.50002 567.5 148 801.5 -56 825.5Z" fill="#FFE5A9"/>
</g>
<defs>
<clipPath id="clip0_1_2">
<rect width="411" height="760" fill="white"/>
</clipPath>
</defs>
</svg>
