<svg width="411" height="760" viewBox="0 0 411 760" fill="none" xmlns="http://www.w3.org/2000/svg">
<g clip-path="url(#clip0_1_2)">
<rect width="411" height="760" fill="#423F3B"/>
<path d="M455.5 0C251.5 24 452.5 326 353 452.5C253.5 579 145.634 555.367 70 640.5C-40.689 765.092 -115 947.5 -115 947.5C-115 947.5 -50.189 683.092 60.5 558.5C136.134 473.367 195 511 294.5 384.5C394 258 251.5 24 455.5 0Z" fill="#FF6666"/>
<path d="M332.451 349.171C330.531 349.544 326.504 351.651 325.437 352.825C323.357 355.118 321.49 359.492 320.396 364.64C320.076 366.16 319.596 367.84 319.329 368.347C318.663 369.68 316.236 371.974 314.822 372.587C314.155 372.881 311.248 373.654 308.315 374.348C304.634 375.175 301.994 375.975 299.674 376.935C297.273 377.895 295.753 378.348 294.42 378.482C292.179 378.695 290.659 379.335 288.072 381.122C285.858 382.669 284.818 384.056 283.618 387.149C283.031 388.643 282.391 389.683 281.511 390.617C279.778 392.457 276.47 397.204 276.017 398.484C275.51 399.924 274.897 404.352 274.684 408.086C274.444 412.219 274.257 412.94 272.443 416.86C269.643 422.888 269.109 425.261 268.816 433.022C268.656 436.943 268.896 440.917 269.616 447.451L269.776 448.838L268.229 449.718C263.535 452.358 260.682 457.666 261.028 463.026C261.295 467 263.002 470.547 265.829 473.028C267.216 474.228 269.83 475.668 271.216 475.988L272.017 476.175L270.976 475.134C268.096 472.254 266.682 468.734 266.682 464.493C266.682 460.039 268.123 456.652 271.35 453.505C273.59 451.291 277.671 449.424 280.258 449.424C281.271 449.398 281.324 449.371 280.844 449.024C280.551 448.811 279.618 448.491 278.764 448.304C277.297 448.011 277.217 447.931 277.217 447.211C277.217 446.144 278.764 441.61 280.258 438.276C282.818 432.622 282.951 432.009 282.951 426.755C282.951 421.421 282.925 421.501 285.218 419.394C286.765 417.954 288.739 415.26 290.179 412.699C290.606 411.926 291.032 411.286 291.112 411.286C291.192 411.286 291.352 412.353 291.432 413.633C291.619 416.327 292.099 418.7 293.086 421.954C294.366 426.275 294.339 426.675 292.073 435.849C290.979 440.303 289.859 445.264 289.619 446.891C289.379 448.491 289.112 450.064 289.059 450.385C288.952 450.811 289.272 451.185 290.659 452.198C297.167 456.999 298.873 465.933 294.526 472.627C293.459 474.308 291.459 476.361 290.206 477.108C289.485 477.535 289.459 477.588 289.539 479.828L289.619 482.095L313.835 482.175C328.664 482.202 338.025 482.122 338.025 481.989C338.025 481.855 337.919 480.842 337.759 479.775C337.625 478.708 337.385 475.908 337.279 473.561C337.039 469.294 337.039 469.294 335.438 464.493L333.811 459.692L334.158 457.425C334.345 456.172 334.425 454.732 334.371 454.225C334.185 453.078 333.438 451.531 332.798 450.998C331.651 450.064 329.758 447.451 329.491 446.437C329.304 445.851 328.797 444.97 328.344 444.517C327.677 443.85 327.411 443.184 326.904 441.077C326.37 438.81 326.29 437.743 326.29 433.609C326.29 430.942 326.424 428.275 326.584 427.688C326.744 427.101 326.957 425.955 327.064 425.154C327.171 424.354 327.384 423.421 327.571 423.101C327.757 422.781 327.891 422.167 327.891 421.741C327.891 421.314 328.211 420.247 328.611 419.394C329.091 418.327 329.331 417.367 329.331 416.353C329.357 415.18 329.437 414.886 329.838 414.806C330.424 414.7 330.398 414.913 329.731 417.687C328.664 422.034 329.331 425.154 332.825 432.142C334.798 436.063 336.932 439.316 338.052 440.116C338.799 440.65 339.279 440.757 340.826 440.757C342.959 440.73 343.519 440.49 346.693 438.223C347.867 437.369 350.08 435.983 351.627 435.156C356.668 432.435 357.228 431.849 361.842 424.914L364.029 421.581L365.869 420.994C370.216 419.554 373.603 416.06 375.017 411.499C375.684 409.366 375.604 405.472 374.857 403.285C372.803 397.337 367.549 393.604 361.228 393.657C354.828 393.684 349.413 397.951 347.787 404.272C346.4 409.579 348.613 415.793 352.987 418.94L354.321 419.9L353.574 420.381C353.174 420.647 352 421.074 350.96 421.287C349.947 421.527 348.56 421.954 347.92 422.247C347.28 422.514 346.693 422.754 346.586 422.754C346.48 422.754 346.266 421.714 346.106 420.407C345.92 419.127 345.52 416.833 345.173 415.286C344.853 413.74 344.613 412.033 344.64 411.473C344.906 404.725 344.746 403.338 343.066 398.911C342.159 396.457 341.279 395.177 339.465 393.63C336.798 391.363 335.278 389.763 334.265 388.243C333.678 387.363 333.225 386.563 333.225 386.429C333.225 386.323 333.891 386.216 334.718 386.216C336.372 386.216 335.972 386.509 338.985 383.069C339.572 382.375 340.212 381.415 340.399 380.935C340.799 380.002 341.252 379.895 342.293 380.482C343.573 381.202 343.626 381.095 343.546 378.001C343.493 374.668 343.599 374.428 345.333 373.974C346.426 373.708 346.506 373.601 347.067 372.107C347.387 371.227 348.187 369.734 348.853 368.747C350.72 366.027 351.2 364.773 351.2 362.613C351.2 359.226 349.307 355.145 346.773 353.065C343.466 350.344 336.265 348.398 332.451 349.171L332.451 349.171Z" fill="#423F3B" stroke="#423F3B"/>
<path d="M370.163 392.803C369.87 392.857 369.043 393.097 368.323 393.337L367.016 393.737L368.589 394.59C373.683 397.284 377.044 403.818 376.244 409.392C375.657 413.393 373.79 416.807 371.043 419.02C369.229 420.461 369.389 420.647 372.51 420.701C375.23 420.727 377.097 420.3 379.497 419.047C382.885 417.287 385.685 413.713 386.592 409.952C388.352 402.618 383.765 394.964 376.404 393.017C375.07 392.643 371.363 392.537 370.163 392.803V392.803Z" fill="#423F3B" stroke="#423F3B"/>
<path d="M280.018 450.251C274.497 450.918 269.963 454.652 268.096 460.039C267.243 462.546 267.243 466.44 268.096 468.947C269.696 473.561 273.483 477.161 278.044 478.362C278.844 478.575 280.498 478.762 281.751 478.762C285.912 478.762 288.872 477.535 291.779 474.654C293.886 472.547 295.14 470.414 295.753 467.773C298.02 458.119 289.886 449.051 280.018 450.251H280.018Z" fill="#423F3B" stroke="#423F3B"/>
</g>
<defs>
<clipPath id="clip0_1_2">
<rect width="411" height="760" fill="white"/>
</clipPath>
</defs>
</svg>
