<svg width="411" height="760" viewBox="0 0 411 760" fill="none" xmlns="http://www.w3.org/2000/svg">
<g clip-path="url(#clip0_1_2)">
<rect width="411" height="760" fill="#423F3B"/>
<path d="M-47.8087 60.3155C-47.8087 60.3155 143.121 143.471 137.22 268.08C131.319 392.689 104.991 432.366 121.515 508.115C144.687 614.339 240.79 762.387 240.79 762.387C240.79 762.387 95.3191 670.897 75.237 559.733C62.0089 486.509 68.5747 373.372 75.2371 268.08C81.8996 162.788 -47.8087 60.3155 -47.8087 60.3155Z" fill="#525266"/>
<path d="M462.662 71.7787C462.662 71.7787 270.122 150.215 273.54 274.939C276.957 399.663 302.487 439.978 284.458 515.302C259.176 620.93 160.146 766.577 160.146 766.577C160.146 766.577 307.405 678.689 329.697 568.046C344.381 495.166 340.07 381.894 335.507 276.465C330.944 171.035 462.662 71.7787 462.662 71.7787Z" fill="#FF6666"/>
</g>
<defs>
<clipPath id="clip0_1_2">
<rect width="411" height="760" fill="white"/>
</clipPath>
</defs>
</svg>
