<svg width="411" height="760" viewBox="0 0 411 760" fill="none" xmlns="http://www.w3.org/2000/svg">
<g clip-path="url(#clip0_1_2)">
<rect width="411" height="760" fill="#423F3B"/>
<path d="M86.9141 345.183L110.914 386.753L86.9141 428.322L38.9141 428.322L14.9141 386.753L38.9141 345.183L86.9141 345.183Z" fill="#FFE5A9"/>
<path d="M228.456 592.025L252.456 633.594L228.456 675.163L180.456 675.163L156.456 633.594L180.456 592.025L228.456 592.025Z" fill="#FFE5A9"/>
<path d="M84.6362 592.129L108.386 633.265L84.6362 674.401L37.1362 674.401L13.3862 633.265L37.1362 592.129L84.6362 592.129Z" fill="#FFE5A9"/>
<path d="M156.516 633.629L180.266 674.765L156.516 715.901L109.016 715.901L85.2663 674.765L109.016 633.629L156.516 633.629Z" fill="#689773"/>
<path d="M301.319 138.862L325.319 180.431L301.319 222L253.319 222L229.319 180.431L253.319 138.862L301.319 138.862Z" fill="#FFE5A9"/>
<path d="M158.414 221.342L182.414 262.911L158.414 304.48L110.414 304.48L86.4141 262.911L110.414 221.342L158.414 221.342Z" fill="#689773"/>
<path d="M301.069 222L325.194 263.353L301.444 304.489L253.569 304.272L229.444 262.92L253.194 221.783L301.069 222Z" fill="#689773"/>
<path d="M301.319 304.522L324.944 345.875L300.944 387.444L253.319 387.661L229.694 346.308L253.694 304.739L301.319 304.522Z" fill="#FFE5A9"/>
<path d="M158.354 304.445L182.104 345.582L158.354 386.718L110.854 386.718L87.1041 345.582L110.854 304.445L158.354 304.445Z" fill="#FFE5A9"/>
<path d="M157.495 385.933L181.12 427.286L157.12 468.855L109.495 469.072L85.8702 427.719L109.87 386.15L157.495 385.933Z" fill="#689773"/>
<path d="M371.456 344.342L395.456 385.911L371.456 427.48L323.456 427.48L299.456 385.911L323.456 344.342L371.456 344.342Z" fill="#689773"/>
<path d="M299.516 385.945L323.266 427.082L299.516 468.218L252.016 468.218L228.266 427.082L252.016 385.945L299.516 385.945Z" fill="#FFE5A9"/>
<path d="M228.076 426.683L252.076 468.253L228.076 509.822L180.076 509.822L156.076 468.253L180.076 426.683L228.076 426.683Z" fill="#FFE5A9"/>
<path d="M299.956 468.183L323.956 509.753L299.956 551.322L251.956 551.322L227.956 509.753L251.956 468.183L299.956 468.183Z" fill="#FFE5A9"/>
<path d="M228.016 509.787L251.766 550.923L228.016 592.06L180.516 592.06L156.766 550.923L180.516 509.787L228.016 509.787Z" fill="#689773"/>
<path d="M370.569 509L394.569 550.569L370.569 592.138L322.569 592.138L298.569 550.569L322.569 509L370.569 509Z" fill="#689773"/>
<path d="M370.044 591.787L393.794 632.923L370.044 674.06L322.544 674.06L298.794 632.923L322.544 591.787L370.044 591.787Z" fill="#FFE5A9"/>
<path d="M299.037 632.775L322.662 674.128L298.662 715.697L251.037 715.913L227.412 674.561L251.412 632.991L299.037 632.775Z" fill="#689773"/>
<path d="M85.6362 592.75L109.386 633.886L85.6362 675.022L38.1362 675.022L14.3862 633.886L38.1362 592.75L85.6362 592.75Z" fill="#FFE5A9"/>
<path d="M299.516 385.945L323.266 427.082L299.516 468.218L252.016 468.218L228.266 427.082L252.016 385.945L299.516 385.945Z" fill="#689773"/>
<path d="M201.784 561.498C198.93 562.245 196.503 564.138 195.329 566.539C194.689 567.872 194.609 568.326 194.609 570.513C194.636 572.993 194.636 572.993 194.023 572.833C193.116 572.593 192.982 573.206 193.649 574.833C193.943 575.58 194.183 576.513 194.183 576.86C194.183 577.207 194.556 577.927 195.009 578.46C195.916 579.5 196.29 581.101 195.809 582.007C195.623 582.354 194.583 582.914 192.929 583.528C188.555 585.181 186.662 586.141 184.981 587.475C184.101 588.195 182.714 589.128 181.888 589.528C180.234 590.382 176.954 593.689 176.207 595.262C175.62 596.489 174.98 599.476 174.98 601.05C174.98 602.01 174.713 602.864 173.887 604.464C172.58 606.997 172.34 608.838 172.82 612.411C173.113 614.598 173.086 614.892 172.446 617.399C172.073 618.866 171.353 621.079 170.846 622.333C170.099 624.253 169.939 625.026 169.833 627.4C169.753 628.947 169.433 631.587 169.113 633.268C168.579 635.908 168.526 636.975 168.606 641.135C168.659 643.776 168.686 648.043 168.686 650.603C168.659 655.271 168.659 655.271 167.832 657.004C167.299 658.151 166.926 659.351 166.819 660.525L166.632 662.338H153.751C142.442 662.338 140.842 662.285 140.842 661.938C140.842 661.645 140.549 661.538 139.775 661.538C138.682 661.538 138.629 661.485 138.308 660.124C138.095 659.111 137.562 659.351 137.268 660.551C137.028 661.485 136.948 661.538 135.908 661.538H134.815L134.495 651.857C134.175 643.082 133.908 639.322 133.561 638.948C133.481 638.868 132.441 638.762 131.268 638.682C128.44 638.468 128.307 638.602 128.307 641.242C128.307 642.362 128.12 646.203 127.907 649.803C127.694 653.404 127.507 657.297 127.48 658.471C127.454 659.644 127.374 660.818 127.294 661.058C127.187 661.511 126.414 661.538 115.665 661.538H104.117L103.584 662.125C102.624 663.165 102.677 664.765 103.664 665.672L104.384 666.339H115.905H127.427L127.614 672.9C127.854 682.047 128.334 687.915 128.841 688.768C129.134 689.195 132.974 689.248 133.401 688.822C133.908 688.315 134.148 685.515 134.495 675.993L134.815 666.339H135.908C136.948 666.339 137.028 666.392 137.268 667.325C137.562 668.526 138.095 668.766 138.308 667.752C138.629 666.392 138.682 666.339 139.775 666.339C140.549 666.339 140.842 666.232 140.842 665.939C140.842 665.592 142.496 665.539 154.017 665.539H167.192L167.326 666.312C167.512 667.192 168.126 667.512 168.846 667.139C169.246 666.925 169.406 666.979 169.646 667.405C169.966 667.992 170.713 668.099 171.513 667.672C171.86 667.485 172.073 667.512 172.313 667.806C172.766 668.339 173.006 668.312 173.673 667.645C174.073 667.245 174.287 667.165 174.447 667.405C174.553 667.565 175.033 667.672 175.513 667.619C176.234 667.565 176.447 667.379 176.687 666.685C176.847 666.232 177.087 665.752 177.194 665.619C177.567 665.245 177.087 675.113 176.66 677.007C176.367 678.234 176.18 681.061 176.047 686.608C175.887 691.969 175.7 694.902 175.46 695.836C175.247 696.583 175.14 697.329 175.193 697.489C175.273 697.73 178.02 697.81 185.888 697.81H196.503L196.663 695.729C196.876 692.956 197.703 689.862 198.957 687.275C199.543 686.101 200.69 682.954 201.57 680.287C202.424 677.593 203.197 675.407 203.277 675.407C203.357 675.407 203.917 676.607 204.531 678.047C205.544 680.447 207.598 687.381 209.545 694.929L210.291 697.81H221.333H232.401L232.241 693.862C232.161 691.675 231.841 688.582 231.521 686.875C231.148 684.928 230.854 681.914 230.721 678.607C230.587 675.7 230.321 672.553 230.081 671.459C229.627 669.406 229.494 665.218 229.921 666.232C230.134 666.792 231.281 667.672 231.788 667.672C231.948 667.672 232.188 667.405 232.294 667.059C232.534 666.472 232.534 666.472 232.828 667.192C233.148 668.046 234.161 668.206 234.721 667.539C235.015 667.165 235.095 667.192 235.361 667.565C235.788 668.152 236.668 667.939 236.988 667.192C237.282 666.525 237.655 666.419 237.655 667.005C237.655 667.832 239.469 667.085 239.682 666.152L239.842 665.539H253.817C266.059 665.539 267.792 665.592 267.792 665.939C267.792 666.232 268.086 666.339 268.806 666.339C269.766 666.339 269.846 666.392 270.086 667.325C270.379 668.526 270.913 668.766 271.126 667.752C271.42 666.419 271.5 666.339 272.193 666.339H272.86V671.059C272.886 678.474 273.447 687.968 273.927 688.742C274.14 689.088 278.274 689.302 278.594 688.982C279.074 688.475 279.634 681.487 279.954 671.326L280.114 666.339H292.089H304.037L304.731 665.725C305.211 665.325 305.477 664.765 305.584 664.018C305.718 663.085 305.637 662.818 305.051 662.231L304.357 661.538H292.329C282.941 661.538 280.301 661.458 280.221 661.191C280.167 661.031 279.874 655.964 279.554 649.963C279.234 643.962 278.914 638.948 278.807 638.788C278.621 638.468 274.247 638.708 273.927 639.028C273.527 639.428 273.1 645.829 272.913 653.804C272.726 661.351 272.726 661.405 272.14 661.485C271.66 661.565 271.5 661.378 271.26 660.498C270.886 659.084 270.299 659.084 270.059 660.471C269.873 661.485 269.846 661.538 268.859 661.538C268.192 661.538 267.792 661.671 267.686 661.938C267.552 662.285 265.819 662.338 253.631 662.285L239.709 662.205L239.629 660.845C239.602 660.071 239.202 658.338 238.775 656.977C237.682 653.51 237.148 649.456 236.855 642.095C236.535 634.468 236.242 632.254 235.228 629.134C234.775 627.8 234.295 625.587 234.161 624.2C234.001 622.813 233.575 620.466 233.201 618.999C232.561 616.599 232.508 615.799 232.481 610.998C232.428 605.29 232.348 604.864 230.907 602.917C230.427 602.277 230.214 601.557 230.081 600.116C229.734 596.409 229.361 594.916 228.401 593.342C227.147 591.235 226.054 590.142 224.293 589.262C223.467 588.835 222.16 587.928 221.36 587.261C219.626 585.768 217.252 584.541 214.185 583.528C212.932 583.128 211.838 582.674 211.758 582.514C211.465 582.087 211.812 579.047 212.212 578.38C213.145 576.94 213.999 572.993 213.412 572.993C213.305 572.993 213.118 572.033 213.038 570.886C212.878 568.219 212.105 566.459 210.185 564.378C208.158 562.165 206.824 561.471 204.477 561.365C203.437 561.311 202.237 561.365 201.784 561.498L201.784 561.498ZM184.315 617.719C184.315 618.199 184.981 619.399 186.021 620.866C186.528 621.559 186.528 621.666 186.102 624.413C185.515 628.12 185.541 629.907 186.182 631.987C186.502 632.974 186.715 634.414 186.715 635.535C186.715 637.108 186.582 637.641 185.888 638.975C185.435 639.855 184.901 641.402 184.715 642.442C184.475 643.856 184.208 644.549 183.728 645.029C183.194 645.563 182.874 646.469 182.288 648.87C181.728 651.297 181.354 652.31 180.661 653.244C178.741 655.884 178.18 656.871 178.18 657.591C178.18 658.604 177.887 658.524 176.847 657.217C175.807 655.937 175.567 654.764 175.54 650.79C175.513 648.976 175.647 647.936 175.913 647.403C176.127 647.003 176.687 645.349 177.14 643.749C177.594 642.175 178.234 640.442 178.58 639.935C179.621 638.362 179.834 637.188 179.781 633.721C179.701 630.814 179.781 630.281 180.394 628.6C181.808 624.68 183.514 618.572 183.514 617.345C183.514 617.292 183.701 617.265 183.915 617.265C184.128 617.265 184.315 617.479 184.315 617.719L184.315 617.719ZM221.626 619.346C221.786 619.906 222 620.786 222.08 621.293C222.186 621.773 222.72 623.053 223.28 624.12C223.867 625.186 224.32 626.307 224.32 626.627C224.32 626.92 224.667 628.254 225.12 629.56C225.787 631.587 225.893 632.281 225.867 634.521C225.84 637.428 225.733 637.135 228.694 644.336L230.454 648.603L230.294 652.47C230.161 655.511 230.027 656.577 229.601 657.457C229.041 658.658 228.32 658.978 228.32 658.044C228.32 657.377 226.8 652.043 226.374 651.27C226.24 650.977 225.6 650.15 224.96 649.43C224.347 648.71 223.68 647.616 223.52 646.976C223.333 646.336 222.773 645.189 222.293 644.416C221.786 643.642 221.386 642.682 221.386 642.229C221.386 641.802 220.959 640.629 220.453 639.615C219.333 637.455 219.226 636.335 219.919 633.454C220.453 631.267 220.426 630.761 219.493 626.547C219.199 625.24 219.199 624.68 219.626 622.546C220.133 619.879 220.666 618.332 221.093 618.332C221.253 618.332 221.493 618.786 221.626 619.346L221.626 619.346Z" fill="#423F3B"/>
</g>
<defs>
<clipPath id="clip0_1_2">
<rect width="411" height="760" fill="white"/>
</clipPath>
</defs>
</svg>
