<svg width="413" height="761" viewBox="0 0 413 761" fill="none" xmlns="http://www.w3.org/2000/svg">
<g clip-path="url(#clip0_1_2)">
<rect width="412" height="760" transform="translate(0.661011 0.0834961)" fill="#423F3B"/>
<path d="M-48.1683 -4.23725C-48.1683 -4.23725 143.226 78.9178 137.311 203.527C131.395 328.136 105.003 367.813 121.568 443.562C144.796 549.786 241.133 697.834 241.133 697.834C241.133 697.834 95.3077 606.345 75.1767 495.18C61.9164 421.957 68.4983 308.819 75.1769 203.527C81.8555 98.2355 -48.1683 -4.23725 -48.1683 -4.23725Z" fill="#525266"/>
<path d="M463.545 7.22595C463.545 7.22595 270.536 85.6627 273.962 210.386C277.388 335.11 302.98 375.426 284.907 450.749C259.563 556.377 160.293 702.024 160.293 702.024C160.293 702.024 307.909 614.136 330.256 503.494C344.975 430.613 340.654 317.342 336.08 211.912C331.506 106.482 463.545 7.22595 463.545 7.22595Z" fill="#729676"/>
<path fill-rule="evenodd" clip-rule="evenodd" d="M234.244 582.635C234.672 581.542 235.581 580.368 236.222 580.128C236.516 579.995 236.864 579.888 236.998 579.888C237.292 579.862 237.238 580.342 236.917 580.528C236.784 580.608 236.65 580.795 236.65 580.928C236.65 581.248 237.88 581.088 238.334 580.715C238.548 580.528 238.789 580.475 238.869 580.582C239.243 580.955 239.029 581.488 238.388 581.729C237.532 582.049 237.479 582.635 238.334 582.395C238.655 582.289 239.751 581.862 240.794 581.435C242.853 580.582 243.681 580.502 244.671 581.062C245.045 581.275 245.767 581.435 246.301 581.462C246.836 581.462 247.638 581.649 248.039 581.862C248.467 582.075 249.109 582.262 249.483 582.262C250.499 582.262 252.771 583.409 254.028 584.582C255.204 585.622 258.305 589.223 259.268 590.663C259.562 591.09 260.15 592.237 260.551 593.197C261.46 595.33 262.316 596.477 263.679 597.384C264.267 597.757 264.722 598.291 264.722 598.557C264.722 599.544 267.93 601.091 271.352 601.731C272.181 601.891 275.55 602.131 278.785 602.265C285.014 602.531 287.286 602.851 291.511 604.132C298.943 606.425 303.835 610.159 306.322 615.52C307.231 617.493 307.926 618.453 309.557 620.214C312.925 623.787 313.995 626.641 314.449 633.202C315.118 642.963 315.358 644.644 317.23 653.605C318.353 659.019 318.727 662.246 318.727 666.487C318.727 671.074 316.454 693.663 315.92 694.57C315.759 694.81 307.231 694.917 307.231 694.677C307.231 694.597 307.765 692.783 308.434 690.676C309.61 686.889 309.637 686.703 309.69 682.862C309.744 678.995 309.717 678.888 308.755 675.874C307.044 670.62 306.509 668.167 306.054 663.606C305.546 658.565 304.851 654.565 304.531 655.125C304.424 655.312 304.023 657.685 303.622 660.406C303.06 664.033 302.846 666.753 302.739 670.674C302.632 675.421 302.712 676.514 303.327 680.675C303.702 683.235 304.21 687.129 304.424 689.316C304.664 691.503 304.958 693.503 305.119 693.77C305.252 694.037 305.359 694.357 305.359 694.517C305.359 694.73 297.365 694.81 278.597 694.81C256.782 694.81 251.862 694.757 251.969 694.464C252.049 694.277 252.37 693.157 252.691 692.01C253.894 687.743 256.728 680.088 257.637 678.728C259.161 676.408 259.509 673.954 258.466 672.594C257.049 670.7 256.969 668.887 258.065 664.566C258.653 662.273 258.653 661.179 258.011 657.659C257.798 656.458 257.53 655.605 257.343 655.605C257.156 655.605 256.488 654.992 255.819 654.272C255.151 653.525 254.563 652.938 254.509 652.938C254.456 652.938 254.456 653.685 254.509 654.592C254.776 659.232 252.21 664.78 247.451 669.767C246.061 671.234 245.286 672.354 244.59 673.847C243.28 676.621 242.425 677.635 239.404 679.928C235.474 682.915 235.233 682.995 233.682 681.902C233.175 681.528 232.078 680.782 231.223 680.222C223.603 675.208 220.876 672.301 214.54 662.353L222.855 657.392C222.855 657.392 223.79 657.712 224.272 657.739C224.726 657.739 226.17 658.112 227.48 658.565C229.801 659.378 230.525 659.653 230.874 659.404C231.052 659.277 231.132 659.015 231.276 658.619C231.463 658.059 231.597 657.179 231.544 656.672C231.116 651.898 231.891 649.178 234.297 647.044L235.661 645.817L235.901 642.403C236.49 632.989 236.81 631.869 239.965 628.855C241.168 627.708 242.826 626.268 243.681 625.681C245.392 624.534 247.237 622.001 246.943 621.254C246.809 620.907 246.649 620.987 246.007 621.681C245.152 622.641 244.403 622.774 243.815 622.054C243.601 621.814 242.906 620.64 242.291 619.467C240.687 616.48 240.607 616.4 238.735 616.4C237.506 616.4 236.864 616.24 235.955 615.706C235.313 615.333 234.698 614.88 234.565 614.693C234.378 614.426 232.239 612.933 231.998 612.933C231.945 612.933 231.758 613.279 231.57 613.733C231.383 614.16 231.062 614.533 230.849 614.533C230.314 614.533 229.137 615.36 229.325 615.626C229.405 615.76 229.351 615.866 229.191 615.866C229.057 615.866 228.87 615.706 228.817 615.52C228.71 615.306 228.656 615.333 228.656 615.6C228.63 615.84 228.389 616.026 228.122 616.053C227.667 616.08 227.587 615.866 227.426 614.32C227.159 611.599 227.025 611.066 226.544 611.066C226.197 611.066 226.197 610.986 226.651 610.639C227.132 610.266 227.052 610.239 225.849 610.399L224.539 610.586L224.967 609.892C225.555 609.012 225.555 608.639 224.967 608.852C224.593 608.985 224.566 608.932 224.78 608.692C224.967 608.479 225.02 608.025 224.887 607.439C224.753 606.905 224.78 606.452 224.94 606.372C225.074 606.292 225.047 606.078 224.86 605.838C224.699 605.625 224.566 604.958 224.593 604.345C224.646 603.705 224.646 602.985 224.646 602.745C224.646 602.478 224.753 602.211 224.86 602.131C225.101 601.998 224.593 600.131 224.298 600.131C224.191 600.131 224.058 600.398 224.004 600.718C223.924 601.144 223.871 601.064 223.844 600.451C223.844 599.971 223.924 599.358 224.085 599.091C224.218 598.824 224.352 597.677 224.379 596.53C224.459 594.21 224.806 593.597 227.159 591.543C227.827 590.956 228.362 590.263 228.362 589.996C228.362 589.116 228.656 588.716 229.191 588.849C229.592 588.956 229.833 588.716 230.341 587.569C230.902 586.342 231.196 586.049 231.062 586.876C231.036 587.009 231.169 587.063 231.357 587.009C231.677 586.903 231.731 586.743 231.811 585.676C231.811 585.436 232.078 585.142 232.372 585.062C232.987 584.876 233.041 584.209 232.506 583.489C231.918 582.715 232.025 582.449 232.693 582.902C233.549 583.515 233.95 583.435 234.244 582.635Z" fill="#FF6666"/>
</g>
<defs>
<clipPath id="clip0_1_2">
<rect width="412" height="760" fill="white" transform="translate(0.661011 0.0834961)"/>
</clipPath>
</defs>
</svg>
