<svg width="412" height="760" viewBox="0 0 412 760" fill="none" xmlns="http://www.w3.org/2000/svg">
<rect width="412" height="760" fill="#423F3B"/>
<path d="M317.994 19.5166L345.316 19.5166L358.982 43.4251L345.316 67.3335H317.994L304.329 43.4251L317.994 19.5166Z" fill="#423F3B" stroke="#423F3B"/>
<path d="M276.148 43.9131L303.47 43.9131L317.135 67.8216L303.47 91.73H276.148L262.482 67.8216L276.148 43.9131Z" fill="#FFBB6B" stroke="#423F3B"/>
<path d="M234.294 19.5044L261.616 19.5044L275.281 43.4129L261.616 67.3213H234.294L220.629 43.4129L234.294 19.5044Z" fill="#423F3B" stroke="#423F3B"/>
<path d="M360.848 43.925L388.17 43.925L401.835 67.8335L388.17 91.742H360.848L347.182 67.8335L360.848 43.925Z" fill="#689773" stroke="#423F3B"/>
<path d="M359.855 92.7302L387.177 92.7302L400.842 116.639L387.177 140.547H359.855L346.189 116.639L359.855 92.7302Z" fill="#423F3B" stroke="#423F3B"/>
<path d="M318.001 68.3215L345.323 68.3215L358.988 92.23L345.323 116.138H318.001L304.336 92.23L318.001 68.3215Z" fill="#FFBB6B" stroke="#423F3B"/>
<path d="M276.197 92.6443L303.519 92.6443L317.184 116.553L303.519 140.461H276.197L262.531 116.553L276.197 92.6443Z" fill="#423F3B" stroke="#423F3B"/>
<path d="M235.343 68.2358L262.665 68.2358L276.33 92.1443L262.665 116.053H235.343L221.677 92.1443L235.343 68.2358Z" fill="#689773" stroke="#423F3B"/>
<path d="M192.489 43.8271L219.811 43.8271L233.477 67.7356L219.811 91.6441H192.489L178.824 67.7356L192.489 43.8271Z" fill="#FFBB6B" stroke="#423F3B"/>
<path d="M235.35 117.041L262.672 117.041L276.338 140.949L262.672 164.858H235.35L221.685 140.949L235.35 117.041Z" fill="#689773" stroke="#423F3B"/>
<path d="M192.497 92.6323L219.819 92.6323L233.484 116.541L219.819 140.449H192.497L178.831 116.541L192.497 92.6323Z" fill="#423F3B" stroke="#423F3B"/>
<path d="M359.904 141.461L387.226 141.461L400.891 165.37L387.226 189.278H359.904L346.239 165.37L359.904 141.461Z" fill="#689773" stroke="#423F3B"/>
<path d="M318.05 117.053L345.372 117.053L359.037 140.961L345.372 164.87H318.05L304.385 140.961L318.05 117.053Z" fill="#FFBB6B" stroke="#423F3B"/>
<path d="M359.91 190.266L387.232 190.266L400.898 214.175L387.232 238.083H359.91L346.245 214.175L359.91 190.266Z" fill="#689773" stroke="#423F3B"/>
<path d="M318.057 165.858L345.379 165.858L359.045 189.766L345.379 213.675H318.057L304.392 189.766L318.057 165.858Z" fill="#423F3B" stroke="#423F3B"/>
<path d="M276.203 141.449L303.525 141.449L317.191 165.358L303.525 189.266H276.203L262.538 165.358L276.203 141.449Z" fill="#FFBB6B" stroke="#423F3B"/>
<path d="M234.324 165.843L261.646 165.843L275.311 189.751L261.646 213.66H234.324L220.658 189.751L234.324 165.843Z" fill="#423F3B" stroke="#423F3B"/>
<path d="M192.47 141.434L219.792 141.434L233.458 165.343L219.792 189.251H192.47L178.805 165.343L192.47 141.434Z" fill="#FFBB6B" stroke="#423F3B"/>
<path d="M192.477 190.24L219.799 190.24L233.465 214.148L219.799 238.056H192.477L178.812 214.148L192.477 190.24Z" fill="#689773" stroke="#423F3B"/>
<path d="M359.884 239.068L387.206 239.068L400.871 262.977L387.206 286.885H359.884L346.218 262.977L359.884 239.068Z" fill="#423F3B" stroke="#423F3B"/>
<path d="M318.031 214.66L345.353 214.66L359.018 238.568L345.353 262.477H318.031L304.365 238.568L318.031 214.66Z" fill="#FFBB6B" stroke="#423F3B"/>
<path d="M276.177 190.251L303.499 190.251L317.165 214.16L303.499 238.068H276.177L262.512 214.16L276.177 190.251Z" fill="#FFBB6B" stroke="#423F3B"/>
<path d="M360.891 287.874L388.213 287.874L401.879 311.782L388.213 335.69H360.891L347.226 311.782L360.891 287.874Z" fill="#689773" stroke="#423F3B"/>
<path d="M319.038 263.465L346.36 263.465L360.025 287.373L346.36 311.282H319.038L305.372 287.373L319.038 263.465Z" fill="#689773" stroke="#423F3B"/>
<path d="M276.184 239.056L303.506 239.056L317.172 262.965L303.506 286.873H276.184L262.519 262.965L276.184 239.056Z" fill="#423F3B" stroke="#423F3B"/>
<path d="M235.331 214.648L262.653 214.648L276.318 238.556L262.653 262.465H235.331L221.665 238.556L235.331 214.648Z" fill="#689773" stroke="#423F3B"/>
<path d="M359.947 385.41L387.269 385.41L400.934 409.318L387.269 433.227H359.947L346.281 409.318L359.947 385.41Z" fill="#423F3B" stroke="#423F3B"/>
<path d="M192.526 238.971L219.848 238.971L233.513 262.879L219.848 286.788H192.526L178.861 262.879L192.526 238.971Z" fill="#423F3B" stroke="#423F3B"/>
<path d="M359.941 336.605L387.263 336.605L400.928 360.513L387.263 384.422H359.941L346.275 360.513L359.941 336.605Z" fill="#689773" stroke="#423F3B"/>
<path d="M318.086 312.196L345.409 312.196L359.074 336.105L345.409 360.013H318.086L304.421 336.105L318.086 312.196Z" fill="#423F3B" stroke="#423F3B"/>
<path d="M277.233 287.788L304.555 287.788L318.22 311.696L304.555 335.605H277.233L263.568 311.696L277.233 287.788Z" fill="#689773" stroke="#423F3B"/>
<path d="M234.379 263.379L261.702 263.379L275.367 287.288L261.702 311.196H234.379L220.714 287.288L234.379 263.379Z" fill="#FFBB6B" stroke="#423F3B"/>
<path d="M318.094 361.001L345.416 361.001L359.081 384.91L345.416 408.818H318.094L304.428 384.91L318.094 361.001Z" fill="#FFBB6B" stroke="#423F3B"/>
<path d="M277.24 336.593L304.562 336.593L318.227 360.501L304.562 384.41H277.24L263.574 360.501L277.24 336.593Z" fill="#689773" stroke="#423F3B"/>
<path d="M234.386 312.184L261.708 312.184L275.374 336.093L261.708 360.001H234.386L220.721 336.093L234.386 312.184Z" fill="#423F3B" stroke="#423F3B"/>
<path d="M192.533 287.776L219.855 287.776L233.52 311.684L219.855 335.593H192.533L178.867 311.684L192.533 287.776Z" fill="#FFBB6B" stroke="#423F3B"/>
<path d="M359.948 434.227L387.27 434.227L400.935 458.136L387.27 482.044H359.948L346.282 458.136L359.948 434.227Z" fill="#FFBB6B" stroke="#423F3B"/>
<path d="M318.101 458.624L345.423 458.624L359.089 482.532L345.423 506.441H318.101L304.436 482.532L318.101 458.624Z" fill="#423F3B" stroke="#423F3B"/>
<path d="M318.095 409.819L345.417 409.819L359.082 433.727L345.417 457.636H318.095L304.429 433.727L318.095 409.819Z" fill="#FFBB6B" stroke="#423F3B"/>
<path d="M276.241 385.41L303.563 385.41L317.228 409.319L303.563 433.227H276.241L262.575 409.319L276.241 385.41Z" fill="#423F3B" stroke="#423F3B"/>
<path d="M235.387 361.002L262.709 361.002L276.375 384.91L262.709 408.819H235.387L221.722 384.91L235.387 361.002Z" fill="#689773" stroke="#423F3B"/>
<path d="M192.534 336.593L219.856 336.593L233.521 360.502L219.856 384.41H192.534L178.868 360.502L192.534 336.593Z" fill="#689773" stroke="#423F3B"/>
<path d="M277.248 434.216L304.57 434.216L318.235 458.124L304.57 482.033H277.248L263.582 458.124L277.248 434.216Z" fill="#689773" stroke="#423F3B"/>
<path d="M234.394 409.807L261.716 409.807L275.382 433.716L261.716 457.624H234.394L220.729 433.716L234.394 409.807Z" fill="#FFBB6B" stroke="#423F3B"/>
<path d="M192.541 385.398L219.863 385.398L233.528 409.307L219.863 433.215H192.541L178.875 409.307L192.541 385.398Z" fill="#423F3B" stroke="#423F3B"/>
<path d="M318.15 507.355L345.472 507.355L359.137 531.264L345.472 555.172H318.15L304.485 531.264L318.15 507.355Z" fill="#FFBB6B" stroke="#423F3B"/>
<path d="M319.157 556.16L346.479 556.16L360.145 580.069L346.479 603.977H319.157L305.492 580.069L319.157 556.16Z" fill="#689773" stroke="#423F3B"/>
<path d="M276.297 531.752L303.619 531.752L317.284 555.66L303.619 579.569H276.297L262.632 555.66L276.297 531.752Z" fill="#423F3B" stroke="#423F3B"/>
<path d="M277.297 482.947L304.619 482.947L318.284 506.855L304.619 530.764H277.297L263.632 506.855L277.297 482.947Z" fill="#689773" stroke="#423F3B"/>
<path d="M234.443 458.538L261.765 458.538L275.43 482.447L261.765 506.355H234.443L220.778 482.447L234.443 458.538Z" fill="#423F3B" stroke="#423F3B"/>
<path d="M192.589 434.13L219.911 434.13L233.577 458.038L219.911 481.947H192.589L178.924 458.038L192.589 434.13Z" fill="#FFBB6B" stroke="#423F3B"/>
<path d="M234.45 507.343L261.772 507.343L275.438 531.252L261.772 555.16H234.45L220.785 531.252L234.45 507.343Z" fill="#FFBB6B" stroke="#423F3B"/>
<path d="M192.597 482.935L219.919 482.935L233.584 506.843L219.919 530.752H192.597L178.931 506.843L192.597 482.935Z" fill="#FFBB6B" stroke="#423F3B"/>
<path d="M318.131 604.962L345.453 604.962L359.118 628.871L345.453 652.779H318.131L304.466 628.871L318.131 604.962Z" fill="#423F3B" stroke="#423F3B"/>
<path d="M276.277 580.554L303.599 580.554L317.265 604.462L303.599 628.371H276.277L262.612 604.462L276.277 580.554Z" fill="#FFBB6B" stroke="#423F3B"/>
<path d="M192.57 531.737L219.892 531.737L233.558 555.645L219.892 579.554H192.57L178.905 555.645L192.57 531.737Z" fill="#423F3B" stroke="#423F3B"/>
<path d="M67.2576 67.3289L53.5923 43.4204L67.2576 19.512L94.5797 19.512L108.245 43.4204L94.5797 67.3289H67.2576Z" fill="#423F3B" stroke="#423F3B"/>
<path d="M109.104 91.7254L95.4387 67.8169L109.104 43.9084L136.426 43.9084L150.092 67.8169L136.426 91.7254H109.104Z" fill="#FFBB6B" stroke="#423F3B"/>
<path d="M150.958 67.3169L137.292 43.4085L150.958 19.5L178.28 19.5L191.945 43.4085L178.28 67.3169H150.958Z" fill="#423F3B" stroke="#423F3B"/>
<path d="M26.4041 91.7374L12.7388 67.8289L26.4041 43.9204L53.7262 43.9204L67.3916 67.8289L53.7262 91.7374H26.4041Z" fill="#689773" stroke="#423F3B"/>
<path d="M25.397 140.543L11.7317 116.634L25.397 92.7256L52.7191 92.7256L66.3845 116.634L52.7191 140.543H25.397Z" fill="#423F3B" stroke="#423F3B"/>
<path d="M68.2506 116.134L54.5852 92.2254L68.2506 68.3169L95.5726 68.3169L109.238 92.2254L95.5726 116.134H68.2506Z" fill="#689773" stroke="#423F3B"/>
<path d="M109.055 140.457L95.3899 116.548L109.055 92.6396L136.377 92.6396L150.043 116.548L136.377 140.457H109.055Z" fill="#423F3B" stroke="#423F3B"/>
<path d="M150.909 116.048L137.243 92.1397L150.909 68.2312L178.231 68.2312L191.896 92.1397L178.231 116.048H150.909Z" fill="#689773" stroke="#423F3B"/>
<path d="M150.902 164.853L137.236 140.945L150.902 117.036L178.224 117.036L191.889 140.945L178.224 164.853H150.902Z" fill="#689773" stroke="#423F3B"/>
<path d="M25.348 189.273L11.6826 165.365L25.348 141.457L52.67 141.457L66.3354 165.365L52.67 189.273H25.348Z" fill="#FFBB6B" stroke="#423F3B"/>
<path d="M67.2017 164.865L53.5364 140.957L67.2017 117.048L94.5238 117.048L108.189 140.957L94.5238 164.865H67.2017Z" fill="#FFBB6B" stroke="#423F3B"/>
<path d="M25.3414 238.079L11.676 214.17L25.3414 190.262L52.6634 190.262L66.3288 214.17L52.6634 238.079H25.3414Z" fill="#FFBB6B" stroke="#423F3B"/>
<path d="M67.1949 213.67L53.5295 189.762L67.1949 165.853L94.517 165.853L108.182 189.762L94.517 213.67H67.1949Z" fill="#423F3B" stroke="#423F3B"/>
<path d="M109.048 189.262L95.3828 165.353L109.048 141.445L136.37 141.445L150.036 165.353L136.37 189.262H109.048Z" fill="#689773" stroke="#423F3B"/>
<path d="M150.928 213.655L137.263 189.747L150.928 165.838L178.25 165.838L191.915 189.747L178.25 213.655H150.928Z" fill="#423F3B" stroke="#423F3B"/>
<path d="M25.3675 286.881L11.7021 262.972L25.3675 239.064L52.6896 239.064L66.3549 262.972L52.6896 286.881H25.3675Z" fill="#423F3B" stroke="#423F3B"/>
<path d="M68.221 262.472L54.5556 238.564L68.221 214.655L95.5431 214.655L109.208 238.564L95.5431 262.472H68.221Z" fill="#689773" stroke="#423F3B"/>
<path d="M109.075 238.064L95.4094 214.155L109.075 190.247L136.397 190.247L150.062 214.155L136.397 238.064H109.075Z" fill="#FFBB6B" stroke="#423F3B"/>
<path d="M26.3607 335.686L12.6953 311.777L26.3607 287.869L53.6827 287.869L67.3481 311.777L53.6827 335.686H26.3607Z" fill="#689773" stroke="#423F3B"/>
<path d="M67.2142 311.277L53.5488 287.369L67.2142 263.46L94.5363 263.46L108.202 287.369L94.5363 311.277H67.2142Z" fill="#FFBB6B" stroke="#423F3B"/>
<path d="M109.068 286.869L95.4023 262.96L109.068 239.052L136.39 239.052L150.055 262.96L136.39 286.869H109.068Z" fill="#423F3B" stroke="#423F3B"/>
<path d="M150.921 262.46L137.256 238.552L150.921 214.643L178.243 214.643L191.909 238.552L178.243 262.46H150.921Z" fill="#FFBB6B" stroke="#423F3B"/>
<path d="M25.3048 433.222L11.6394 409.314L25.3048 385.405L52.6268 385.405L66.2922 409.314L52.6268 433.222H25.3048Z" fill="#423F3B" stroke="#423F3B"/>
<path d="M25.3114 384.417L11.646 360.509L25.3114 336.6L52.6334 336.6L66.2988 360.509L52.6334 384.417H25.3114Z" fill="#FFBB6B" stroke="#423F3B"/>
<path d="M67.1651 360.009L53.4997 336.1L67.1651 312.192L94.4872 312.192L108.153 336.1L94.4872 360.009H67.1651Z" fill="#423F3B" stroke="#423F3B"/>
<path d="M110.019 335.6L96.3533 311.691L110.019 287.783L137.341 287.783L151.006 311.691L137.341 335.6H110.019Z" fill="#689773" stroke="#423F3B"/>
<path d="M150.872 311.191L137.207 287.283L150.872 263.375L178.194 263.375L191.86 287.283L178.194 311.191H150.872Z" fill="#FFBB6B" stroke="#423F3B"/>
<path d="M68.1583 408.814L54.4929 384.905L68.1583 360.997L95.4803 360.997L109.146 384.905L95.4803 408.814H68.1583Z" fill="#689773" stroke="#423F3B"/>
<path d="M110.012 384.405L96.3464 360.496L110.012 336.588L137.334 336.588L150.999 360.496L137.334 384.405H110.012Z" fill="#689773" stroke="#423F3B"/>
<path d="M150.865 359.997L137.2 336.088L150.865 312.18L178.187 312.18L191.853 336.088L178.187 359.997H150.865Z" fill="#423F3B" stroke="#423F3B"/>
<path d="M25.304 482.04L11.6387 458.131L25.304 434.223L52.6261 434.223L66.2915 458.131L52.6261 482.04H25.304Z" fill="#FFBB6B" stroke="#423F3B"/>
<path d="M67.1505 506.436L53.4851 482.528L67.1505 458.619L94.4725 458.619L108.138 482.528L94.4725 506.436H67.1505Z" fill="#423F3B" stroke="#423F3B"/>
<path d="M67.1573 457.631L53.4919 433.723L67.1573 409.814L94.4794 409.814L108.145 433.723L94.4794 457.631H67.1573Z" fill="#FFBB6B" stroke="#423F3B"/>
<path d="M109.011 433.223L95.3457 409.314L109.011 385.406L136.333 385.406L149.998 409.314L136.333 433.223H109.011Z" fill="#423F3B" stroke="#423F3B"/>
<path d="M150.864 408.814L137.199 384.906L150.864 360.997L178.186 360.997L191.852 384.906L178.186 408.814H150.864Z" fill="#FFBB6B" stroke="#423F3B"/>
<path d="M110.004 482.028L96.3386 458.119L110.004 434.211L137.326 434.211L150.991 458.119L137.326 482.028H110.004Z" fill="#689773" stroke="#423F3B"/>
<path d="M150.858 457.619L137.192 433.711L150.858 409.802L178.18 409.802L191.845 433.711L178.18 457.619H150.858Z" fill="#FFBB6B" stroke="#423F3B"/>
<path d="M67.1016 555.168L53.4363 531.259L67.1016 507.351L94.4237 507.351L108.089 531.259L94.4237 555.168H67.1016Z" fill="#FFBB6B" stroke="#423F3B"/>
<path d="M68.0948 603.973L54.4294 580.064L68.0948 556.156L95.4169 556.156L109.082 580.064L95.4169 603.973H68.0948Z" fill="#689773" stroke="#423F3B"/>
<path d="M108.948 579.564L95.2829 555.656L108.948 531.747L136.27 531.747L149.936 555.656L136.27 579.564H108.948Z" fill="#423F3B" stroke="#423F3B"/>
<path d="M136.278 482.944L108.952 482.944L95.2886 506.849L108.954 530.757L136.28 530.757L149.944 506.852L136.278 482.944Z" fill="#FFBB6B" stroke="#423F3B"/>
<path d="M150.809 506.35L137.143 482.442L150.809 458.533L178.131 458.533L191.796 482.442L178.131 506.35H150.809Z" fill="#423F3B" stroke="#423F3B"/>
<path d="M151.802 555.156L138.136 531.247L151.802 507.339L179.124 507.339L192.789 531.247L179.124 555.156H151.802Z" fill="#689773" stroke="#423F3B"/>
<path d="M67.1209 652.775L53.4555 628.866L67.1209 604.958L94.443 604.958L108.108 628.866L94.443 652.775H67.1209Z" fill="#423F3B" stroke="#423F3B"/>
<path d="M108.974 628.366L95.3091 604.458L108.974 580.549L136.297 580.549L149.962 604.458L136.297 628.366H108.974Z" fill="#FFBB6B" stroke="#423F3B"/>
<path d="M387.277 483.032L400.942 506.941L387.277 530.849H359.955L346.289 506.941L359.955 483.032L387.277 483.032Z" fill="#FFBB6B" stroke="#423F3B"/>
<path d="M387.326 531.764L400.991 555.672L387.326 579.581H360.003L346.338 555.672L360.003 531.764L387.326 531.764Z" fill="#423F3B" stroke="#423F3B"/>
<path d="M388.333 580.569L401.998 604.477L388.333 628.386H361.011L347.345 604.477L361.011 580.569L388.333 580.569Z" fill="#689773" stroke="#423F3B"/>
<path d="M26.2969 530.845L12.6316 506.936L26.2969 483.028L53.619 483.028L67.2844 506.936L53.619 530.845H26.2969Z" fill="#689773" stroke="#423F3B"/>
<path d="M109.955 530.759L96.2898 506.85L109.955 482.942L137.277 482.942L150.943 506.85L137.277 530.759H109.955Z" fill="#689773" stroke="#423F3B"/>
<path d="M25.2481 579.576L11.5827 555.668L25.2481 531.759L52.5702 531.759L66.2356 555.668L52.5702 579.576H25.2481Z" fill="#423F3B" stroke="#423F3B"/>
<path d="M26.2413 628.381L12.5759 604.473L26.2413 580.564L53.5634 580.564L67.2287 604.473L53.5634 628.381H26.2413Z" fill="#689773" stroke="#423F3B"/>
<path d="M234.431 604.95L261.753 604.95L275.418 628.859L261.753 652.767H234.431L220.765 628.859L234.431 604.95Z" fill="#423F3B" stroke="#423F3B"/>
<path d="M150.821 652.763L137.156 628.854L150.821 604.946L178.143 604.946L191.809 628.854L178.143 652.763H150.821Z" fill="#423F3B" stroke="#423F3B"/>
<path d="M201.444 536.455C201.137 536.737 200.546 536.926 200.05 536.926C199.388 536.926 199.034 537.114 198.373 537.821C196.53 539.752 194.9 543.851 194.64 547.172C194.545 548.562 194.38 549.175 194.073 549.481C193.719 549.811 193.671 550.117 193.766 551.012C194.002 553.038 194.829 557.537 194.994 557.702C195.089 557.772 195.372 557.89 195.609 557.937C195.987 557.984 196.152 558.338 196.388 559.727C196.577 560.67 196.979 562.036 197.286 562.766C198.278 564.98 198.065 565.663 196.388 565.663C195.963 565.663 194.994 565.946 194.215 566.252C193.435 566.582 192.608 566.841 192.396 566.841C192.183 566.841 190.506 566.252 188.663 565.522C186.844 564.815 184.529 564.062 183.56 563.873C180.064 563.214 176.544 563.543 172.882 564.862L171.181 565.475L169.22 565.004C168.157 564.745 166.126 564.462 164.684 564.368C162.487 564.25 161.613 564.062 159.015 563.214C157.337 562.648 155.14 562.059 154.172 561.894C153.203 561.753 151.03 561.306 149.329 560.905C146.447 560.246 146.045 560.198 142.832 560.316L139.383 560.434L138.769 559.091C137.942 557.348 136.312 555.723 134.398 554.781C133.099 554.145 132.508 554.003 130.784 553.933C129.012 553.839 128.587 553.909 127.571 554.38C126.933 554.663 126.224 554.993 126.012 555.087C125.752 555.205 124.972 554.946 123.72 554.31C119.94 552.402 116.326 552.92 113.136 555.841C109.427 559.233 108.955 564.815 112.002 568.937C114.578 572.447 118.995 573.696 122.492 571.905C123.909 571.199 124.949 571.246 126.059 572.023C130.122 574.873 134.682 574.12 137.729 570.068C138.107 569.597 138.532 569.197 138.674 569.197C138.84 569.197 139.336 569.573 139.785 570.045C140.21 570.516 141.202 571.34 141.934 571.905C143.635 573.177 145.124 573.531 150.628 574.025C154.219 574.332 154.88 574.473 156.605 575.18C157.668 575.604 159.345 576.192 160.29 576.475C161.259 576.781 162.511 577.323 163.078 577.7C165.228 579.184 168.96 579.985 174.465 580.197L178.316 580.338L178.623 581.068C178.788 581.469 179.213 583.071 179.544 584.625C180.678 589.855 181.08 591.268 182.474 595.013C183.3 597.227 184.363 599.559 185.072 600.737C187.033 603.917 187.246 604.647 187.954 610.96C188.12 612.397 188.12 613.857 187.931 615.789C187.718 617.909 187.742 619.393 187.978 622.267C188.261 625.965 188.261 626.012 187.624 629.215C187.269 630.982 186.631 633.809 186.183 635.505C185.19 639.25 185.119 639.815 184.08 648.931C183.607 652.936 183.182 656.634 183.088 657.105L182.946 658H205.649C218.146 658 228.352 657.953 228.352 657.882C228.352 657.835 228.139 656.469 227.903 654.891C227.643 653.289 227.383 650.721 227.289 649.167C227.194 647.612 227.052 645.963 226.934 645.516C226.816 645.068 226.604 643.631 226.462 642.336C226.226 640.027 224.525 631.971 223.627 628.65C223.036 626.554 223.036 625.706 223.651 623.091C224.029 621.442 224.123 620.547 224.005 619.063C223.934 618.003 223.816 615.271 223.721 613.009C223.603 609.358 223.651 608.605 224.099 606.414C224.383 605.048 225.044 602.928 225.564 601.703C229.368 592.799 230.549 589.784 231.447 586.58C232.273 583.612 233.195 581.304 233.809 580.644C234.092 580.338 234.612 580.173 235.486 580.126C242.574 579.702 245.196 579.514 246.283 579.302C246.991 579.16 248.834 578.454 250.417 577.747C255.614 575.392 257.41 574.85 260.717 574.591C267.521 574.073 269.363 573.437 273.002 570.351C276.167 567.665 276.073 567.713 277.821 568.49C279.687 569.338 281.931 569.738 283.632 569.55C284.908 569.409 285.003 569.432 286.491 570.445C288.523 571.835 289.94 572.306 292.161 572.306C294.287 572.329 295.988 571.811 297.736 570.681C302.201 567.736 303.406 560.717 300.169 556.288C298.728 554.286 295.775 552.943 292.869 552.943C290.909 552.943 290.436 552.779 289.113 551.695C288.57 551.224 287.247 550.517 286.16 550.117C284.412 549.434 284.034 549.363 282.286 549.457C280.75 549.528 280.089 549.693 278.86 550.305C276.947 551.247 275.08 553.061 274.183 554.922C273.568 556.171 273.356 556.924 272.86 559.68C272.813 559.963 272.576 560.269 272.364 560.363C272.127 560.458 270.19 560.575 268.04 560.599C263.056 560.693 259.607 561.282 255.118 562.837C251.527 564.062 248.574 564.603 246.802 564.368C246.117 564.297 245.243 564.368 244.416 564.603C241.936 565.31 241.416 565.286 238.51 564.368C233.762 562.837 231.423 562.978 225.493 565.145C220.438 566.982 220.343 567.006 218.642 566.37C217.839 566.064 216.327 565.64 215.288 565.451C212.878 564.98 212.713 564.745 213.516 562.907C213.846 562.154 214.248 560.882 214.437 560.128C214.65 559.068 214.933 558.526 215.524 557.984C215.996 557.513 216.303 557.018 216.303 556.642C216.303 556.312 216.445 555.417 216.634 554.663C216.823 553.909 217.036 552.543 217.107 551.601C217.248 550.07 217.201 549.881 216.776 549.646C216.374 549.434 216.303 549.151 216.303 547.691C216.303 545.853 215.855 543.78 215.169 542.461C214.555 541.26 211.39 538.127 210.161 537.515C208.72 536.808 206.972 536.455 204.728 536.455C203.712 536.455 202.79 536.337 202.719 536.219C202.507 535.866 202.082 535.936 201.444 536.455Z" fill="#ED706B"/>
<rect x="178" y="629" width="58" height="36" fill="#423F3B"/>
</svg>
