<svg width="412" height="760" viewBox="0 0 412 760" fill="none" xmlns="http://www.w3.org/2000/svg">
<rect width="412" height="760" fill="#423F3B"/>
<path d="M317.839 160.95L345.161 160.95L358.826 184.859L345.161 208.767H317.839L304.173 184.859L317.839 160.95Z" fill="#689773" stroke="#423F3B"/>
<path d="M317.812 209.752L345.134 209.752L358.8 233.661L345.134 257.569H317.812L304.147 233.661L317.812 209.752Z" fill="#FF6666" stroke="#423F3B"/>
<path d="M275.959 185.344L303.281 185.344L316.946 209.252L303.281 233.16H275.959L262.293 209.252L275.959 185.344Z" fill="#689773" stroke="#423F3B"/>
<path d="M317.819 258.557L345.141 258.557L358.806 282.466L345.141 306.374H317.819L304.154 282.466L317.819 258.557Z" fill="#FF6666" stroke="#423F3B"/>
<path d="M275.966 234.149L303.288 234.149L316.953 258.057L303.288 281.966H275.966L262.3 258.057L275.966 234.149Z" fill="#FF6666" stroke="#423F3B"/>
<path d="M234.112 209.74L261.434 209.74L275.099 233.649L261.434 257.557H234.112L220.447 233.649L234.112 209.74Z" fill="#689773" stroke="#423F3B"/>
<path d="M192.308 234.063L219.63 234.063L233.295 257.971L219.63 281.88H192.308L178.642 257.971L192.308 234.063Z" fill="#689773" stroke="#423F3B"/>
<path d="M317.868 307.289L345.19 307.289L358.856 331.197L345.19 355.106H317.868L304.203 331.197L317.868 307.289Z" fill="#FF6666" stroke="#423F3B"/>
<path d="M276.015 282.88L303.337 282.88L317.002 306.788L303.337 330.697H276.015L262.349 306.788L276.015 282.88Z" fill="#FF6666" stroke="#423F3B"/>
<path d="M234.161 258.471L261.483 258.471L275.149 282.38L261.483 306.288H234.161L220.496 282.38L234.161 258.471Z" fill="#689773" stroke="#423F3B"/>
<path d="M276.021 331.685L303.343 331.685L317.009 355.594L303.344 379.502H276.021L262.356 355.594L276.021 331.685Z" fill="#FF6666" stroke="#423F3B"/>
<path d="M234.168 307.276L261.49 307.276L275.155 331.185L261.49 355.093H234.168L220.503 331.185L234.168 307.276Z" fill="#FF6666" stroke="#423F3B"/>
<path d="M192.314 282.868L219.636 282.868L233.302 306.776L219.636 330.685H192.314L178.649 306.776L192.314 282.868Z" fill="#689773" stroke="#423F3B"/>
<path d="M234.169 356.094L261.491 356.094L275.156 380.003L261.491 403.911H234.169L220.503 380.003L234.169 356.094Z" fill="#FF6666" stroke="#423F3B"/>
<path d="M192.315 331.686L219.637 331.686L233.303 355.594L219.637 379.502H192.315L178.65 355.594L192.315 331.686Z" fill="#FF6666" stroke="#423F3B"/>
<path d="M234.176 404.899L261.498 404.899L275.163 428.808L261.498 452.716H234.176L220.51 428.808L234.176 404.899Z" fill="#689773" stroke="#423F3B"/>
<path d="M192.322 380.491L219.644 380.491L233.31 404.399L219.644 428.308H192.322L178.657 404.399L192.322 380.491Z" fill="#FF6666" stroke="#423F3B"/>
<path d="M234.225 453.631L261.547 453.631L275.212 477.539L261.547 501.448H234.225L220.559 477.539L234.225 453.631Z" fill="#689773" stroke="#423F3B"/>
<path d="M192.371 429.222L219.693 429.222L233.358 453.13L219.693 477.039H192.371L178.706 453.13L192.371 429.222Z" fill="#689773" stroke="#423F3B"/>
<path d="M192.378 478.027L219.7 478.027L233.366 501.935L219.7 525.844H192.378L178.713 501.935L192.378 478.027Z" fill="#689773" stroke="#423F3B"/>
<path d="M108.793 428.315L95.1272 404.407L108.793 380.498L136.115 380.498L149.78 404.407L136.115 428.315H108.793Z" fill="#FF6666" stroke="#423F3B"/>
<path d="M150.646 403.907L136.98 379.998L150.646 356.09L177.968 356.09L191.633 379.998L177.968 403.907H150.646Z" fill="#FF6666" stroke="#423F3B"/>
<path d="M108.785 477.12L95.1201 453.212L108.785 429.303L136.108 429.303L149.773 453.212L136.108 477.12H108.785Z" fill="#FF6666" stroke="#423F3B"/>
<path d="M150.639 452.712L136.974 428.803L150.639 404.895L177.961 404.895L191.627 428.803L177.961 452.712H150.639Z" fill="#FF6666" stroke="#423F3B"/>
<path d="M66.8831 550.26L53.2178 526.351L66.8831 502.443L94.2052 502.443L107.871 526.351L94.2052 550.26H66.8831Z" fill="#689773" stroke="#423F3B"/>
<path d="M66.8763 599.065L53.2109 575.157L66.8763 551.248L94.1984 551.248L107.864 575.157L94.1984 599.065H66.8763Z" fill="#689773" stroke="#423F3B"/>
<path d="M108.73 574.656L95.0644 550.748L108.73 526.839L136.052 526.839L149.717 550.748L136.052 574.656H108.73Z" fill="#689773" stroke="#423F3B"/>
<path d="M136.06 478.036L108.733 478.036L95.0701 501.941L108.736 525.849L136.062 525.849L149.725 501.945L136.06 478.036Z" fill="#FF6666" stroke="#423F3B"/>
<path d="M150.59 501.443L136.925 477.534L150.59 453.626L177.912 453.626L191.578 477.534L177.912 501.443H150.59Z" fill="#689773" stroke="#423F3B"/>
<path d="M150.583 550.248L136.918 526.339L150.583 502.431L177.905 502.431L191.571 526.339L177.905 550.248H150.583Z" fill="#689773" stroke="#423F3B"/>
<path d="M66.9024 647.867L53.237 623.959L66.9024 600.05L94.2245 600.05L107.89 623.959L94.2245 647.867H66.9024Z" fill="#729676" stroke="#423F3B"/>
<path d="M108.756 623.458L95.0906 599.55L108.756 575.641L136.078 575.641L149.743 599.55L136.078 623.458H108.756Z" fill="#FF6666" stroke="#423F3B"/>
<path d="M150.609 599.05L136.944 575.141L150.609 551.233L177.932 551.233L191.597 575.141L177.932 599.05H150.609Z" fill="#FF6666" stroke="#423F3B"/>
<path d="M108.737 525.851L95.0713 501.943L108.737 478.034L136.059 478.034L149.724 501.943L136.059 525.851H108.737Z" fill="#689773" stroke="#423F3B"/>
<path d="M351.384 592.175C348.084 592.666 345.962 594.8 345.962 597.66V598.791L344.847 599.345C341.868 600.839 341.375 601.565 342.425 602.803C343.111 603.613 344.076 603.805 345.447 603.379C346.026 603.208 346.519 603.059 346.54 603.059C346.54 603.059 346.519 603.443 346.455 603.912C346.305 605 346.626 605.406 347.698 605.406C348.276 605.406 348.598 605.534 348.812 605.854C348.984 606.089 349.455 606.452 349.841 606.644C350.441 606.942 350.655 607.262 351.106 608.5C351.791 610.442 352.113 610.954 352.563 610.954C352.756 610.933 353.613 610.314 354.428 609.567C355.263 608.799 356.078 608.18 356.271 608.18C356.657 608.18 358.35 609.247 358.864 609.802C359.207 610.207 359.186 610.293 358.114 612.021L357 613.835L356.978 617.484C356.978 619.469 356.892 621.219 356.828 621.347C356.742 621.475 356.035 621.837 355.242 622.157C354.428 622.456 353.056 623.139 352.156 623.673C350.977 624.355 349.991 624.74 348.577 625.038C347.526 625.273 346.09 625.614 345.404 625.785C343.025 626.404 341.954 626.148 340.239 624.59C339.725 624.121 339.253 623.758 339.146 623.758C339.039 623.758 338.546 624.057 338.032 624.419L337.131 625.081L335.91 624.547C334.067 623.715 332.331 623.459 329.609 623.609C324.315 623.886 317.221 626.724 310.234 631.355C304.425 635.217 301.018 638.205 290.065 649.045C285.072 653.975 280.914 658.029 280.807 658.072C280.571 658.157 276.67 656.023 274.913 654.85C274.205 654.38 271.998 652.844 270.026 651.435C265.632 648.32 262.567 646.549 259.095 645.14C252.987 642.622 246.879 641.406 239.227 641.15C234.919 641 234.234 641.107 234.126 641.982C234.084 642.323 234.126 642.665 234.234 642.771C234.341 642.878 236.291 643.006 238.584 643.049C245.207 643.22 250.179 644.03 255.473 645.844C260.81 647.658 263.06 648.896 269.662 653.527C272.191 655.319 275.341 657.389 276.627 658.115C277.935 658.861 279.028 659.502 279.071 659.544C279.135 659.587 278.749 659.971 278.235 660.419C268.183 669.062 258.195 673.65 246.536 674.994C244.5 675.207 242.699 675.208 235.284 674.909C234.384 674.866 234.212 674.93 234.062 675.357C233.783 676.082 234.448 676.616 235.948 676.829C236.634 676.915 239.356 677 242.014 677C246.086 676.979 247.265 676.915 249.622 676.488C260.488 674.567 269.169 670.47 278.02 663.087C279.113 662.169 280.292 661.209 280.614 660.931L281.214 660.441L282.028 660.846C283.464 661.572 288.972 663.599 291.373 664.303C298.981 666.48 307.062 667.483 312.291 666.885C319.042 666.096 322.707 663.855 331.945 654.892C336.188 650.774 338.653 648.682 341.118 647.125L342.361 646.335L343.004 647.103C343.668 647.914 344.119 648.064 344.311 647.551C344.419 647.317 344.804 647.253 346.005 647.295C348.169 647.359 348.984 646.89 349.262 645.439L349.434 644.415L350.548 644.564C351.148 644.649 352.327 644.948 353.142 645.247C355.328 646.036 355.949 646.1 356.228 645.546C356.399 645.247 356.421 644.969 356.271 644.692C355.992 644.201 354.363 643.497 352.456 643.028C351.641 642.835 350.848 642.643 350.677 642.601C350.313 642.494 350.741 642.195 353.613 640.488C357.321 638.311 359.764 635.217 361.179 630.949C361.522 629.904 361.865 629.285 362.401 628.815C362.829 628.431 363.558 627.748 364.029 627.258L364.908 626.383L367.287 628.175C370.245 630.437 371.895 631.824 371.895 632.102C371.895 632.464 370.566 633.126 367.394 634.342C365.68 635.004 363.022 636.156 361.479 636.882C358.328 638.397 357.385 639.229 356.764 641.107C356.078 643.134 356.314 643.945 359.379 649.899C360.879 652.822 362.765 656.322 363.579 657.666C366.366 662.233 367.18 664.218 366.73 665.242C366.13 666.522 361.136 669.339 358.843 669.681C356.785 670.001 356.399 670.171 356.592 670.769C357.021 672.135 358.371 673.074 359.957 673.095C360.45 673.116 361.929 673.01 363.215 672.86C364.522 672.732 366.451 672.625 367.502 672.625C369.345 672.647 369.409 672.647 368.83 672.967C367.223 673.842 368.852 674.034 378.989 674.141L385.441 674.226L385.955 673.628C386.791 672.647 386.619 671.537 384.991 667.76C384.24 666.031 383.533 663.556 382.697 659.608C382.247 657.538 382.097 656.087 381.99 653.1C381.861 649.301 381.861 649.237 381.176 647.85C380.79 647.061 380.468 646.335 380.468 646.186C380.468 645.908 380.875 645.823 383.683 645.524C391.87 644.649 397.207 642.195 398.322 638.802C398.9 637.074 399.157 634.684 398.9 633.403C398.45 631.035 397.571 629.946 393.028 626.319C386.941 621.453 382.654 615.969 380.447 610.271C379.568 607.988 379.439 607.775 377.896 606.259C375.089 603.485 372.731 602.61 368.23 602.696C365.83 602.738 365.765 602.717 364.179 601.97C362.165 601.01 360.15 599.217 359.529 597.788C359.271 597.233 358.821 596.23 358.543 595.59C357.878 594.075 356.807 592.858 355.714 592.367C354.813 591.941 353.356 591.898 351.384 592.175H351.384ZM333.252 625.678C334.838 626.02 335.01 626.191 334.41 626.831C334.002 627.258 333.959 627.428 334.152 627.791C334.302 628.047 334.538 628.239 334.71 628.239C334.881 628.239 335.031 628.495 335.074 628.815C335.117 629.242 335.267 629.434 335.631 629.477C335.996 629.541 336.103 629.669 336.06 630.01C336.017 630.352 336.124 630.501 336.467 630.544C336.767 630.587 336.96 630.779 337.003 631.077C337.067 631.504 337.217 631.547 338.503 631.611L339.961 631.675L340.368 633.105C340.604 633.894 340.904 634.94 341.032 635.409C341.161 635.985 341.397 636.327 341.654 636.412C342.19 636.54 342.961 636.007 342.961 635.516C342.961 635.132 342.254 632.251 341.997 631.611C341.89 631.333 342.018 631.227 342.79 631.141C344.183 630.949 352.82 630.885 352.82 631.056C352.82 631.141 352.499 631.718 352.091 632.336C351.706 632.955 351.213 633.937 351.02 634.534C350.484 636.113 350.313 636.37 348.148 638.568C346.798 639.955 345.919 640.659 345.362 640.851C344.333 641.171 343.69 641.747 342.918 643.113C342.425 643.988 341.997 644.393 340.754 645.119C337.624 646.954 335.267 648.939 329.566 654.508C325.001 658.968 321.464 661.764 318.549 663.236C311.82 666.608 298.639 665.391 285.457 660.184L282.693 659.117L290.173 651.649C301.318 640.531 305.197 637.074 310.919 633.233C316.406 629.52 322.279 626.852 327.122 625.785C328.773 625.444 331.838 625.38 333.252 625.678H333.252ZM367.523 646.484C368.08 647.231 368.123 647.231 369.516 647.189L370.931 647.125L371.617 649.109C372.474 651.585 373.46 653.697 374.146 654.529C374.853 655.362 376.096 657.581 376.503 658.755C376.932 659.928 377.682 663.343 377.682 664.047C377.682 664.708 375.839 666.97 375.067 667.269C374.531 667.461 374.403 667.397 373.738 666.629C372.86 665.605 371.424 661.657 370.802 658.541C369.752 653.398 368.016 648.341 366.751 646.762C366.001 645.844 365.98 645.738 366.516 645.738C366.751 645.738 367.201 646.079 367.523 646.484V646.484Z" fill="#FF6666"/>
</svg>
