<svg width="412" height="760" viewBox="0 0 412 760" fill="none" xmlns="http://www.w3.org/2000/svg">
<g clip-path="url(#clip0_60_990)">
<rect width="412" height="760" fill="#423F3B"/>
<path d="M328.299 715.739C300.919 890.381 333.213 552.812 348.623 457.731C364.034 362.651 326.464 305.092 325.551 236.944C324.114 129.725 370.229 42.0001 370.229 42.0001C370.229 42.0001 376.455 244.769 354.633 342.095C339.722 408.598 418.62 304.614 403.209 399.694C387.798 494.774 355.679 541.097 328.299 715.739Z" fill="#689773"/>
<path d="M328.299 715.739C300.919 890.381 333.213 552.812 348.623 457.731C364.034 362.651 326.464 305.092 325.551 236.944C324.114 129.725 370.229 42.0001 370.229 42.0001C370.229 42.0001 376.455 244.769 354.633 342.095C339.722 408.598 418.62 304.614 403.209 399.694C387.798 494.774 355.679 541.097 328.299 715.739Z" fill="#689773"/>
<path d="M328.299 715.739C300.919 890.381 333.213 552.812 348.623 457.731C364.034 362.651 326.464 305.092 325.551 236.944C324.114 129.725 370.229 42.0001 370.229 42.0001C370.229 42.0001 376.455 244.769 354.633 342.095C339.722 408.598 418.62 304.614 403.209 399.694C387.798 494.774 355.679 541.097 328.299 715.739Z" fill="#689773"/>
<path d="M328.299 715.739C300.919 890.381 333.213 552.812 348.623 457.731C364.034 362.651 326.464 305.092 325.551 236.944C324.114 129.725 370.229 42.0001 370.229 42.0001C370.229 42.0001 376.455 244.769 354.633 342.095C339.722 408.598 418.62 304.614 403.209 399.694C387.798 494.774 355.679 541.097 328.299 715.739Z" fill="#689773"/>
<path d="M328.299 715.739C300.919 890.381 333.213 552.812 348.623 457.731C364.034 362.651 326.464 305.092 325.551 236.944C324.114 129.725 370.229 42.0001 370.229 42.0001C370.229 42.0001 376.455 244.769 354.633 342.095C339.722 408.598 418.62 304.614 403.209 399.694C387.798 494.774 355.679 541.097 328.299 715.739Z" fill="#689773"/>
<path d="M328.299 715.739C300.919 890.381 333.213 552.812 348.623 457.731C364.034 362.651 326.464 305.092 325.551 236.944C324.114 129.725 370.229 42.0001 370.229 42.0001C370.229 42.0001 376.455 244.769 354.633 342.095C339.722 408.598 418.62 304.614 403.209 399.694C387.798 494.774 355.679 541.097 328.299 715.739Z" fill="#689773"/>
<path d="M328.299 715.739C300.919 890.381 333.213 552.812 348.623 457.731C364.034 362.651 326.464 305.092 325.551 236.944C324.114 129.725 370.229 42.0001 370.229 42.0001C370.229 42.0001 376.455 244.769 354.633 342.095C339.722 408.598 418.62 304.614 403.209 399.694C387.798 494.774 355.679 541.097 328.299 715.739Z" fill="#689773"/>
<path d="M87.1597 44.5802C95.6727 41.5833 95.3777 118.302 119.8 211.475C144.223 304.649 217.733 477.057 231.037 543.9C250.507 641.723 318.528 701.938 318.528 701.938C318.528 701.938 189.26 585.362 169.79 487.539C156.486 420.696 228.416 494.467 146.796 394.918C65.1763 295.368 78.6467 47.5771 87.1597 44.5802Z" fill="#D9D9D9"/>
<path d="M87.1597 44.5802C95.6727 41.5833 95.3777 118.302 119.8 211.475C144.223 304.649 217.733 477.057 231.037 543.9C250.507 641.723 318.528 701.938 318.528 701.938C318.528 701.938 189.26 585.362 169.79 487.539C156.486 420.696 228.416 494.467 146.796 394.918C65.1763 295.368 78.6467 47.5771 87.1597 44.5802Z" fill="#D9D9D9"/>
<path d="M87.1597 44.5802C95.6727 41.5833 95.3777 118.302 119.8 211.475C144.223 304.649 217.733 477.057 231.037 543.9C250.507 641.723 318.528 701.938 318.528 701.938C318.528 701.938 189.26 585.362 169.79 487.539C156.486 420.696 228.416 494.467 146.796 394.918C65.1763 295.368 78.6467 47.5771 87.1597 44.5802Z" fill="#D9D9D9"/>
<path d="M87.1597 44.5802C95.6727 41.5833 95.3777 118.302 119.8 211.475C144.223 304.649 217.733 477.057 231.037 543.9C250.507 641.723 318.528 701.938 318.528 701.938C318.528 701.938 189.26 585.362 169.79 487.539C156.486 420.696 228.416 494.467 146.796 394.918C65.1763 295.368 78.6467 47.5771 87.1597 44.5802Z" fill="#D9D9D9"/>
<path d="M87.1597 44.5802C95.6727 41.5833 95.3777 118.302 119.8 211.475C144.223 304.649 217.733 477.057 231.037 543.9C250.507 641.723 318.528 701.938 318.528 701.938C318.528 701.938 189.26 585.362 169.79 487.539C156.486 420.696 228.416 494.467 146.796 394.918C65.1763 295.368 78.6467 47.5771 87.1597 44.5802Z" fill="#D9D9D9"/>
<path d="M87.1597 44.5802C95.6727 41.5833 95.3777 118.302 119.8 211.475C144.223 304.649 217.733 477.057 231.037 543.9C250.507 641.723 318.528 701.938 318.528 701.938C318.528 701.938 189.26 585.362 169.79 487.539C156.486 420.696 228.416 494.467 146.796 394.918C65.1763 295.368 78.6467 47.5771 87.1597 44.5802Z" fill="#D9D9D9"/>
<path d="M87.1597 44.5802C95.6727 41.5833 95.3777 118.302 119.8 211.475C144.223 304.649 217.733 477.057 231.037 543.9C250.507 641.723 318.528 701.938 318.528 701.938C318.528 701.938 189.26 585.362 169.79 487.539C156.486 420.696 228.416 494.467 146.796 394.918C65.1763 295.368 78.6467 47.5771 87.1597 44.5802Z" fill="#D9D9D9"/>
<path d="M143.019 44.3636C136.365 36.0451 230.121 199.867 222.224 295.864C214.327 391.861 208.508 497.076 198.865 564.544C184.754 663.283 185.865 734.545 185.865 734.545C185.865 734.545 180.865 692.545 152.365 596.044C133.062 530.681 177.968 456.041 185.865 360.044C193.762 264.047 149.673 52.6821 143.019 44.3636Z" fill="#525266"/>
<path d="M143.019 44.3636C136.365 36.0451 230.121 199.867 222.224 295.864C214.327 391.861 208.508 497.076 198.865 564.544C184.754 663.283 185.865 734.545 185.865 734.545C185.865 734.545 180.865 692.545 152.365 596.044C133.062 530.681 177.968 456.041 185.865 360.044C193.762 264.047 149.673 52.6821 143.019 44.3636Z" fill="#525266"/>
<path d="M143.019 44.3636C136.365 36.0451 230.121 199.867 222.224 295.864C214.327 391.861 208.508 497.076 198.865 564.544C184.754 663.283 185.865 734.545 185.865 734.545C185.865 734.545 180.865 692.545 152.365 596.044C133.062 530.681 177.968 456.041 185.865 360.044C193.762 264.047 149.673 52.6821 143.019 44.3636Z" fill="#525266"/>
<path d="M143.019 44.3636C136.365 36.0451 230.121 199.867 222.224 295.864C214.327 391.861 208.508 497.076 198.865 564.544C184.754 663.283 185.865 734.545 185.865 734.545C185.865 734.545 180.865 692.545 152.365 596.044C133.062 530.681 177.968 456.041 185.865 360.044C193.762 264.047 149.673 52.6821 143.019 44.3636Z" fill="#525266"/>
<path d="M143.019 44.3636C136.365 36.0451 230.121 199.867 222.224 295.864C214.327 391.861 208.508 497.076 198.865 564.544C184.754 663.283 185.865 734.545 185.865 734.545C185.865 734.545 180.865 692.545 152.365 596.044C133.062 530.681 177.968 456.041 185.865 360.044C193.762 264.047 149.673 52.6821 143.019 44.3636Z" fill="#525266"/>
<path d="M143.019 44.3636C136.365 36.0451 230.121 199.867 222.224 295.864C214.327 391.861 208.508 497.076 198.865 564.544C184.754 663.283 185.865 734.545 185.865 734.545C185.865 734.545 180.865 692.545 152.365 596.044C133.062 530.681 177.968 456.041 185.865 360.044C193.762 264.047 149.673 52.6821 143.019 44.3636Z" fill="#525266"/>
<path d="M143.019 44.3636C136.365 36.0451 230.121 199.867 222.224 295.864C214.327 391.861 208.508 497.076 198.865 564.544C184.754 663.283 185.865 734.545 185.865 734.545C185.865 734.545 180.865 692.545 152.365 596.044C133.062 530.681 177.968 456.041 185.865 360.044C193.762 264.047 149.673 52.6821 143.019 44.3636Z" fill="#525266"/>
<path d="M203.833 83.067C217.414 -93.1858 211.729 245.877 203.833 341.874C195.936 437.871 279.505 476.81 269.863 544.278C255.751 643.017 278.888 758.604 278.888 758.604C278.888 758.604 223.933 605.223 238.045 506.484C247.687 439.016 144.283 423.245 152.179 327.248C160.076 231.251 190.252 259.32 203.833 83.067Z" fill="#FF6666"/>
<path d="M203.833 83.067C217.414 -93.1858 211.729 245.877 203.833 341.874C195.936 437.871 279.505 476.81 269.863 544.278C255.751 643.017 278.888 758.604 278.888 758.604C278.888 758.604 223.933 605.223 238.045 506.484C247.687 439.016 144.283 423.245 152.179 327.248C160.076 231.251 190.252 259.32 203.833 83.067Z" fill="#FF6666"/>
<path d="M203.833 83.067C217.414 -93.1858 211.729 245.877 203.833 341.874C195.936 437.871 279.505 476.81 269.863 544.278C255.751 643.017 278.888 758.604 278.888 758.604C278.888 758.604 223.933 605.223 238.045 506.484C247.687 439.016 144.283 423.245 152.179 327.248C160.076 231.251 190.252 259.32 203.833 83.067Z" fill="#FF6666"/>
<path d="M203.833 83.067C217.414 -93.1858 211.729 245.877 203.833 341.874C195.936 437.871 279.505 476.81 269.863 544.278C255.751 643.017 278.888 758.604 278.888 758.604C278.888 758.604 223.933 605.223 238.045 506.484C247.687 439.016 144.283 423.245 152.179 327.248C160.076 231.251 190.252 259.32 203.833 83.067Z" fill="#FF6666"/>
<path d="M203.833 83.067C217.414 -93.1858 211.729 245.877 203.833 341.874C195.936 437.871 279.505 476.81 269.863 544.278C255.751 643.017 278.888 758.604 278.888 758.604C278.888 758.604 223.933 605.223 238.045 506.484C247.687 439.016 144.283 423.245 152.179 327.248C160.076 231.251 190.252 259.32 203.833 83.067Z" fill="#FF6666"/>
<path d="M203.833 83.067C217.414 -93.1858 211.729 245.877 203.833 341.874C195.936 437.871 279.505 476.81 269.863 544.278C255.751 643.017 278.888 758.604 278.888 758.604C278.888 758.604 223.933 605.223 238.045 506.484C247.687 439.016 144.283 423.245 152.179 327.248C160.076 231.251 190.252 259.32 203.833 83.067Z" fill="#FF6666"/>
<path d="M203.833 83.067C217.414 -93.1858 211.729 245.877 203.833 341.874C195.936 437.871 279.505 476.81 269.863 544.278C255.751 643.017 278.888 758.604 278.888 758.604C278.888 758.604 223.933 605.223 238.045 506.484C247.687 439.016 144.283 423.245 152.179 327.248C160.076 231.251 190.252 259.32 203.833 83.067Z" fill="#FF6666"/>
<path d="M227.057 718.077C156.355 863.531 257.974 558.035 288.399 466.645C318.823 375.255 246.865 317.618 272.224 254.358C309.336 161.777 314.254 43.9999 314.254 43.9999C314.254 43.9999 331.289 206.036 294.177 298.616C268.818 361.877 249.78 433.936 219.355 525.326C188.931 616.716 297.759 572.623 227.057 718.077Z" fill="#FFBB6B"/>
<path d="M227.057 718.077C156.355 863.531 257.974 558.035 288.399 466.645C318.823 375.255 246.865 317.618 272.224 254.358C309.336 161.777 314.254 43.9999 314.254 43.9999C314.254 43.9999 331.289 206.036 294.177 298.616C268.818 361.877 249.78 433.936 219.355 525.326C188.931 616.716 297.759 572.623 227.057 718.077Z" fill="#FFBB6B"/>
<path d="M227.057 718.077C156.355 863.531 257.974 558.035 288.399 466.645C318.823 375.255 246.865 317.618 272.224 254.358C309.336 161.777 314.254 43.9999 314.254 43.9999C314.254 43.9999 331.289 206.036 294.177 298.616C268.818 361.877 249.78 433.936 219.355 525.326C188.931 616.716 297.759 572.623 227.057 718.077Z" fill="#FFBB6B"/>
<path d="M227.057 718.077C156.355 863.531 257.974 558.035 288.399 466.645C318.823 375.255 246.865 317.618 272.224 254.358C309.336 161.777 314.254 43.9999 314.254 43.9999C314.254 43.9999 331.289 206.036 294.177 298.616C268.818 361.877 249.78 433.936 219.355 525.326C188.931 616.716 297.759 572.623 227.057 718.077Z" fill="#FFBB6B"/>
<path d="M227.057 718.077C156.355 863.531 257.974 558.035 288.399 466.645C318.823 375.255 246.865 317.618 272.224 254.358C309.336 161.777 314.254 43.9999 314.254 43.9999C314.254 43.9999 331.289 206.036 294.177 298.616C268.818 361.877 249.78 433.936 219.355 525.326C188.931 616.716 297.759 572.623 227.057 718.077Z" fill="#FFBB6B"/>
<path d="M227.057 718.077C156.355 863.531 257.974 558.035 288.399 466.645C318.823 375.255 246.865 317.618 272.224 254.358C309.336 161.777 314.254 43.9999 314.254 43.9999C314.254 43.9999 331.289 206.036 294.177 298.616C268.818 361.877 249.78 433.936 219.355 525.326C188.931 616.716 297.759 572.623 227.057 718.077Z" fill="#FFBB6B"/>
<path d="M227.057 718.077C156.355 863.531 257.974 558.035 288.399 466.645C318.823 375.255 246.865 317.618 272.224 254.358C309.336 161.777 314.254 43.9999 314.254 43.9999C314.254 43.9999 331.289 206.036 294.177 298.616C268.818 361.877 249.78 433.936 219.355 525.326C188.931 616.716 297.759 572.623 227.057 718.077Z" fill="#FFBB6B"/>
<path d="M36.8439 55.7337C36.8445 155.801 59.9078 200.169 52.0112 296.166C44.1146 392.163 97.6535 493.198 88.011 560.666C73.8993 659.405 111.899 731.27 111.899 731.27C111.899 731.27 109.399 557.905 123.511 459.166C133.154 391.698 6.11444 344.164 14.011 248.167C21.9076 152.17 36.8433 -44.3333 36.8439 55.7337Z" fill="#FFE5A9"/>
<path d="M36.8439 55.7337C36.8445 155.801 59.9078 200.169 52.0112 296.166C44.1146 392.163 97.6535 493.198 88.011 560.666C73.8993 659.405 111.899 731.27 111.899 731.27C111.899 731.27 109.399 557.905 123.511 459.166C133.154 391.698 6.11444 344.164 14.011 248.167C21.9076 152.17 36.8433 -44.3333 36.8439 55.7337Z" fill="#FFE5A9"/>
<path d="M36.8439 55.7337C36.8445 155.801 59.9078 200.169 52.0112 296.166C44.1146 392.163 97.6535 493.198 88.011 560.666C73.8993 659.405 111.899 731.27 111.899 731.27C111.899 731.27 109.399 557.905 123.511 459.166C133.154 391.698 6.11444 344.164 14.011 248.167C21.9076 152.17 36.8433 -44.3333 36.8439 55.7337Z" fill="#FFE5A9"/>
<path d="M36.8439 55.7337C36.8445 155.801 59.9078 200.169 52.0112 296.166C44.1146 392.163 97.6535 493.198 88.011 560.666C73.8993 659.405 111.899 731.27 111.899 731.27C111.899 731.27 109.399 557.905 123.511 459.166C133.154 391.698 6.11444 344.164 14.011 248.167C21.9076 152.17 36.8433 -44.3333 36.8439 55.7337Z" fill="#FFE5A9"/>
<path d="M36.8439 55.7337C36.8445 155.801 59.9078 200.169 52.0112 296.166C44.1146 392.163 97.6535 493.198 88.011 560.666C73.8993 659.405 111.899 731.27 111.899 731.27C111.899 731.27 109.399 557.905 123.511 459.166C133.154 391.698 6.11444 344.164 14.011 248.167C21.9076 152.17 36.8433 -44.3333 36.8439 55.7337Z" fill="#FFE5A9"/>
<path d="M36.8439 55.7337C36.8445 155.801 59.9078 200.169 52.0112 296.166C44.1146 392.163 97.6535 493.198 88.011 560.666C73.8993 659.405 111.899 731.27 111.899 731.27C111.899 731.27 109.399 557.905 123.511 459.166C133.154 391.698 6.11444 344.164 14.011 248.167C21.9076 152.17 36.8433 -44.3333 36.8439 55.7337Z" fill="#FFE5A9"/>
<path d="M36.8439 55.7337C36.8445 155.801 59.9078 200.169 52.0112 296.166C44.1146 392.163 97.6535 493.198 88.011 560.666C73.8993 659.405 111.899 731.27 111.899 731.27C111.899 731.27 109.399 557.905 123.511 459.166C133.154 391.698 6.11444 344.164 14.011 248.167C21.9076 152.17 36.8433 -44.3333 36.8439 55.7337Z" fill="#FFE5A9"/>
<path d="M336.965 674.5C326.466 652.5 275.013 527.559 289.248 432.296C303.484 337.032 222.676 292.646 236.765 225.964C257.383 128.376 265.964 43.9999 265.964 43.9999C265.964 43.9999 286.583 103.911 265.965 201.499C251.876 268.181 322.2 403.236 307.965 498.499C293.729 593.763 347.464 696.499 336.965 674.5Z" fill="#C8E7E3"/>
<path d="M336.965 674.5C326.466 652.5 275.013 527.559 289.248 432.296C303.484 337.032 222.676 292.646 236.765 225.964C257.383 128.376 265.964 43.9999 265.964 43.9999C265.964 43.9999 286.583 103.911 265.965 201.499C251.876 268.181 322.2 403.236 307.965 498.499C293.729 593.763 347.464 696.499 336.965 674.5Z" fill="#C8E7E3"/>
<path d="M336.965 674.5C326.466 652.5 275.013 527.559 289.248 432.296C303.484 337.032 222.676 292.646 236.765 225.964C257.383 128.376 265.964 43.9999 265.964 43.9999C265.964 43.9999 286.583 103.911 265.965 201.499C251.876 268.181 322.2 403.236 307.965 498.499C293.729 593.763 347.464 696.499 336.965 674.5Z" fill="#C8E7E3"/>
<path d="M336.965 674.5C326.466 652.5 275.013 527.559 289.248 432.296C303.484 337.032 222.676 292.646 236.765 225.964C257.383 128.376 265.964 43.9999 265.964 43.9999C265.964 43.9999 286.583 103.911 265.965 201.499C251.876 268.181 322.2 403.236 307.965 498.499C293.729 593.763 347.464 696.499 336.965 674.5Z" fill="#C8E7E3"/>
<path d="M336.965 674.5C326.466 652.5 275.013 527.559 289.248 432.296C303.484 337.032 222.676 292.646 236.765 225.964C257.383 128.376 265.964 43.9999 265.964 43.9999C265.964 43.9999 286.583 103.911 265.965 201.499C251.876 268.181 322.2 403.236 307.965 498.499C293.729 593.763 347.464 696.499 336.965 674.5Z" fill="#C8E7E3"/>
<path d="M336.965 674.5C326.466 652.5 275.013 527.559 289.248 432.296C303.484 337.032 222.676 292.646 236.765 225.964C257.383 128.376 265.964 43.9999 265.964 43.9999C265.964 43.9999 286.583 103.911 265.965 201.499C251.876 268.181 322.2 403.236 307.965 498.499C293.729 593.763 347.464 696.499 336.965 674.5Z" fill="#C8E7E3"/>
<path d="M336.965 674.5C326.466 652.5 275.013 527.559 289.248 432.296C303.484 337.032 222.676 292.646 236.765 225.964C257.383 128.376 265.964 43.9999 265.964 43.9999C265.964 43.9999 286.583 103.911 265.965 201.499C251.876 268.181 322.2 403.236 307.965 498.499C293.729 593.763 347.464 696.499 336.965 674.5Z" fill="#C8E7E3"/>
</g>
<defs>
<clipPath id="clip0_60_990">
<rect width="412" height="760" fill="white"/>
</clipPath>
</defs>
</svg>
