<svg width="412" height="760" viewBox="0 0 412 760" fill="none" xmlns="http://www.w3.org/2000/svg">
<g clip-path="url(#clip0_56_2)">
<rect width="412" height="760" fill="#423F3B"/>
<path d="M85.2438 577.337C83.2299 578.063 80.4306 580.181 79.6049 581.633C78.6584 583.308 78.7188 584.659 80.0077 590.146C81.2563 595.451 81.1355 596.702 79.2626 597.65C78.4771 598.054 77.6313 598.155 71.2674 598.619L64.1584 599.143L63.2723 598.175C62.4466 597.247 62.4063 597.227 62.0237 597.549C61.5807 597.953 59.7279 598.054 58.8418 597.711C58.439 597.549 58.1571 597.61 57.573 597.912C57.1703 598.134 56.7272 598.316 56.5862 598.316C56.4452 598.316 55.9619 598.639 55.5189 599.042C55.0758 599.446 54.6529 599.748 54.5925 599.688C54.5522 599.627 54.2703 598.74 54.0084 597.731C51.9744 590.166 47.2619 584.821 41.0995 583.166C38.7633 582.521 34.6953 582.521 32.5002 583.146C25.6127 585.123 21.303 590.61 19.7724 599.264C19.6113 600.252 19.4703 601.422 19.4703 601.907C19.4703 602.613 19.3898 602.794 19.0273 602.956C18.4835 603.177 15.3016 603.702 13.328 603.884C12.5627 603.964 11.6565 604.146 11.3544 604.307C9.56202 605.215 9.54189 608.705 11.3342 609.572C11.9384 609.855 12.2808 609.855 15.2815 609.552C20.0946 609.048 19.7523 608.987 20.1551 610.44C20.6183 612.094 21.4037 613.647 23.2162 616.33C26.4585 621.111 29.0363 623.289 32.9835 624.5C35.7627 625.367 37.7967 625.448 42.9321 624.883C43.2946 624.843 43.355 625.024 43.5564 626.537C43.7779 628.333 43.9994 628.655 45.3085 629.2C45.6106 629.321 45.8522 629.543 45.8522 629.684C45.8522 629.825 45.2078 630.572 44.4425 631.359C42.0863 633.719 40.9383 636.684 40.9383 640.476C40.9383 642.131 41.039 642.917 41.4015 644.108C42.0258 646.165 43.1133 648.182 44.2814 649.453C45.1272 650.381 45.53 650.623 47.2217 651.269C48.289 651.692 49.8598 652.378 50.6855 652.782C52.78 653.831 53.1626 653.871 56.123 653.468C58.2577 653.185 58.7814 653.165 59.023 653.387C59.2848 653.589 59.3453 654.113 59.3453 655.989C59.3453 657.28 59.4459 659.681 59.5466 661.355C59.7682 664.885 59.6071 666.862 58.7209 671.24C58.0161 674.709 57.8348 675.173 57.0695 675.536C56.7473 675.698 56.3244 676.101 56.123 676.444C55.7001 677.13 54.9147 680.216 54.9147 681.144C54.9147 681.467 54.6529 682.234 54.3105 682.839C53.4848 684.412 53.505 685.199 54.4716 686.107C55.3779 686.974 57.1904 688.164 58.6202 688.79C60.3723 689.576 62.8091 689.98 65.689 690C68.1258 690 68.3876 689.96 69.4549 689.455C71.1265 688.669 71.8112 687.378 71.207 686.208C71.066 685.965 70.2202 684.997 69.3341 684.049C67.4209 682.052 67.1793 681.447 66.6959 677.453C66.5348 676.141 66.2529 674.427 66.0918 673.64C65.83 672.49 65.8098 671.925 65.9911 670.856C66.273 669.101 67.0383 666.721 68.1459 664.119C69.0924 661.9 69.5355 661.113 70.9251 659.217C72.3549 657.26 72.6973 656.11 72.6772 653.387C72.6772 651.632 72.7376 650.946 72.9792 650.583C73.2813 650.119 73.3015 650.119 75.5772 650.26L77.8931 650.401L79.0008 649.272C79.6049 648.646 80.491 647.88 80.9542 647.577C82.4646 646.548 86.573 644.491 86.8549 644.592C87.0764 644.672 86.9959 644.995 86.4521 646.105C86.0695 646.851 85.5056 648.344 85.2237 649.373C83.9952 653.77 81.5181 659.822 78.457 665.934C76.866 669.101 76.6042 669.525 76.1813 669.525C75.8994 669.525 75.5369 669.686 75.3355 669.868C74.7515 670.453 73.2813 673.761 72.8181 675.496C72.1334 678.098 72.4556 678.925 74.389 679.45C74.8522 679.591 77.9535 679.672 82.0014 679.692C88.3854 679.712 88.9695 679.752 90.5605 680.176C92.6146 680.7 94.6487 680.741 96.6625 680.297C99.6431 679.611 101.234 678.522 101.234 677.19C101.234 675.718 100.388 675.133 97.3472 674.588C92.6146 673.721 89.1306 671.825 87.882 669.424C87.1973 668.113 87.2778 666.318 88.1237 664.684C89.1507 662.666 90.7619 660.286 93.7021 656.413C95.8771 653.528 96.6827 652.257 98.1327 649.453C99.9653 645.863 100.992 644.188 102.261 642.716C103.832 640.92 104.275 638.56 103.772 634.667C103.59 633.295 103.308 631.923 103.147 631.621C102.422 630.189 100.65 629.261 97.4681 628.655C95.9375 628.373 95.0313 628.353 90.6611 628.494C83.7938 628.736 81.7598 628.716 81.498 628.454C81.3369 628.292 81.5181 628.03 82.2431 627.506C83.6931 626.457 86.6334 623.31 88.3452 621.01C89.1709 619.901 91.3861 616.996 93.2792 614.555C95.1722 612.114 97.1056 609.592 97.5688 608.947C98.0521 608.322 98.4952 607.797 98.5757 607.797C98.6563 607.797 99.6229 608.584 100.731 609.532C104.215 612.497 107.195 613.607 111.042 613.365C114.828 613.102 117.526 611.852 120.386 609.007C122.078 607.313 122.44 606.849 123.367 604.973C124.897 601.826 125.28 600.253 125.28 596.702C125.28 594.261 125.199 593.515 124.837 592.163C123.81 588.552 121.816 585.466 119.117 583.308C115.915 580.746 113.116 579.656 109.692 579.677C106.148 579.697 103.389 580.887 99.9452 583.913C97.9313 585.668 97.7702 585.668 97.5285 583.832C97.2868 582.178 97.0049 581.613 95.9577 580.665C92.675 577.7 88.1438 576.308 85.2438 577.337L85.2438 577.337ZM113.781 583.893C115.533 584.599 117.486 586.031 117.667 586.717C118.11 588.452 112.391 590.63 110.276 589.541C109.572 589.158 108.182 587.322 107.477 585.829C106.893 584.578 106.994 584.316 108.303 583.63C109.068 583.207 109.39 583.166 110.8 583.247C111.928 583.308 112.834 583.509 113.781 583.893V583.893ZM30.9495 589.521C31.2918 590.449 31.5536 593.737 31.3724 595.028C31.1307 596.682 30.7481 597.428 29.4793 598.679C28.3314 599.809 25.2904 601.745 24.646 601.745C24.2634 601.745 24.2432 601.644 24.3641 599.97C24.5252 597.448 25.4314 594.947 27.0023 592.668C27.7071 591.619 30.2245 589.037 30.5467 589.037C30.6675 589.037 30.8488 589.258 30.9495 589.521ZM47.1612 593.575C48.2689 595.129 49.1147 596.843 49.6585 598.598C49.9001 599.365 50.0612 600.01 50.0411 600.031C50.0008 600.071 48.9939 600.192 47.7654 600.313C46.5571 600.434 45.2078 600.595 44.805 600.656C44.08 600.757 44.0599 600.737 43.8585 599.99C43.7376 599.567 43.6369 598.76 43.6369 598.175C43.6369 596.4 44.5432 592.426 45.1071 591.699C45.3689 591.356 45.9932 591.921 47.1612 593.575V593.575ZM100.771 594.362C101.435 594.846 102.181 595.512 102.422 595.855L102.845 596.46L102.301 596.581C101.979 596.642 101.194 596.742 100.529 596.803C99.8646 596.884 99.1598 596.985 98.9382 597.045C98.5959 597.146 98.5757 597.025 98.6361 595.512C98.6966 594.322 98.7973 593.797 99.0188 593.676C99.4618 593.394 99.482 593.394 100.771 594.362H100.771ZM103.329 601.261C102.885 603.077 102.322 604.348 101.939 604.489C101.758 604.569 101.435 604.448 101.214 604.247C100.811 603.884 99.2202 600.858 99.2202 600.454C99.2202 600.172 103.248 599.506 103.51 599.748C103.61 599.809 103.53 600.495 103.329 601.261V601.261ZM120.507 600.051C121.151 600.232 121.232 600.716 120.789 602.007C119.782 604.953 118.07 607.131 115.915 608.2C114.304 609.028 113.781 609.007 113.398 608.079C112.894 606.849 112.814 605.497 113.217 604.065C114.002 601.12 115.512 599.93 118.433 599.93C119.339 599.93 120.265 599.99 120.507 600.051V600.051ZM92.7153 602.189C93.4806 602.996 93.9841 603.984 93.9841 604.65C93.9841 605.618 91.9903 607.696 91.507 607.212C91.0438 606.748 91.4466 601.544 91.95 601.544C92.0306 601.544 92.373 601.846 92.7153 602.189V602.189ZM50.4842 604.206C50.4842 605.356 50.2425 606.425 49.9606 606.526C49.5981 606.667 46.4564 604.287 46.6981 604.065C46.7786 603.964 49.1349 603.621 49.9404 603.581C50.4238 603.561 50.4842 603.621 50.4842 604.206ZM56.5057 605.316C57.5126 606.506 58.1369 607.716 58.1369 608.543C58.1369 608.967 57.855 609.552 57.2508 610.339C56.2237 611.751 54.371 613.566 54.1897 613.405C54.1293 613.324 54.3106 612.275 54.5925 611.065C54.9953 609.391 55.1161 608.362 55.1161 606.627C55.1161 603.984 55.2369 603.843 56.5057 605.316V605.316ZM36.6488 612.961C38.5217 613.587 40.2335 615.705 41.1196 618.428C41.5626 619.8 41.3613 620.203 40.012 620.486C35.8231 621.393 30.9293 619.578 30.4259 616.955C30.1439 615.442 31.1307 613.708 32.6613 613.022C33.6682 612.558 35.4002 612.538 36.6488 612.961V612.961Z" fill="#525266"/>
<path d="M394.959 700C239.749 681.788 392.676 452.618 316.974 356.625C241.271 260.632 159.203 278.566 101.659 213.964C17.4431 119.418 -39.0949 -19 -39.0949 -19C-39.0949 -19 10.2153 181.643 94.4308 276.188C151.975 340.791 196.762 312.233 272.465 408.226C348.168 504.22 239.749 681.788 394.959 700Z" fill="#FF6666"/>
<path d="M6.01454 74C161.224 92.1869 8.29705 321.038 83.9997 416.897C159.702 512.757 241.77 494.848 299.315 559.36C383.53 653.774 440.068 792 440.068 792C440.068 792 390.758 591.636 306.542 497.222C248.998 432.709 204.211 461.227 128.508 365.368C52.8056 269.508 161.224 92.1869 6.01454 74Z" fill="#FFE5A9"/>
</g>
<defs>
<clipPath id="clip0_56_2">
<rect width="412" height="760" fill="white"/>
</clipPath>
</defs>
</svg>
