<svg width="412" height="760" viewBox="0 0 412 760" fill="none" xmlns="http://www.w3.org/2000/svg">
<rect width="412" height="760" fill="#423F3B"/>
<path d="M359.855 64.5046L387.177 64.5046L400.842 88.4131L387.177 112.322H359.855L346.189 88.4131L359.855 64.5046Z" fill="#FFBB6B" stroke="#423F3B"/>
<path d="M359.904 113.236L387.226 113.236L400.891 137.144L387.226 161.053H359.904L346.238 137.144L359.904 113.236Z" fill="#D9D9D9" stroke="#423F3B"/>
<path d="M318.05 88.8271L345.372 88.8271L359.038 112.736L345.372 136.644H318.05L304.385 112.736L318.05 88.8271Z" fill="#FFBB6B" stroke="#423F3B"/>
<path d="M359.91 162.041L387.233 162.041L400.898 185.949L387.233 209.858H359.91L346.245 185.949L359.91 162.041Z" fill="#D9D9D9" stroke="#423F3B"/>
<path d="M276.203 113.224L303.526 113.224L317.191 137.132L303.526 161.041H276.203L262.538 137.132L276.203 113.224Z" fill="#D9D9D9" stroke="#423F3B"/>
<path d="M359.884 210.843L387.206 210.843L400.872 234.751L387.206 258.66H359.884L346.219 234.751L359.884 210.843Z" fill="#FFBB6B" stroke="#423F3B"/>
<path d="M276.177 162.026L303.499 162.026L317.165 185.934L303.499 209.843H276.177L262.512 185.934L276.177 162.026Z" fill="#FFBB6B" stroke="#423F3B"/>
<path d="M359.891 259.648L387.213 259.648L400.878 283.556L387.213 307.465H359.891L346.226 283.556L359.891 259.648Z" fill="#D9D9D9" stroke="#423F3B"/>
<path d="M276.184 210.831L303.506 210.831L317.171 234.739L303.506 258.648H276.184L262.519 234.739L276.184 210.831Z" fill="#FFBB6B" stroke="#423F3B"/>
<path d="M359.947 357.184L387.269 357.184L400.935 381.093L387.269 405.001H359.947L346.282 381.093L359.947 357.184Z" fill="#FFBB6B" stroke="#423F3B"/>
<path d="M359.94 308.379L387.262 308.379L400.928 332.288L387.262 356.196H359.94L346.275 332.288L359.94 308.379Z" fill="#D9D9D9" stroke="#423F3B"/>
<path d="M276.233 259.562L303.555 259.562L317.221 283.47L303.555 307.379H276.233L262.568 283.47L276.233 259.562Z" fill="#D9D9D9" stroke="#423F3B"/>
<path d="M318.094 332.776L345.416 332.776L359.081 356.684L345.416 380.593H318.094L304.428 356.684L318.094 332.776Z" fill="#D9D9D9" stroke="#423F3B"/>
<path d="M276.24 308.367L303.562 308.367L317.228 332.276L303.562 356.184H276.24L262.575 332.276L276.24 308.367Z" fill="#FFBB6B" stroke="#423F3B"/>
<path d="M234.387 283.958L261.709 283.958L275.374 307.867L261.709 331.775H234.387L220.721 307.867L234.387 283.958Z" fill="#D9D9D9" stroke="#423F3B"/>
<path d="M192.533 259.55L219.855 259.55L233.52 283.459L219.855 307.367H192.533L178.868 283.459L192.533 259.55Z" fill="#D9D9D9" stroke="#423F3B"/>
<path d="M359.948 406.002L387.27 406.002L400.935 429.91L387.27 453.819H359.948L346.282 429.91L359.948 406.002Z" fill="#FFBB6B" stroke="#423F3B"/>
<path d="M276.248 405.99L303.57 405.99L317.235 429.898L303.57 453.807H276.248L262.583 429.898L276.248 405.99Z" fill="#FFBB6B" stroke="#423F3B"/>
<path d="M234.394 381.582L261.716 381.582L275.382 405.49L261.716 429.398H234.394L220.729 405.49L234.394 381.582Z" fill="#D9D9D9" stroke="#423F3B"/>
<path d="M192.541 357.173L219.863 357.173L233.528 381.081L219.863 404.99H192.541L178.875 381.081L192.541 357.173Z" fill="#D9D9D9" stroke="#423F3B"/>
<path d="M276.297 503.526L303.619 503.526L317.284 527.435L303.619 551.343H276.297L262.631 527.435L276.297 503.526Z" fill="#D9D9D9" stroke="#423F3B"/>
<path d="M276.297 454.721L303.619 454.721L317.284 478.63L303.619 502.538H276.297L262.631 478.63L276.297 454.721Z" fill="#D9D9D9" stroke="#423F3B"/>
<path d="M234.443 430.313L261.765 430.313L275.431 454.221L261.765 478.13H234.443L220.778 454.221L234.443 430.313Z" fill="#FFBB6B" stroke="#423F3B"/>
<path d="M234.45 479.118L261.772 479.118L275.437 503.026L261.772 526.935H234.45L220.785 503.026L234.45 479.118Z" fill="#FFBB6B" stroke="#423F3B"/>
<path d="M276.277 552.328L303.599 552.328L317.265 576.237L303.599 600.145H276.277L262.612 576.237L276.277 552.328Z" fill="#D9D9D9" stroke="#423F3B"/>
<path d="M276.284 601.133L303.606 601.133L317.271 625.042L303.606 648.95H276.284L262.619 625.042L276.284 601.133Z" fill="#FFBB6B" stroke="#423F3B"/>
<path d="M234.43 576.725L261.753 576.725L275.418 600.633L261.753 624.542H234.43L220.765 600.633L234.43 576.725Z" fill="#FFBB6B" stroke="#423F3B"/>
<path d="M234.424 527.92L261.746 527.92L275.411 551.828L261.746 575.737H234.424L220.758 551.828L234.424 527.92Z" fill="#D9D9D9" stroke="#423F3B"/>
<path d="M318.186 674.273L345.508 674.273L359.174 698.181L345.508 722.09H318.186L304.521 698.181L318.186 674.273Z" fill="#D9D9D9" stroke="#423F3B"/>
<path d="M234.48 625.456L261.802 625.456L275.467 649.364L261.802 673.273H234.48L220.814 649.364L234.48 625.456Z" fill="#D9D9D9" stroke="#423F3B"/>
<path d="M234.487 674.261L261.809 674.261L275.474 698.169L261.809 722.078H234.487L220.821 698.169L234.487 674.261Z" fill="#D9D9D9" stroke="#423F3B"/>
<path d="M25.397 112.317L11.7317 88.4085L25.397 64.5L52.7191 64.5L66.3845 88.4085L52.7191 112.317H25.397Z" fill="#FFBB6B" stroke="#423F3B"/>
<path d="M25.348 161.048L11.6826 137.139L25.348 113.231L52.67 113.231L66.3354 137.139L52.67 161.048H25.348Z" fill="#FFBB6B" stroke="#423F3B"/>
<path d="M67.2017 136.639L53.5364 112.731L67.2017 88.8225L94.5238 88.8225L108.189 112.731L94.5238 136.639H67.2017Z" fill="#FFBB6B" stroke="#423F3B"/>
<path d="M25.3414 209.853L11.676 185.945L25.3414 162.036L52.6634 162.036L66.3288 185.945L52.6634 209.853H25.3414Z" fill="#D9D9D9" stroke="#423F3B"/>
<path d="M109.048 161.036L95.3828 137.127L109.048 113.219L136.37 113.219L150.036 137.127L136.37 161.036H109.048Z" fill="#D9D9D9" stroke="#423F3B"/>
<path d="M25.3675 258.655L11.7021 234.747L25.3675 210.838L52.6896 210.838L66.3549 234.747L52.6896 258.655H25.3675Z" fill="#D9D9D9" stroke="#423F3B"/>
<path d="M109.075 209.838L95.4094 185.929L109.075 162.021L136.397 162.021L150.062 185.929L136.397 209.838H109.075Z" fill="#D9D9D9" stroke="#423F3B"/>
<path d="M25.3607 307.46L11.6953 283.552L25.3607 259.643L52.6827 259.643L66.3481 283.552L52.6827 307.46H25.3607Z" fill="#D9D9D9" stroke="#423F3B"/>
<path d="M109.068 258.643L95.4023 234.735L109.068 210.826L136.39 210.826L150.055 234.735L136.39 258.643H109.068Z" fill="#FFBB6B" stroke="#423F3B"/>
<path d="M25.3048 404.996L11.6394 381.088L25.3048 357.179L52.6268 357.179L66.2922 381.088L52.6268 404.996H25.3048Z" fill="#D9D9D9" stroke="#423F3B"/>
<path d="M25.3114 356.191L11.646 332.283L25.3114 308.375L52.6334 308.375L66.2988 332.283L52.6334 356.191H25.3114Z" fill="#FFBB6B" stroke="#423F3B"/>
<path d="M109.019 307.374L95.3533 283.466L109.019 259.557L136.341 259.557L150.006 283.466L136.341 307.374H109.019Z" fill="#D9D9D9" stroke="#423F3B"/>
<path d="M67.1583 380.588L53.4929 356.679L67.1583 332.771L94.4803 332.771L108.146 356.679L94.4803 380.588H67.1583Z" fill="#D9D9D9" stroke="#423F3B"/>
<path d="M109.012 356.179L95.3464 332.271L109.012 308.362L136.334 308.362L149.999 332.271L136.334 356.179H109.012Z" fill="#D9D9D9" stroke="#423F3B"/>
<path d="M150.865 331.771L137.2 307.863L150.865 283.954L178.187 283.954L191.853 307.863L178.187 331.771H150.865Z" fill="#FFBB6B" stroke="#423F3B"/>
<path d="M25.304 453.814L11.6387 429.906L25.304 405.997L52.6261 405.997L66.2915 429.906L52.6261 453.814H25.304Z" fill="#D9D9D9" stroke="#423F3B"/>
<path d="M109.004 453.802L95.3386 429.894L109.004 405.985L136.326 405.985L149.991 429.894L136.326 453.802H109.004Z" fill="#FFBB6B" stroke="#423F3B"/>
<path d="M150.858 429.394L137.192 405.485L150.858 381.577L178.18 381.577L191.845 405.485L178.18 429.394H150.858Z" fill="#D9D9D9" stroke="#423F3B"/>
<path d="M108.948 551.339L95.2829 527.43L108.948 503.522L136.27 503.522L149.936 527.43L136.27 551.339H108.948Z" fill="#D9D9D9" stroke="#423F3B"/>
<path d="M136.278 454.718L108.952 454.718L95.2886 478.623L108.954 502.532L136.28 502.532L149.944 478.627L136.278 454.718Z" fill="#D9D9D9" stroke="#423F3B"/>
<path d="M150.809 478.125L137.143 454.216L150.809 430.308L178.131 430.308L191.796 454.216L178.131 478.125H150.809Z" fill="#D9D9D9" stroke="#423F3B"/>
<path d="M150.802 526.93L137.136 503.022L150.802 479.113L178.124 479.113L191.789 503.022L178.124 526.93H150.802Z" fill="#D9D9D9" stroke="#423F3B"/>
<path d="M108.974 600.141L95.3091 576.232L108.974 552.324L136.297 552.324L149.962 576.232L136.297 600.141H108.974Z" fill="#D9D9D9" stroke="#423F3B"/>
<path d="M25.2606 697.763L11.5952 673.854L25.2606 649.946L52.5826 649.946L66.248 673.854L52.5826 697.763H25.2606Z" fill="#FFBB6B" stroke="#423F3B"/>
<path d="M108.968 648.946L95.3022 625.037L108.968 601.129L136.29 601.129L149.955 625.037L136.29 648.946H108.968Z" fill="#FFBB6B" stroke="#423F3B"/>
<path d="M150.821 624.537L137.156 600.629L150.821 576.72L178.143 576.72L191.809 600.629L178.143 624.537H150.821Z" fill="#FFBB6B" stroke="#423F3B"/>
<path d="M150.828 575.732L137.163 551.824L150.828 527.915L178.15 527.915L191.815 551.824L178.15 575.732H150.828Z" fill="#D9D9D9" stroke="#423F3B"/>
<path d="M67.0653 722.085L53.3999 698.177L67.0653 674.268L94.3873 674.268L108.053 698.177L94.3873 722.085H67.0653Z" fill="#D9D9D9" stroke="#423F3B"/>
<path d="M150.772 673.268L137.107 649.36L150.772 625.451L178.094 625.451L191.759 649.36L178.094 673.268H150.772Z" fill="#D9D9D9" stroke="#423F3B"/>
<path d="M108.629 649.36L94.6775 673.768L108.629 698.177H136.531L150.482 673.768L136.531 649.36L108.629 649.36Z" fill="#D9D9D9"/>
<path d="M108.629 649.36L94.6775 673.768L108.629 698.177H136.531L150.482 673.768L136.531 649.36L108.629 649.36Z" fill="#D9D9D9"/>
<path d="M108.629 649.36L94.6775 673.768L108.629 698.177H136.531L150.482 673.768L136.531 649.36L108.629 649.36Z" stroke="#423F3B"/>
<path d="M150.475 673.757L136.524 698.165L150.475 722.574H178.377L192.329 698.165L178.377 673.757L150.475 673.757Z" fill="#FFBB6B"/>
<path d="M150.475 673.757L136.524 698.165L150.475 722.574H178.377L192.329 698.165L178.377 673.757L150.475 673.757Z" fill="#FFBB6B"/>
<path d="M150.475 673.757L136.524 698.165L150.475 722.574H178.377L192.329 698.165L178.377 673.757L150.475 673.757Z" stroke="#423F3B"/>
<path d="M387.567 454.307L401.518 478.715L387.567 503.124H359.665L345.714 478.715L359.665 454.307L387.567 454.307Z" fill="#D9D9D9"/>
<path d="M387.567 454.307L401.518 478.715L387.567 503.124H359.665L345.714 478.715L359.665 454.307L387.567 454.307Z" fill="#D9D9D9"/>
<path d="M387.567 454.307L401.518 478.715L387.567 503.124H359.665L345.714 478.715L359.665 454.307L387.567 454.307Z" stroke="#423F3B"/>
<path d="M387.616 503.038L401.567 527.447L387.616 551.855H359.714L345.762 527.447L359.714 503.038L387.616 503.038Z" fill="#FFBB6B"/>
<path d="M387.616 503.038L401.567 527.447L387.616 551.855H359.714L345.762 527.447L359.714 503.038L387.616 503.038Z" fill="#FFBB6B"/>
<path d="M387.616 503.038L401.567 527.447L387.616 551.855H359.714L345.762 527.447L359.714 503.038L387.616 503.038Z" fill="#FFBB6B"/>
<path d="M387.616 503.038L401.567 527.447L387.616 551.855H359.714L345.762 527.447L359.714 503.038L387.616 503.038Z" stroke="#423F3B"/>
<path d="M387.623 551.843L401.574 576.252L387.623 600.66H359.72L345.769 576.252L359.72 551.843L387.623 551.843Z" fill="#D9D9D9"/>
<path d="M387.623 551.843L401.574 576.252L387.623 600.66H359.72L345.769 576.252L359.72 551.843L387.623 551.843Z" fill="#D9D9D9"/>
<path d="M387.623 551.843L401.574 576.252L387.623 600.66H359.72L345.769 576.252L359.72 551.843L387.623 551.843Z" fill="#D9D9D9"/>
<path d="M387.623 551.843L401.574 576.252L387.623 600.66H359.72L345.769 576.252L359.72 551.843L387.623 551.843Z" stroke="#423F3B"/>
<path d="M387.596 600.645L401.548 625.054L387.596 649.462H359.694L345.743 625.054L359.694 600.645L387.596 600.645Z" fill="#D9D9D9"/>
<path d="M387.596 600.645L401.548 625.054L387.596 649.462H359.694L345.743 625.054L359.694 600.645L387.596 600.645Z" fill="#D9D9D9"/>
<path d="M387.596 600.645L401.548 625.054L387.596 649.462H359.694L345.743 625.054L359.694 600.645L387.596 600.645Z" fill="#D9D9D9"/>
<path d="M387.596 600.645L401.548 625.054L387.596 649.462H359.694L345.743 625.054L359.694 600.645L387.596 600.645Z" stroke="#423F3B"/>
<path d="M387.604 649.45L401.555 673.859L387.604 698.267H359.701L345.75 673.859L359.701 649.45L387.604 649.45Z" fill="#D9D9D9"/>
<path d="M387.604 649.45L401.555 673.859L387.604 698.267H359.701L345.75 673.859L359.701 649.45L387.604 649.45Z" fill="#D9D9D9"/>
<path d="M387.604 649.45L401.555 673.859L387.604 698.267H359.701L345.75 673.859L359.701 649.45L387.604 649.45Z" fill="#D9D9D9"/>
<path d="M387.604 649.45L401.555 673.859L387.604 698.267H359.701L345.75 673.859L359.701 649.45L387.604 649.45Z" stroke="#423F3B"/>
<path d="M303.946 649.365L317.897 673.773L303.946 698.182H276.043L262.092 673.773L276.043 649.365L303.946 649.365Z" fill="#D9D9D9"/>
<path d="M303.946 649.365L317.897 673.773L303.946 698.182H276.043L262.092 673.773L276.043 649.365L303.946 649.365Z" fill="#D9D9D9"/>
<path d="M303.946 649.365L317.897 673.773L303.946 698.182H276.043L262.092 673.773L276.043 649.365L303.946 649.365Z" fill="#D9D9D9"/>
<path d="M303.946 649.365L317.897 673.773L303.946 698.182H276.043L262.092 673.773L276.043 649.365L303.946 649.365Z" stroke="#423F3B"/>
<path d="M220.245 649.353L234.196 673.761L220.245 698.17H192.343L178.392 673.761L192.343 649.353L220.245 649.353Z" fill="#D9D9D9"/>
<path d="M220.245 649.353L234.196 673.761L220.245 698.17H192.343L178.392 673.761L192.343 649.353L220.245 649.353Z" fill="#D9D9D9"/>
<path d="M220.245 649.353L234.196 673.761L220.245 698.17H192.343L178.392 673.761L192.343 649.353L220.245 649.353Z" fill="#D9D9D9"/>
<path d="M220.245 649.353L234.196 673.761L220.245 698.17H192.343L178.392 673.761L192.343 649.353L220.245 649.353Z" stroke="#423F3B"/>
<path d="M25.0068 454.302L11.0557 478.711L25.0068 503.119H52.9091L66.8603 478.711L52.9091 454.302L25.0068 454.302Z" fill="#FFBB6B"/>
<path d="M25.0068 454.302L11.0557 478.711L25.0068 503.119H52.9091L66.8603 478.711L52.9091 454.302L25.0068 454.302Z" fill="#FFBB6B"/>
<path d="M25.0068 454.302L11.0557 478.711L25.0068 503.119H52.9091L66.8603 478.711L52.9091 454.302L25.0068 454.302Z" stroke="#423F3B"/>
<path d="M108.955 502.533L95.2898 478.625L108.955 454.716L136.277 454.716L149.943 478.625L136.277 502.533H108.955Z" fill="#FFBB6B" stroke="#423F3B"/>
<path d="M24.958 503.034L11.0068 527.442L24.958 551.851H52.8603L66.8115 527.442L52.8603 503.034L24.958 503.034Z" fill="#D9D9D9"/>
<path d="M24.958 503.034L11.0068 527.442L24.958 551.851H52.8603L66.8115 527.442L52.8603 503.034L24.958 503.034Z" fill="#D9D9D9"/>
<path d="M24.958 503.034L11.0068 527.442L24.958 551.851H52.8603L66.8115 527.442L52.8603 503.034L24.958 503.034Z" fill="#D9D9D9"/>
<path d="M24.958 503.034L11.0068 527.442L24.958 551.851H52.8603L66.8115 527.442L52.8603 503.034L24.958 503.034Z" fill="#D9D9D9"/>
<path d="M24.958 503.034L11.0068 527.442L24.958 551.851H52.8603L66.8115 527.442L52.8603 503.034L24.958 503.034Z" stroke="#423F3B"/>
<path d="M24.9512 551.839L11 576.247L24.9512 600.655H52.8535L66.8046 576.247L52.8535 551.839L24.9512 551.839Z" fill="#D9D9D9"/>
<path d="M24.9512 551.839L11 576.247L24.9512 600.655H52.8535L66.8046 576.247L52.8535 551.839L24.9512 551.839Z" fill="#D9D9D9"/>
<path d="M24.9512 551.839L11 576.247L24.9512 600.655H52.8535L66.8046 576.247L52.8535 551.839L24.9512 551.839Z" fill="#D9D9D9"/>
<path d="M24.9512 551.839L11 576.247L24.9512 600.655H52.8535L66.8046 576.247L52.8535 551.839L24.9512 551.839Z" fill="#D9D9D9"/>
<path d="M24.9512 551.839L11 576.247L24.9512 600.655H52.8535L66.8046 576.247L52.8535 551.839L24.9512 551.839Z" stroke="#423F3B"/>
<path d="M24.9773 600.641L11.0261 625.049L24.9773 649.458H52.8796L66.8308 625.049L52.8796 600.641L24.9773 600.641Z" fill="#D9D9D9"/>
<path d="M24.9773 600.641L11.0261 625.049L24.9773 649.458H52.8796L66.8308 625.049L52.8796 600.641L24.9773 600.641Z" fill="#D9D9D9"/>
<path d="M24.9773 600.641L11.0261 625.049L24.9773 649.458H52.8796L66.8308 625.049L52.8796 600.641L24.9773 600.641Z" fill="#D9D9D9"/>
<path d="M24.9773 600.641L11.0261 625.049L24.9773 649.458H52.8796L66.8308 625.049L52.8796 600.641L24.9773 600.641Z" fill="#D9D9D9"/>
<path d="M24.9773 600.641L11.0261 625.049L24.9773 649.458H52.8796L66.8308 625.049L52.8796 600.641L24.9773 600.641Z" stroke="#423F3B"/>
<path d="M182.432 158.418C173.93 149.618 172.693 136.212 164.924 127.053C163.268 125.1 163.151 121.99 161.753 119.86C160.214 117.518 157.612 115.501 155.409 113.791C150.854 110.257 147.082 106.579 144.01 101.658C137.086 90.561 134.653 90.176 129.411 78.1202C126.885 72.3113 126.718 67.2043 123 62C114.138 62 106.046 60.43 105.5 53.4201C110.5 53.4201 112 53.4199 115.5 53.42C119 54.5 119 56.5 123 55.5C126.437 59.5002 131.928 57.6379 132.5 63C133.557 72.901 139.649 69.2436 145.628 76.2802C149.093 80.3568 149.747 85.1865 155.29 86.0029C160.106 86.7131 163.022 91.0438 165.386 94.8302C168.233 99.3896 172.25 97.6337 176.962 98.337C181.532 99.0199 183.483 102.573 186.116 105.958C186.541 103.863 191.895 104.097 192.116 101.658C192.566 96.6788 188.43 78.3404 190 74.5C192.339 68.7787 196.5 67.0928 200.581 67.0928C204.546 67.0928 211.141 68.4551 214.5 74.5C217.556 80 211.616 96.4579 207.616 100.458C207.676 102.786 210.637 102.861 210.475 104.437C214.005 102.022 217.428 99.3244 221.259 97.4106C224.712 95.6858 231.235 98.0817 233.905 95.6479C237.207 92.6382 240.35 89.9378 244.473 88.1546C249.439 86.0072 252.148 87.4562 254.869 82.012C258.816 74.1192 266.174 67.2994 271.714 60.5125C274.857 56.664 278.353 55.7991 283.616 53.42C289.5 53.42 289.5 53.42 296.5 53.42C296.5 57.3835 290.42 55.6715 288 59.0001C285.159 62.9083 280.639 60.5504 277.529 64.079C271.885 70.4806 272.742 82.4172 267.627 89.7228C265.106 93.3241 261.536 95.7175 259.662 99.6835C258.413 102.33 253.932 106.774 251.611 108.771C248.188 111.714 244.883 115.122 241.179 117.702C237.03 120.591 232.635 122.159 231.441 127.142C228.998 137.338 225.794 146.602 221.838 156.313C218.564 164.348 228.374 170.585 226.401 179.094C224.945 185.374 224.524 186.647 227.533 192.328C229.477 195.998 228.362 203.2 228.443 207.132C228.622 215.803 224.411 223.944 225.547 232.849C225.931 235.868 235.641 263.462 230.102 263.462C224.506 263.462 219.178 263.21 213.782 264.796C206.411 266.963 207.338 258.989 210.009 255.19C212.364 251.841 212.058 244.345 213.366 240.202C214.906 235.327 214.931 229.318 212.666 224.476C209.928 218.621 207.694 213.025 205.673 206.888C204.916 204.591 205.02 201.958 205.304 199.573C205.732 195.984 204.795 194.809 202.995 191.6C200.387 195.512 198.008 198.86 196.494 203.29C195.782 205.374 194.552 206.807 192.999 208.288C191.73 209.496 195.522 212.405 196.708 213.59C200.002 216.885 199.033 219.978 201.29 223.501C202.535 225.443 203.688 228.19 205.332 229.81C207.284 231.733 209.632 230.97 211.174 234.131C213.667 239.243 210.542 241.032 207.902 244.532C204.523 249.012 205.27 254.232 204.997 259.631C204.745 264.634 198.767 263.444 195.516 263.81C191.01 264.316 187.846 266.893 185.076 262.337C183.998 260.561 191.263 256.096 191.549 253.463C192.107 248.327 192.572 243.578 194.136 238.656C195.908 233.075 194.572 233.37 189.782 230.09C185.569 227.203 181.135 222.812 176.034 221.897C168.633 220.572 171.884 201.568 172.688 196.367C174.046 187.587 178.967 179.557 183.423 172.03C186.357 167.08 184.218 163.616 182.432 158.418Z" fill="#FF6666"/>
</svg>
